<?xml version="1.0" encoding="UTF-8"?>
<svg version="1.1" xmlns="http://www.w3.org/2000/svg" width="1520" height="1521">
<path d="M0 0 C0 501.93 0 1003.86 0 1521 C-16.21482891 1519.84179793 -16.21482891 1519.84179793 -22.5546875 1518.87109375 C-23.29124069 1518.76138748 -24.02779388 1518.65168121 -24.78666687 1518.53865051 C-27.15104079 1518.18114626 -29.51321466 1517.81170938 -31.875 1517.4375 C-33.10922195 1517.24250916 -33.10922195 1517.24250916 -34.36837769 1517.0435791 C-78.79609372 1509.93753815 -120.96822985 1495.52748442 -160 1473 C-160.88091309 1472.49291504 -161.76182617 1471.98583008 -162.66943359 1471.46337891 C-173.52475439 1465.17619752 -183.97738843 1458.54484113 -194 1451 C-194.836521 1450.37762451 -194.836521 1450.37762451 -195.68994141 1449.74267578 C-202.23667002 1444.86497852 -208.49945205 1439.78874663 -214.5 1434.2421875 C-218.17998241 1430.94170327 -222.05860204 1427.89996211 -225.9453125 1424.84765625 C-226.62335938 1424.23792969 -227.30140625 1423.62820313 -228 1423 C-228 1422.34 -228 1421.68 -228 1421 C-228.55042969 1420.77570313 -229.10085938 1420.55140625 -229.66796875 1420.3203125 C-237.61842829 1415.8190473 -244.13066218 1406.91488787 -250 1400 C-250.91310574 1398.94968829 -251.82726175 1397.90028918 -252.7421875 1396.8515625 C-264.34330631 1383.51140146 -274.71826337 1369.36968524 -285 1355 C-285.47453613 1355.35698975 -285.94907227 1355.71397949 -286.43798828 1356.08178711 C-310.04929394 1373.82041945 -333.7874696 1391.22018722 -358.9375 1406.72460938 C-360.98447035 1407.99039691 -363.02380642 1409.26780958 -365.0625 1410.546875 C-378.4189723 1418.87638324 -392.17652807 1426.48053788 -406 1434 C-406.96534668 1434.5273877 -407.93069336 1435.05477539 -408.92529297 1435.59814453 C-436.97554809 1450.8472742 -466.27711464 1463.07575328 -496.1293335 1474.29418945 C-498.72239549 1475.27256294 -501.30802407 1476.27007412 -503.89453125 1477.265625 C-565.45968958 1500.65518492 -632.41039964 1514.23383687 -698 1519 C-698.69663757 1519.05113953 -699.39327515 1519.10227905 -700.11102295 1519.15496826 C-784.65472532 1525.27415435 -868.92518023 1517.63962624 -1134.19921875 1422.60546875 C-1136.90535811 1421.05425079 -1139.62202918 1419.52368123 -1142.34375 1418 C-1174.33708709 1400.0380435 -1204.3452447 1378.87994492 -1233 1356 C-1233.86625 1355.31679687 -1234.7325 1354.63359375 -1235.625 1353.9296875 C-1241.09068739 1349.60268499 -1246.42490374 1345.13517511 -1251.71118164 1340.59179688 C-1254.6703717 1338.02762772 -1254.6703717 1338.02762772 -1258 1336 C-1258 1335.34 -1258 1334.68 -1258 1334 C-1258.59006836 1333.7321167 -1259.18013672 1333.4642334 -1259.78808594 1333.18823242 C-1262.02184458 1331.98826517 -1263.56273425 1330.73387987 -1265.390625 1328.98828125 C-1266.01839844 1328.39466797 -1266.64617187 1327.80105469 -1267.29296875 1327.18945312 C-1268.26169922 1326.26036133 -1268.26169922 1326.26036133 -1269.25 1325.3125 C-1270.52480432 1324.09895928 -1271.80084997 1322.88672123 -1273.078125 1321.67578125 C-1273.73111572 1321.05662842 -1274.38410645 1320.43747559 -1275.05688477 1319.79956055 C-1276.84839941 1318.14040054 -1278.68091647 1316.55551634 -1280.54296875 1314.9765625 C-1286.66557825 1309.66081429 -1292.31518157 1303.83324841 -1298.03637695 1298.09399414 C-1300.05764268 1296.0673702 -1302.08419574 1294.04614453 -1304.11132812 1292.02539062 C-1315.55217731 1280.59044296 -1315.55217731 1280.59044296 -1320.5690918 1274.67602539 C-1323.06667847 1271.75059756 -1325.73638973 1268.98516971 -1328.375 1266.1875 C-1333.85459791 1260.32520498 -1338.98834157 1254.26873554 -1344 1248 C-1344.96962354 1246.82019014 -1345.94109711 1245.64189917 -1346.9140625 1244.46484375 C-1354.95447574 1234.71259257 -1362.59743222 1224.69612729 -1370.11816406 1214.5390625 C-1371.97636671 1212.03188715 -1373.84294484 1209.53113642 -1375.7109375 1207.03125 C-1382.78198191 1197.54103892 -1389.57701084 1187.93929177 -1396 1178 C-1396.50966309 1177.21882813 -1397.01932617 1176.43765625 -1397.54443359 1175.6328125 C-1409.6718479 1157.02479999 -1420.760398 1137.84683472 -1431.4375 1118.375 C-1431.88496582 1117.5603125 -1432.33243164 1116.745625 -1432.79345703 1115.90625 C-1448.98622963 1086.08153312 -1462.28904186 1054.82087865 -1474 1023 C-1474.39478546 1021.92809418 -1474.39478546 1021.92809418 -1474.79754639 1020.83453369 C-1498.53030449 956.15098923 -1512.51598352 888.41814146 -1518.1875 819.8125 C-1518.29529785 818.50877441 -1518.29529785 818.50877441 -1518.40527344 817.17871094 C-1519.84604797 798.04100827 -1520.20666747 778.87218338 -1520.1875 759.6875 C-1520.18689575 758.55625702 -1520.1862915 757.42501404 -1520.18566895 756.25949097 C-1520.15807805 737.10484809 -1519.69296517 718.08244147 -1518 699 C-1517.90525391 697.92537506 -1517.90525391 697.92537506 -1517.80859375 696.82904053 C-1512.48372864 637.22611561 -1500.33800388 578.92528752 -1482 522 C-1481.77699219 521.30692749 -1481.55398438 520.61385498 -1481.32421875 519.89978027 C-1471.13454899 488.33615432 -1458.42349886 457.85817472 -1444 428 C-1443.4652002 426.89188965 -1442.93040039 425.7837793 -1442.37939453 424.64208984 C-1434.83019433 409.08788013 -1426.73407778 393.91978387 -1418 379 C-1417.40429199 377.98019043 -1416.80858398 376.96038086 -1416.19482422 375.90966797 C-1395.24719036 340.18455089 -1371.49338788 305.3646913 -1344.33276367 274.03344727 C-1341.37427908 270.62010585 -1338.50278827 267.15863574 -1335.6875 263.625 C-1330.65652076 257.42529963 -1325.16177373 251.68077922 -1319.671875 245.890625 C-1316.68796117 242.74245904 -1313.77171453 239.54132193 -1310.875 236.3125 C-1305.51601905 230.44429462 -1299.92385733 224.8135786 -1294.3125 219.1875 C-1293.42095215 218.29135986 -1292.5294043 217.39521973 -1291.61083984 216.47192383 C-1287.15711786 212.02856705 -1282.64779056 207.72684017 -1277.87426758 203.62915039 C-1274.72284602 200.88987254 -1271.71767202 197.99677117 -1268.6875 195.125 C-1263.52550214 190.27098043 -1258.27351594 185.62788255 -1252.734375 181.203125 C-1250.20728394 179.16701163 -1247.73491141 177.08264915 -1245.27075195 174.97167969 C-1238.92242955 169.53591097 -1232.42282599 164.3523816 -1225.74951172 159.31982422 C-1223.9037503 157.92738963 -1222.06324708 156.52816669 -1220.22265625 155.12890625 C-1182.7112667 126.70427123 -1142.91927144 102.34009681 -1101 81 C-1099.78691162 80.3810083 -1099.78691162 80.3810083 -1098.54931641 79.74951172 C-1094.68604023 77.78241868 -1090.81095987 75.84214039 -1086.91650391 73.9375 C-1085.58654791 73.2869228 -1084.25820499 72.63304169 -1082.93115234 71.9765625 C-1068.59386438 64.90311321 -1053.8887359 58.81174298 -1039 53 C-1038.33897278 52.74178467 -1037.67794556 52.48356934 -1036.99688721 52.2175293 C-971.58986922 26.73412358 -903.44463783 11.10949874 -833.6875 3.6875 C-832.92710419 3.60600708 -832.16670837 3.52451416 -831.38327026 3.44055176 C-807.87958528 0.95625301 -784.4241098 0.75571781 -760.8125 0.75 C-759.55866264 0.74933722 -759.55866264 0.74933722 -758.27949524 0.74866104 C-733.49912679 0.74179809 -708.86292004 0.94631056 -684.21173096 3.75 C-681.90882054 4.01030635 -679.60477349 4.25791208 -677.30029297 4.50390625 C-603.91653151 12.43539952 -531.92612411 31.156218 -464 60 C-462.96746094 60.43779785 -461.93492188 60.8755957 -460.87109375 61.32666016 C-435.9626353 71.9505428 -411.56585417 83.65057987 -388 97 C-386.93587891 97.59989746 -385.87175781 98.19979492 -384.77539062 98.81787109 C-372.6274531 105.68219182 -360.61010585 112.61208552 -349.12841797 120.54638672 C-345.48793905 123.03266929 -341.80342665 125.45264829 -338.12744141 127.88598633 C-328.28320833 134.40988149 -318.49926282 140.9808004 -309 148 C-308.3296875 148.49516113 -307.659375 148.99032227 -306.96875 149.50048828 C-304.80919335 151.10010554 -302.65350512 152.70474618 -300.5 154.3125 C-299.84064453 154.80459961 -299.18128906 155.29669922 -298.50195312 155.80371094 C-295.50143078 158.05947723 -292.567119 160.3471248 -289.71875 162.79296875 C-287.14449104 165.14761344 -287.14449104 165.14761344 -284 166 C-283.75894531 165.46890625 -283.51789063 164.9378125 -283.26953125 164.390625 C-281.64683302 161.3349594 -279.69841288 158.5570557 -277.6875 155.75 C-277.25381104 155.14373779 -276.82012207 154.53747559 -276.37329102 153.9128418 C-271.35566535 146.98835962 -265.93675104 140.3998701 -260.48828125 133.81298828 C-259.17304204 132.21079564 -257.88152347 130.58919437 -256.59375 128.96484375 C-250.88187784 121.77326558 -244.56382078 115.39880852 -238 109 C-235.33091492 106.34775457 -232.68246043 103.67741842 -230.0546875 100.984375 C-223.3713302 94.16365972 -216.51224239 87.91325104 -209 82 C-207.86913721 81.07008257 -206.74033909 80.13765038 -205.61328125 79.203125 C-196.18028277 71.4272749 -186.3273774 64.53396584 -176 58 C-175.08492676 57.41847168 -174.16985352 56.83694336 -173.22705078 56.23779297 C-148.46445158 40.62252533 -122.75167393 28.3379355 -95 19 C-94.01870117 18.66919434 -93.03740234 18.33838867 -92.02636719 17.99755859 C-69.67209956 10.58279897 -46.87046225 6.10951404 -23.625 2.625 C-22.73539581 2.49149139 -21.84579163 2.35798279 -20.92922974 2.22042847 C-18.38332543 1.84158085 -15.83653471 1.46970699 -13.2890625 1.1015625 C-12.14389915 0.93330208 -12.14389915 0.93330208 -10.9756012 0.76164246 C-7.24150247 0.23362983 -3.79171833 0 0 0 Z M-1028 439 C-1028.60827637 439.50917969 -1029.21655273 440.01835937 -1029.84326172 440.54296875 C-1033.93716146 443.98162354 -1037.9866332 447.46771967 -1042 451 C-1042.53689453 451.47228027 -1043.07378906 451.94456055 -1043.62695312 452.43115234 C-1053.00643745 460.74219601 -1061.54425408 469.76075838 -1070 479 C-1070.86882812 479.94230469 -1071.73765625 480.88460937 -1072.6328125 481.85546875 C-1077.98411508 487.71952681 -1083.0743573 493.77502266 -1088 500 C-1088.72727295 500.91845703 -1088.72727295 500.91845703 -1089.46923828 501.85546875 C-1140.71632726 566.92504977 -1169.98075939 644.96436544 -1178 727 C-1178.08475586 727.8362793 -1178.16951172 728.67255859 -1178.25683594 729.53417969 C-1178.72215609 734.35436211 -1178.91238571 739.16113574 -1179 744 C-1179.02578125 745.12760742 -1179.0515625 746.25521484 -1179.078125 747.41699219 C-1179.90656253 788.64211481 -1175.70861727 829.09512936 -1165 869 C-1164.71286133 870.07282227 -1164.42572266 871.14564453 -1164.12988281 872.25097656 C-1159.29875504 890.00341255 -1153.04116686 907.01346261 -1146 924 C-1145.49919922 925.22348145 -1145.49919922 925.22348145 -1144.98828125 926.47167969 C-1140.37743817 937.69173342 -1134.78136167 948.34484136 -1129 959 C-1128.5884668 959.76634766 -1128.17693359 960.53269531 -1127.75292969 961.32226562 C-1121.69985653 972.58223173 -1115.12641545 983.38795417 -1108 994 C-1107.60425781 994.59151855 -1107.20851563 995.18303711 -1106.80078125 995.79248047 C-1101.19954957 1004.12980868 -1095.19882851 1012.1050751 -1089 1020 C-1088.33226562 1020.86367188 -1087.66453125 1021.72734375 -1086.9765625 1022.6171875 C-1082.51352783 1028.318942 -1077.74198794 1033.65272616 -1072.80859375 1038.9453125 C-1070.76064691 1041.14683711 -1068.78989556 1043.40173915 -1066.83203125 1045.68359375 C-1062.6445221 1050.48689632 -1058.18187268 1055.00420201 -1053.67675781 1059.50854492 C-1052.26080053 1060.92668284 -1050.85301711 1062.35296665 -1049.4453125 1063.77929688 C-1044.01778524 1069.21816298 -1038.43544044 1074.25691459 -1032.43359375 1079.05444336 C-1030.47529802 1080.62001907 -1028.56393495 1082.21060878 -1026.6796875 1083.86328125 C-1018.2284135 1091.24343278 -1009.26158526 1097.67947041 -1000 1104 C-999.27119629 1104.50176758 -998.54239258 1105.00353516 -997.79150391 1105.52050781 C-918.08615629 1160.30142076 -821.39187621 1186.06097951 -705 1176 C-703.93201172 1175.86078125 -702.86402344 1175.7215625 -701.76367188 1175.578125 C-636.83942551 1166.8947583 -570.47830936 1141.69242944 -518 1102 C-516.53957358 1100.93890623 -515.07713792 1099.88057521 -513.61328125 1098.82421875 C-500.49219179 1089.3258803 -488.28986329 1079.14625266 -476.40234375 1068.15625 C-474.77442738 1066.69509579 -473.09674127 1065.2878929 -471.37890625 1063.93359375 C-469.29255545 1062.23779137 -467.69476647 1060.6302993 -466 1058.5625 C-462.7321404 1054.72383522 -459.22044286 1051.21325373 -455.625 1047.6875 C-450.80285376 1042.93045308 -446.36696665 1038.03163633 -442.15625 1032.71484375 C-439.93626808 1029.91975782 -437.63100615 1027.21370606 -435.3125 1024.5 C-424.14709542 1011.09804699 -414.21297179 996.79792366 -405 982 C-404.62069336 981.39833008 -404.24138672 980.79666016 -403.85058594 980.17675781 C-396.51400295 968.50932849 -390.21853178 956.29069451 -384 944 C-383.59249512 943.20110352 -383.18499023 942.40220703 -382.76513672 941.57910156 C-364.12985378 904.78575163 -352.60644194 864.12141918 -346.1875 823.5 C-345.89516479 821.66187744 -345.89516479 821.66187744 -345.59692383 819.78662109 C-342.77116584 800.94906474 -341.64425518 782.22435119 -341.75 763.1875 C-341.75310181 762.18430725 -341.75620361 761.1811145 -341.75939941 760.14752197 C-341.81410766 745.014078 -342.14660082 730.03620451 -344 715 C-344.12890625 713.91799316 -344.2578125 712.83598633 -344.390625 711.72119141 C-354.76454326 626.8447699 -390.24965732 547.00726804 -447 483 C-447.82242188 482.06542969 -448.64484375 481.13085938 -449.4921875 480.16796875 C-455.5117179 473.46397461 -461.829857 467.06948846 -468.1875 460.6875 C-469.03119141 459.83913574 -469.87488281 458.99077148 -470.74414062 458.11669922 C-475.66794421 453.20546622 -480.6961218 448.4976945 -486 444 C-487.45986328 442.75283203 -487.45986328 442.75283203 -488.94921875 441.48046875 C-514.97061798 419.69079493 -542.84287911 401.55870912 -573 386 C-574.35714111 385.29979736 -574.35714111 385.29979736 -575.74169922 384.58544922 C-622.56257846 360.72523703 -674.90695409 347.92138082 -727 343 C-728.11930908 342.89196045 -728.11930908 342.89196045 -729.26123047 342.78173828 C-827.47927467 333.81390039 -931.55984071 365.08209692 -1028 439 Z " fill="#099DFD" transform="translate(1520,0)"/>
</svg>
