<?xml version="1.0" encoding="UTF-8"?>
<svg version="1.1" xmlns="http://www.w3.org/2000/svg" width="225" height="225">
<path d="M0 0 C2.95311939 1.31095495 4.82764609 2.6341028 6.91796875 5.08984375 C7.70905029 6.01047607 7.70905029 6.01047607 8.51611328 6.94970703 C9.34344971 7.93366455 9.34344971 7.93366455 10.1875 8.9375 C10.76483887 9.61409668 11.34217773 10.29069336 11.93701172 10.98779297 C15.94220028 15.6974845 19.87585169 20.46409962 23.765625 25.26953125 C26.26158819 28.31966808 28.8154731 31.31578405 31.375 34.3125 C35.68148858 39.36454472 39.8103811 44.53273456 43.87890625 49.77758789 C46.51350491 53.15806531 49.2160051 56.45315096 52.02416992 59.69067383 C72.64328901 83.49228482 88.82479431 110.29569589 86.75390625 142.87109375 C84.4846821 162.16953986 77.90462697 179.40385745 65 194 C64.54496094 194.59683594 64.08992187 195.19367188 63.62109375 195.80859375 C55.52268243 206.27609256 41.37469526 215.71010564 29 220 C28.01 220 27.02 220 26 220 C25.67 220.66 25.34 221.32 25 222 C3.01682141 229.70471533 -23.68205753 226.28179625 -44.3125 216.375 C-66.51438887 204.93248805 -82.16183876 185.51448371 -90 162 C-95.64005964 143.6642767 -95.0849318 124.66484002 -89.1875 106.5 C-88.951521 105.77047119 -88.71554199 105.04094238 -88.47241211 104.28930664 C-84.04798454 91.56925937 -84.04798454 91.56925937 -78.6328125 88.78125 C-77.80523437 88.6884375 -76.97765625 88.595625 -76.125 88.5 C-75.17109375 88.39171875 -74.2171875 88.2834375 -73.234375 88.171875 C-63.86563944 87.67401949 -55.08813256 87.44894525 -46 90 C-46.03222656 88.68773438 -46.06445312 87.37546875 -46.09765625 86.0234375 C-46.09131022 81.37995361 -45.48141398 77.13905634 -44.4375 72.625 C-44.26186523 71.85897461 -44.08623047 71.09294922 -43.90527344 70.30371094 C-37.24235227 42.72257675 -22.29181157 17.83344926 0 0 Z " fill="#DC2D02" transform="translate(116,0)"/>
<path d="M0 0 C17.849657 -0.49429819 35.20199372 5.61054051 48.8125 17.3046875 C57.26606175 25.4149574 62.94359275 34.41188836 67.37109375 45.20703125 C67.72300781 46.04878906 68.07492188 46.89054687 68.4375 47.7578125 C74.21698299 62.91988713 72.04571786 79.85815628 65.9921875 94.5546875 C65.13493681 96.40840052 64.24982504 98.24976761 63.32421875 100.0703125 C62.16740507 102.27371769 62.16740507 102.27371769 62.37109375 105.20703125 C64.18651304 106.90305535 65.94754976 108.35916735 67.93359375 109.83203125 C68.79911865 110.48473999 68.79911865 110.48473999 69.68212891 111.15063477 C79.19901731 118.18457997 90.45794135 126.40200816 102.37109375 128.20703125 C100.11590155 130.46222345 98.36633505 131.18426593 95.37109375 132.20703125 C94.38109375 132.20703125 93.39109375 132.20703125 92.37109375 132.20703125 C92.04109375 132.86703125 91.71109375 133.52703125 91.37109375 134.20703125 C69.38791516 141.91174658 42.68903622 138.4888275 22.05859375 128.58203125 C-0.14329512 117.1395193 -15.79074501 97.72151496 -23.62890625 74.20703125 C-29.26896589 55.87130795 -28.71383805 36.87187127 -22.81640625 18.70703125 C-22.58042725 17.97750244 -22.34444824 17.24797363 -22.10131836 16.49633789 C-17.67689079 3.77629062 -17.67689079 3.77629062 -12.26171875 0.98828125 C-8.17069019 0.52947431 -4.11063967 0.23451443 0 0 Z " fill="#FDC301" transform="translate(49.62890625,87.79296875)"/>
<path d="M0 0 C16.3308435 2.95642588 29.18055514 13.31199339 39.1796875 26.24609375 C42.44615447 31.18785172 44.75132136 36.53585414 47 42 C47.54140625 43.29357422 47.54140625 43.29357422 48.09375 44.61328125 C53.84423517 59.75787796 51.66451116 76.67567688 45.62109375 91.34765625 C44.76384306 93.20136927 43.87873129 95.04273636 42.953125 96.86328125 C41.79631132 99.06668644 41.79631132 99.06668644 42 102 C43.81541929 103.6960241 45.57645601 105.1521361 47.5625 106.625 C48.1395166 107.06013916 48.7165332 107.49527832 49.31103516 107.94360352 C58.82792356 114.97754872 70.0868476 123.19497691 82 125 C79.7448078 127.2551922 77.9952413 127.97723468 75 129 C74.01 129 73.02 129 72 129 C71.67 129.66 71.34 130.32 71 131 C61.8010723 134.22406148 52.01333107 134.31534866 42.375 134.375 C40.69688232 134.39554443 40.69688232 134.39554443 38.98486328 134.41650391 C31.25544323 134.37464988 23.242178 133.91421608 16 131 C14.63818359 128.89208984 14.63818359 128.89208984 14 127 C16.73251792 124.09669971 19.43825699 121.62585557 22.6875 119.3125 C28.83304737 114.81747107 34.76768172 109.34847741 39 103 C38.8650578 98.77181114 35.7176906 96.23549872 32.9375 93.375 C28 88.25562756 28 88.25562756 28 86 C27.34 86 26.68 86 26 86 C5.26211105 62.61960997 -0.80091521 30.07881581 0 0 Z " fill="#FE9001" transform="translate(70,91)"/>
<path d="M0 0 C0 0.66 0 1.32 0 2 C-0.98919434 1.99476318 -1.97838867 1.98952637 -2.99755859 1.98413086 C-6.66144916 1.96605477 -10.32533577 1.95455842 -13.98925781 1.94506836 C-15.57617861 1.94003412 -17.16309477 1.93320631 -18.75 1.92456055 C-21.02865749 1.91245518 -23.30725376 1.90676267 -25.5859375 1.90234375 C-26.29744965 1.89718246 -27.00896179 1.89202118 -27.74203491 1.88670349 C-31.49593556 1.82685242 -31.49593556 1.82685242 -35 3 C-35.33 3.99 -35.66 4.98 -36 6 C-36.66 6 -37.32 6 -38 6 C-37.375 3.625 -37.375 3.625 -36 1 C-25.18304101 -3.91679954 -11.19412393 -3.14221023 0 0 Z " fill="#F5D154" transform="translate(70,90)"/>
<path d="M0 0 C4.23091982 2.11545991 6.38196089 4.53161379 9.25 8.125 C9.70890625 8.68832031 10.1678125 9.25164063 10.640625 9.83203125 C11.76674953 11.21622599 12.88424385 12.60743411 14 14 C13.34 14.66 12.68 15.32 12 16 C11.67 15.01 11.34 14.02 11 13 C8.98491642 12.26676204 8.98491642 12.26676204 7 12 C6.34 9.69 5.68 7.38 5 5 C4.46890625 5.23976563 3.9378125 5.47953125 3.390625 5.7265625 C2.68421875 6.02304688 1.9778125 6.31953125 1.25 6.625 C0.55390625 6.92664063 -0.1421875 7.22828125 -0.859375 7.5390625 C-3 8 -3 8 -7 6 C-4.69 4.02 -2.38 2.04 0 0 Z " fill="#D24B31" transform="translate(116,0)"/>
<path d="M0 0 C0.33 0 0.66 0 1 0 C4.3947564 12.88188812 3.60851347 25.26280662 0 38 C-0.33 38 -0.66 38 -1 38 C-1.02689216 36.52093108 -1.04634621 35.04172517 -1.0625 33.5625 C-1.07990234 32.32693359 -1.07990234 32.32693359 -1.09765625 31.06640625 C-1 29 -1 29 0 28 C0.08767112 25.92737924 0.10695873 23.85179706 0.09765625 21.77734375 C0.09443359 20.51728516 0.09121094 19.25722656 0.08789062 17.95898438 C0.07953403 16.61848891 0.07106907 15.27799412 0.0625 13.9375 C0.0574866 12.59310058 0.05292342 11.2486994 0.04882812 9.90429688 C0.03699488 6.60282059 0.02050971 3.30143197 0 0 Z " fill="#FA7413" transform="translate(118,138)"/>
<path d="M0 0 C0.33 0 0.66 0 1 0 C1 11.88 1 23.76 1 36 C1.66 36 2.32 36 3 36 C2.67 38.31 2.34 40.62 2 43 C-4.85222864 31.52179421 -2.28253082 12.52465631 0 0 Z " fill="#F4DB82" transform="translate(24,116)"/>
<path d="M0 0 C2.31 0 4.62 0 7 0 C4.7448078 2.2551922 2.9952413 2.97723468 0 4 C-0.99 4 -1.98 4 -3 4 C-3.33 4.66 -3.66 5.32 -4 6 C-6.42927796 6.64583243 -8.78461099 7.16999412 -11.25 7.625 C-11.91902344 7.7590625 -12.58804688 7.893125 -13.27734375 8.03125 C-16.8962638 8.72801653 -20.31522916 9.15710263 -24 9 C-24 8.34 -24 7.68 -24 7 C-22.27192682 6.66104344 -20.54248026 6.32908475 -18.8125 6 C-17.84957031 5.814375 -16.88664063 5.62875 -15.89453125 5.4375 C-13.2065794 5.03122388 -10.71228981 4.92066428 -8 5 C-8 4.34 -8 3.68 -8 3 C-5.69 3 -3.38 3 -1 3 C-0.67 2.01 -0.34 1.02 0 0 Z " fill="#F1AF5A" transform="translate(145,216)"/>
<path d="M0 0 C2.31 0 4.62 0 7 0 C3.50640535 3.59634744 -0.11098131 6.83451967 -4 10 C-4.66 9.67 -5.32 9.34 -6 9 C-6 8.34 -6 7.68 -6 7 C-5.01 7 -4.02 7 -3 7 C-3 5.68 -3 4.36 -3 3 C-2.34 3 -1.68 3 -1 3 C-0.67 2.01 -0.34 1.02 0 0 Z " fill="#D54B32" transform="translate(170,198)"/>
<path d="M0 0 C1.25691607 4.13884506 0.34684591 7.00590522 -1 11 C-1.26554687 11.80953125 -1.53109375 12.6190625 -1.8046875 13.453125 C-2.52642639 15.63896277 -3.25874708 17.82071641 -4 20 C-4.66 20 -5.32 20 -6 20 C-5.50104522 12.84831485 -2.68436185 6.58708719 0 0 Z " fill="#F6D151" transform="translate(31,96)"/>
<path d="M0 0 C3.3 0 6.6 0 10 0 C10 0.66 10 1.32 10 2 C14.29 2 18.58 2 23 2 C23 2.66 23 3.32 23 4 C14.93489832 4.49155247 7.78273888 3.04937325 0 1 C0 0.67 0 0.34 0 0 Z " fill="#F7AD4B" transform="translate(86,221)"/>
<path d="M0 0 C7.61644202 1.24859705 13.38827536 4.07004031 20 8 C17 9 17 9 14 8 C14 7.34 14 6.68 14 6 C9.70339547 4.84322186 5.45839097 4 1 4 C0.67 2.68 0.34 1.36 0 0 Z " fill="#FD8315" transform="translate(70,91)"/>
<path d="M0 0 C4.21814817 3.9700218 7.61227103 8.30840284 11 13 C8 13 8 13 6.625 11.8125 C6.08875 11.214375 5.5525 10.61625 5 10 C4.113125 9.21625 3.22625 8.4325 2.3125 7.625 C0 5 0 5 -0.3125 2.1875 C-0.209375 1.465625 -0.10625 0.74375 0 0 Z " fill="#D4583F" transform="translate(130,15)"/>
<path d="M0 0 C1.32 0.66 2.64 1.32 4 2 C3.87625 2.721875 3.7525 3.44375 3.625 4.1875 C4.06001831 7.45013736 4.55561151 7.8041996 7 9.8125 C7.99 10.534375 8.98 11.25625 10 12 C9.01 12.33 8.02 12.66 7 13 C7 12.34 7 11.68 7 11 C5.68 11 4.36 11 3 11 C0 4.5 0 4.5 0 0 Z " fill="#FC890C" transform="translate(108,186)"/>
<path d="M0 0 C3.55007718 3.9050849 4.81819916 6.97734643 6 12 C5.01 12.495 5.01 12.495 4 13 C2.5393715 10.35261084 2 9.10551666 2 6 C0.68 5.67 -0.64 5.34 -2 5 C-2 4.01 -2 3.02 -2 2 C-1.34 2 -0.68 2 0 2 C0 1.34 0 0.68 0 0 Z " fill="#D45036" transform="translate(189,90)"/>
<path d="M0 0 C2.31 0 4.62 0 7 0 C7.33 0.99 7.66 1.98 8 3 C10.31 2.34 12.62 1.68 15 1 C14.67 2.65 14.34 4.3 14 6 C12.41375765 5.57316761 10.8310902 5.13303842 9.25 4.6875 C8.36828125 4.44386719 7.4865625 4.20023438 6.578125 3.94921875 C3.94227495 2.97874669 2.14592674 1.78994356 0 0 Z " fill="#F4C049" transform="translate(71,215)"/>
<path d="M0 0 C5.68502535 1.64566523 10.76681636 4.29032784 16 7 C15.01 7.66 14.02 8.32 13 9 C10.3125 8.125 10.3125 8.125 8 7 C8 6.34 8 5.68 8 5 C7.05125 4.690625 6.1025 4.38125 5.125 4.0625 C2 3 2 3 0 2 C0 1.34 0 0.68 0 0 Z " fill="#FD8513" transform="translate(131,208)"/>
<path d="M0 0 C3.14906415 1.41602213 5.49523672 3.13735082 8.0625 5.4375 C8.73410156 6.03433594 9.40570313 6.63117188 10.09765625 7.24609375 C11.7754479 8.79296942 13.40159243 10.37171566 15 12 C14.67 12.66 14.34 13.32 14 14 C12.68412059 12.87895467 11.37239647 11.75303035 10.0625 10.625 C9.33160156 9.99851562 8.60070312 9.37203125 7.84765625 8.7265625 C6 7 6 7 5 5 C4.154375 4.505 3.30875 4.01 2.4375 3.5 C1.633125 3.005 0.82875 2.51 0 2 C0 1.34 0 0.68 0 0 Z " fill="#FE8215" transform="translate(90,100)"/>
<path d="M0 0 C3.59634744 3.49359465 6.83451967 7.11098131 10 11 C9.34 11.66 8.68 12.32 8 13 C7.67 12.01 7.34 11.02 7 10 C6.35546875 9.86722656 5.7109375 9.73445312 5.046875 9.59765625 C4.37140625 9.40042969 3.6959375 9.20320312 3 9 C1.953125 6.93359375 1.953125 6.93359375 1.25 4.4375 C1.00765625 3.61121094 0.7653125 2.78492188 0.515625 1.93359375 C0.34546875 1.29550781 0.1753125 0.65742187 0 0 Z " fill="#D55843" transform="translate(120,3)"/>
<path d="M0 0 C3.23238414 0.07696153 5.33227795 0.37438655 7.734375 2.625 C9.21851673 4.37770071 10.63844334 6.15079362 12 8 C8.21516391 8 7.22592069 6.89417485 4.3125 4.5625 C3.50425781 3.92441406 2.69601563 3.28632813 1.86328125 2.62890625 C1.24839844 2.09136719 0.63351563 1.55382812 0 1 C0 0.67 0 0.34 0 0 Z " fill="#F5CE44" transform="translate(54,203)"/>
<path d="M0 0 C0.66 0 1.32 0 2 0 C2.33 1.65 2.66 3.3 3 5 C3.66 5 4.32 5 5 5 C5.33 8.3 5.66 11.6 6 15 C3.61874536 12.61874536 2.99813759 10.66142433 1.875 7.5 C1.52179687 6.5203125 1.16859375 5.540625 0.8046875 4.53125 C0 2 0 2 0 0 Z " fill="#F6D154" transform="translate(26,160)"/>
<path d="M0 0 C0.33 0 0.66 0 1 0 C1.3690205 14.78132118 1.3690205 14.78132118 -1 21 C-1.33 21 -1.66 21 -2 21 C-2.02689216 19.52093108 -2.04634621 18.04172517 -2.0625 16.5625 C-2.07410156 15.73878906 -2.08570312 14.91507813 -2.09765625 14.06640625 C-2 12 -2 12 -1 11 C-0.76636119 9.15108054 -0.58696365 7.29511969 -0.4375 5.4375 C-0.35371094 4.42558594 -0.26992187 3.41367188 -0.18359375 2.37109375 C-0.12300781 1.58863281 -0.06242187 0.80617187 0 0 Z " fill="#FE8713" transform="translate(119,155)"/>
<path d="M0 0 C2.97 0.495 2.97 0.495 6 1 C6 1.66 6 2.32 6 3 C1.61538462 6 1.61538462 6 -1 6 C-1.33 4.68 -1.66 3.36 -2 2 C-1.34 2 -0.68 2 0 2 C0 1.34 0 0.68 0 0 Z " fill="#D24021" transform="translate(156,208)"/>
<path d="M0 0 C1 3 1 3 0.3125 5.4375 C-1.11858193 8.23151709 -2.6069937 9.98090093 -5 12 C-5.66 12 -6.32 12 -7 12 C-5.44298069 7.32894208 -2.91552627 3.91294315 0 0 Z " fill="#D25841" transform="translate(94,23)"/>
<path d="M0 0 C0.99 0 1.98 0 3 0 C4.32 2.31 5.64 4.62 7 7 C4.03 6.505 4.03 6.505 1 6 C0.67 4.02 0.34 2.04 0 0 Z " fill="#D4452A" transform="translate(178,76)"/>
<path d="M0 0 C0.33 0.99 0.66 1.98 1 3 C1.99 2.67 2.98 2.34 4 2 C3.67 2.99 3.34 3.98 3 5 C1.68 4.67 0.36 4.34 -1 4 C-1 4.66 -1 5.32 -1 6 C-1.99 6 -2.98 6 -4 6 C-4 6.66 -4 7.32 -4 8 C-4.66 8 -5.32 8 -6 8 C-5.67 6.68 -5.34 5.36 -5 4 C-4.01 4 -3.02 4 -2 4 C-1.34 2.68 -0.68 1.36 0 0 Z " fill="#D53713" transform="translate(91,31)"/>
<path d="M0 0 C2.31 0.66 4.62 1.32 7 2 C7.33 3.65 7.66 5.3 8 7 C4.2047869 5.50902342 2.38957269 3.24299151 0 0 Z " fill="#F5D450" transform="translate(46,196)"/>
<path d="M0 0 C4 4.75 4 4.75 4 7 C3.34 7 2.68 7 2 7 C1.67 7.66 1.34 8.32 1 9 C0.34 9 -0.32 9 -1 9 C-0.67 6.03 -0.34 3.06 0 0 Z " fill="#D55032" transform="translate(185,83)"/>
<path d="M0 0 C0.99 0.33 1.98 0.66 3 1 C-0.75 7.875 -0.75 7.875 -3 9 C-3.1875 6.625 -3.1875 6.625 -3 4 C-2.01 3.34 -1.02 2.68 0 2 C0 1.34 0 0.68 0 0 Z " fill="#D2583F" transform="translate(185,183)"/>
<path d="M0 0 C3.3 0 6.6 0 10 0 C10 0.66 10 1.32 10 2 C10.66 2.33 11.32 2.66 12 3 C7.18550592 2.51855059 4.39828259 2.1991413 0 0 Z " fill="#F3B357" transform="translate(86,221)"/>
<path d="M0 0 C0.33 0 0.66 0 1 0 C1 2.31 1 4.62 1 7 C1.66 7 2.32 7 3 7 C2.67 9.31 2.34 11.62 2 14 C0.09391902 10.78817851 -0.22266247 8.46117397 -0.125 4.75 C-0.09792969 3.41195312 -0.09792969 3.41195312 -0.0703125 2.046875 C-0.04710938 1.37140625 -0.02390625 0.6959375 0 0 Z " fill="#F4D359" transform="translate(24,145)"/>
<path d="M0 0 C1 3 1 3 -0.1875 5.625 C-2 8 -2 8 -4.1875 8.8125 C-4.785625 8.874375 -5.38375 8.93625 -6 9 C-4.16172132 5.84866512 -2.24027294 2.88035092 0 0 Z " fill="#D15847" transform="translate(101,14)"/>
<path d="M0 0 C1.65 1.65 3.3 3.3 5 5 C4.34 5.66 3.68 6.32 3 7 C2.01 6.34 1.02 5.68 0 5 C-0.1875 2.375 -0.1875 2.375 0 0 Z " fill="#D45441" transform="translate(155,45)"/>
<path d="" fill="#FFFFFF" transform="translate(0,0)"/>
<path d="" fill="#FFFFFF" transform="translate(0,0)"/>
<path d="" fill="#FFFFFF" transform="translate(0,0)"/>
<path d="" fill="#FFFFFF" transform="translate(0,0)"/>
<path d="" fill="#FFFFFF" transform="translate(0,0)"/>
<path d="" fill="#FFFFFF" transform="translate(0,0)"/>
<path d="" fill="#FFFFFF" transform="translate(0,0)"/>
<path d="" fill="#FFFFFF" transform="translate(0,0)"/>
<path d="" fill="#FFFFFF" transform="translate(0,0)"/>
<path d="" fill="#00FFFF" transform="translate(0,0)"/>
<path d="" fill="#FFFFFF" transform="translate(0,0)"/>
<path d="" fill="#FFFFFF" transform="translate(0,0)"/>
<path d="" fill="#FFFFFF" transform="translate(0,0)"/>
<path d="" fill="#FFFFFF" transform="translate(0,0)"/>
<path d="" fill="#FFFFFF" transform="translate(0,0)"/>
<path d="" fill="#FFFFFF" transform="translate(0,0)"/>
<path d="" fill="#FFFFFF" transform="translate(0,0)"/>
<path d="" fill="#FFFFFF" transform="translate(0,0)"/>
<path d="" fill="#FFFFFF" transform="translate(0,0)"/>
<path d="" fill="#FFFFFF" transform="translate(0,0)"/>
<path d="" fill="#FFFFFF" transform="translate(0,0)"/>
<path d="" fill="#FFFFFF" transform="translate(0,0)"/>
<path d="" fill="#FFFFFF" transform="translate(0,0)"/>
<path d="" fill="#FFFFFF" transform="translate(0,0)"/>
<path d="" fill="#FFFFFF" transform="translate(0,0)"/>
<path d="" fill="#FFFFFF" transform="translate(0,0)"/>
<path d="" fill="#FFFFFF" transform="translate(0,0)"/>
</svg>
