<?xml version="1.0" encoding="UTF-8"?>
<svg version="1.1" xmlns="http://www.w3.org/2000/svg" width="256" height="256">
<path d="M0 0 C60.06 0 120.12 0 182 0 C181.40331505 12.53038393 180.7874699 25.02636242 179.89257812 37.53320312 C179.78548441 39.05524849 179.6785932 40.57730811 179.57188416 42.09938049 C179.28696106 46.15429092 178.99904218 50.20898288 178.71031761 54.26362419 C178.4682825 57.66655032 178.22776369 61.06958299 177.98721933 64.47261477 C177.42027772 72.49280542 176.85085414 80.51281709 176.27978516 88.53271484 C175.69182838 96.79036943 175.10803983 105.04831141 174.52625132 113.30640268 C174.02408922 120.43227646 173.51944281 127.55797129 173.01278067 134.68352652 C172.71122083 138.92487063 172.41058184 143.16627474 172.11231995 147.40785217 C171.83282705 151.38090912 171.55022847 155.35373314 171.26523018 159.32639885 C171.16132505 160.78198869 171.05851211 162.23765697 170.95687675 163.69340706 C170.81793239 165.68102791 170.67463758 167.66834321 170.53112793 169.65563965 C170.41278217 171.32234837 170.41278217 171.32234837 170.29204559 173.02272797 C170.02534934 175.74157502 169.59139605 178.33509797 169 181 C168.03638298 181.31494164 168.03638298 181.31494164 167.05329895 181.63624573 C160.89357545 183.64956738 154.73404988 185.66349338 148.57472706 187.6780405 C145.41084187 188.7128395 142.24686827 189.74736609 139.08276367 190.78149414 C136.63070771 191.58293107 134.17879253 192.38479887 131.72702026 193.18710327 C129.29980527 193.98073037 126.87200988 194.77258464 124.44363403 195.56265259 C118.861814 197.38331065 113.29561364 199.23199817 107.75927734 201.18701172 C106.80333176 201.52039047 105.84738617 201.85376923 104.86247253 202.19725037 C103.10896454 202.81167266 101.35958216 203.43806853 99.61567688 204.07923889 C98.83975693 204.34949387 98.06383698 204.61974884 97.2644043 204.89819336 C96.6046611 205.1366246 95.94491791 205.37505585 95.2651825 205.62071228 C89.57555095 206.57339816 83.9863499 204.53218166 78.62768555 202.76269531 C77.92761887 202.53649506 77.22755219 202.3102948 76.50627136 202.07723999 C74.21418073 201.33421516 71.92523738 200.58207491 69.63671875 199.828125 C68.45857574 199.44168949 68.45857574 199.44168949 67.25663185 199.0474472 C63.10889035 197.68672065 58.96353793 196.31898994 54.82006836 194.9453125 C50.5405151 193.5280095 46.25356698 192.13461692 41.9644804 190.74647903 C38.66335296 189.67340235 35.36813065 188.58303052 32.07428932 187.48781586 C30.49555568 186.96622384 28.9146475 186.45116651 27.33160973 185.94278717 C25.12299102 185.23169619 22.92385119 184.49654285 20.7253418 183.75488281 C19.47182419 183.34264465 18.21830658 182.93040649 16.92680359 182.50567627 C14 181 14 181 12.86057949 178.84152412 C11.85545694 175.52273718 11.54724457 172.49113098 11.30392456 169.02993774 C11.25321308 168.34048423 11.2025016 167.65103072 11.15025342 166.94068468 C10.9828527 164.63753581 10.82713615 162.33374902 10.67138672 160.02978516 C10.55356238 158.37535212 10.43502425 156.72096978 10.31582642 155.06663513 C9.99447189 150.57743595 9.68329562 146.087583 9.37406301 141.59753466 C9.04865937 136.89587727 8.71435928 132.19485221 8.38113403 127.4937439 C7.82268588 119.59711639 7.27035336 111.70008066 6.72216797 103.80273438 C6.01911819 93.67476336 5.30626242 83.54750805 4.59019279 73.42045021 C3.97405726 64.70593274 3.36219585 55.99111596 2.75114298 47.27624083 C2.55487719 44.47926574 2.35807513 41.68232875 2.16122055 38.88539505 C1.85176905 34.48447571 1.54498079 30.08337812 1.24023056 25.68213081 C1.12819019 24.06922584 1.01533325 22.45637735 0.90158844 20.84359169 C0.74614315 18.63722265 0.59374117 16.4306634 0.44210815 14.22402954 C0.35621367 12.99071207 0.27031918 11.7573946 0.18182182 10.48670387 C-0.00024226 6.99535438 0 3.49609333 0 0 Z M33 31 C33.804375 43.1275 34.60875 55.255 35.4375 67.75 C35.68943115 71.5769043 35.9413623 75.40380859 36.20092773 79.34667969 C36.43061449 82.7821675 36.43061449 82.7821675 36.66127014 86.21759033 C36.76339878 87.74565896 36.8640894 89.27382413 36.96363831 90.80206299 C37.11486166 93.11925919 37.27067048 95.4361064 37.42749023 97.75292969 C37.51409409 99.05864929 37.60069794 100.3643689 37.68992615 101.70965576 C37.93087932 105.14977885 37.93087932 105.14977885 39 109 C65.73 109 92.46 109 120 109 C119.34 116.59 118.68 124.18 118 132 C118 134.97 118 137.94 118 141 C116.824375 141.226875 115.64875 141.45375 114.4375 141.6875 C108.7089136 142.91828634 103.30946638 145.00121734 97.84375 147.07421875 C89.94801351 148.97593577 83.07716275 146.62751855 75.625 143.9375 C74.056109 143.38009726 72.48584601 142.82653714 70.9140625 142.27734375 C70.2329541 142.03234131 69.5518457 141.78733887 68.85009766 141.53491211 C66.84065241 140.86112487 66.84065241 140.86112487 64 141 C64 138.69 64 136.38 64 134 C56.41 134 48.82 134 41 134 C40.90877351 141.75425131 41.18007318 149.29199956 42 157 C50.41254118 160.53885008 59.00414166 163.54685708 67.64086914 166.48364258 C69.2596522 167.03770735 70.87588335 167.59928288 72.48950195 168.16821289 C74.85318835 169.00094858 77.22403143 169.80937804 79.59765625 170.61328125 C80.30729019 170.86837967 81.01692413 171.12347809 81.74806213 171.38630676 C90.68296164 174.34057803 98.40352991 171.83261844 107.03125 168.875 C107.94837769 168.56804199 108.86550537 168.26108398 109.8104248 167.94482422 C111.73116079 167.30012686 113.65046212 166.65114068 115.56835938 165.99804688 C118.51641704 164.99441099 121.46865209 164.00394678 124.421875 163.015625 C126.29192032 162.38616975 128.1617212 161.75598771 130.03125 161.125 C130.91655396 160.82706543 131.80185791 160.52913086 132.71398926 160.22216797 C133.52573608 159.94518066 134.33748291 159.66819336 135.17382812 159.3828125 C135.89058716 159.13934082 136.60734619 158.89586914 137.3458252 158.64501953 C139.01035514 158.12361405 139.01035514 158.12361405 140 157 C140.24239929 154.9385981 140.42006451 152.8695595 140.57250977 150.79956055 C140.62142365 150.15235046 140.67033752 149.50514038 140.72073364 148.83831787 C140.88207898 146.68809043 141.03681055 144.53744119 141.19140625 142.38671875 C141.3017196 140.89554736 141.4123963 139.40440281 141.52342224 137.9132843 C141.75563373 134.78198729 141.98482942 131.65048944 142.21166992 128.51879883 C142.50231223 124.50683896 142.79818785 120.49528835 143.09605503 116.48385906 C143.37973599 112.65995145 143.66061375 108.83583934 143.94140625 105.01171875 C143.99525545 104.28201056 144.04910465 103.55230236 144.10458565 102.8004818 C144.2569041 100.72997173 144.40721043 98.65932573 144.55688477 96.58862305 C144.64269302 95.4102739 144.72850128 94.23192474 144.81690979 93.01786804 C144.95861923 90.68207744 145 88.34008532 145 86 C116.95 86 88.9 86 60 86 C60 82.37 60 78.74 60 75 C59.34 68.07 58.68 61.14 58 54 C87.37 54 116.74 54 147 54 C147.66 46.41 148.32 38.82 149 31 C110.72 31 72.44 31 33 31 Z " fill="#E44D25" transform="translate(37,25)"/>
</svg>
