<?xml version="1.0" encoding="UTF-8"?>
<svg version="1.1" xmlns="http://www.w3.org/2000/svg" width="1024" height="1024">
<path d="M0 0 C337.92 0 675.84 0 1024 0 C1024 337.92 1024 675.84 1024 1024 C686.08 1024 348.16 1024 0 1024 C0 686.08 0 348.16 0 0 Z " fill="#F6DE1D" transform="translate(0,0)"/>
<path d="M0 0 C2.22643345 0.01071923 4.4520575 0.00002842 6.6784668 -0.01269531 C47.19210078 -0.05396661 83.88504428 12.5058039 112.98120117 41.01074219 C119.61847081 47.6821101 125.37155997 54.74730983 130.6315918 62.54296875 C131.76103962 64.21246348 132.92538267 65.85818376 134.09057617 67.50292969 C137.84133937 72.98369606 137.84133937 72.98369606 138.79370117 75.26074219 C137.63905592 78.41159291 136.34628277 79.8712526 133.46948242 81.53027344 C132.78297607 81.93592529 132.09646973 82.34157715 131.38916016 82.75952148 C130.63578369 83.19304932 129.88240723 83.62657715 129.10620117 84.07324219 C121.86578019 88.36644287 114.76458701 92.82360811 107.73120117 97.44824219 C99.24108615 103.01814431 90.72179875 108.53828073 82.16870117 114.01074219 C80.57723267 115.03010864 80.57723267 115.03010864 78.95361328 116.07006836 C73.31168293 119.6766043 73.31168293 119.6766043 70.79370117 121.26074219 C69.90593994 121.83324707 69.01817871 122.40575195 68.10351562 122.99560547 C65.79370117 124.26074219 65.79370117 124.26074219 63.68823242 123.76855469 C61.26325201 121.83857028 60.04267868 119.81149601 58.48120117 117.13574219 C55.71418474 112.57795105 52.73825495 108.6878419 49.07885742 104.81933594 C47.79370117 103.26074219 47.79370117 103.26074219 47.79370117 101.26074219 C47.21620117 100.9990625 46.63870117 100.73738281 46.04370117 100.46777344 C43.65922117 99.18859927 41.84882889 97.70366378 39.79370117 95.94824219 C25.65608235 84.78696417 8.05443652 83.98429661 -9.20629883 85.26074219 C-20.80211503 87.33268498 -30.35722547 93.74319869 -37.20629883 103.26074219 C-43.84766796 114.54501376 -44.05206667 128.41906406 -41.40551758 141.09667969 C-34.02370381 160.4263776 -13.21235366 170.39218046 4.50708008 178.43676758 C8.52361075 180.22265391 12.5587885 181.96408759 16.60113525 183.69064331 C19.17519446 184.79021432 21.74538075 185.89842871 24.31469727 187.0090332 C27.67062647 188.45964498 31.02744184 189.90816614 34.38500977 191.35498047 C41.81626817 194.5620638 49.20931943 197.84996773 56.5612793 201.23486328 C58.13072222 201.95607929 59.70256268 202.67208962 61.27612305 203.38427734 C103.08161656 222.34459428 142.58767384 248.90054574 159.79370117 293.26074219 C165.23582959 308.95432183 167.15221476 324.53441163 167.109375 341.08007812 C167.10621437 343.6251107 167.1297668 346.16897715 167.1550293 348.71386719 C167.194886 358.96574481 166.27484479 368.29942136 163.79370117 378.26074219 C163.60026123 379.08477539 163.40682129 379.90880859 163.20751953 380.7578125 C155.4162622 412.62614291 134.53828654 438.39265459 106.79370117 455.26074219 C96.00788193 461.7627705 84.71564064 466.2698556 72.79370117 470.26074219 C71.64643555 470.65132812 70.49916992 471.04191406 69.31713867 471.44433594 C61.89836606 473.76383054 54.38510818 475.14518618 46.73120117 476.44824219 C45.74998291 476.61541748 44.76876465 476.78259277 43.7578125 476.95483398 C3.05946888 483.52192061 -41.20172019 479.54448262 -79.20629883 463.26074219 C-80.31086426 462.791604 -80.31086426 462.791604 -81.43774414 462.31298828 C-98.27265104 455.04832178 -113.432479 445.38587752 -127.20629883 433.26074219 C-128.20145508 432.39835937 -129.19661133 431.53597656 -130.22192383 430.64746094 C-136.95740736 424.71515604 -142.73749826 418.4030555 -148.20629883 411.26074219 C-148.94493164 410.32617188 -149.68356445 409.39160156 -150.44458008 408.42871094 C-154.7236097 402.90809759 -158.59333501 397.2311214 -162.20629883 391.26074219 C-162.59237305 390.62555664 -162.97844727 389.99037109 -163.3762207 389.3359375 C-165.15467901 386.33056809 -166.46624679 383.66498157 -167.20629883 380.26074219 C-152.29070579 371.39341986 -137.29619196 362.67059813 -122.25512695 354.01806641 C-118.55993683 351.88818344 -114.87212679 349.74577585 -111.18481445 347.60229492 C-103.91554437 343.37780298 -96.62808675 339.21346969 -89.20629883 335.26074219 C-88.88991455 335.72335449 -88.57353027 336.1859668 -88.24755859 336.66259766 C-82.49656126 345.03581678 -76.83146725 353.15883937 -69.75317383 360.47558594 C-68.20629883 362.26074219 -68.20629883 362.26074219 -68.20629883 364.26074219 C-67.6365332 364.50566406 -67.06676758 364.75058594 -66.47973633 365.00292969 C-63.81673045 366.47627658 -62.00507206 368.25648309 -59.83129883 370.38574219 C-38.16615943 390.20297263 -10.30160516 393.49071088 17.79370117 392.26074219 C33.69454969 390.90972921 50.6883661 384.88138225 61.23120117 372.44824219 C69.29538972 361.60785758 70.96509489 349.44055757 69.79370117 336.26074219 C67.08229347 323.12838202 58.47265781 313.77861771 47.79370117 306.26074219 C29.989543 294.65139071 9.76940081 286.60478988 -9.70629883 278.26074219 C-56.19225841 258.34054257 -107.46898175 235.00251448 -128.20629883 185.26074219 C-135.17025525 167.72954864 -138.9138532 149.90721723 -138.67285156 131.04370117 C-138.64367413 128.56263891 -138.6523592 126.08370352 -138.6652832 123.60253906 C-138.62970099 95.37485333 -129.29991224 69.01615831 -111.20629883 47.26074219 C-110.44833008 46.3390625 -109.69036133 45.41738281 -108.90942383 44.46777344 C-81.99347858 13.28573883 -40.19397906 -0.22905062 0 0 Z " fill="#000000" transform="translate(777.206298828125,464.7392578125)"/>
<path d="M0 0 C32.01 0 64.02 0 97 0 C97.08837717 43.34696435 97.16215825 86.69384292 97.20426132 130.04087175 C97.20926344 135.17210477 97.2144408 140.30333759 97.21972656 145.43457031 C97.2207758 146.4559971 97.22182505 147.47742389 97.22290608 148.52980301 C97.24025539 165.01349264 97.27176249 181.4971258 97.30861118 197.98078206 C97.34617371 214.9265797 97.36826801 231.87234801 97.37635398 248.81818557 C97.3818102 259.25325021 97.3989677 269.68815516 97.43166587 280.12317058 C97.45300339 287.30358753 97.45915717 294.48392335 97.45400551 301.66436961 C97.45147322 305.79139052 97.45502283 309.91813479 97.4768219 314.04510498 C97.59802837 338.20098781 97.19435689 362.96954431 89 386 C88.58105469 387.24910156 88.16210938 388.49820312 87.73046875 389.78515625 C82.77989622 404.09496795 76.14636588 417.6564807 66 429 C65.30261719 429.82757812 64.60523438 430.65515625 63.88671875 431.5078125 C42.00926952 456.92140361 7.91495918 470.39017242 -25 473 C-28.27425083 473.13558386 -31.54349541 473.16362127 -34.8203125 473.16796875 C-35.72264618 473.17129715 -36.62497986 473.17462555 -37.55465698 473.17805481 C-39.45212297 473.18308139 -41.34959767 473.18546447 -43.24707031 473.18530273 C-46.09715962 473.18747874 -48.9468544 473.20565191 -51.796875 473.22460938 C-66.42223086 473.27129967 -80.52600652 472.42888943 -94.6875 468.4375 C-95.60611816 468.1806543 -96.52473633 467.92380859 -97.47119141 467.65917969 C-119.60516878 461.19918629 -139.09442115 450.65601343 -156 435 C-156.54253418 434.50129395 -157.08506836 434.00258789 -157.64404297 433.48876953 C-170.00674464 421.99642527 -179.22869954 409.0860297 -187.22265625 394.265625 C-188.9435417 390.98777409 -188.9435417 390.98777409 -191 388 C-191 387.01 -191 386.02 -191 385 C-189.14941406 383.55224609 -189.14941406 383.55224609 -186.515625 382.0234375 C-185.04005127 381.15416626 -185.04005127 381.15416626 -183.53466797 380.26733398 C-182.45072754 379.64286377 -181.36678711 379.01839355 -180.25 378.375 C-178.53784251 377.36898726 -176.82570528 376.36293867 -175.11459351 375.35514832 C-173.91619767 374.65001667 -172.71698102 373.9462784 -171.51699829 373.24385071 C-165.51545153 369.72977207 -159.57033164 366.12567066 -153.63171387 362.50656128 C-151.87637408 361.4383362 -150.11871545 360.37402971 -148.36035156 359.31079102 C-142.62543204 355.83953713 -136.92022422 352.33075959 -131.2578125 348.7421875 C-129.67250732 347.74747437 -129.67250732 347.74747437 -128.05517578 346.73266602 C-126.06336257 345.48081921 -124.0794809 344.21623527 -122.10498047 342.93725586 C-121.22471191 342.38690674 -120.34444336 341.83655762 -119.4375 341.26953125 C-118.67308594 340.78073486 -117.90867187 340.29193848 -117.12109375 339.78833008 C-115 339 -115 339 -112.86621094 339.63549805 C-110.80882925 341.13977673 -109.91531999 342.3339521 -108.703125 344.5625 C-108.30601318 345.27212891 -107.90890137 345.98175781 -107.49975586 346.71289062 C-107.08733643 347.46763672 -106.67491699 348.22238281 -106.25 349 C-102.3558085 355.85480956 -98.30204225 362.12504552 -93 368 C-92.29230469 368.78890625 -91.58460938 369.5778125 -90.85546875 370.390625 C-80.34972003 381.50353608 -67.88971793 386.93211945 -52.64379883 387.47290039 C-38.63679686 387.61995205 -24.97314547 385.43654355 -14 376 C-2.76190984 363.69061526 -0.6960306 347.77474184 -0.7215271 331.7822113 C-0.71651796 330.34725969 -0.71064036 328.9123109 -0.70397437 327.47736603 C-0.68823509 323.55274102 -0.68474705 319.62818772 -0.68332577 315.70353496 C-0.67962108 311.46436916 -0.66446028 307.22524221 -0.65071106 302.98609924 C-0.62846795 295.64761706 -0.61343695 288.30914875 -0.60334396 280.97064018 C-0.58874083 270.36047348 -0.56319942 259.75035512 -0.53501268 249.14021683 C-0.48957438 231.92478954 -0.45294733 214.70935527 -0.421875 197.49389648 C-0.39167733 180.77350643 -0.35732145 164.05313342 -0.31738281 147.33276367 C-0.31492126 146.30162771 -0.31245972 145.27049175 -0.30992357 144.20810925 C-0.29754874 139.03505614 -0.28509225 133.86200323 -0.27259517 128.68895042 C-0.16907172 85.79265377 -0.08147957 42.8963453 0 0 Z " fill="#010100" transform="translate(461,470)"/>
</svg>
