<?xml version="1.0" encoding="UTF-8"?>
<svg version="1.1" xmlns="http://www.w3.org/2000/svg" width="460" height="460">
<path d="M0 0 C151.8 0 303.6 0 460 0 C460 151.8 460 303.6 460 460 C308.2 460 156.4 460 0 460 C0 308.2 0 156.4 0 0 Z " fill="#014847" transform="translate(0,0)"/>
<path d="M0 0 C1.22249954 -0.00960754 2.44499908 -0.01921509 3.70454407 -0.02911377 C5.05327162 -0.03396625 6.40200135 -0.03824397 7.75073242 -0.04199219 C9.13303122 -0.0477468 10.51533001 -0.05350449 11.89762878 -0.05926514 C14.80724458 -0.06979496 17.71683265 -0.07562218 20.62646484 -0.07910156 C24.32360687 -0.08453942 28.02037177 -0.10845594 31.71739674 -0.13707352 C34.58049 -0.1558813 37.44349658 -0.16091538 40.30664635 -0.16243744 C42.32262336 -0.16687528 44.33855365 -0.18544993 46.35444641 -0.20440674 C59.97719172 -0.1718868 72.23824506 2.27249369 82.41870117 11.91113281 C84.29370117 14.16113281 84.29370117 14.16113281 84.29370117 16.16113281 C85.77870117 16.65613281 85.77870117 16.65613281 87.29370117 17.16113281 C88.61010742 19.20019531 88.61010742 19.20019531 89.85620117 21.78613281 C90.26999023 22.62402344 90.6837793 23.46191406 91.11010742 24.32519531 C93.5458424 30.16131278 94.54265817 35.33703893 94.52075195 41.65698242 C94.52104401 42.37001526 94.52133606 43.0830481 94.52163696 43.81768799 C94.52025537 46.14974591 94.50475013 48.48147518 94.48901367 50.81347656 C94.48527937 52.44014817 94.48243437 54.06682204 94.48043823 55.6934967 C94.47283463 59.95633247 94.45321456 64.21903003 94.43103027 68.48181152 C94.41050103 72.83909231 94.40142143 77.19639563 94.39135742 81.55371094 C94.36996532 90.08958136 94.33586929 98.62533985 94.29370117 107.16113281 C91.54015157 108.53790761 89.30529708 108.2908297 86.22729492 108.29394531 C85.02008789 108.29523438 83.81288086 108.29652344 82.5690918 108.29785156 C80.66933594 108.29205078 80.66933594 108.29205078 78.73120117 108.28613281 C77.46083008 108.29 76.19045898 108.29386719 74.8815918 108.29785156 C73.67567383 108.2965625 72.46975586 108.29527344 71.22729492 108.29394531 C70.11410889 108.29281738 69.00092285 108.29168945 67.85400391 108.29052734 C65.29370117 108.16113281 65.29370117 108.16113281 64.29370117 107.16113281 C64.19084782 105.08688973 64.15797065 103.0091556 64.15185547 100.93237305 C64.14838104 100.28183456 64.14490662 99.63129608 64.1413269 98.96104431 C64.1339564 97.54290566 64.12861795 96.12475537 64.12503624 94.7066021 C64.11787911 92.45689916 64.10221512 90.20741542 64.08369446 87.95777893 C64.03121338 81.55936838 63.98331783 75.16107193 63.96777344 68.76245117 C63.95764796 64.85124443 63.92820034 60.94058033 63.88645363 57.0295887 C63.87419402 55.5430113 63.86901312 54.05635702 63.87125206 52.56973076 C64.23270867 41.08439244 64.23270867 41.08439244 59.29370117 31.16113281 C53.08889458 25.75719824 45.03142203 26.69869275 37.29370117 26.91113281 C36.04202148 26.92917969 34.7903418 26.94722656 33.50073242 26.96582031 C30.43091875 27.0126877 27.36271943 27.07828971 24.29370117 27.16113281 C24.27823997 28.66117104 24.27823997 28.66117104 24.26246643 30.19151306 C24.16490314 39.59488054 24.06218571 48.99817931 23.95436192 58.4014349 C23.8990899 63.23626818 23.8456632 68.07110746 23.79638672 72.90600586 C23.7488061 77.56795765 23.69646584 82.22983348 23.64076042 86.89169502 C23.62030821 88.67435387 23.60159998 90.45703356 23.58462715 92.23972893 C23.56064631 94.72784882 23.53058357 97.2158238 23.49902344 99.70385742 C23.49326797 100.44832123 23.48751251 101.19278503 23.48158264 101.95980835 C23.40775333 107.04708065 23.40775333 107.04708065 22.29370117 108.16113281 C20.23314807 108.26106813 18.16917527 108.29194187 16.10620117 108.29394531 C14.8506543 108.29523438 13.59510742 108.29652344 12.30151367 108.29785156 C11.64441406 108.29575684 10.98731445 108.29366211 10.31030273 108.29150391 C8.30208783 108.28615515 6.29409658 108.29144972 4.28588867 108.29785156 C3.0303418 108.2965625 1.77479492 108.29527344 0.48120117 108.29394531 C-0.68024414 108.29281738 -1.84168945 108.29168945 -3.03833008 108.29052734 C-5.70629883 108.16113281 -5.70629883 108.16113281 -6.70629883 107.16113281 C-6.80384447 105.78470382 -6.83261502 104.40331847 -6.83328247 103.0234375 C-6.83610229 102.13160767 -6.83892212 101.23977783 -6.84182739 100.32092285 C-6.83980316 99.33491089 -6.83777893 98.34889893 -6.83569336 97.33300781 C-6.83744568 96.3005896 -6.839198 95.26817139 -6.84100342 94.20446777 C-6.84542416 90.77333929 -6.84248316 87.34226187 -6.83911133 83.91113281 C-6.8397843 81.53841136 -6.84075427 79.16568997 -6.8420105 76.79296875 C-6.84348777 71.81281886 -6.84133197 66.83268687 -6.83666992 61.85253906 C-6.83097262 55.45284602 -6.83425147 49.05319492 -6.84024239 42.65350342 C-6.8438472 37.75178712 -6.84270978 32.85008085 -6.84011459 27.94836426 C-6.8394451 25.58793127 -6.84027451 23.22749738 -6.84259415 20.86706543 C-6.84511937 17.57443819 -6.84128191 14.28187989 -6.83569336 10.98925781 C-6.83771759 10.00324585 -6.83974182 9.01723389 -6.84182739 8.00134277 C-6.83900757 7.10951294 -6.83618774 6.21768311 -6.83328247 5.29882812 C-6.83290545 4.51936829 -6.83252842 3.73990845 -6.83213997 2.93682861 C-6.54989591 -1.04580843 -3.27929105 0.02071758 0 0 Z " fill="#FDFEFE" transform="translate(186.706298828125,175.8388671875)"/>
<path d="M0 0 C0.87493103 -0.00563965 1.74986206 -0.0112793 2.65130615 -0.01708984 C4.0945224 -0.01101715 4.0945224 -0.01101715 5.56689453 -0.00482178 C7.08407074 -0.01007874 7.08407074 -0.01007874 8.63189697 -0.01544189 C11.9879027 -0.02427165 15.34369902 -0.01840562 18.69970703 -0.01165771 C21.02376343 -0.01300401 23.34781956 -0.01494423 25.671875 -0.01745605 C30.54771602 -0.02040901 35.42348387 -0.01610415 40.29931641 -0.0067749 C46.56104354 0.00461967 52.82259923 -0.00193888 59.08432007 -0.01391983 C63.88486023 -0.02113379 68.68535951 -0.01885263 73.48590088 -0.01366425 C75.79526795 -0.01232646 78.10463868 -0.01397993 80.41400146 -0.01862335 C83.63694142 -0.02368094 86.85960058 -0.01598907 90.08251953 -0.00482178 C91.0446637 -0.00887024 92.00680786 -0.0129187 92.99810791 -0.01708984 C94.31050446 -0.00863037 94.31050446 -0.00863037 95.64941406 0 C96.4119046 0.00075405 97.17439514 0.0015081 97.95999146 0.002285 C99.82470703 0.25396729 99.82470703 0.25396729 101.82470703 2.25396729 C102.06762695 4.94366455 102.06762695 4.94366455 102.05517578 8.32037354 C102.05324219 9.52758057 102.05130859 10.7347876 102.04931641 11.97857666 C102.03707031 13.24508057 102.02482422 14.51158447 102.01220703 15.81646729 C102.01124023 17.72202393 102.01124023 17.72202393 102.01025391 19.66607666 C101.96480756 29.11386675 101.96480756 29.11386675 100.82470703 30.25396729 C99.44827804 30.35151293 98.06689269 30.38028348 96.68701172 30.38095093 C95.79518188 30.38377075 94.90335205 30.38659058 93.98449707 30.38949585 C92.99848511 30.38747162 92.01247314 30.38544739 90.99658203 30.38336182 C89.96416382 30.38511414 88.93174561 30.38686646 87.86804199 30.38867188 C84.43691351 30.39309261 81.00583609 30.39015162 77.57470703 30.38677979 C75.20198558 30.38745276 72.82926419 30.38842273 70.45654297 30.38967896 C65.47639308 30.39115623 60.49626109 30.38900042 55.51611328 30.38433838 C49.11642024 30.37864108 42.71676914 30.38191993 36.31707764 30.38791084 C31.41536134 30.39151566 26.51365507 30.39037824 21.61193848 30.38778305 C19.25150548 30.38711356 16.8910716 30.38794296 14.53063965 30.3902626 C11.23801241 30.39278783 7.94545411 30.38895037 4.65283203 30.38336182 C3.66682007 30.38538605 2.68080811 30.38741028 1.66491699 30.38949585 C0.77308716 30.38667603 -0.11874268 30.3838562 -1.03759766 30.38095093 C-1.8170575 30.3805739 -2.59651733 30.38019688 -3.39959717 30.37980843 C-5.17529297 30.25396729 -5.17529297 30.25396729 -6.17529297 29.25396729 C-6.42909531 24.7806477 -6.36052018 20.29613268 -6.36279297 15.81646729 C-6.38116211 13.91671143 -6.38116211 13.91671143 -6.39990234 11.97857666 C-6.40183594 10.77136963 -6.40376953 9.5641626 -6.40576172 8.32037354 C-6.40987061 7.20605957 -6.41397949 6.09174561 -6.41821289 4.94366455 C-6.01084922 0.43318656 -4.06871943 0.00402369 0 0 Z " fill="#31E5E1" transform="translate(317.17529296875,214.74603271484375)"/>
<path d="M0 0 C1.32512352 -0.00422974 1.32512352 -0.00422974 2.67701721 -0.00854492 C4.14200905 -0.00550858 4.14200905 -0.00550858 5.63659668 -0.00241089 C7.17059364 -0.00503937 7.17059364 -0.00503937 8.73558044 -0.00772095 C12.13424347 -0.01214163 15.53285495 -0.00920071 18.93151855 -0.00582886 C21.28181976 -0.00650183 23.63212091 -0.00747181 25.98242188 -0.00872803 C30.91549337 -0.01020529 35.84854681 -0.00804952 40.78161621 -0.00338745 C47.12077523 0.00230985 53.45989191 -0.000969 59.79904938 -0.00695992 C64.65444256 -0.01056475 69.50982563 -0.0094273 74.36521912 -0.00683212 C76.70332341 -0.00616264 79.04142862 -0.00699202 81.37953186 -0.00931168 C84.64102632 -0.01183693 87.90245118 -0.0079994 91.16394043 -0.00241089 C92.14060165 -0.00443512 93.11726288 -0.00645935 94.1235199 -0.00854492 C95.00693558 -0.0057251 95.89035126 -0.00290527 96.80053711 0 C97.95866535 0.00056554 97.95866535 0.00056554 99.14019012 0.0011425 C100.90026855 0.12698364 100.90026855 0.12698364 101.90026855 1.12698364 C102.00020387 3.18753675 102.03107761 5.25150954 102.03308105 7.31448364 C102.03437012 8.57003052 102.03565918 9.82557739 102.0369873 11.11917114 C102.03489258 11.77627075 102.03279785 12.43337036 102.03063965 13.11038208 C102.02529089 15.11859699 102.03058546 17.12658823 102.0369873 19.13479614 C102.03569824 20.39034302 102.03440918 21.64588989 102.03308105 22.93948364 C102.03195313 24.10092896 102.0308252 25.26237427 102.02966309 26.45901489 C101.90026855 29.12698364 101.90026855 29.12698364 100.90026855 30.12698364 C99.53651727 30.2244884 98.16776946 30.25329964 96.80053711 30.25396729 C95.47541359 30.25819702 95.47541359 30.25819702 94.1235199 30.26251221 C93.14685867 30.26048798 92.17019745 30.25846375 91.16394043 30.25637817 C89.62994347 30.25900665 89.62994347 30.25900665 88.06495667 30.26168823 C84.66629364 30.26610892 81.26768216 30.26316799 77.86901855 30.25979614 C75.51871735 30.26046912 73.1684162 30.26143909 70.81811523 30.26269531 C65.88504373 30.26417258 60.9519903 30.2620168 56.0189209 30.25735474 C49.67976188 30.25165744 43.34064519 30.25493629 37.00148773 30.2609272 C32.14609454 30.26453204 27.29071148 30.26339458 22.43531799 30.26079941 C20.09721369 30.26012992 17.75910849 30.2609593 15.42100525 30.26327896 C12.15951079 30.26580422 8.89808593 30.26196668 5.63659668 30.25637817 C4.65993546 30.2584024 3.68327423 30.26042664 2.67701721 30.26251221 C1.79360153 30.25969238 0.91018585 30.25687256 0 30.25396729 C-0.77208549 30.25359026 -1.54417099 30.25321323 -2.33965302 30.25282478 C-4.09973145 30.12698364 -4.09973145 30.12698364 -5.09973145 29.12698364 C-5.19966676 27.06643054 -5.2305405 25.00245774 -5.23254395 22.93948364 C-5.23383301 21.68393677 -5.23512207 20.42838989 -5.2364502 19.13479614 C-5.23435547 18.47769653 -5.23226074 17.82059692 -5.23010254 17.14358521 C-5.22475378 15.1353703 -5.23004836 13.12737905 -5.2364502 11.11917114 C-5.23516113 9.86362427 -5.23387207 8.60807739 -5.23254395 7.31448364 C-5.23085205 5.57231567 -5.23085205 5.57231567 -5.22912598 3.79495239 C-5.02489057 -0.41615054 -3.81229034 0.00186162 0 0 Z " fill="#31E5E1" transform="translate(47.0997314453125,214.87301635742188)"/>
<path d="M0 0 C1.20269531 -0.00257812 2.40539062 -0.00515625 3.64453125 -0.0078125 C4.90652344 -0.00007813 6.16851562 0.00765625 7.46875 0.015625 C8.73074219 0.00789063 9.99273437 0.00015625 11.29296875 -0.0078125 C12.49566406 -0.00523438 13.69835937 -0.00265625 14.9375 0 C16.04544922 0.00225586 17.15339844 0.00451172 18.29492188 0.00683594 C20.96875 0.265625 20.96875 0.265625 22.96875 2.265625 C23.16698371 4.75419412 23.24155688 7.13146637 23.22753906 9.62109375 C23.2310437 10.37895172 23.23454834 11.13680969 23.23815918 11.91763306 C23.2469813 14.42955614 23.24112574 16.94119892 23.234375 19.453125 C23.23572151 21.19425511 23.23766193 22.93538485 23.24017334 24.67651367 C23.24312525 28.32832412 23.23882483 31.98003683 23.22949219 35.63183594 C23.21809759 40.31969481 23.22465671 45.0073247 23.23663712 49.69517517 C23.24385392 53.2913181 23.24156862 56.88740648 23.23638153 60.48355103 C23.23504454 62.2123721 23.23669449 63.94119808 23.24134064 65.67001343 C23.24640297 68.08352841 23.23869999 70.49666923 23.22753906 72.91015625 C23.23158752 73.62918121 23.23563599 74.34820618 23.23980713 75.08901978 C23.19727896 80.03709604 23.19727896 80.03709604 20.96875 82.265625 C18.17138672 82.49267578 18.17138672 82.49267578 14.6484375 82.4609375 C12.76318359 82.45126953 12.76318359 82.45126953 10.83984375 82.44140625 C9.52113281 82.42464844 8.20242187 82.40789062 6.84375 82.390625 C5.50391279 82.38059483 4.16406848 82.37146904 2.82421875 82.36328125 C-0.46111573 82.33964575 -3.74609465 82.30669734 -7.03125 82.265625 C-8.52894497 79.27023505 -8.17858414 76.19515724 -8.17651367 72.91015625 C-8.17987228 72.15229828 -8.1832309 71.39444031 -8.18669128 70.61361694 C-8.19621127 68.10176975 -8.1981448 65.58998912 -8.19921875 63.078125 C-8.20243016 61.33699516 -8.20579414 59.59586559 -8.20930481 57.85473633 C-8.21529839 54.20295587 -8.21714443 50.55119909 -8.21655273 46.89941406 C-8.216451 42.21157201 -8.23011407 37.52388103 -8.24732494 32.83607483 C-8.25842168 29.23994239 -8.26047268 25.64384678 -8.25994301 22.04769897 C-8.26112623 20.31887287 -8.26556702 18.5900459 -8.27327538 16.86123657 C-8.28303027 14.44774662 -8.28021545 12.0345886 -8.27416992 9.62109375 C-8.27978943 8.90206879 -8.28540894 8.18304382 -8.29119873 7.44223022 C-8.2481451 0.707154 -6.42191438 0.01307545 0 0 Z " fill="#30E2DE" transform="translate(223.03125,63.734375)"/>
<path d="M0 0 C1.20269531 -0.00257813 2.40539062 -0.00515625 3.64453125 -0.0078125 C4.90652344 -0.00007813 6.16851562 0.00765625 7.46875 0.015625 C8.73074219 0.00789063 9.99273437 0.00015625 11.29296875 -0.0078125 C12.49566406 -0.00523437 13.69835937 -0.00265625 14.9375 0 C16.04544922 0.00225586 17.15339844 0.00451172 18.29492188 0.00683594 C20.96875 0.265625 20.96875 0.265625 22.96875 2.265625 C23.16698371 4.75419412 23.24155688 7.13146637 23.22753906 9.62109375 C23.2310437 10.37895172 23.23454834 11.13680969 23.23815918 11.91763306 C23.2469813 14.42955614 23.24112574 16.94119892 23.234375 19.453125 C23.23572151 21.19425511 23.23766193 22.93538485 23.24017334 24.67651367 C23.24312525 28.32832412 23.23882483 31.98003683 23.22949219 35.63183594 C23.21809759 40.31969481 23.22465671 45.0073247 23.23663712 49.69517517 C23.24385392 53.2913181 23.24156862 56.88740648 23.23638153 60.48355103 C23.23504454 62.2123721 23.23669449 63.94119808 23.24134064 65.67001343 C23.24640297 68.08352841 23.23869999 70.49666923 23.22753906 72.91015625 C23.23158752 73.62918121 23.23563599 74.34820618 23.23980713 75.08901978 C23.19727896 80.03709604 23.19727896 80.03709604 20.96875 82.265625 C18.29492187 82.52441406 18.29492187 82.52441406 14.9375 82.53125 C13.73480469 82.53382813 12.53210938 82.53640625 11.29296875 82.5390625 C10.03097656 82.53132813 8.76898438 82.52359375 7.46875 82.515625 C6.20675781 82.52335937 4.94476563 82.53109375 3.64453125 82.5390625 C2.44183594 82.53648437 1.23914063 82.53390625 0 82.53125 C-1.10794922 82.52899414 -2.21589844 82.52673828 -3.35742188 82.52441406 C-6.03125 82.265625 -6.03125 82.265625 -8.03125 80.265625 C-8.22948371 77.77705588 -8.30405688 75.39978363 -8.29003906 72.91015625 C-8.2935437 72.15229828 -8.29704834 71.39444031 -8.30065918 70.61361694 C-8.3094813 68.10169386 -8.30362574 65.59005108 -8.296875 63.078125 C-8.29822151 61.33699489 -8.30016193 59.59586515 -8.30267334 57.85473633 C-8.30562525 54.20292588 -8.30132483 50.55121317 -8.29199219 46.89941406 C-8.28059759 42.21155519 -8.28715671 37.5239253 -8.29913712 32.83607483 C-8.30635392 29.2399319 -8.30406862 25.64384352 -8.29888153 22.04769897 C-8.29754454 20.3188779 -8.29919449 18.59005192 -8.30384064 16.86123657 C-8.30890297 14.44772159 -8.30119999 12.03458077 -8.29003906 9.62109375 C-8.29408752 8.90206879 -8.29813599 8.18304382 -8.30230713 7.44223022 C-8.24443562 0.7089834 -6.42233198 0.0130763 0 0 Z " fill="#30E2DE" transform="translate(223.03125,313.734375)"/>
<path d="M0 0 C3.96538929 0.73503914 6.28020202 3.06598012 9.13012695 5.74536133 C9.72234543 6.29959274 10.3145639 6.85382416 10.92472839 7.42485046 C12.17323681 8.60861858 13.41432768 9.80025192 14.6484375 10.99902344 C16.52094379 12.79355877 18.44676996 14.51325388 20.38208008 16.23950195 C26.50031931 21.99455573 30.3890904 26.49893831 30.73014832 35.16191101 C30.55201649 45.2824489 30.55201649 45.2824489 27.7355957 49.50708008 C24.50982496 50.18995093 21.21260164 50.01635282 17.9230957 50.00708008 C16.56861328 50.04961914 16.56861328 50.04961914 15.18676758 50.09301758 C8.51624813 50.11262234 8.51624813 50.11262234 5.03637695 47.41333008 C3.89749023 45.97473633 3.89749023 45.97473633 2.7355957 44.50708008 C1.62378111 43.36904743 0.49768345 42.24486103 -0.6394043 41.13208008 C-7.8894043 33.88208008 -7.8894043 33.88208008 -9.6237793 32.13989258 C-11.11055311 30.66019864 -12.62357958 29.20699937 -14.1394043 27.75708008 C-16.2644043 25.50708008 -16.2644043 25.50708008 -17.2644043 22.50708008 C-17.9244043 22.50708008 -18.5844043 22.50708008 -19.2644043 22.50708008 C-19.5847168 20.31176758 -19.5847168 20.31176758 -19.2644043 17.50708008 C-17.0690918 15.07739258 -17.0690918 15.07739258 -14.1394043 12.63208008 C-10.74881629 9.75013438 -7.61994923 6.91741721 -4.8894043 3.38208008 C-2.2644043 0.50708008 -2.2644043 0.50708008 0 0 Z " fill="#31E3DF" transform="translate(141.264404296875,118.492919921875)"/>
<path d="M0 0 C3.65625 1.109375 3.65625 1.109375 5.65625 3.109375 C6.12955426 6.19142101 6.02661907 9.30757433 6.03125 12.421875 C6.05574219 13.27716797 6.08023438 14.13246094 6.10546875 15.01367188 C6.12489297 19.19311612 6.06051722 21.47493493 3.76953125 25.0703125 C3.07214844 25.74320312 2.37476563 26.41609375 1.65625 27.109375 C0.934375 27.8725 0.2125 28.635625 -0.53125 29.421875 C-3.6813455 32.43196626 -6.93509902 35.30620589 -10.19921875 38.19140625 C-14.32679444 41.88291748 -17.96178579 45.72534732 -21.34375 50.109375 C-27.74922556 49.32845838 -30.84727071 45.26728328 -35.21875 40.859375 C-36.01539063 40.09496094 -36.81203125 39.33054687 -37.6328125 38.54296875 C-38.38046875 37.79660156 -39.128125 37.05023438 -39.8984375 36.28125 C-40.92686768 35.2617627 -40.92686768 35.2617627 -41.97607422 34.22167969 C-43.34375 32.109375 -43.34375 32.109375 -43.37670898 29.73461914 C-41.98736933 26.20364081 -39.79739293 23.68688205 -37.26171875 20.93359375 C-36.73963333 20.3623024 -36.21754791 19.79101105 -35.67964172 19.20240784 C-33.98457935 17.37910036 -32.26458731 15.58380955 -30.53125 13.796875 C-29.94972168 13.1944397 -29.36819336 12.59200439 -28.76904297 11.97131348 C-19.95454961 3.01055925 -13.1359024 -2.20294975 0 0 Z " fill="#31E4E0" transform="translate(165.34375,291.890625)"/>
</svg>
