<?xml version="1.0" encoding="UTF-8"?>
<svg version="1.1" xmlns="http://www.w3.org/2000/svg" width="1657" height="2048">
<path d="M0 0 C2.7424763 1.72139838 3.55301571 4.05256501 4.87890625 6.921875 C6.94319833 11.20814813 9.52328126 15.20306251 12.00390625 19.2578125 C15.20799205 24.5177887 18.24887698 29.74775395 21.00390625 35.2578125 C22.42229919 37.68308932 23.87645907 40.08514599 25.33203125 42.48828125 C29.43601544 49.28670366 33.4252581 56.1412478 37.19140625 63.1328125 C38.70296418 65.93657298 40.20910098 68.55919227 42.00390625 71.1953125 C43.90759436 74.11033491 45.4093093 77.01014163 46.94140625 80.1328125 C49.86554481 86.08420787 53.12530076 91.5914047 56.94140625 97.0078125 C59.45769699 100.9728767 61.43278315 105.11443574 63.44140625 109.35546875 C64.89820738 112.28176299 64.89820738 112.28176299 66.94140625 114.62890625 C69.08435652 117.36035612 70.47278386 120.02253521 71.96826172 123.13476562 C73.69300872 126.67045631 75.63522067 130.08183067 77.56640625 133.5078125 C77.95248047 134.20132813 78.33855469 134.89484375 78.73632812 135.609375 C80.25491514 138.31023505 81.73766253 140.90368883 83.6015625 143.3828125 C85.39413782 145.77957058 86.5861201 148.31043166 87.87890625 151.0078125 C90.82525617 157.00261358 94.0973632 162.5517514 97.94140625 168.0078125 C100.45185361 171.96366895 102.43356927 176.09799896 104.49609375 180.30078125 C106.43972189 184.11250794 108.70065303 187.65807398 111.00390625 191.2578125 C112.00253043 192.82894635 112.98169269 194.41261293 113.94140625 196.0078125 C114.60462891 197.08289063 114.60462891 197.08289063 115.28125 198.1796875 C116.00390625 200.2578125 116.00390625 200.2578125 115.265625 202.43359375 C113.54169461 204.92608754 111.67165633 205.80794833 109.00390625 207.2578125 C107.62260456 208.08065823 106.24795608 208.91473954 104.87890625 209.7578125 C104.21632813 210.16 103.55375 210.5621875 102.87109375 210.9765625 C101.00381081 212.25787799 99.5675201 213.62676517 98.00390625 215.2578125 C92.46869498 220.2578125 92.46869498 220.2578125 90.00390625 220.2578125 C89.77703125 220.8146875 89.55015625 221.3715625 89.31640625 221.9453125 C87.04790176 225.94220136 84.38490679 228.79747899 80.00390625 230.2578125 C79.31664099 231.58064608 78.65504632 232.91682822 78.00390625 234.2578125 C76.40692644 236.2303886 74.79226657 238.15613519 73.12890625 240.0703125 C69.55578934 244.26054033 66.47124263 248.32313973 64.00390625 253.2578125 C63.67390625 253.9178125 63.34390625 254.5778125 63.00390625 255.2578125 C62.34390625 255.2578125 61.68390625 255.2578125 61.00390625 255.2578125 C60.75125 256.09828125 60.49859375 256.93875 60.23828125 257.8046875 C59.13762931 260.88372648 57.82158943 263.67302966 56.28833008 266.55566406 C36.72967299 303.46645521 36.32834434 344.45855979 48.04296875 383.7421875 C49.61558306 388.66411016 51.28309873 392.85373206 54.00390625 397.2578125 C54.71626112 398.94156038 55.42808847 400.62554403 56.1328125 402.3125 C59.31386 409.41636393 63.63052767 415.84874364 68.00390625 422.2578125 C68.6175 423.216875 69.23109375 424.1759375 69.86328125 425.1640625 C72.09843111 428.39442508 74.52067178 431.19146885 77.19140625 434.0703125 C77.66900391 434.58513184 78.14660156 435.09995117 78.63867188 435.63037109 C86.24882645 444.09979408 86.24882645 444.09979408 95.00390625 451.2578125 C95.00390625 451.9178125 95.00390625 452.5778125 95.00390625 453.2578125 C96.65390625 453.9178125 98.30390625 454.5778125 100.00390625 455.2578125 C100.00390625 455.9178125 100.00390625 456.5778125 100.00390625 457.2578125 C100.71933594 457.5259375 101.43476562 457.7940625 102.171875 458.0703125 C105.04519564 459.27512557 107.63728251 460.67018362 110.31640625 462.2578125 C111.19941406 462.7734375 112.08242187 463.2890625 112.9921875 463.8203125 C113.98798828 464.531875 113.98798828 464.531875 115.00390625 465.2578125 C115.00390625 465.9178125 115.00390625 466.5778125 115.00390625 467.2578125 C115.56078125 467.42796875 116.11765625 467.598125 116.69140625 467.7734375 C121.35275898 469.25373195 125.65064115 470.97938181 129.9921875 473.22265625 C143.04847694 479.94094111 156.6225749 482.96555969 171.00390625 485.2578125 C172.41289185 485.51691406 172.41289185 485.51691406 173.8503418 485.78125 C209.87037259 491.22454954 249.84958154 481.03272037 279.203125 459.65625 C281.50497602 457.8967199 283.75574715 456.0853723 286.00390625 454.2578125 C286.926875 453.53207031 287.84984375 452.80632812 288.80078125 452.05859375 C293.49176562 448.32482376 297.88403585 444.69480824 301.58984375 439.9609375 C303.57355929 437.57171105 305.80862862 435.45309013 308.00390625 433.2578125 C329.33519769 409.66882963 343.50664852 376.15880822 344.00390625 344.2578125 C344.02445068 343.24605957 344.02445068 343.24605957 344.04541016 342.21386719 C344.12965343 337.61195121 344.12338507 333.0174297 344.04101562 328.41552734 C344.00797983 326.49466979 343.99660681 324.57346733 343.98828125 322.65234375 C343.47485967 306.42455447 339.2620621 288.7741242 332.00390625 274.2578125 C331.48054688 273.14921875 330.9571875 272.040625 330.41796875 270.8984375 C326.87133583 263.54840186 322.91555006 256.66302678 318.5078125 249.8046875 C317.00390625 247.2578125 317.00390625 247.2578125 317.00390625 245.2578125 C316.01390625 244.9278125 315.02390625 244.5978125 314.00390625 244.2578125 C312.63525096 242.28181643 311.30723534 240.27749343 310.00390625 238.2578125 C298.00051868 223.98404735 284.14743721 211.67235766 268.00390625 202.2578125 C268.65096472 198.92355824 269.90610422 196.50991341 271.69140625 193.6328125 C272.23152344 192.75367188 272.77164062 191.87453125 273.328125 190.96875 C273.88113281 190.07414063 274.43414063 189.17953125 275.00390625 188.2578125 C276.0065583 186.59273994 277.00661634 184.92610222 278.00390625 183.2578125 C279.53220256 180.7066407 281.06440567 178.15830493 282.609375 175.6171875 C284.67913457 172.20336183 286.71784603 168.82993295 288.50390625 165.2578125 C291.19541697 159.87479106 294.44678125 154.80303904 297.5859375 149.671875 C298.09511719 148.83398438 298.60429688 147.99609375 299.12890625 147.1328125 C299.58523438 146.38773438 300.0415625 145.64265625 300.51171875 144.875 C301.72288932 142.75069559 302.82440231 140.62963413 303.90234375 138.4375 C305.92569469 134.34782937 308.16959041 130.42648414 310.50390625 126.5078125 C310.92679932 125.79262451 311.34969238 125.07743652 311.78540039 124.34057617 C314.24523222 120.18885784 316.72782641 116.05109549 319.21875 111.91796875 C320.023125 110.58233887 320.023125 110.58233887 320.84375 109.21972656 C321.88694854 107.48977691 322.9324217 105.7611963 323.98046875 104.03417969 C326.50881327 99.8468209 328.85274012 95.65504914 331.00390625 91.2578125 C331.92209335 89.66320185 332.85925023 88.07934139 333.81640625 86.5078125 C334.33460938 85.651875 334.8528125 84.7959375 335.38671875 83.9140625 C336.46484375 82.14322917 337.54296875 80.37239583 338.62109375 78.6015625 C339.13929688 77.745625 339.6575 76.8896875 340.19140625 76.0078125 C340.65933594 75.23953125 341.12726562 74.47125 341.609375 73.6796875 C342.59681978 71.9647974 343.52518221 70.21526058 344.41015625 68.4453125 C346.26703672 64.73155155 348.27434585 61.12205191 350.31640625 57.5078125 C350.71375977 56.80261475 351.11111328 56.09741699 351.52050781 55.37084961 C354.16514355 50.69455544 356.88577695 46.07171209 359.67578125 41.48046875 C361.40994749 38.57829054 363.03080129 35.61916773 364.65820312 32.65625 C365.9867143 30.2884536 367.36589757 27.96067752 368.76953125 25.63671875 C370.91113267 22.08116173 373.03629316 18.51684629 375.14453125 14.94140625 C376.18098958 13.19270833 377.21744792 11.44401042 378.25390625 9.6953125 C378.78242187 8.79490234 379.3109375 7.89449219 379.85546875 6.96679688 C380.36335938 6.11279297 380.87125 5.25878906 381.39453125 4.37890625 C381.84860352 3.6098999 382.30267578 2.84089355 382.77050781 2.04858398 C384.00390625 0.2578125 384.00390625 0.2578125 386.00390625 -0.7421875 C390.89892708 1.37124138 395.37432981 4.23883401 399.87890625 7.0703125 C400.58708496 7.51391113 401.29526367 7.95750977 402.02490234 8.41455078 C406.23391933 11.07415308 410.32961963 13.80459924 414.23046875 16.90625 C415.72332801 18.04397974 417.27611578 19.10244748 418.83984375 20.140625 C428.97992974 26.92571958 438.28215659 34.87197755 447.44921875 42.8984375 C448.77376761 44.05658575 450.10672513 45.20510564 451.44140625 46.3515625 C457.43267689 51.59392431 463.0525635 57.20404447 468.69140625 62.8203125 C469.49989014 63.62412354 470.30837402 64.42793457 471.14135742 65.25610352 C475.96849569 70.09614725 480.56301766 75.06290016 485.00390625 80.2578125 C486.01204985 81.41100582 487.02113236 82.56337916 488.03125 83.71484375 C505.00390625 103.22482639 505.00390625 103.22482639 505.00390625 107.2578125 C505.66390625 107.2578125 506.32390625 107.2578125 507.00390625 107.2578125 C508.49211872 109.3340356 509.85346921 111.3996949 511.19140625 113.5703125 C511.59431885 114.21186279 511.99723145 114.85341309 512.41235352 115.5144043 C513.23254191 116.82049785 514.05017992 118.12819652 514.86523438 119.4375 C516.36354753 121.83274505 517.90477782 124.19951435 519.44140625 126.5703125 C535.47716781 151.80140586 535.47716781 151.80140586 541.00390625 165.2578125 C541.64391327 166.73950941 542.29011257 168.21854195 542.94140625 169.6953125 C543.23917969 170.37464844 543.53695312 171.05398438 543.84375 171.75390625 C544.78013342 173.77485498 545.78762981 175.76276442 546.81640625 177.73828125 C549.64504697 183.36866076 551.82440864 189.25050992 554.06640625 195.1328125 C554.50017578 196.25300781 554.93394531 197.37320313 555.38085938 198.52734375 C557.61656592 204.3599176 559.65703829 210.18054483 561.38256836 216.18383789 C562.10870044 218.60760687 563.05770088 220.91269144 564.00390625 223.2578125 C564.53450738 225.22899568 565.03350792 227.20890214 565.50390625 229.1953125 C566.25660109 232.30443391 567.01751774 235.29704562 568.06640625 238.3203125 C569.20040236 241.8735003 569.78792271 245.42148443 570.41503906 249.09399414 C570.97980175 252.1283058 571.66913981 255.10011731 572.40234375 258.09765625 C584.15284862 308.91867929 583.32245043 365.80613753 570.92871094 416.41455078 C570.05167842 420.05928307 569.25959893 423.71125062 568.50390625 427.3828125 C566.39825753 437.30453771 564.04492089 446.92751167 560.00390625 456.2578125 C559.34801578 458.31069802 558.72234966 460.37351228 558.12890625 462.4453125 C556.17802065 468.92848364 553.68599491 475.04927393 551.00390625 481.2578125 C550.27468731 483.07029147 549.54552212 484.88279206 548.81640625 486.6953125 C543.52613919 499.36191407 537.69916209 511.92082893 530.56640625 523.66015625 C529.0308088 526.21308701 527.63764173 528.80756675 526.25390625 531.4453125 C519.839059 543.29734311 512.10066394 554.5034757 504.00390625 565.2578125 C503.42511719 566.02996094 502.84632813 566.80210937 502.25 567.59765625 C501.24664094 568.93466242 500.24065003 570.26970339 499.23046875 571.6015625 C498.10666689 573.1190529 497.05135116 574.68664513 496.00390625 576.2578125 C495.34390625 576.2578125 494.68390625 576.2578125 494.00390625 576.2578125 C493.77703125 576.9796875 493.55015625 577.7015625 493.31640625 578.4453125 C492.05712361 581.14377529 490.76403385 582.67364414 488.6171875 584.6875 C484.30671835 588.88316247 480.36832044 593.51155135 476.4453125 598.06811523 C472.06770501 603.13938405 467.49327988 607.96132147 462.75390625 612.6953125 C462.00520264 613.44321045 461.25649902 614.1911084 460.48510742 614.96166992 C455.75783353 619.63700134 450.96818154 623.99535842 445.73046875 628.09375 C443.07100641 630.20455535 440.52102731 632.4025129 437.96899414 634.64013672 C432.6123427 639.32656299 427.15402485 643.78196109 421.37890625 647.9453125 C420.79906982 648.3673999 420.2192334 648.7894873 419.62182617 649.22436523 C416.82473209 651.19968156 414.43197964 652.76450438 411.00390625 653.2578125 C411.00390625 653.9178125 411.00390625 654.5778125 411.00390625 655.2578125 C409.1953125 656.6328125 409.1953125 656.6328125 406.56640625 658.2578125 C405.57382813 658.87140625 404.58125 659.485 403.55859375 660.1171875 C399.44864176 662.60161444 395.32481647 665.06263348 391.19140625 667.5078125 C390.47476807 667.93191406 389.75812988 668.35601563 389.01977539 668.79296875 C377.99747334 675.2578125 377.99747334 675.2578125 375.00390625 675.2578125 C375.00390625 675.9178125 375.00390625 676.5778125 375.00390625 677.2578125 C370.0818962 679.58029389 365.15760271 681.89781781 360.23095703 684.21044922 C358.29798368 685.11951035 356.36751305 686.03388945 354.4375 686.94921875 C348.24061566 689.86137421 342.00574156 692.50076146 335.59375 694.90234375 C332.90705646 695.91679713 330.2369822 696.95480028 327.5703125 698.01953125 C319.45919915 701.25021454 311.49647294 704.18112309 303.00390625 706.2578125 C300.67149709 706.86431376 298.3414431 707.47940643 296.01147461 708.09521484 C294.39688616 708.52185227 292.78184768 708.94679201 291.16625977 709.36962891 C290.01855103 709.67006104 290.01855103 709.67006104 288.84765625 709.9765625 C288.05987793 710.18224854 287.27209961 710.38793457 286.46044922 710.59985352 C284.78838664 711.04769775 283.12077448 711.51242202 281.45751953 711.99194336 C274.00768443 714.12232043 266.52036797 715.5570643 258.87890625 716.8203125 C258.22739594 716.92831177 257.57588562 717.03631104 256.90463257 717.14758301 C243.97990597 719.26993685 231.08262403 720.56003677 218.00390625 721.2578125 C216.91513184 721.31952637 215.82635742 721.38124023 214.70458984 721.44482422 C198.40355829 722.33354279 182.29521396 722.26035451 166.00390625 721.2578125 C164.95428711 721.19722656 163.90466797 721.13664062 162.82324219 721.07421875 C149.07905352 720.2526692 135.79988821 718.59055032 122.33203125 715.73828125 C120.17510103 715.29314297 118.01670824 714.88886217 115.84765625 714.5078125 C99.67225223 711.66094139 84.08067989 707.4360658 68.50390625 702.2578125 C67.25206543 701.84265381 66.00022461 701.42749512 64.71044922 700.99975586 C54.53387503 697.56092014 44.65396054 693.59204551 34.94140625 689.0078125 C34.33635254 688.72260742 33.73129883 688.43740234 33.10791016 688.14355469 C31.79162392 687.52260881 30.47588399 686.90050376 29.16064453 686.27734375 C26.77651612 685.15032086 24.38839437 684.03201496 22 682.9140625 C20.29286901 682.11219147 18.58583654 681.31011067 16.87890625 680.5078125 C16.07316162 680.13108398 15.26741699 679.75435547 14.43725586 679.36621094 C10.4922355 677.50493644 6.70961193 675.57059335 3.00390625 673.2578125 C1.63208386 672.50201601 0.25709794 671.75193121 -1.12109375 671.0078125 C-9.34457525 666.45284928 -17.12402246 661.24441814 -24.7890625 655.8125 C-26.5448918 654.57565033 -28.32858013 653.37837149 -30.12109375 652.1953125 C-33.03547036 650.23127609 -35.83711381 648.16705063 -38.6328125 646.0390625 C-40.45461347 644.66593648 -42.29405108 643.3161888 -44.140625 641.9765625 C-44.68444824 641.57912842 -45.22827148 641.18169434 -45.78857422 640.7722168 C-47.37432207 639.6136183 -48.96442452 638.46098707 -50.5546875 637.30859375 C-52.99609375 635.2578125 -52.99609375 635.2578125 -53.99609375 632.2578125 C-54.65609375 632.0928125 -55.31609375 631.9278125 -55.99609375 631.7578125 C-56.65609375 631.5928125 -57.31609375 631.4278125 -57.99609375 631.2578125 C-58.32609375 630.2678125 -58.65609375 629.2778125 -58.99609375 628.2578125 C-59.73859375 627.9690625 -60.48109375 627.6803125 -61.24609375 627.3828125 C-64.68972084 625.97405596 -66.44252876 623.93905574 -68.99609375 621.2578125 C-69.77984375 620.6596875 -70.56359375 620.0615625 -71.37109375 619.4453125 C-74.3710137 616.94537921 -76.76749101 614.1719261 -79.30078125 611.2109375 C-81.41920315 608.77035927 -83.68125408 606.51173534 -85.99609375 604.2578125 C-89.58342299 600.76016649 -92.78986935 597.10528178 -95.99609375 593.2578125 C-96.73859375 592.5153125 -97.48109375 591.7728125 -98.24609375 591.0078125 C-106.69606606 582.55784019 -115.70946059 573.09541048 -120.99609375 562.2578125 C-121.89328125 561.360625 -121.89328125 561.360625 -122.80859375 560.4453125 C-126.98938292 556.26452333 -129.97518958 551.30976146 -132.99609375 546.2578125 C-133.67027344 545.19304688 -134.34445312 544.12828125 -135.0390625 543.03125 C-135.5659668 542.1959375 -135.5659668 542.1959375 -136.10351562 541.34375 C-136.83043998 540.19223872 -137.56231431 539.04383902 -138.29882812 537.8984375 C-140.99609375 533.59482259 -140.99609375 533.59482259 -140.99609375 530.2578125 C-141.65609375 530.2578125 -142.31609375 530.2578125 -142.99609375 530.2578125 C-144.5808442 527.25855908 -146.16362896 524.25827242 -147.74609375 521.2578125 C-148.18953125 520.41863281 -148.63296875 519.57945312 -149.08984375 518.71484375 C-153.42077392 510.49881446 -157.54910256 502.19764739 -161.55859375 493.8203125 C-161.94466797 493.02560547 -162.33074219 492.23089844 -162.72851562 491.41210938 C-164.94087295 486.780104 -166.81176126 482.17191047 -168.35546875 477.27490234 C-169.66387765 473.15520937 -171.20923855 469.11083947 -172.8984375 465.1328125 C-180.01084717 448.2229871 -183.86620485 429.9001342 -187.62109375 412.0078125 C-187.93046875 410.53526001 -187.93046875 410.53526001 -188.24609375 409.03295898 C-203.14577173 336.81426821 -195.60991451 259.51257212 -167.99609375 191.2578125 C-167.39861328 189.75734375 -167.39861328 189.75734375 -166.7890625 188.2265625 C-164.25498616 181.98388554 -161.39628396 175.98869058 -158.328125 169.9921875 C-157.23789537 167.75417947 -156.35073337 165.60993259 -155.55859375 163.2578125 C-153.92203366 158.60805648 -151.33851062 154.53775213 -148.8125 150.32421875 C-147.16643475 147.54537742 -145.63038288 144.73742898 -144.12109375 141.8828125 C-140.77583867 135.69186044 -136.94918694 129.84296924 -133.10107422 123.95800781 C-130.8645747 120.51678319 -128.68948306 117.03619454 -126.50390625 113.5625 C-125.07374644 111.37650444 -123.68088888 109.25562967 -121.99609375 107.2578125 C-121.33609375 107.2578125 -120.67609375 107.2578125 -119.99609375 107.2578125 C-119.89296875 106.4946875 -119.78984375 105.7315625 -119.68359375 104.9453125 C-118.93958178 102.03690207 -118.19803788 101.18451362 -115.99609375 99.2578125 C-115.66609375 98.5978125 -115.33609375 97.9378125 -114.99609375 97.2578125 C-114.33609375 97.2578125 -113.67609375 97.2578125 -112.99609375 97.2578125 C-112.73828125 96.690625 -112.48046875 96.1234375 -112.21484375 95.5390625 C-109.79520297 91.0099913 -106.24258951 87.21312651 -102.99609375 83.2578125 C-102.18140625 82.24332031 -101.36671875 81.22882813 -100.52734375 80.18359375 C-96.29992526 74.95970648 -92.0480495 70.18247336 -86.859375 65.8984375 C-84.86999511 64.14678225 -83.20658607 62.28105849 -81.49609375 60.2578125 C-78.52412947 56.74735011 -75.30823183 53.76063276 -71.79296875 50.80078125 C-70.10728358 49.35329072 -68.5600782 47.83417678 -66.99609375 46.2578125 C-54.08695241 34.53071301 -40.4653782 23.74108805 -25.8828125 14.171875 C-23.11080252 12.33387109 -20.39405296 10.43506791 -17.68359375 8.5078125 C-13.89126505 5.83552952 -10.07769372 3.46187648 -5.99609375 1.2578125 C-5.27421875 0.8040625 -4.55234375 0.3503125 -3.80859375 -0.1171875 C-1.99609375 -0.7421875 -1.99609375 -0.7421875 0 0 Z " fill="#0000FF" transform="translate(1067.99609375,814.7421875)"/>
<path d="M0 0 C3.56226168 0.91279492 7.1312369 1.69075416 10.73413086 2.42480469 C29.12934285 6.31490576 47.39697184 12.38352395 64.60913086 19.92480469 C66.6085275 20.7387883 68.60854219 21.55125523 70.60913086 22.36230469 C75.77402357 24.50813822 80.75335628 26.93089033 85.72241211 29.49511719 C87.74065803 30.49468147 89.79638262 31.42043969 91.87475586 32.28808594 C96.42994174 34.21377477 100.72267618 36.59557017 105.04663086 38.98730469 C105.91900391 39.46901123 106.79137695 39.95071777 107.69018555 40.44702148 C118.14513784 46.2715154 128.57745942 52.31489557 138.02319336 59.69824219 C139.5016968 60.84171529 141.0539527 61.88801925 142.60913086 62.92480469 C145.71678919 64.99657691 148.67203741 67.21254172 151.64428711 69.47167969 C153.40932382 70.77703487 155.20058998 71.98838034 157.04663086 73.17480469 C159.60913086 74.92480469 159.60913086 74.92480469 160.60913086 76.92480469 C162.62582913 78.05831002 162.62582913 78.05831002 164.60913086 78.92480469 C164.60913086 79.58480469 164.60913086 80.24480469 164.60913086 80.92480469 C165.15698242 81.15425781 165.70483398 81.38371094 166.26928711 81.62011719 C169.28352963 83.30084674 171.52691042 85.44433787 174.04663086 87.79980469 C176.79108407 90.35722284 179.48497153 92.82908789 182.45678711 95.12011719 C183.16706055 95.71566406 183.87733398 96.31121094 184.60913086 96.92480469 C184.60913086 97.58480469 184.60913086 98.24480469 184.60913086 98.92480469 C185.19992432 99.19107666 185.79071777 99.45734863 186.39941406 99.73168945 C188.65854699 100.95148645 190.15158651 102.20906899 191.96459961 104.01464844 C192.58222168 104.62824219 193.19984375 105.24183594 193.83618164 105.87402344 C194.48312988 106.53015625 195.13007812 107.18628906 195.79663086 107.86230469 C196.46936035 108.54035156 197.14208984 109.21839844 197.83520508 109.91699219 C202.26914424 114.43527548 206.39874439 119.08917191 210.31225586 124.06933594 C212.05014416 126.22987394 213.81212642 128.30731355 215.65600586 130.37402344 C221.4848487 136.90954976 226.95365936 143.51584563 231.92163086 150.73730469 C232.63295166 151.7692395 232.63295166 151.7692395 233.35864258 152.82202148 C236.60913086 157.65506457 236.60913086 157.65506457 236.60913086 159.92480469 C237.26913086 159.92480469 237.92913086 159.92480469 238.60913086 159.92480469 C240.04199219 161.89331055 240.04199219 161.89331055 241.69116211 164.63964844 C242.59511719 166.1352832 242.59511719 166.1352832 243.51733398 167.66113281 C244.14575195 168.71751953 244.77416992 169.77390625 245.42163086 170.86230469 C246.34685547 172.39467773 246.34685547 172.39467773 247.29077148 173.95800781 C250.46447165 179.23626579 253.56216518 184.54664017 256.52392578 189.94677734 C257.70241495 192.09483566 258.9044777 194.22882786 260.10913086 196.36230469 C262.33081663 200.35994617 264.39924736 204.42081439 266.42163086 208.52246094 C267.15962204 210.01543651 267.90780007 211.50347629 268.67163086 212.98339844 C270.90091098 217.31133679 272.77933339 221.70560767 274.54663086 226.24121094 C275.66102997 229.05588811 276.85191399 231.83085447 278.04663086 234.61230469 C280.41854703 240.28899431 282.40550051 246.05794628 284.29663086 251.90917969 C285.17359703 254.62245987 286.09227032 257.31591993 287.04663086 260.00292969 C296.15369479 285.89134839 301.23032374 313.0915336 303.39224243 340.40762329 C303.5970136 342.78417319 303.85680403 345.14876018 304.12329102 347.51904297 C304.68105317 353.07884145 304.77079393 358.59436208 304.77709961 364.17871094 C304.78042801 365.23726791 304.78375641 366.29582489 304.78718567 367.38645935 C304.79222399 369.62278819 304.79459496 371.85912447 304.79443359 374.09545898 C304.7965912 377.42607986 304.81469998 380.75635288 304.83374023 384.08691406 C304.89039163 404.85065937 303.71735216 425.42651243 299.92163086 445.86230469 C299.79518188 446.56463226 299.66873291 447.26695984 299.53845215 447.99057007 C296.90933249 462.5484733 294.11777423 477.74562131 288.57299805 491.49389648 C287.48490625 494.23810368 286.85732429 497.02366417 286.17163086 499.88964844 C285.30236245 503.03470983 283.91815374 505.94023253 282.60913086 508.92480469 C282.136231 510.29486314 281.67887346 511.67034883 281.23413086 513.04980469 C276.99887135 526.04384694 271.38498187 538.40411642 265.54663086 550.73730469 C265.11286133 551.66478516 264.6790918 552.59226562 264.23217773 553.54785156 C263.8087207 554.44181641 263.38526367 555.33578125 262.94897461 556.25683594 C262.38231079 557.4591687 262.38231079 557.4591687 261.80419922 558.68579102 C260.58994695 560.9607466 259.16331 562.87249451 257.60913086 564.92480469 C256.94314637 566.16669271 256.30947717 567.42649992 255.71069336 568.70214844 C253.7116958 572.80151452 251.42614102 576.63889106 248.98413086 580.48730469 C248.55028076 581.17493896 248.11643066 581.86257324 247.66943359 582.57104492 C241.2538442 592.69269913 234.62451009 602.645236 227.60913086 612.36230469 C227.13999268 613.01980713 226.67085449 613.67730957 226.1875 614.35473633 C225.04529179 615.916377 223.83326276 617.42651825 222.60913086 618.92480469 C221.94913086 618.92480469 221.28913086 618.92480469 220.60913086 618.92480469 C220.32038086 619.72917969 220.03163086 620.53355469 219.73413086 621.36230469 C218.60913086 623.92480469 218.60913086 623.92480469 216.60913086 624.92480469 C216.29975586 625.54355469 215.99038086 626.16230469 215.67163086 626.79980469 C214.55349612 629.03607418 213.38444677 630.18871337 211.60913086 631.92480469 C210.64394729 633.04131526 209.68630614 634.16436751 208.73413086 635.29199219 C203.86708809 640.8824452 198.60535458 646.0781383 193.35717773 651.30712891 C191.60927186 653.04966412 189.86679023 654.79749555 188.12475586 656.54589844 C176.8313345 667.84858462 176.8313345 667.84858462 171.60913086 671.92480469 C170.94913086 671.92480469 170.28913086 671.92480469 169.60913086 671.92480469 C169.27913086 672.91480469 168.94913086 673.90480469 168.60913086 674.92480469 C163.26029365 679.92480469 163.26029365 679.92480469 159.60913086 679.92480469 C159.37581055 680.51390625 159.14249023 681.10300781 158.90209961 681.70996094 C157.29643103 684.46045666 155.56837717 685.60726464 152.92163086 687.36230469 C151.58551758 688.25949219 151.58551758 688.25949219 150.22241211 689.17480469 C149.3600293 689.75230469 148.49764648 690.32980469 147.60913086 690.92480469 C146.27212169 691.89894616 144.93821755 692.87738149 143.60913086 693.86230469 C140.60913086 695.92480469 140.60913086 695.92480469 138.60913086 695.92480469 C138.60913086 696.58480469 138.60913086 697.24480469 138.60913086 697.92480469 C136.62475586 699.40527344 136.62475586 699.40527344 133.85913086 701.11230469 C132.86526367 701.72589844 131.87139648 702.33949219 130.84741211 702.97167969 C129.24446289 703.93847656 129.24446289 703.93847656 127.60913086 704.92480469 C126.50956055 705.58996094 125.40999023 706.25511719 124.27709961 706.94042969 C115.89889204 711.92480469 115.89889204 711.92480469 113.60913086 711.92480469 C113.60913086 712.58480469 113.60913086 713.24480469 113.60913086 713.92480469 C112.28913086 713.92480469 110.96913086 713.92480469 109.60913086 713.92480469 C109.31780273 713.39113281 109.02647461 712.85746094 108.72631836 712.30761719 C105.91451454 707.19685427 102.9671789 702.21121037 99.84350586 697.28417969 C98.54943832 694.81070882 98.01853267 692.67364538 97.60913086 689.92480469 C96.94913086 689.92480469 96.28913086 689.92480469 95.60913086 689.92480469 C95.24561523 689.24675781 94.88209961 688.56871094 94.50756836 687.87011719 C92.02303667 683.27054827 89.51337853 678.70433797 86.79663086 674.23730469 C84.17063294 669.91777809 81.69332343 665.52780345 79.23413086 661.11230469 C75.76793696 654.89339407 72.13556098 648.81235859 68.33569336 642.79199219 C66.59469485 639.90083177 65.11299704 636.94453598 63.60913086 633.92480469 C62.07718219 631.39061099 60.50129734 628.88933549 58.91381836 626.38964844 C57.57769643 623.86541809 57.02016012 621.73684631 56.60913086 618.92480469 C55.94913086 618.92480469 55.28913086 618.92480469 54.60913086 618.92480469 C53.93758153 617.63566981 53.27204227 616.34340265 52.60913086 615.04980469 C52.23788086 614.33050781 51.86663086 613.61121094 51.48413086 612.87011719 C50.60913086 610.92480469 50.60913086 610.92480469 50.60913086 608.92480469 C49.94913086 608.92480469 49.28913086 608.92480469 48.60913086 608.92480469 C48.24561523 608.24675781 47.88209961 607.56871094 47.50756836 606.87011719 C44.44341202 601.19749955 41.25720754 595.63365443 37.90991211 590.12402344 C36.33285157 587.45770187 34.99427633 584.69509563 33.60913086 581.92480469 C32.72429808 580.43073702 31.82839011 578.94320862 30.92553711 577.45996094 C27.52489567 571.82019718 24.27569028 566.10158698 21.04663086 560.36230469 C20.22001953 558.89760742 20.22001953 558.89760742 19.37670898 557.40332031 C16.86999265 552.95783879 14.37401439 548.50692303 11.90209961 544.04199219 C10.14253106 540.86979726 8.34842513 537.7245555 6.48413086 534.61230469 C6.00717773 533.81179688 5.53022461 533.01128906 5.03881836 532.18652344 C3.65681641 529.89667268 3.65681641 529.89667268 1.92944336 527.88183594 C0.60913086 525.92480469 0.60913086 525.92480469 0.60913086 521.92480469 C-0.05086914 521.92480469 -0.71086914 521.92480469 -1.39086914 521.92480469 C-2.09313055 520.68303773 -2.77716023 519.43094869 -3.45336914 518.17480469 C-3.8362207 517.47871094 -4.21907227 516.78261719 -4.61352539 516.06542969 C-5.54039723 513.51303889 -5.40924053 512.41589778 -4.39086914 509.92480469 C-1.31373168 507.10409535 2.03444056 505.05029622 5.60913086 502.92480469 C6.26913086 502.26480469 6.92913086 501.60480469 7.60913086 500.92480469 C8.59913086 500.92480469 9.58913086 500.92480469 10.60913086 500.92480469 C10.93913086 499.93480469 11.26913086 498.94480469 11.60913086 497.92480469 C13.25366211 496.52246094 13.25366211 496.52246094 15.42163086 494.98730469 C19.62390197 491.83222332 23.34636552 488.38963579 27.04663086 484.67480469 C27.56652588 484.15539307 28.0864209 483.63598145 28.62207031 483.10083008 C30.88881102 480.80200053 32.81230274 478.62004687 34.60913086 475.92480469 C35.26913086 475.92480469 35.92913086 475.92480469 36.60913086 475.92480469 C36.86049805 475.20808594 37.11186523 474.49136719 37.37084961 473.75292969 C38.72017611 470.67118714 40.38023207 468.34462643 42.42163086 465.67480469 C45.46987111 461.57373643 48.13466296 457.48814504 50.52319336 452.97558594 C51.53591436 451.06307325 52.62040437 449.21711986 53.73413086 447.36230469 C55.77032815 443.62927631 57.20172824 439.92275609 58.60913086 435.92480469 C59.08635371 434.67406129 59.56554793 433.42406843 60.04663086 432.17480469 C60.29413086 431.500625 60.54163086 430.82644531 60.79663086 430.13183594 C61.3602033 428.60097811 61.94510503 427.07786979 62.54663086 425.56152344 C75.47067842 390.67669193 71.75734502 350.21609098 56.92163086 316.61230469 C55.72758712 314.06419073 54.49455071 311.74762731 52.96459961 309.38183594 C51.60913086 306.92480469 51.60913086 306.92480469 51.60913086 302.92480469 C50.94913086 302.92480469 50.28913086 302.92480469 49.60913086 302.92480469 C49.28299805 302.30992187 48.95686523 301.69503906 48.62084961 301.06152344 C47.96536133 299.84916016 47.96536133 299.84916016 47.29663086 298.61230469 C46.86737305 297.81179688 46.43811523 297.01128906 45.99584961 296.18652344 C44.7393927 293.93997714 44.7393927 293.93997714 43.12866211 292.44433594 C41.60913086 290.92480469 41.60913086 290.92480469 40.28491211 288.67480469 C38.11575326 285.11515939 35.51357744 282.07605871 32.79663086 278.92480469 C32.03382813 278.01988281 32.03382813 278.01988281 31.25561523 277.09667969 C27.97057373 273.26621304 24.54533972 270.07935505 20.60913086 266.92480469 C19.86663086 266.16167969 19.12413086 265.39855469 18.35913086 264.61230469 C-5.14720786 241.64020094 -40.65971905 227.36896434 -73.39086914 226.92480469 C-74.10339844 226.9111084 -74.81592773 226.89741211 -75.55004883 226.88330078 C-80.14013319 226.80137024 -84.72271176 226.80343773 -89.31274414 226.88769531 C-91.13024771 226.92015073 -92.9480953 226.93201407 -94.76586914 226.94042969 C-110.65773305 227.48573874 -128.21117391 231.7734844 -142.39086914 238.92480469 C-142.96901367 239.21564941 -143.5471582 239.50649414 -144.14282227 239.80615234 C-144.76608398 240.11987793 -145.3893457 240.43360352 -146.03149414 240.75683594 C-146.66224854 241.07402588 -147.29300293 241.39121582 -147.94287109 241.71801758 C-149.7232931 242.62148435 -151.49301424 243.54595002 -153.26196289 244.47167969 C-156.05036355 245.76666726 -158.36561209 246.49504855 -161.39086914 246.92480469 C-161.39086914 247.58480469 -161.39086914 248.24480469 -161.39086914 248.92480469 C-162.91045501 249.96932965 -164.48568129 250.93304744 -166.07836914 251.86230469 C-178.10039693 259.31627057 -189.89996301 269.54120142 -198.57446289 280.74511719 C-199.17387695 281.46441406 -199.77329102 282.18371094 -200.39086914 282.92480469 C-201.05086914 282.92480469 -201.71086914 282.92480469 -202.39086914 282.92480469 C-202.49399414 283.52292969 -202.59711914 284.12105469 -202.70336914 284.73730469 C-203.51021206 287.30453217 -204.50095484 288.03489039 -206.39086914 289.92480469 C-207.33525183 291.51001848 -208.27181766 293.10062096 -209.16040039 294.71777344 C-210.65890341 297.40556457 -212.24916029 300.03365496 -213.82836914 302.67480469 C-217.09677865 308.27779242 -219.83790002 313.96787674 -222.39086914 319.92480469 C-222.81239258 320.84648437 -223.23391602 321.76816406 -223.66821289 322.71777344 C-238.45508872 356.02195273 -237.2493984 398.6904318 -224.75415039 432.49121094 C-221.39297512 441.13423305 -217.32187393 449.06449013 -212.39086914 456.92480469 C-210.94694278 459.3228191 -209.51023805 461.72503001 -208.07446289 464.12792969 C-207.66325195 464.80339844 -207.25204102 465.47886719 -206.82836914 466.17480469 C-206.41458008 466.86058594 -206.00079102 467.54636719 -205.57446289 468.25292969 C-204.4808954 470.07629405 -204.4808954 470.07629405 -202.39086914 470.92480469 C-201.72420247 472.25813802 -201.05753581 473.59147135 -200.39086914 474.92480469 C-199.40197923 475.93579269 -198.40067235 476.93470496 -197.39086914 477.92480469 C-196.48726564 479.00166549 -195.59173892 480.08534261 -194.70336914 481.17480469 C-191.78338542 484.63769995 -188.5332002 487.48877098 -185.02758789 490.34667969 C-183.39086914 491.92480469 -183.39086914 491.92480469 -182.39086914 494.92480469 C-179.88639398 496.14350397 -179.88639398 496.14350397 -177.39086914 496.92480469 C-177.39086914 497.58480469 -177.39086914 498.24480469 -177.39086914 498.92480469 C-176.32739258 499.29605469 -176.32739258 499.29605469 -175.24243164 499.67480469 C-172.04706819 501.07551196 -169.55570502 502.83434915 -166.76586914 504.92480469 C-164.00086726 506.98529924 -161.26052066 509.01170367 -158.39086914 510.92480469 C-159.02731036 513.9163717 -160.01038927 516.34419422 -161.45727539 519.03417969 C-161.86010742 519.78828125 -162.26293945 520.54238281 -162.67797852 521.31933594 C-163.09885742 522.09664062 -163.51973633 522.87394531 -163.95336914 523.67480469 C-164.37811523 524.46757813 -164.80286133 525.26035156 -165.24047852 526.07714844 C-166.28669331 528.02851536 -167.33692867 529.97760283 -168.39086914 531.92480469 C-169.05086914 531.92480469 -169.71086914 531.92480469 -170.39086914 531.92480469 C-170.63321289 532.7665625 -170.87555664 533.60832031 -171.12524414 534.47558594 C-172.53968495 538.33037371 -174.47609927 541.64992835 -176.64086914 545.11230469 C-177.45507207 546.4406895 -178.26756357 547.77012476 -179.07836914 549.10058594 C-179.47411133 549.74979004 -179.86985352 550.39899414 -180.27758789 551.06787109 C-182.79728139 555.27067565 -185.08012788 559.60502133 -187.39086914 563.92480469 C-190.38878153 569.47649429 -193.56507045 574.90131097 -196.82836914 580.29980469 C-199.93610238 585.44132173 -202.89710631 590.62811407 -205.73461914 595.92480469 C-207.8541746 599.76399948 -210.09028283 603.52883961 -212.32836914 607.29980469 C-216.54568655 614.41062856 -220.54662264 621.60546118 -224.39086914 628.92480469 C-225.05086914 628.92480469 -225.71086914 628.92480469 -226.39086914 628.92480469 C-226.67961914 629.83230469 -226.96836914 630.73980469 -227.26586914 631.67480469 C-228.1561869 634.24683376 -229.10581327 636.53827235 -230.39086914 638.92480469 C-231.05086914 638.92480469 -231.71086914 638.92480469 -232.39086914 638.92480469 C-232.59711914 639.68792969 -232.80336914 640.45105469 -233.01586914 641.23730469 C-236.6023796 650.85567364 -242.50822707 659.64584447 -247.89086914 668.35058594 C-251.1812063 673.72308958 -254.08440829 679.18490692 -256.80102539 684.87011719 C-258.40894086 687.95952726 -260.19747858 690.85139714 -262.06396484 693.78808594 C-263.41189532 695.95866322 -264.67694033 698.16088407 -265.92602539 700.38964844 C-266.34303711 701.12634766 -266.76004883 701.86304688 -267.18969727 702.62207031 C-268.04480326 704.13800011 -268.89092873 705.65902498 -269.72875977 707.18457031 C-270.14448242 707.91224609 -270.56020508 708.63992188 -270.98852539 709.38964844 C-271.53778687 710.37372681 -271.53778687 710.37372681 -272.09814453 711.37768555 C-273.75016848 713.35481033 -274.85355367 713.66884471 -277.39086914 713.92480469 C-279.81665039 712.69042969 -279.81665039 712.69042969 -282.39086914 710.92480469 C-283.64963867 710.14363281 -283.64963867 710.14363281 -284.93383789 709.34667969 C-293.42353221 703.97948742 -301.66741204 698.34834052 -309.60180664 692.18652344 C-311.4572272 690.87800632 -313.33800482 689.88793266 -315.39086914 688.92480469 C-315.39086914 688.26480469 -315.39086914 687.60480469 -315.39086914 686.92480469 C-316.05086914 686.73917969 -316.71086914 686.55355469 -317.39086914 686.36230469 C-321.06284593 684.60281581 -323.64037946 682.22496824 -326.62133789 679.48339844 C-328.3190142 677.85423753 -328.3190142 677.85423753 -330.39086914 676.92480469 C-330.39086914 676.26480469 -330.39086914 675.60480469 -330.39086914 674.92480469 C-331.11274414 674.69792969 -331.83461914 674.47105469 -332.57836914 674.23730469 C-335.96787217 672.65553661 -337.81551011 670.62579099 -340.39086914 667.92480469 C-341.36024414 667.14105469 -342.32961914 666.35730469 -343.32836914 665.54980469 C-345.58013524 663.71630557 -347.42019735 661.79062031 -349.26586914 659.54980469 C-352.06468773 656.17065364 -355.18066136 653.38655706 -358.51196289 650.54199219 C-362.72510541 646.91571152 -366.33612696 642.87346117 -369.89868164 638.62792969 C-371.26877175 637.06416192 -372.76344883 635.61190237 -374.26586914 634.17480469 C-376.39086914 631.92480469 -376.39086914 631.92480469 -376.39086914 628.92480469 C-377.22231445 628.63089844 -377.22231445 628.63089844 -378.07055664 628.33105469 C-381.35115857 626.34281109 -383.28825584 623.47207393 -385.51586914 620.42480469 C-388.74807584 616.00311387 -388.74807584 616.00311387 -392.39086914 611.92480469 C-392.39086914 610.93480469 -392.39086914 609.94480469 -392.39086914 608.92480469 C-393.38086914 608.59480469 -394.37086914 608.26480469 -395.39086914 607.92480469 C-397.10961914 605.81542969 -397.10961914 605.81542969 -398.89086914 603.17480469 C-399.77258789 601.88316406 -399.77258789 601.88316406 -400.67211914 600.56542969 C-401.77800491 598.86638701 -402.85382272 597.14718735 -403.89086914 595.40527344 C-405.96560365 591.97439737 -408.32489057 588.77048994 -410.67211914 585.52246094 C-412.51108381 582.74311661 -413.90983864 579.91143254 -415.39086914 576.92480469 C-417.82314531 572.58098986 -420.33352583 568.28141124 -422.83227539 563.97558594 C-427.32339365 556.18117667 -431.62412912 548.37965081 -434.65698242 539.89355469 C-435.42288694 537.83891263 -436.28982381 535.85910796 -437.19555664 533.86230469 C-439.5469242 528.61050566 -441.76369576 523.30824792 -443.95336914 517.98730469 C-444.33944336 517.06240234 -444.72551758 516.1375 -445.12329102 515.18457031 C-447.2536401 510.00568079 -449.1134468 504.84549181 -450.66015625 499.46362305 C-451.43679154 496.76525004 -452.26802065 494.0879688 -453.10961914 491.40917969 C-456.36278184 480.96628432 -459.31432356 470.66925344 -461.39086914 459.92480469 C-461.71604082 458.50905983 -462.04301532 457.0937284 -462.37133789 455.67871094 C-463.47980191 450.73078457 -464.20827025 445.75928224 -464.89086914 440.73730469 C-465.13038416 439.01463894 -465.36996893 437.29198288 -465.60961914 435.56933594 C-465.73167725 434.6640918 -465.85373535 433.75884766 -465.97949219 432.82617188 C-466.26349425 430.82315673 -466.57393997 428.82377556 -466.90576172 426.828125 C-468.55302639 416.57080679 -468.88533037 406.41489777 -469.07836914 396.04980469 C-469.09666779 395.12862854 -469.11496643 394.20745239 -469.13381958 393.25836182 C-469.25703521 386.81408017 -469.33831814 380.37003007 -469.39086914 373.92480469 C-469.39771729 373.16997803 -469.40456543 372.41515137 -469.41162109 371.63745117 C-469.65600232 339.71834522 -464.94447367 307.66964128 -456.39086914 276.92480469 C-456.16512207 276.11060059 -455.939375 275.29639648 -455.70678711 274.45751953 C-454.34080081 269.58962281 -452.88126036 264.75590276 -451.39086914 259.92480469 C-451.05313477 258.76851563 -450.71540039 257.61222656 -450.36743164 256.42089844 C-448.49784698 250.08674562 -446.29771117 244.03823484 -443.67993164 237.97558594 C-442.30359873 234.71826471 -441.06287133 231.42576915 -439.82836914 228.11230469 C-438.03151844 223.38641835 -435.98553251 219.24924364 -433.39086914 214.92480469 C-432.6835266 213.28505608 -431.97743496 211.64464715 -431.29321289 209.99511719 C-428.03288508 202.51471139 -424.17534095 195.38160448 -419.89868164 188.44042969 C-418.26145788 185.70889575 -416.76168141 182.92352975 -415.26586914 180.11230469 C-413.2593218 176.37760531 -411.08962464 173.20186493 -408.39086914 169.92480469 C-407.15070245 167.24534019 -407.15070245 167.24534019 -406.39086914 164.92480469 C-405.73086914 164.92480469 -405.07086914 164.92480469 -404.39086914 164.92480469 C-404.14336914 164.20292969 -403.89586914 163.48105469 -403.64086914 162.73730469 C-402.27133699 159.65585734 -400.53089892 157.51878018 -398.39086914 154.92480469 C-397.97836914 154.2196875 -397.56586914 153.51457031 -397.14086914 152.78808594 C-394.75920469 148.89130013 -392.05811361 145.27048919 -389.32836914 141.61230469 C-388.51529297 140.50145508 -388.51529297 140.50145508 -387.68579102 139.36816406 C-387.16436523 138.66884766 -386.64293945 137.96953125 -386.10571289 137.24902344 C-385.63254639 136.61053467 -385.15937988 135.9720459 -384.671875 135.31420898 C-384.24914307 134.85570557 -383.82641113 134.39720215 -383.39086914 133.92480469 C-382.73086914 133.92480469 -382.07086914 133.92480469 -381.39086914 133.92480469 C-381.16399414 133.20292969 -380.93711914 132.48105469 -380.70336914 131.73730469 C-379.43077478 129.01031677 -378.10994942 127.52197756 -375.93383789 125.49902344 C-373.95815027 123.48332189 -372.30014752 121.28574872 -370.57836914 119.04980469 C-367.42027662 115.03962305 -364.11616655 111.70754784 -360.20336914 108.44433594 C-357.78125862 106.41373035 -355.59464629 104.18814338 -353.39086914 101.92480469 C-349.89322313 98.33747544 -346.23833842 95.13102909 -342.39086914 91.92480469 C-341.64836914 91.18230469 -340.90586914 90.43980469 -340.14086914 89.67480469 C-327.64584799 77.17978354 -313.45470795 66.6763629 -298.66821289 57.05761719 C-296.06548754 55.36382929 -293.50645107 53.6287092 -290.95336914 51.86230469 C-285.52537794 48.2298058 -279.77159962 45.13864759 -274.06274414 41.97558594 C-272.01030627 40.83806847 -269.99108668 39.68207962 -267.98461914 38.46386719 C-264.11070709 36.16519046 -260.12589653 34.08583633 -256.14086914 31.98730469 C-255.33262695 31.55740234 -254.52438477 31.1275 -253.69165039 30.68457031 C-238.64539146 22.75218261 -222.70914817 16.93718506 -206.56274414 11.66308594 C-204.16909553 10.84941761 -201.81637781 9.94846405 -199.45336914 9.04980469 C-187.91354512 4.83736543 -175.98276956 1.8531893 -163.91821289 -0.39941406 C-161.41056988 -0.87983736 -158.95468989 -1.40852023 -156.47290039 -1.99316406 C-106.63033926 -13.06175082 -49.47803467 -13.00561843 0 0 Z " fill="#FF0000" transform="translate(901.390869140625,8.0751953125)"/>
<path d="M0 0 C2.85407208 0.14279067 5.70402365 0.24221084 8.56054688 0.31640625 C18.97027341 0.63038383 28.90886025 2.18865997 39.12304688 4.19140625 C43.1580795 4.98119188 47.18150337 5.59464023 51.26367188 6.09765625 C57.29080399 6.91390631 63.16110583 8.20458006 69.07617188 9.59765625 C69.95668213 9.80318115 70.83719238 10.00870605 71.74438477 10.22045898 C77.08132614 11.51280569 82.08433715 13.17244134 87.20117188 15.16015625 C89.04747129 15.6136333 90.894081 16.06602231 92.74414062 16.50390625 C101.17010428 18.75440211 109.48225219 21.73549377 117.53710938 25.0625 C119.63855849 25.92834634 121.75017387 26.76951844 123.86523438 27.6015625 C124.84556641 27.9874353 124.84556641 27.9874353 125.84570312 28.38110352 C127.7267796 29.12105852 129.60848959 29.85940243 131.49023438 30.59765625 C135.5055929 32.23739429 139.34245064 34.18526364 143.20117188 36.16015625 C144.60409903 36.86341469 146.00774991 37.56523116 147.41210938 38.265625 C152.00846354 40.56380208 156.60481771 42.86197917 161.20117188 45.16015625 C161.20117188 45.82015625 161.20117188 46.48015625 161.20117188 47.16015625 C161.92304687 47.26328125 162.64492188 47.36640625 163.38867188 47.47265625 C166.4460918 48.22002557 168.58446822 49.44060814 171.20117188 51.16015625 C169.76435981 55.04381659 167.94162485 58.47860868 165.82617188 62.03515625 C165.20097656 63.0921875 164.57578125 64.14921875 163.93164062 65.23828125 C163.07505859 66.68460938 163.07505859 66.68460938 162.20117188 68.16015625 C161.51014882 69.36647828 160.82188711 70.57439507 160.13867188 71.78515625 C158.53188907 74.58406823 156.87854462 77.3410761 155.20117188 80.09765625 C152.63113917 84.35712669 150.35880501 88.67891821 148.20117188 93.16015625 C147.54117188 93.16015625 146.88117187 93.16015625 146.20117188 93.16015625 C146.09160156 93.88976562 145.98203125 94.619375 145.86914062 95.37109375 C145.16102082 98.3278045 144.14107868 100.23085371 142.51367188 102.78515625 C139.18893587 108.13049452 136.17485591 113.61349738 133.20117188 119.16015625 C132.54117188 119.16015625 131.88117187 119.16015625 131.20117188 119.16015625 C131.08515625 119.90007812 130.96914063 120.64 130.84960938 121.40234375 C130.19324052 124.19388842 129.35893838 125.88411739 127.82617188 128.28515625 C124.70281079 133.31263867 121.71878352 138.407744 118.76367188 143.53515625 C117.80294433 145.19933997 116.84200985 146.86340425 115.88085938 148.52734375 C115.42163086 149.32237305 114.96240234 150.11740234 114.48925781 150.93652344 C112.80077679 153.85136141 111.09494502 156.75570018 109.38867188 159.66015625 C107.1902888 163.41528906 105.07783579 167.20464311 103.01367188 171.03515625 C100.93024903 174.8980543 98.63607816 178.50779682 96.20117188 182.16015625 C94.80340009 184.79664303 93.48617637 187.46711491 92.20117188 190.16015625 C91.54117187 190.16015625 90.88117188 190.16015625 90.20117188 190.16015625 C90.09160156 190.88847656 89.98203125 191.61679687 89.86914062 192.3671875 C89.15986177 195.33288565 88.13297692 197.27631885 86.51367188 199.84765625 C85.97742188 200.71261719 85.44117188 201.57757812 84.88867188 202.46875 C84.33179688 203.35691406 83.77492188 204.24507812 83.20117188 205.16015625 C82.13392256 206.9072639 81.07126906 208.65718892 80.01367188 210.41015625 C79.54574219 211.1784375 79.0778125 211.94671875 78.59570312 212.73828125 C77.61037794 214.44949026 76.68727409 216.19724457 75.81054688 217.96655273 C73.22551874 223.09621794 70.28497501 228.01406397 67.38867188 232.97265625 C66.78474609 234.01486328 66.18082031 235.05707031 65.55859375 236.13085938 C61.96985594 242.28463691 58.23953604 248.29099257 54.20117188 254.16015625 C47.81924902 252.24557939 42.10341291 249.73530605 36.19335938 246.66015625 C4.39463286 230.7192803 -37.1538358 230.78437904 -70.57617188 241.65234375 C-86.20974625 247.06241702 -101.99713211 254.58690362 -114.79882812 265.16015625 C-115.78367187 265.96195313 -116.76851563 266.76375 -117.78320312 267.58984375 C-127.8105793 275.84820983 -137.42927341 284.30777561 -144.45898438 295.359375 C-144.90113281 295.95363281 -145.34328125 296.54789063 -145.79882812 297.16015625 C-146.45882813 297.16015625 -147.11882812 297.16015625 -147.79882812 297.16015625 C-148.06695312 297.88203125 -148.33507812 298.60390625 -148.61132812 299.34765625 C-149.79784174 302.15782008 -151.07368451 304.64432182 -152.79882812 307.16015625 C-153.45882813 307.16015625 -154.11882812 307.16015625 -154.79882812 307.16015625 C-154.88648438 307.84207031 -154.97414062 308.52398438 -155.06445312 309.2265625 C-155.97828404 312.87702535 -157.70133737 315.85897003 -159.54882812 319.09765625 C-168.72809746 335.86264272 -174.52545894 355.98225685 -174.79882812 375.16015625 C-174.81252441 375.97097656 -174.8262207 376.78179688 -174.84033203 377.6171875 C-174.93705835 384.13397753 -174.90613069 390.64373468 -174.79882812 397.16015625 C-174.77369141 399.03574219 -174.77369141 399.03574219 -174.74804688 400.94921875 C-173.81777533 423.22257754 -165.29227483 445.35844782 -153.79882812 464.28515625 C-153.32445312 465.07148437 -152.85007812 465.8578125 -152.36132812 466.66796875 C-140.56504021 485.88948184 -140.56504021 485.88948184 -123.79882812 500.16015625 C-123.79882812 500.82015625 -123.79882812 501.48015625 -123.79882812 502.16015625 C-122.93064453 502.56621094 -122.93064453 502.56621094 -122.04492188 502.98046875 C-119.79005419 504.16476447 -117.88291308 505.48994478 -115.86132812 507.03515625 C-115.16265625 507.56625 -114.46398437 508.09734375 -113.74414062 508.64453125 C-112.22053453 509.83159785 -110.72307785 511.05224185 -109.23632812 512.28515625 C-102.19190142 517.70394603 -93.75200552 521.26705395 -85.79882812 525.16015625 C-84.43564453 525.84658203 -84.43564453 525.84658203 -83.04492188 526.546875 C-49.13982254 542.95590781 -7.05227019 542.17147148 27.98632812 530.12109375 C35.40020365 527.42686561 42.29487913 523.94548449 49.20117188 520.16015625 C50.25046875 519.61101563 51.29976563 519.061875 52.38085938 518.49609375 C56.5272999 516.30488534 60.47620454 514.05590592 64.26367188 511.28515625 C67.20117188 509.16015625 67.20117188 509.16015625 69.20117188 509.16015625 C69.86117188 507.84015625 70.52117187 506.52015625 71.20117188 505.16015625 C72.19117188 505.16015625 73.18117188 505.16015625 74.20117188 505.16015625 C74.45511719 504.56847656 74.7090625 503.97679687 74.97070312 503.3671875 C76.336704 500.91705895 77.73053398 499.62419805 79.88867188 497.84765625 C86.91870861 492.24439181 86.91870861 492.24439181 92.20117188 485.16015625 C92.86117188 485.16015625 93.52117187 485.16015625 94.20117188 485.16015625 C94.48992187 484.35578125 94.77867187 483.55140625 95.07617188 482.72265625 C96.20117188 480.16015625 96.20117188 480.16015625 98.20117188 479.16015625 C99.23445121 477.51391459 100.22825892 475.84277866 101.20117188 474.16015625 C102.48447803 472.23788176 103.77665444 470.32150874 105.07617188 468.41015625 C110.49283428 460.29508327 114.87030412 452.33485962 118.20117188 443.16015625 C118.42949707 442.5455957 118.65782227 441.93103516 118.89306641 441.29785156 C122.11309758 432.55027503 124.69228582 423.82016896 126.45117188 414.66015625 C126.60199219 413.87987061 126.7528125 413.09958496 126.90820312 412.2956543 C128.46601582 403.61277826 129.22209122 394.9718821 130.20117188 386.16015625 C207.42117188 386.16015625 284.64117188 386.16015625 364.20117188 386.16015625 C364.20117188 406.96014981 364.20117188 406.96014981 363.53710938 414.05078125 C363.46482117 414.87642578 363.39253296 415.70207031 363.3180542 416.55273438 C363.08269125 419.17315365 362.83183751 421.79164432 362.57617188 424.41015625 C362.48914001 425.31858276 362.40210815 426.22700928 362.31243896 427.16296387 C359.83744836 452.58620072 355.98619345 479.40884837 346.20117188 503.16015625 C345.72023925 505.14801108 345.2395611 507.13593176 344.76367188 509.125 C343.89440347 512.27006139 342.51019475 515.17558409 341.20117188 518.16015625 C340.7500868 519.48895506 340.31363441 520.82277415 339.88867188 522.16015625 C334.17431048 539.62892944 325.9993006 556.07374716 317.20117188 572.16015625 C316.73710938 573.01480469 316.27304687 573.86945312 315.79492188 574.75 C313.18981822 579.5009743 310.43044891 584.14888415 307.62695312 588.78515625 C305.76752775 591.88250043 303.97873104 595.01524388 302.20117188 598.16015625 C301.54117188 598.16015625 300.88117187 598.16015625 300.20117188 598.16015625 C299.92789063 598.89621094 299.65460937 599.63226562 299.37304688 600.390625 C296.3043844 607.64289732 290.96145468 613.93838311 286.20117188 620.16015625 C285.35688835 621.28996608 284.51318599 622.42021034 283.66992188 623.55078125 C282.76397995 624.75413824 281.85772877 625.95726248 280.95117188 627.16015625 C280.51450195 627.74893555 280.07783203 628.33771484 279.62792969 628.94433594 C278.53306261 630.38683396 277.37207246 631.77866203 276.20117188 633.16015625 C275.54117188 633.16015625 274.88117187 633.16015625 274.20117188 633.16015625 C273.93304687 633.92328125 273.66492188 634.68640625 273.38867188 635.47265625 C272.20459079 638.15241871 271.26336856 639.17727483 269.20117188 641.16015625 C268.13070232 642.38238858 267.06876195 643.61212322 266.01367188 644.84765625 C262.86295046 648.47696826 259.52993878 651.85542275 256.10351562 655.22265625 C254.36566714 656.99262103 252.77718901 658.80922624 251.20117188 660.72265625 C246.99944429 665.73504323 241.90736317 669.7507446 236.88867188 673.91015625 C233.91221737 676.40207165 231.34389324 679.00673078 228.70117188 681.84765625 C226.20117187 684.16015625 226.20117187 684.16015625 223.20117188 684.16015625 C222.99492188 684.7221875 222.78867187 685.28421875 222.57617188 685.86328125 C220.70775244 688.98439099 218.09731242 690.81318656 215.20117188 692.91015625 C214.65460937 693.32136719 214.10804688 693.73257813 213.54492188 694.15625 C209.47318184 697.16015625 209.47318184 697.16015625 207.20117188 697.16015625 C207.20117188 697.82015625 207.20117188 698.48015625 207.20117188 699.16015625 C205.88138569 700.09789907 204.55034208 701.02193351 203.18164062 701.88671875 C199.93461959 703.97454687 196.81417433 706.24350838 193.66601562 708.4765625 C191.2279174 710.14188791 188.74584324 711.66376146 186.20117188 713.16015625 C185.05068359 713.85044922 185.05068359 713.85044922 183.87695312 714.5546875 C182.21583936 715.55135576 180.55434709 716.54739331 178.89257812 717.54296875 C177.1059548 718.61649858 175.32206487 719.69459134 173.54101562 720.77734375 C172.68636719 721.29554688 171.83171875 721.81375 170.95117188 722.34765625 C170.18289063 722.81558594 169.41460938 723.28351562 168.62304688 723.765625 C165.8679308 725.35203861 163.05387994 726.75677942 160.20117188 728.16015625 C159.07324219 728.72992187 157.9453125 729.2996875 156.78320312 729.88671875 C141.19225156 737.75283584 125.67589263 745.32036438 109.20117188 751.16015625 C108.04359375 751.58941406 106.88601563 752.01867188 105.69335938 752.4609375 C93.15217191 757.07460897 80.46277449 760.89666808 67.34960938 763.484375 C64.16671975 764.12555514 64.16671975 764.12555514 60.97070312 765.1171875 C45.81760002 769.30980774 29.83810125 770.94306433 14.20117188 772.16015625 C12.48293213 772.30348389 12.48293213 772.30348389 10.72998047 772.44970703 C-9.5673631 774.10980085 -29.46482301 774.29546263 -49.79882812 773.16015625 C-50.95060547 773.09812012 -52.10238281 773.03608398 -53.2890625 772.97216797 C-66.92819413 772.19204795 -80.10536211 770.47081553 -93.46630859 767.640625 C-95.63628787 767.19363743 -97.80762781 766.79001223 -99.99023438 766.41015625 C-117.30082621 763.38467049 -134.2342086 758.55909641 -150.79882812 752.72265625 C-151.62382812 752.43583984 -152.44882812 752.14902344 -153.29882812 751.85351562 C-163.47359592 748.28439786 -173.36315712 744.11180453 -183.23632812 739.78515625 C-184.81897461 739.10066406 -184.81897461 739.10066406 -186.43359375 738.40234375 C-193.43715496 735.33370647 -200.14013027 731.91444234 -206.79882812 728.16015625 C-208.31896891 727.32556026 -209.83968852 726.49201645 -211.36132812 725.66015625 C-216.24200331 722.9362583 -221.0296876 720.07428285 -225.79882812 717.16015625 C-226.46027832 716.76038574 -227.12172852 716.36061523 -227.80322266 715.94873047 C-230.01480887 714.61012582 -232.21976769 713.26111023 -234.42382812 711.91015625 C-235.14771729 711.47356689 -235.87160645 711.03697754 -236.61743164 710.5871582 C-238.37940555 709.49933451 -240.0943151 708.33597417 -241.79882812 707.16015625 C-241.79882812 706.50015625 -241.79882812 705.84015625 -241.79882812 705.16015625 C-242.38293457 705.04841064 -242.96704102 704.93666504 -243.56884766 704.8215332 C-246.02078653 704.0943269 -247.46142672 703.13601109 -249.47851562 701.578125 C-250.16042969 701.05798828 -250.84234375 700.53785156 -251.54492188 700.00195312 C-252.59873047 699.18307617 -252.59873047 699.18307617 -253.67382812 698.34765625 C-255.06589541 697.27713327 -256.45910677 696.20809618 -257.85351562 695.140625 C-258.52479492 694.6254834 -259.19607422 694.1103418 -259.88769531 693.57958984 C-261.54338299 692.34988006 -263.2642596 691.20887983 -264.99414062 690.0859375 C-267.9806211 688.03533182 -270.27183655 685.74973585 -272.79882812 683.16015625 C-274.32895281 681.85611859 -275.86007343 680.5531314 -277.40454102 679.26611328 C-285.28391151 672.67079641 -292.60639344 665.55046542 -299.86132812 658.28515625 C-300.35969177 657.7875177 -300.85805542 657.28987915 -301.371521 656.77716064 C-316.79882812 641.34731122 -316.79882812 641.34731122 -316.79882812 638.16015625 C-317.45882812 638.16015625 -318.11882812 638.16015625 -318.79882812 638.16015625 C-320.30664062 636.48046875 -320.30664062 636.48046875 -321.92382812 634.28515625 C-322.46265625 633.56585937 -323.00148438 632.8465625 -323.55664062 632.10546875 C-324.79882812 630.16015625 -324.79882812 630.16015625 -324.79882812 628.16015625 C-326.11882812 627.50015625 -327.43882812 626.84015625 -328.79882812 626.16015625 C-328.79882812 625.17015625 -328.79882812 624.18015625 -328.79882812 623.16015625 C-329.45882812 623.16015625 -330.11882812 623.16015625 -330.79882812 623.16015625 C-332.43312563 621.06565945 -333.94050047 618.98233534 -335.42382812 616.78515625 C-335.8440625 616.181875 -336.26429688 615.57859375 -336.69726562 614.95703125 C-339.79882812 610.4255276 -339.79882812 610.4255276 -339.79882812 608.16015625 C-340.45882812 608.16015625 -341.11882812 608.16015625 -341.79882812 608.16015625 C-343.17804383 606.12118585 -344.44059499 604.09757655 -345.67382812 601.97265625 C-347.58872049 598.70714588 -349.4844587 595.54852978 -351.87304688 592.59765625 C-353.95289402 589.96515195 -355.3032168 587.37664224 -356.73632812 584.34765625 C-358.40672581 580.91105253 -360.06575503 577.5971085 -362.17382812 574.41015625 C-365.92194605 568.63635647 -368.78532632 562.34373165 -371.80810547 556.17089844 C-372.82691389 554.10315419 -373.86491319 552.04574779 -374.90429688 549.98828125 C-377.48746481 544.8257155 -379.62912934 539.50752411 -381.79882812 534.16015625 C-382.10900879 533.40557129 -382.41918945 532.65098633 -382.73876953 531.87353516 C-388.44814277 517.97972193 -393.1058638 504.1102457 -396.86914062 489.5703125 C-397.45534718 487.42006745 -398.09929649 485.28398132 -398.82226562 483.17578125 C-399.92836582 479.76014386 -400.62513221 476.37357563 -401.29882812 472.84765625 C-402.0539415 468.92024593 -402.82594635 465.01311087 -403.72851562 461.1171875 C-414.84213959 410.97357463 -414.4782691 352.39196072 -401.45288086 302.6784668 C-400.30334997 298.25240816 -399.44746189 293.77116799 -398.54492188 289.2890625 C-397.85826309 286.40940968 -396.9169717 283.89193448 -395.79882812 281.16015625 C-395.31023771 279.33465359 -394.85355646 277.50040463 -394.42382812 275.66015625 C-392.18868531 266.51741126 -389.53443974 257.55871904 -385.91601562 248.86328125 C-385.08113281 246.84321514 -384.27910999 244.80951152 -383.49414062 242.76953125 C-380.10614462 233.97080267 -376.15470318 225.58837797 -371.84423828 217.20703125 C-370.41926498 214.41698544 -369.03143814 211.60905888 -367.6418457 208.80126953 C-362.54830145 198.52729753 -357.0249697 188.79025196 -350.79882812 179.16015625 C-350.02879489 177.95995733 -349.25928615 176.75942179 -348.49023438 175.55859375 C-347.69736281 174.32155229 -346.9043952 173.08457238 -346.11132812 171.84765625 C-345.55880371 170.98587769 -345.55880371 170.98587769 -344.99511719 170.10668945 C-343.93360725 168.45531883 -342.86627548 166.80769515 -341.79882812 165.16015625 C-341.43966309 164.58217285 -341.08049805 164.00418945 -340.71044922 163.40869141 C-339.79142043 161.9585549 -338.80070239 160.55434339 -337.79882812 159.16015625 C-337.13882813 159.16015625 -336.47882813 159.16015625 -335.79882812 159.16015625 C-335.53972656 158.42796875 -335.280625 157.69578125 -335.01367188 156.94140625 C-333.75746451 154.06545883 -332.35169465 152.07673432 -330.36132812 149.66015625 C-329.65878906 148.80292969 -328.95625 147.94570313 -328.23242188 147.0625 C-324.99928772 143.20661127 -321.7555614 139.35962676 -318.48071289 135.5390625 C-316.43336637 133.1425988 -314.55001713 130.78693976 -312.79882812 128.16015625 C-312.13882813 128.16015625 -311.47882813 128.16015625 -310.79882812 128.16015625 C-310.58363525 127.62044189 -310.36844238 127.08072754 -310.14672852 126.5246582 C-308.31896389 123.31837304 -305.8312898 120.90714727 -303.23242188 118.328125 C-302.67949966 117.77328934 -302.12657745 117.21845367 -301.55690002 116.64680481 C-300.38503716 115.47358277 -299.21065205 114.30287537 -298.03393555 113.13452148 C-296.25990942 111.37109662 -294.49667027 109.59740454 -292.734375 107.82226562 C-287.30338243 102.38551937 -281.92390222 97.14324065 -275.68579102 92.6184082 C-273.67446941 91.13524786 -273.67446941 91.13524786 -271.67944336 88.97729492 C-269.79882812 87.16015625 -269.79882812 87.16015625 -267.79882812 87.16015625 C-267.46882812 86.17015625 -267.13882813 85.18015625 -266.79882812 84.16015625 C-264.55895352 82.39839201 -262.33382644 80.76447671 -259.98632812 79.16015625 C-258.72960271 78.28546507 -257.47308688 77.41047268 -256.21679688 76.53515625 C-255.62302246 76.12652344 -255.02924805 75.71789062 -254.41748047 75.296875 C-253.07432281 74.35362582 -251.76886588 73.3569588 -250.47460938 72.34765625 C-248.79882812 71.16015625 -248.79882812 71.16015625 -246.79882812 71.16015625 C-246.79882812 70.50015625 -246.79882812 69.84015625 -246.79882812 69.16015625 C-245.11914062 67.87109375 -245.11914062 67.87109375 -242.92382812 66.53515625 C-242.20453125 66.08914063 -241.48523438 65.643125 -240.74414062 65.18359375 C-238.79882812 64.16015625 -238.79882812 64.16015625 -236.79882812 64.16015625 C-236.79882812 63.50015625 -236.79882812 62.84015625 -236.79882812 62.16015625 C-234.32382812 61.66515625 -234.32382812 61.66515625 -231.79882812 61.16015625 C-231.79882812 60.50015625 -231.79882812 59.84015625 -231.79882812 59.16015625 C-229.82226562 57.7578125 -229.82226562 57.7578125 -227.17382812 56.22265625 C-226.3153125 55.71863281 -225.45679688 55.21460938 -224.57226562 54.6953125 C-222.70572879 53.66214493 -220.81503936 52.67158099 -218.90429688 51.72265625 C-216.0917001 50.30751322 -213.37109298 48.7839106 -210.64868164 47.20385742 C-194.18724785 37.68173863 -176.73649748 29.47652774 -158.79882812 23.16015625 C-157.28180794 22.61614496 -155.76488904 22.07185119 -154.24804688 21.52734375 C-140.03864757 16.45524046 -125.86161627 11.79202218 -111.04492188 8.8359375 C-108.67333529 8.3422137 -106.31623491 7.77740514 -103.97070312 7.171875 C-99.55594561 6.05198008 -95.11243225 5.33662277 -90.61132812 4.66015625 C-89.85013672 4.54285156 -89.08894531 4.42554688 -88.3046875 4.3046875 C-86.68710693 4.05582895 -85.06890406 3.8109915 -83.45019531 3.56958008 C-81.61451443 3.28611444 -79.78187495 2.9824947 -77.95214844 2.6628418 C-68.30510763 1.03084083 -58.68231786 0.44422252 -48.92382812 -0.02734375 C-48.05287506 -0.07098053 -47.181922 -0.11461731 -46.28457642 -0.15957642 C-30.79058297 -0.91638515 -15.49267244 -0.8195336 0 0 Z " fill="#00FF00" transform="translate(409.798828125,762.83984375)"/>
<path d="M0 0 C0.75571289 0.10610596 1.51142578 0.21221191 2.29003906 0.3215332 C6.88621366 1.03922744 11.13585481 2.24611037 15.51635742 3.81103516 C17.83897832 4.63202263 17.83897832 4.63202263 21.4375 5.375 C37.14892057 9.15448686 51.24512292 18.7423691 60.0625 32.1875 C74.45489392 56.15983112 76.83403868 85.73567674 78.35766602 113.01782227 C78.49608953 115.37102194 78.65332557 117.72317895 78.82788086 120.07397461 C79.69627026 132.10980527 79.76130505 144.12386632 79.75 156.1875 C79.74959213 157.82433243 79.74959213 157.82433243 79.74917603 159.49423218 C79.71924755 185.76352949 79.4774524 212.31096931 74.94482422 238.25732422 C74.55327927 240.55408788 74.21109654 242.85410959 73.87890625 245.16015625 C71.20213065 263.29593365 66.56839562 282.09292526 54.5625 296.5 C53.9025 296.5 53.2425 296.5 52.5625 296.5 C52.315 297.139375 52.0675 297.77875 51.8125 298.4375 C50.5625 300.5 50.5625 300.5 48.5 301.0625 C47.860625 301.206875 47.22125 301.35125 46.5625 301.5 C46.2325 302.49 45.9025 303.48 45.5625 304.5 C21.97646228 320.98229032 -10.74747164 323.1142539 -38.4375 324.5 C-39.49227539 324.55639648 -40.54705078 324.61279297 -41.63378906 324.67089844 C-58.00975572 325.53602453 -74.18718756 325.74677985 -90.5625 324.625 C-91.23625671 324.57920807 -91.91001343 324.53341614 -92.60418701 324.48623657 C-97.21633158 324.17135475 -101.82697316 323.83781919 -106.4375 323.5 C-107.4378125 323.43055176 -108.438125 323.36110352 -109.46875 323.28955078 C-135.27382457 321.44700094 -164.2923195 315.74598826 -182.671875 296.11328125 C-206.68752001 267.35770631 -207.58630648 220.65186338 -207.60546875 185.13671875 C-207.60869951 183.69204173 -207.61206478 182.24736501 -207.61555481 180.8026886 C-207.62149224 177.7899195 -207.62340059 174.77717882 -207.62280273 171.7644043 C-207.62272196 168.73276745 -207.62959585 165.70128327 -207.64331055 162.66967773 C-207.725655 144.17921361 -207.2809738 125.91863279 -205.4375 107.5 C-205.31385851 106.14283826 -205.1919678 104.78551488 -205.07250977 103.42797852 C-202.34403575 73.29902384 -198.6897032 40.1365869 -175.4375 18.5 C-169.62425948 14.17043729 -163.10120611 11.27183021 -156.4375 8.5 C-155.37144531 8.01789063 -154.30539063 7.53578125 -153.20703125 7.0390625 C-139.50545596 1.20283565 -124.29253775 -0.19769018 -109.625 -1.75 C-108.84493591 -1.83281219 -108.06487183 -1.91562439 -107.26116943 -2.00094604 C-71.17175794 -5.77346902 -35.90256946 -5.11663298 0 0 Z M-134.32421875 64.70703125 C-145.42111487 79.37298454 -143.41688422 105.87293937 -144.4375 123.5 C-144.50952637 124.73959473 -144.58155273 125.97918945 -144.65576172 127.25634766 C-146.25318732 156.92948149 -146.62996139 187.13005565 -143.70654297 216.72412109 C-143.45181262 219.35232808 -143.23806406 221.98064273 -143.03515625 224.61328125 C-142.11243058 235.61248781 -140.85480999 248.63691618 -132.4375 256.5 C-132.1075 257.49 -131.7775 258.48 -131.4375 259.5 C-124.90046898 263.9993711 -117.41821053 265.74958848 -109.75 267.25 C-108.75677734 267.45753906 -107.76355469 267.66507813 -106.74023438 267.87890625 C-97.57934837 269.76586616 -88.84666669 270.67536915 -79.49609375 270.73828125 C-77.75804222 270.75038887 -77.75804222 270.75038887 -75.98487854 270.76274109 C-73.52972897 270.77654569 -71.0745605 270.78728397 -68.61938477 270.79516602 C-66.14992503 270.80659795 -63.68048824 270.82690705 -61.21118164 270.85668945 C-28.06146726 271.71348334 -28.06146726 271.71348334 1.76196289 259.27441406 C8.14264149 252.98630938 10.69272557 246.00477272 12.375 237.375 C12.57802734 236.42496094 12.78105469 235.47492188 12.99023438 234.49609375 C14.78142058 225.97170266 15.77637326 217.61968121 16.1171875 208.921875 C16.15923309 207.84951599 16.20127869 206.77715698 16.24459839 205.67230225 C16.75481309 191.02753981 16.71320257 176.37582553 16.69287109 161.72412109 C16.68715546 157.57059065 16.69059071 153.41712391 16.69628716 149.26359558 C17.09052127 116.46983765 17.09052127 116.46983765 13.1875 84 C12.97867188 82.84886719 12.76984375 81.69773437 12.5546875 80.51171875 C11.53125804 75.15119493 10.54493555 71.1237161 7.5625 66.5 C7.129375 65.448125 7.129375 65.448125 6.6875 64.375 C2.95257232 58.15012054 -8.2535772 55.67616489 -14.8762207 53.92480469 C-45.40557366 46.48858074 -110.01980221 41.62804747 -134.32421875 64.70703125 Z " fill="#040404" transform="translate(213.4375,1629.5)"/>
<path d="M0 0 C1.11656982 0.00483398 2.23313965 0.00966797 3.38354492 0.01464844 C6.63103911 0.03795637 9.87779707 0.07613861 13.125 0.125 C14.38932861 0.14385254 14.38932861 0.14385254 15.67919922 0.16308594 C42.57465287 0.71856633 77.30234609 2.89281234 98 22.375 C113.83539658 39.54451424 119.39166824 64.44329101 119.22265625 87.34375 C119.22164917 88.00407227 119.22064209 88.66439453 119.21960449 89.34472656 C119.21443936 91.77150247 119.2004791 94.1982533 119.1875 96.625 C119.166875 102.07 119.14625 107.515 119.125 113.125 C98.665 113.125 78.205 113.125 57.125 113.125 C56.795 105.865 56.465 98.605 56.125 91.125 C53.19138481 75.10686769 53.19138481 75.10686769 43.125 63.125 C16.4179667 48.56484028 -34.58214714 52.82973384 -62.95483398 60.96240234 C-70.52743101 63.39567823 -75.43045985 67.07249195 -79.25 74.125 C-82.52205099 81.21954046 -83.48745248 88.63671923 -84.4375 96.3125 C-84.56318359 97.27736328 -84.68886719 98.24222656 -84.81835938 99.23632812 C-86.39336448 111.6137243 -87.03676721 123.84467801 -87.04296875 136.31640625 C-87.04619676 137.87125171 -87.04956187 139.42609689 -87.05305481 140.98094177 C-87.05900876 144.23266296 -87.06089901 147.48435774 -87.06030273 150.73608398 C-87.06022213 154.01022952 -87.06706482 157.2842332 -87.08081055 160.55834961 C-90.32947165 213.17305287 -90.32947165 213.17305287 -75.8671875 260.61328125 C-68.20426662 267.04573311 -60.71751273 270.23578319 -50.91015625 271.9609375 C-49.21996117 272.26951187 -49.21996117 272.26951187 -47.49562073 272.58432007 C-36.2169532 274.4875088 -25.06115242 274.88575305 -13.64282227 274.77685547 C-10.30825635 274.74996578 -6.97704604 274.77685319 -3.64257812 274.80859375 C7.63781135 274.82988394 18.55120275 274.09112715 29.65234375 272.0234375 C31.16206505 271.75800644 31.16206505 271.75800644 32.70228577 271.48721313 C40.59432639 269.83964614 47.68332042 266.44465619 52.80381775 260.01791382 C61.73101741 246.14914784 59.59397811 225.99361295 60.125 211.125 C80.915 211.125 101.705 211.125 123.125 211.125 C123.125 235.56034276 123.125 235.56034276 122.3125 243.75 C122.22266846 244.69818604 122.13283691 245.64637207 122.0402832 246.62329102 C120.1261174 265.87603186 117.45665381 284.36712854 107.125 301.125 C106.465 301.125 105.805 301.125 105.125 301.125 C104.7846875 302.2078125 104.7846875 302.2078125 104.4375 303.3125 C101.72071747 309.13417686 97.12581023 311.95079096 91.5 314.6875 C90.37335938 315.24566406 89.24671875 315.80382813 88.0859375 316.37890625 C67.53886225 325.76700321 45.81687095 327.58734694 23.5625 328.9375 C22.52606354 329.0007547 21.48962708 329.0640094 20.42178345 329.12918091 C0.23845634 330.32875319 -19.68509099 330.18926943 -39.875 329.125 C-40.88771973 329.07649902 -41.90043945 329.02799805 -42.94384766 328.97802734 C-70.86828023 327.56725008 -105.86247933 323.64577991 -126.1953125 302.12890625 C-128.60063447 299.2593012 -130.19525405 296.4844919 -131.875 293.125 C-132.514375 291.990625 -133.15375 290.85625 -133.8125 289.6875 C-139.55894972 277.93792487 -142.02959164 264.82403055 -144 252 C-144.18760391 250.81059814 -144.18760391 250.81059814 -144.3789978 249.59716797 C-147.56427898 229.13307945 -148.73186351 208.50378027 -149.7416687 187.83590698 C-149.8752678 185.11955508 -150.01666391 182.40367973 -150.15844727 179.68774414 C-155.97955574 64.76134757 -155.97955574 64.76134757 -125.0625 29.5625 C-121.62690318 25.77827251 -118.22811693 22.78367787 -113.875 20.125 C-113.24464844 19.71765625 -112.61429688 19.3103125 -111.96484375 18.890625 C-105.07055837 14.71539423 -97.5599945 12.37430924 -89.875 10.125 C-89.18083984 9.91343262 -88.48667969 9.70186523 -87.77148438 9.48388672 C-60.20481413 1.27240568 -28.65647583 -0.13522521 0 0 Z " fill="#040404" transform="translate(1226.875,1624.875)"/>
<path d="M0 0 C0.98613281 0.04769531 1.97226563 0.09539062 2.98828125 0.14453125 C5.36735236 0.26002014 7.74622922 0.37850885 10.125 0.5 C13.40227409 7.83357234 15.97844425 15.12227616 18.09765625 22.8671875 C19.87545112 29.15368649 22.0231749 35.3159067 24.125 41.5 C26.92792366 49.81272065 29.65375907 58.13812789 32.25 66.51708984 C34.43574829 73.54734431 36.77707095 80.52224836 39.125 87.5 C39.95911528 89.99973922 40.79244723 92.49973995 41.625 95 C42.0375 96.2375 42.45 97.475 42.875 98.75 C56.5625 139.8125 56.5625 139.8125 57.8046875 143.54296875 C58.74328222 146.35946504 59.6869765 149.17420882 60.6328125 151.98828125 C63.23227751 159.73432708 65.76414903 167.48808916 68.1328125 175.30859375 C69.2210675 178.80900451 70.38690593 182.27798149 71.5625 185.75 C73.6837702 192.04833929 75.6058363 198.38653968 77.42553711 204.77832031 C78.47937329 208.44940979 79.70288738 211.95947065 81.125 215.5 C81.61524504 217.283199 82.07164986 219.07592939 82.5 220.875 C85.34683991 232.53416846 88.53875335 244.04762387 92.125 255.5 C93.13367057 258.83075899 94.13120814 262.1647743 95.125 265.5 C98.13989482 258.7790487 100.59290722 252.24046442 102.2578125 245.06640625 C103.36606693 240.5085851 104.6436065 236.00812831 105.9375 231.5 C106.1943457 230.60506836 106.45119141 229.71013672 106.71582031 228.78808594 C109.2216304 220.10271953 111.80986855 211.44227469 114.43481445 202.79223633 C114.88276911 201.30449446 115.32439698 199.8148274 115.75854492 198.32299805 C118.5184648 188.89870997 121.73216287 179.61866782 124.86108398 170.31225586 C127.75055495 161.71143292 130.58847292 153.10737952 133.22436523 144.42456055 C134.63018495 139.8595526 136.15647929 135.33675221 137.6875 130.8125 C139.71124565 124.83100785 141.64483442 118.83888395 143.43920898 112.78442383 C144.35597956 109.7305889 145.3570825 106.70899454 146.375 103.6875 C146.80471983 102.40626084 147.23440519 101.12501013 147.6640625 99.84375 C148.15100655 98.39582152 148.63798851 96.94790579 149.125 95.5 C150.3357214 91.89662985 151.54341363 88.29225659 152.75 84.6875 C153.03907227 83.82858154 153.32814453 82.96966309 153.62597656 82.0847168 C155.32372924 77.01143807 156.91555381 71.91760388 158.43701172 66.78881836 C159.35531285 63.73378888 160.35657506 60.71050079 161.375 57.6875 C161.80471983 56.40626084 162.23440519 55.12501013 162.6640625 53.84375 C163.15100655 52.39582152 163.63798851 50.94790579 164.125 49.5 C165.3357214 45.89662985 166.54341363 42.29225659 167.75 38.6875 C168.03907227 37.82858154 168.32814453 36.96966309 168.62597656 36.0847168 C170.30309716 31.07309151 171.87276013 26.04143566 173.375 20.97485352 C174.60557276 16.91420376 175.9578027 12.8956078 177.3125 8.875 C177.58513672 8.06160156 177.85777344 7.24820312 178.13867188 6.41015625 C178.79937683 4.43963271 179.46198089 2.4697461 180.125 0.5 C201.5263008 -0.49232191 222.7225075 -0.40815926 244.125 0.5 C244.1726064 2.39688841 244.206354 4.29412746 244.234375 6.19140625 C244.25467773 7.24787354 244.27498047 8.30434082 244.29589844 9.39282227 C244.07719773 13.36911359 242.88395633 16.31459286 241.2578125 19.90234375 C240.0258198 22.72743045 239.12974357 25.54657517 238.25 28.5 C236.64144253 33.87030212 234.91386566 39.18794841 233.125 44.5 C231.39404161 49.64893133 229.70052313 54.80077368 228.125 60 C226.3100448 65.98935215 224.32955684 71.91614523 222.3359375 77.84765625 C220.87268874 82.2152321 219.46096005 86.59133184 218.125 91 C216.3100448 96.98935215 214.32955684 102.91614523 212.3359375 108.84765625 C210.87268874 113.2152321 209.46096005 117.59133184 208.125 122 C206.54947259 127.19924046 204.85562506 132.35094883 203.125 137.5 C201.41536265 142.5867118 199.7400668 147.67503646 198.1875 152.8125 C196.15806662 159.51217755 193.92131974 166.13823154 191.69384766 172.77392578 C189.75765403 178.55753696 187.91677351 184.36069796 186.15234375 190.19921875 C184.86973149 194.32015929 183.49981808 198.40906757 182.125 202.5 C179.67377382 209.79969682 177.36286185 217.13186198 175.125 224.5 C172.29427193 233.70711211 169.35456065 242.86822339 166.28564453 251.9987793 C164.49643518 257.33818094 162.82063043 262.70441958 161.1875 268.09375 C159.89127936 272.24928088 158.51177991 276.3739759 157.125 280.5 C155.41536265 285.5867118 153.7400668 290.67503646 152.1875 295.8125 C149.32554731 305.09216477 146.19587856 314.28736432 143.125 323.5 C111.775 323.5 80.425 323.5 48.125 323.5 C46.02232434 319.29464869 44.53741736 316.01133348 43.25 311.625 C42.91097656 310.48933594 42.57195312 309.35367187 42.22265625 308.18359375 C41.67931641 306.36021484 41.67931641 306.36021484 41.125 304.5 C40.32117852 301.89310185 39.50482691 299.29019125 38.6875 296.6875 C37.4318613 292.681802 36.1774657 288.67585246 34.94140625 284.6640625 C32.29437618 276.09449361 29.49770746 267.58205621 26.64550781 259.07861328 C24.36089519 252.25104972 22.21104847 245.39079947 20.125 238.5 C17.29542849 229.29420227 14.35367491 220.13547878 11.2878418 211.00561523 C9.48270531 205.61467036 7.76902135 200.20184925 6.1171875 194.76171875 C4.78512463 190.38269319 3.41678898 186.01520768 2.04833984 181.64746094 C0.99544012 178.28618866 -0.05435067 174.92406818 -1.09375 171.55859375 C-3.53856345 163.65883323 -6.077 155.79717671 -8.73217773 147.96533203 C-9.99310861 144.22786557 -11.19021539 140.48198014 -12.30859375 136.69921875 C-14.00621208 130.98185132 -15.90628183 125.33809138 -17.8125 119.6875 C-20.61760416 111.32240353 -23.32683377 102.94689996 -25.875 94.5 C-28.7031952 85.29621698 -31.64481478 76.13983254 -34.70996094 67.01220703 C-36.87679335 60.54114285 -38.90033129 54.03223742 -40.875 47.5 C-43.00146492 40.55644108 -45.14584173 33.61862132 -47.3125 26.6875 C-47.51891113 26.0262915 -47.72532227 25.36508301 -47.93798828 24.68383789 C-49.05198992 21.11860254 -50.17357851 17.55594083 -51.3046875 13.99609375 C-51.53615479 13.26430908 -51.76762207 12.53252441 -52.00610352 11.77856445 C-52.45215814 10.36880172 -52.90047627 8.95975268 -53.35131836 7.55151367 C-54.875 2.72498646 -54.875 2.72498646 -54.875 0.5 C-51.00141892 0.35426591 -47.12772422 0.21205216 -43.25390625 0.07275391 C-41.30722726 0.0020777 -39.36064281 -0.07118759 -37.4140625 -0.14453125 C-24.91628533 -0.59088043 -12.49036437 -0.6392026 0 0 Z " fill="#040404" transform="translate(1412.875,1628.5)"/>
<path d="M0 0 C22.59157729 -0.47649729 48.84612733 2.49861952 66.1484375 18.12109375 C66.82261719 18.66894531 67.49679687 19.21679688 68.19140625 19.78125 C77.34196934 27.83445349 82.29299469 40.50895967 85.1484375 52.12109375 C85.47457031 53.18199219 85.80070313 54.24289062 86.13671875 55.3359375 C97.92001329 96.17040912 97.71736068 164.50934851 77.1484375 202.12109375 C73.72245053 207.56082879 69.40015437 214.03718813 63.1484375 216.12109375 C62.8184375 217.11109375 62.4884375 218.10109375 62.1484375 219.12109375 C36.85353108 234.87558026 2.66292821 236.26445963 -25.8515625 230.12109375 C-35.90427062 227.35838809 -45.25916753 223.43032247 -52.8515625 216.12109375 C-54.1509375 214.91453125 -54.1509375 214.91453125 -55.4765625 213.68359375 C-64.36584821 204.09252232 -64.36584821 204.09252232 -65.8515625 201.12109375 C-66.1815625 242.37109375 -66.5115625 283.62109375 -66.8515625 326.12109375 C-85.6615625 326.12109375 -104.4715625 326.12109375 -123.8515625 326.12109375 C-123.8515625 219.86109375 -123.8515625 113.60109375 -123.8515625 4.12109375 C-105.7015625 4.12109375 -87.5515625 4.12109375 -68.8515625 4.12109375 C-68.5215625 13.03109375 -68.1915625 21.94109375 -67.8515625 31.12109375 C-66.8615625 30.79109375 -65.8715625 30.46109375 -64.8515625 30.12109375 C-64.6040625 29.39921875 -64.3565625 28.67734375 -64.1015625 27.93359375 C-62.54893843 24.44018958 -60.5091357 22.88974097 -57.57421875 20.52734375 C-55.73996379 19.09297294 -55.73996379 19.09297294 -53.9140625 17.05859375 C-40.16688811 4.14458145 -18.16052712 0.77120047 0 0 Z M-56.7890625 55.68359375 C-73.66503063 80.02513885 -68.38379228 122.56339389 -64.8515625 150.12109375 C-64.7071875 151.38050781 -64.5628125 152.63992188 -64.4140625 153.9375 C-63.51965326 160.82924266 -61.78299169 166.81709796 -58.8515625 173.12109375 C-58.1915625 173.12109375 -57.5315625 173.12109375 -56.8515625 173.12109375 C-56.6453125 173.65734375 -56.4390625 174.19359375 -56.2265625 174.74609375 C-51.90105384 182.21742689 -46.51356575 184.37130957 -38.58203125 187.140625 C-21.42036884 191.65117711 2.25253254 191.28523054 18.1484375 183.12109375 C26.98605853 176.65333758 30.58641922 166.30254296 32.57666016 155.87817383 C32.89809866 153.56501095 33.13618134 151.26047689 33.3359375 148.93359375 C33.41489258 148.03068604 33.49384766 147.12777832 33.57519531 146.19750977 C38.12457099 98.32649198 38.12457099 98.32649198 23.2109375 54.62109375 C3.04850572 38.16196577 -37.32578647 38.70499126 -56.7890625 55.68359375 Z " fill="#040404" transform="translate(456.8515625,1721.87890625)"/>
<path d="M0 0 C61.345085 0.14123327 61.345085 0.14123327 81.85546875 18.44970703 C82.50644531 19.02591797 83.15742187 19.60212891 83.828125 20.19580078 C84.47652344 20.79521484 85.12492188 21.39462891 85.79296875 22.01220703 C86.45039062 22.58712891 87.1078125 23.16205078 87.78515625 23.75439453 C90.47847592 26.78306918 92.09892977 30.0678985 93.85546875 33.69970703 C94.20834961 34.42303223 94.56123047 35.14635742 94.92480469 35.89160156 C99.40008983 45.20011093 101.73110712 54.54984504 103.92578125 64.60986328 C104.14065186 65.59224976 104.14065186 65.59224976 104.35986328 66.59448242 C107.91675876 86.45013964 106.98674433 106.85659662 107.79296875 127.01220703 C57.96296875 127.34220703 8.13296875 127.67220703 -43.20703125 128.01220703 C-43.48243944 154.67167012 -43.48243944 154.67167012 -32.18359375 179.58642578 C-19.87608979 188.46436836 -6.76727737 188.18908439 7.79296875 188.13720703 C9.42105469 188.14300781 9.42105469 188.14300781 11.08203125 188.14892578 C25.6981768 188.48959327 25.6981768 188.48959327 39.35546875 184.13720703 C40.32613281 183.62416016 41.29679688 183.11111328 42.296875 182.58251953 C48.41733099 178.73209182 49.00420795 174.93393361 50.79296875 168.01220703 C51.45296875 164.05220703 52.11296875 160.09220703 52.79296875 156.01220703 C70.94296875 156.01220703 89.09296875 156.01220703 107.79296875 156.01220703 C104.53171706 196.77785316 104.53171706 196.77785316 88.23046875 211.32470703 C87.09398322 212.23236997 85.94848124 213.12889379 84.79296875 214.01220703 C84.28636719 214.42857422 83.77976562 214.84494141 83.2578125 215.27392578 C67.73686394 227.36272355 46.86380951 230.77068013 27.79296875 232.01220703 C26.85598145 232.07923828 25.91899414 232.14626953 24.95361328 232.21533203 C9.41543139 233.27829596 -5.7425546 232.78095342 -21.23828125 231.29296875 C-23.830923 231.04777648 -26.42284894 230.83730953 -29.01953125 230.64111328 C-46.17078954 229.19429272 -66.84172124 223.67910997 -79.20703125 211.01220703 C-81.3787574 208.10924145 -83.31410296 205.10237201 -85.20703125 202.01220703 C-85.88765625 200.96033203 -86.56828125 199.90845703 -87.26953125 198.82470703 C-92.76203284 188.88454262 -95.21316001 177.67791404 -96.95703125 166.57470703 C-97.06131439 165.9271344 -97.16559753 165.27956177 -97.27304077 164.61236572 C-99.22528017 152.40289753 -100.11651254 140.36700469 -100.20703125 128.01220703 C-100.22072754 126.91166992 -100.23442383 125.81113281 -100.24853516 124.67724609 C-100.34373409 116.45343442 -100.30883732 108.23574224 -100.20703125 100.01220703 C-100.19978027 99.00125977 -100.1925293 97.9903125 -100.18505859 96.94873047 C-99.94499437 72.67376118 -97.02436194 44.62080512 -81.20703125 25.01220703 C-80.54703125 25.01220703 -79.88703125 25.01220703 -79.20703125 25.01220703 C-78.8203125 24.11308594 -78.8203125 24.11308594 -78.42578125 23.19580078 C-73.21483677 13.85952526 -58.34988649 9.15192592 -48.79296875 6.21142578 C-39.15186997 3.51688462 -29.1165469 2.2844092 -19.20703125 1.01220703 C-18.12349365 0.87274658 -18.12349365 0.87274658 -17.01806641 0.73046875 C-11.34451766 0.06186873 -5.70194189 0.02170349 0 0 Z M-35.20703125 53.01220703 C-45.16247317 64.06662631 -43.44812975 77.5930786 -44.20703125 92.01220703 C-12.19703125 92.01220703 19.81296875 92.01220703 52.79296875 92.01220703 C52.91586224 71.88516255 52.91586224 71.88516255 46.23046875 53.26220703 C32.46201754 40.55286745 9.46162247 43.41037103 -7.83349609 43.86425781 C-17.9374774 44.3073764 -27.6374077 45.77514016 -35.20703125 53.01220703 Z " fill="#040404" transform="translate(680.20703125,1721.98779296875)"/>
<path d="M0 0 C1.9140625 2.015625 1.9140625 2.015625 1.9140625 5.015625 C2.501875 5.21414063 3.0896875 5.41265625 3.6953125 5.6171875 C10.26956528 9.76081865 13.70311823 22.60344531 16.1875 29.7109375 C18.47296717 40.1061269 18.05360875 50.93582128 18.02758789 61.52441406 C18.02730521 63.15177916 18.02746532 64.77914438 18.0280304 66.4065094 C18.02831523 70.78790185 18.02246959 75.16926647 18.01545644 79.5506525 C18.0091703 84.14304014 18.00861496 88.73542855 18.00743103 93.32781982 C18.00433314 102.00787987 17.99614069 110.6879272 17.98608154 119.36798167 C17.97487231 129.2568246 17.96939787 139.14566815 17.96438611 149.03451586 C17.95395667 169.3615609 17.93563053 189.68858852 17.9140625 210.015625 C0.0940625 210.015625 -17.7259375 210.015625 -36.0859375 210.015625 C-36.10781128 203.02133301 -36.10781128 203.02133301 -36.13012695 195.88574219 C-36.18051073 180.46301107 -36.24696378 165.04037992 -36.32165241 149.61774826 C-36.36653594 140.26894003 -36.40596763 130.92016926 -36.43237305 121.57128906 C-36.45541356 113.41873068 -36.48887878 105.2662916 -36.53463906 97.11382794 C-36.55848994 92.80085078 -36.57727184 88.48799116 -36.58355141 84.17494965 C-36.58963931 80.10700985 -36.60977127 76.03937049 -36.64021301 71.97154236 C-36.6489343 70.4866012 -36.65272822 69.00162067 -36.65094566 67.51665497 C-36.56716579 50.23054055 -36.56716579 50.23054055 -43.8203125 35.1015625 C-57.65251007 23.36027852 -73.47887675 24.25166926 -90.7734375 25.22265625 C-101.4868185 26.4174083 -111.80568406 30.93889938 -119.0859375 39.015625 C-129.24121455 52.1099587 -130.22054881 64.11062114 -130.29125977 80.25610352 C-130.3008562 81.67613498 -130.31086727 83.0961637 -130.32125854 84.51618958 C-130.3481226 88.34609526 -130.36923142 92.17601304 -130.38926053 96.00595975 C-130.41123522 100.01782471 -130.43856734 104.0296532 -130.46531677 108.04148865 C-130.51508928 115.62726909 -130.56008492 123.21306995 -130.60333914 130.79889005 C-130.65284409 139.43982907 -130.70771275 148.08073146 -130.76301873 156.72163498 C-130.8766015 174.48626574 -130.98278359 192.25093041 -131.0859375 210.015625 C-149.2359375 210.015625 -167.3859375 210.015625 -186.0859375 210.015625 C-186.0859375 135.435625 -186.0859375 60.855625 -186.0859375 -15.984375 C-168.2659375 -15.984375 -150.4459375 -15.984375 -132.0859375 -15.984375 C-132.0859375 -8.19095922 -132.17474851 -0.50251295 -132.5859375 7.265625 C-132.63363281 8.21308594 -132.68132813 9.16054687 -132.73046875 10.13671875 C-132.84628287 12.42983832 -132.96478673 14.72278229 -133.0859375 17.015625 C-132.29196511 15.76708827 -131.50086533 14.51672457 -130.7109375 13.265625 C-130.27007813 12.56953125 -129.82921875 11.8734375 -129.375 11.15625 C-128.16712844 9.15045117 -127.10206013 7.12384204 -126.0859375 5.015625 C-125.4259375 5.015625 -124.7659375 5.015625 -124.0859375 5.015625 C-123.83328125 4.4278125 -123.580625 3.84 -123.3203125 3.234375 C-118.31178065 -5.7683025 -106.38995877 -11.60498337 -97.0859375 -14.984375 C-64.51050188 -24.15420228 -26.88736982 -22.16077166 0 0 Z " fill="#040404" transform="translate(1018.0859375,1741.984375)"/>
</svg>
