<?xml version="1.0" standalone="no"?>
<!DOCTYPE svg PUBLIC "-//W3C//DTD SVG 20010904//EN"
 "http://www.w3.org/TR/2001/REC-SVG-20010904/DTD/svg10.dtd">
<svg version="1.0" xmlns="http://www.w3.org/2000/svg"
 width="910.000000pt" height="512.000000pt" viewBox="0 0 910.000000 512.000000"
 preserveAspectRatio="xMidYMid meet">

<g transform="translate(0.000000,512.000000) scale(0.100000,-0.100000)"
fill="#000000" stroke="none">
<path d="M3645 5111 c-16 -5 -58 -13 -93 -20 -61 -12 -104 -23 -227 -61 -123
-39 -249 -53 -404 -47 -152 6 -213 18 -389 76 -124 41 -241 55 -372 47 -104
-7 -121 -9 -255 -40 -38 -9 -90 -21 -115 -26 -49 -10 -150 -33 -245 -56 -33
-8 -80 -18 -105 -24 -25 -5 -76 -17 -115 -25 -38 -9 -104 -22 -145 -30 -41 -8
-93 -19 -115 -25 -48 -13 -394 -87 -485 -105 -142 -27 -201 -39 -335 -71 -77
-17 -164 -35 -192 -39 l-53 -7 0 -2329 0 -2329 4550 0 4550 0 0 199 0 199 -37
6 c-21 4 -90 11 -153 17 -103 9 -175 24 -235 49 -23 9 -87 25 -165 40 -86 17
-190 61 -190 81 0 3 -18 12 -40 19 -22 7 -40 17 -40 22 0 4 -7 8 -15 8 -8 0
-34 11 -59 25 -25 14 -55 25 -68 25 -22 1 -68 31 -68 45 0 4 -13 24 -30 45
-16 21 -30 42 -30 46 0 5 -14 52 -30 104 -46 141 -49 168 -55 432 -3 134 -8
259 -11 279 -3 19 -9 213 -14 430 -8 331 -13 407 -29 479 -11 47 -16 88 -13
91 17 17 200 41 491 64 275 23 290 30 76 39 -448 16 -580 26 -613 45 -9 6 -11
11 -4 11 15 0 17 82 2 110 -11 20 5 183 20 212 7 11 6 20 -3 25 -8 5 -4 9 13
14 21 6 18 7 -15 8 -120 4 169 56 566 101 400 46 452 54 457 68 3 9 -64 12
-315 12 -175 0 -409 3 -520 7 -194 6 -202 7 -192 25 6 10 7 38 4 62 -7 44 12
156 26 156 4 0 10 11 13 25 3 13 15 29 26 35 11 6 18 15 15 21 -4 5 3 9 14 9
11 0 26 6 33 13 11 11 86 35 203 67 17 4 49 8 73 9 63 3 89 16 105 53 31 69
26 108 -21 168 -10 14 -26 39 -35 55 -50 98 -287 257 -422 285 -22 4 -76 18
-120 30 -44 12 -98 25 -120 30 -80 16 -390 101 -690 190 -55 16 -188 52 -295
80 -107 28 -209 55 -227 61 -18 5 -74 21 -125 34 -139 36 -137 35 -228 71 -47
18 -104 36 -127 40 -24 4 -43 10 -43 14 0 4 -26 13 -57 20 -32 7 -96 25 -143
40 -47 15 -132 41 -190 59 -58 17 -157 48 -220 69 l-115 37 -720 2 c-396 1
-733 -2 -750 -6z m3655 -1773 c0 -16 -3 -19 -11 -11 -6 6 -8 16 -5 22 11 17
16 13 16 -11z m-1820 -23 c0 -18 -5 -25 -20 -25 -25 0 -38 29 -19 41 25 15 39
10 39 -16z m-2854 -10 c54 -29 84 -32 84 -9 0 12 6 15 23 9 57 -17 114 -25
154 -19 39 5 43 4 43 -15 0 -18 6 -21 47 -21 26 0 53 -6 62 -14 12 -11 82 -17
303 -27 263 -11 288 -11 303 5 23 23 122 22 147 -1 26 -23 184 -61 230 -55 21
2 50 1 64 -2 25 -7 26 -8 8 -20 -10 -7 -45 -18 -76 -25 -31 -7 -58 -16 -60
-22 -2 -5 -57 -12 -123 -15 -66 -3 -126 -8 -133 -10 -9 -3 -6 -14 13 -38 24
-32 27 -46 32 -150 l6 -116 -32 0 -31 0 -1 113 c-2 138 0 127 -26 160 l-21 28
-144 -5 c-140 -4 -142 -4 -63 8 48 7 74 14 65 19 -8 4 -1 5 15 2 l30 -4 -30
14 c-24 11 -26 14 -10 15 l20 1 -20 9 c-17 7 -17 9 -2 9 9 1 17 8 17 16 0 10
-10 15 -32 15 -18 0 -69 6 -113 13 -44 7 -115 12 -159 10 -87 -3 -283 35 -297
59 -10 14 -13 0 -9 -36 1 -16 -3 -18 -31 -12 -48 9 -61 26 -21 26 25 0 32 4
32 19 0 16 -9 21 -47 26 -27 3 -64 10 -84 14 -35 8 -36 8 -33 -20 3 -25 0 -29
-21 -29 -16 0 -23 5 -19 13 3 9 -17 17 -72 26 -74 12 -141 41 -127 54 16 16
94 6 139 -18z m177 -60 c4 -8 2 -17 -3 -20 -6 -4 -10 3 -10 14 0 25 6 27 13 6z
m4457 -44 c0 -11 5 -23 10 -26 6 -3 10 -52 10 -111 0 -83 3 -104 14 -104 18 0
46 -55 46 -89 0 -46 -11 -52 -79 -45 -66 7 -87 25 -74 61 10 27 23 33 78 34
49 1 49 1 17 10 -23 7 -32 15 -30 27 2 11 -4 18 -17 20 -19 3 -21 8 -17 70 2
37 8 75 13 84 5 9 9 33 9 52 0 20 5 36 10 36 6 0 10 -9 10 -19z m-1996 -27
c65 -4 101 -11 135 -28 37 -19 159 -63 229 -82 6 -2 12 -7 12 -13 0 -14 -41
-21 -59 -9 -13 8 -30 3 -75 -21 -33 -17 -60 -31 -61 -31 -2 0 -5 11 -7 24 -4
19 -1 22 15 18 14 -3 18 -1 13 6 -4 7 -2 12 3 12 6 0 11 8 11 19 0 16 -13 19
-127 25 -71 4 -130 12 -134 18 -11 17 -676 4 -764 -15 -171 -37 -192 -27 -32
15 56 14 127 33 157 42 99 28 400 37 684 20z m1929 9 c-7 -2 -13 -11 -13 -18
0 -7 6 -16 13 -18 6 -3 1 -6 -12 -6 -20 -1 -22 -4 -13 -13 7 -7 12 -38 12 -69
0 -37 5 -59 13 -62 18 -8 -72 -7 -117 1 -35 6 -40 11 -43 38 -3 25 0 33 16 37
12 3 25 16 30 30 5 14 16 27 23 30 7 3 -13 6 -44 6 -31 1 -60 6 -63 11 -4 6
17 10 54 10 83 0 77 18 -6 23 -42 2 -23 4 47 4 63 1 109 -1 103 -4z m-4300
-12 c32 -13 45 -51 49 -147 2 -65 1 -78 -9 -65 -11 14 -12 14 -13 -3 0 -17 -6
-18 -52 -12 -29 3 -82 6 -118 7 -36 0 -60 3 -53 5 8 4 9 13 1 35 -5 16 -7 37
-2 47 4 9 6 20 6 24 -3 13 47 21 103 16 30 -3 55 -1 55 3 0 5 -48 10 -107 11
-96 3 -105 4 -80 15 16 7 26 17 22 22 -8 13 52 24 111 19 42 -3 49 -1 46 15
-3 19 6 21 41 8z m4013 -17 c-4 -9 -9 -15 -11 -12 -3 3 -3 13 1 22 4 9 9 15
11 12 3 -3 3 -13 -1 -22z m-4306 -43 c0 -10 -9 -21 -20 -24 -14 -4 -20 0 -20
12 0 21 9 31 27 31 7 0 13 -8 13 -19z m4310 -8 c0 -10 -5 -25 -10 -33 -7 -11
-10 -7 -10 18 0 17 5 32 10 32 6 0 10 -8 10 -17z m-682 -42 c-18 -17 -39 -28
-46 -26 -9 3 -12 -1 -8 -13 6 -20 10 -117 8 -184 -2 -40 -5 -48 -21 -48 -15 0
-19 10 -23 56 -6 75 0 104 21 98 13 -5 13 -4 -1 6 -30 18 -17 80 20 105 38 25
76 44 80 40 2 -2 -11 -17 -30 -34z m-993 -1 c0 -16 -3 -30 -7 -30 -5 0 -8 14
-8 30 0 17 3 30 8 30 4 0 7 -13 7 -30z m40 20 c-3 -5 -10 -10 -16 -10 -5 0 -9
5 -9 10 0 6 7 10 16 10 8 0 12 -4 9 -10z m990 -20 c-21 -16 -40 -30 -43 -30
-10 0 62 59 72 60 5 0 -8 -13 -29 -30z m-872 13 c-13 -2 -35 -2 -50 0 -16 2
-5 4 22 4 28 0 40 -2 28 -4z m62 -3 c13 -6 15 -9 5 -9 -8 0 -22 4 -30 9 -18
12 -2 12 25 0z m-2162 -27 c-7 -2 -21 -2 -30 0 -10 3 -4 5 12 5 17 0 24 -2 18
-5z m382 -165 c7 -105 6 -118 -9 -118 -14 0 -16 16 -16 115 0 91 -4 122 -17
143 l-16 27 25 -25 c24 -23 27 -34 33 -142z m659 154 c-6 -4 -14 -14 -17 -22
-4 -10 -6 -8 -6 8 -1 15 5 22 17 22 10 0 13 -3 6 -8z m-1767 -54 c-2 -13 -4
-5 -4 17 -1 22 1 32 4 23 2 -10 2 -28 0 -40z m3654 -55 c0 -111 -19 -173 -22
-73 -1 36 0 70 1 75 4 17 8 49 9 74 1 13 4 22 7 18 3 -3 6 -45 5 -94z m663 38
c-2 -2 -10 -1 -19 3 -13 5 -14 8 -3 20 11 12 14 12 19 -3 4 -9 5 -18 3 -20z
m-534 -38 c0 -2 -8 -3 -17 -1 -25 4 -31 -39 -6 -45 15 -3 15 -4 -2 -3 -23 1
-32 31 -15 51 10 12 40 11 40 -2z m-230 -9 c0 -8 -5 -12 -10 -9 -6 4 -8 11 -5
16 9 14 15 11 15 -7z m138 -15 c-8 -23 -13 -27 -19 -17 -5 7 -9 20 -9 28 0 12
2 12 9 2 7 -11 9 -11 14 2 12 30 16 16 5 -15z m29 -16 c-3 -10 -5 -2 -5 17 0
19 2 27 5 18 2 -10 2 -26 0 -35z m-3682 -46 c13 -38 -12 -57 -72 -57 l-43 0 0
39 c0 45 8 51 65 48 34 -2 41 -6 50 -30z m2080 -18 c-7 -11 -125 -12 -125 -1
0 4 29 8 65 9 38 1 63 -2 60 -8z m559 -5 c23 -22 20 -43 -4 -37 -11 3 -20 14
-20 24 0 16 -10 19 -72 22 l-73 3 77 2 c58 2 80 -2 92 -14z m-710 -9 c-25 -19
-35 -19 -28 0 4 8 16 15 27 15 20 0 20 0 1 -15z m2781 -6 c11 -17 -1 -21 -37
-13 -32 7 -32 8 -8 15 36 10 38 10 45 -2z m-1679 -19 c18 -7 24 -14 17 -21
-12 -12 -65 9 -57 22 7 11 7 11 40 -1z m-553 -43 c29 -19 59 -42 67 -53 11
-15 9 -15 -10 3 -14 12 -52 35 -85 52 -33 17 -51 31 -42 31 10 0 41 -15 70
-33z m-631 -45 l1 -57 7 45 7 45 1 -51 c1 -28 5 -67 8 -85 4 -25 3 -30 -5 -19
-7 11 -12 1 -17 -40 -6 -45 -9 -51 -15 -30 -11 40 -11 262 1 255 6 -3 11 -32
12 -63z m782 21 c-10 -7 -20 -10 -23 -7 -3 3 2 10 12 15 9 6 18 18 18 27 1 14
2 13 6 -2 3 -12 -2 -25 -13 -33z m2023 33 c-23 -18 -34 -81 -18 -100 13 -15
17 -330 5 -360 -9 -24 -33 -27 -54 -6 -16 16 -19 33 -19 106 1 48 5 101 10
118 10 31 32 140 43 208 6 32 14 41 46 47 3 0 -3 -6 -13 -13z m-3251 -15 c-35
-5 -41 -11 -53 -46 -7 -22 -18 -44 -23 -49 -17 -17 -11 -40 13 -55 l22 -15
-25 -7 c-14 -4 -60 -7 -102 -8 -82 -1 -97 9 -62 43 8 9 11 16 5 16 -6 0 -10 3
-10 8 3 19 -2 25 -11 12 -8 -12 -10 -11 -10 5 0 11 -9 28 -20 38 -22 19 -50
23 -50 7 0 -5 7 -10 15 -10 24 0 55 -60 55 -106 0 -45 -10 -59 -52 -69 -36 -9
-62 1 -78 30 -7 13 -16 22 -20 20 -5 -3 -18 3 -30 13 l-23 19 23 21 c13 12 29
22 36 22 10 0 29 30 22 34 -56 29 -159 36 -225 16 -43 -13 -43 -13 -42 -59 1
-25 4 -36 6 -25 4 19 10 21 63 18 65 -3 80 -8 80 -29 0 -21 -33 -35 -79 -35
-26 0 -41 -5 -42 -12 0 -7 -5 -3 -11 10 -6 12 -17 22 -24 22 -15 0 -29 -59
-21 -92 3 -13 2 -32 -3 -43 -7 -19 -8 -19 -15 -2 -4 10 -14 16 -21 13 -9 -4
-14 2 -13 17 0 12 3 16 6 9 2 -6 9 -10 14 -6 15 9 10 24 -9 24 -18 0 -42 37
-42 65 0 8 -4 15 -10 15 -5 0 -10 18 -10 40 0 23 -5 40 -11 40 -8 0 -8 4 -1
13 15 18 -19 56 -60 65 -25 5 -7 8 72 13 144 7 824 8 776 0z m644 -20 c-13
-25 -13 -34 0 -26 6 4 10 -8 10 -29 0 -30 -4 -36 -22 -38 -13 0 -35 -2 -50 -3
-22 -2 -28 2 -28 19 0 12 -7 30 -15 40 -8 11 -15 25 -15 30 0 6 10 -4 21 -21
12 -18 23 -33 25 -33 2 0 20 18 40 40 40 44 50 50 34 21z m974 -28 c3 -21 9
-52 12 -70 5 -26 2 -32 -15 -38 -12 -3 -21 -15 -21 -25 0 -33 -23 -73 -82
-143 -32 -37 -58 -72 -58 -76 0 -21 63 24 78 55 8 19 19 34 24 34 12 0 10 -11
-11 -71 -10 -30 -21 -71 -25 -91 -8 -43 -33 -56 -75 -38 -27 11 -28 13 -19 53
5 23 13 62 17 87 12 64 28 134 49 218 15 56 27 81 53 106 47 46 65 45 73 -1z
m-2799 -178 c80 -269 115 -398 111 -402 -2 -2 -18 42 -36 99 -18 57 -38 121
-46 143 -31 89 -94 321 -93 345 1 32 -1 37 64 -185z m2282 180 c-4 -8 -2 -17
3 -20 15 -9 12 -25 -5 -25 -16 0 -19 -9 -9 -34 8 -20 38 -21 54 -1 18 22 30
18 30 -10 0 -22 -3 -25 -25 -19 -21 5 -25 3 -26 -17 l0 -24 -9 23 c-9 21 -30
31 -30 13 0 -5 -9 -7 -20 -4 -16 4 -20 0 -20 -21 0 -17 5 -26 16 -26 8 0 12 5
8 11 -6 10 11 28 27 29 11 0 49 -78 49 -101 0 -32 -19 -99 -28 -99 -4 0 -6 20
-4 44 2 25 -1 53 -8 63 -10 15 -10 14 -5 -9 8 -42 -8 -33 -27 13 -13 30 -22
40 -33 35 -12 -4 -15 2 -15 29 0 19 -2 35 -4 35 -2 0 -11 3 -20 6 -12 5 -16 0
-16 -20 0 -22 -4 -26 -30 -26 -26 0 -30 4 -30 28 1 26 1 26 15 8 14 -19 15
-19 15 7 0 19 -4 25 -15 21 -11 -5 -15 1 -15 19 0 16 -7 28 -17 31 -10 2 -2 4
17 4 46 -1 80 11 80 28 0 8 4 14 10 14 5 0 7 -7 4 -15 -8 -21 16 -18 46 5 30
23 44 25 37 5z m140 -22 c-3 -21 -8 -46 -12 -55 -4 -11 -3 -18 4 -18 6 0 13
11 17 25 3 14 10 22 15 19 5 -3 12 2 16 12 5 14 8 13 19 -7 7 -13 14 -33 14
-44 l1 -20 10 20 c6 14 7 6 3 -25 -4 -25 -6 -102 -5 -171 3 -110 0 -132 -18
-173 -24 -51 -36 -58 -45 -22 -3 13 -9 31 -12 39 -3 10 1 17 13 19 16 3 15 5
-5 17 -20 11 -26 10 -41 -3 -10 -9 -21 -16 -25 -16 -5 0 2 9 15 21 17 15 19
19 7 15 -13 -4 -20 2 -24 18 -7 29 12 69 28 60 7 -5 9 0 6 14 -4 12 -2 22 3
22 10 0 12 83 3 118 -4 14 -12 21 -20 18 -8 -3 -14 -1 -14 4 0 6 5 10 11 10 7
0 9 9 5 24 -4 15 -1 26 7 29 9 4 8 8 -3 16 -12 8 -12 12 3 29 9 10 17 24 17
30 0 7 3 12 6 12 4 0 4 -17 1 -37z m-741 -42 c-2 -92 -16 -104 -16 -14 0 59 4
83 15 83 2 0 2 -31 1 -69z m212 33 c14 9 23 -19 9 -33 -6 -6 -7 -11 -1 -11 13
0 12 -103 -1 -112 -5 -4 -20 -8 -32 -8 -20 0 -23 5 -23 41 0 28 6 46 18 55 16
13 16 13 0 14 -19 0 -26 20 -7 20 5 0 9 8 8 18 -3 29 1 38 10 23 5 -7 13 -11
19 -7z m2291 -49 c-1 -17 -18 -51 -18 -37 -1 6 -10 12 -20 12 -27 0 -35 17
-14 29 22 12 53 10 52 -4z m-2107 -30 c3 -14 1 -25 -3 -25 -5 0 -9 11 -9 25 0
14 2 25 4 25 2 0 6 -11 8 -25z m-71 5 c10 0 19 -5 19 -11 0 -15 -63 -6 -68 10
-3 10 0 12 12 8 10 -4 26 -7 37 -7z m-173 -37 c-3 -32 -6 -37 -30 -38 -24 0
-28 3 -28 25 0 31 17 50 43 50 15 0 18 -6 15 -37z m1182 22 c0 -8 -4 -15 -10
-15 -5 0 -10 7 -10 15 0 8 5 15 10 15 6 0 10 -7 10 -15z m515 5 c3 -5 -3 -10
-14 -10 -12 0 -21 5 -21 10 0 6 6 10 14 10 8 0 18 -4 21 -10z m70 0 c3 -5 -1
-10 -9 -10 -9 0 -16 5 -16 10 0 6 4 10 9 10 6 0 13 -4 16 -10z m-1848 -72 c-2
-13 -4 -3 -4 22 0 25 2 35 4 23 2 -13 2 -33 0 -45z m430 6 c-3 -3 -12 -4 -19
-1 -8 3 -5 6 6 6 11 1 17 -2 13 -5z m-425 -111 c13 -25 31 -32 22 -8 -5 12 3
15 40 15 33 0 46 -4 46 -14 0 -18 -22 -26 -75 -26 -36 0 -44 4 -49 23 -7 27
-7 69 1 47 2 -8 9 -25 15 -37z m-1261 -80 c-9 -16 -10 -15 -11 8 0 14 3 29 8
33 12 12 14 -22 3 -41z m3816 5 c-3 -8 -6 -5 -6 6 -1 11 2 17 5 13 3 -3 4 -12
1 -19z m-2503 -37 c-6 -6 -24 19 -24 34 1 6 7 1 15 -9 8 -11 12 -22 9 -25z
m66 30 c0 -24 -13 -70 -19 -66 -10 6 -1 75 10 75 5 0 9 -4 9 -9z m336 -6 c-11
-8 -25 -15 -30 -15 -6 1 0 7 14 15 32 19 40 18 16 0z m144 -5 c0 -5 -4 -10
-10 -10 -5 0 -10 5 -10 10 0 6 5 10 10 10 6 0 10 -4 10 -10z m-536 -46 c3 -8
2 -12 -4 -9 -6 3 -10 10 -10 16 0 14 7 11 14 -7z m-704 -22 c0 -5 -11 -19 -25
-32 -20 -18 -25 -33 -25 -70 0 -60 -41 -146 -75 -154 -18 -5 -28 -19 -42 -64
-12 -39 -25 -60 -40 -67 -13 -5 -23 -14 -23 -20 0 -5 -5 -3 -10 5 -8 13 -11
13 -19 1 -12 -18 -36 -9 -36 15 0 11 -16 29 -37 43 -21 13 -38 30 -38 37 0 7
-11 21 -25 32 -14 11 -25 25 -25 31 0 6 -7 11 -15 11 -11 0 -15 11 -15 40 0
33 -4 42 -22 49 -19 8 -14 10 32 17 l55 8 -55 11 -55 10 74 3 c79 3 100 15
101 58 0 40 17 44 172 44 81 0 148 -4 148 -8z m1644 -25 c-3 -9 -10 -17 -15
-17 -11 0 -12 34 -2 44 11 11 24 -9 17 -27z m1513 -59 c-3 -8 -6 -5 -6 6 -1
11 2 17 5 13 3 -3 4 -12 1 -19z m-3687 -18 c0 -13 -11 -13 -30 0 -12 8 -11 10
8 10 12 0 22 -4 22 -10z m2015 -59 c0 -30 -5 -61 -11 -69 -16 -22 -37 -5 -31
26 3 14 0 36 -5 48 -15 32 -3 56 24 52 21 -3 23 -9 23 -57z m-390 -17 c0 -46
-3 -59 -16 -62 -20 -4 -33 26 -20 42 6 7 8 22 4 34 -7 28 3 55 20 49 8 -2 12
-24 12 -63z m-1600 45 c11 -16 2 -17 -25 -2 -24 12 -24 13 -3 13 12 0 25 -5
28 -11z m-478 -71 c-3 -8 -6 -5 -6 6 -1 11 2 17 5 13 3 -3 4 -12 1 -19z"/>
<path d="M7128 3173 c7 -3 16 -2 19 1 4 3 -2 6 -13 5 -11 0 -14 -3 -6 -6z"/>
<path d="M7048 3013 c6 -2 18 -2 25 0 6 3 1 5 -13 5 -14 0 -19 -2 -12 -5z"/>
<path d="M6157 2997 c-3 -8 -2 -20 3 -26 5 -9 8 -4 8 13 0 29 -3 32 -11 13z"/>
<path d="M5009 2631 c11 -7 11 -9 0 -13 -8 -3 4 -4 26 -3 22 0 40 5 40 10 0 6
-18 11 -40 13 -27 2 -35 0 -26 -7z"/>
<path d="M5254 2562 c-7 -5 -6 -15 3 -32 l13 -25 -2 33 c-1 17 -2 32 -3 32 0
0 -5 -4 -11 -8z"/>
<path d="M5295 2560 c-3 -5 -1 -10 4 -10 6 0 11 5 11 10 0 6 -2 10 -4 10 -3 0
-8 -4 -11 -10z"/>
<path d="M5281 2463 c1 -10 5 -29 9 -43 7 -21 8 -19 9 18 1 23 -3 42 -9 42 -5
0 -10 -8 -9 -17z"/>
<path d="M5258 2412 c-3 -24 -17 -55 -30 -70 -19 -21 -20 -24 -4 -18 14 5 17
2 12 -9 -3 -8 -1 -15 4 -15 14 0 32 76 28 118 l-3 37 -7 -43z"/>
<path d="M4705 2520 c-3 -5 -1 -10 4 -10 6 0 11 5 11 10 0 6 -2 10 -4 10 -3 0
-8 -4 -11 -10z"/>
</g>
</svg>
