<?xml version="1.0" encoding="UTF-8"?>
<svg version="1.1" xmlns="http://www.w3.org/2000/svg" width="1433" height="683">
<path d="M0 0 C5.69142469 0.01113844 11.3828099 -0.00113653 17.07423151 -0.01030749 C27.0303648 -0.02316627 36.98640891 -0.02128499 46.94254232 -0.0095278 C57.61407493 0.00303949 68.28554967 0.00701469 78.95708395 0.00035799 C79.63360819 -0.00005822 80.31013242 -0.00047443 81.0071574 -0.00090325 C83.76297305 -0.00262816 86.51878866 -0.00441604 89.27460422 -0.00628344 C114.8830128 -0.02363079 140.49138471 -0.0215239 166.09979368 -0.00694716 C190.76991553 0.00707722 215.44002081 0.01409297 240.11014677 0.01134432 C241.66163089 0.01118143 243.213115 0.0110194 244.76459912 0.01085821 C250.99982369 0.01019986 257.23504825 0.0094961 263.47027281 0.00873287 C280.89805119 0.00662163 298.3258295 0.00586871 315.753608 0.00614965 C316.54710443 0.00616203 317.34060086 0.00617441 318.15814263 0.00618717 C343.42794679 0.00667628 368.69774581 0.01309584 393.96754766 0.0237068 C394.78670768 0.02405023 395.60586769 0.02439367 396.44985074 0.02474752 C409.75125619 0.03034569 423.05266149 0.03628013 436.35406679 0.04223658 C489.1193247 0.06584341 541.8845537 0.07202827 594.64981581 0.06162393 C597.98523951 0.06097073 601.32066321 0.06031941 604.65608692 0.05966843 C605.48076736 0.0595074 606.30544781 0.05934636 607.15511857 0.05918045 C616.28863476 0.05740089 625.42215096 0.05567875 634.55566717 0.05402601 C635.37477287 0.05387664 636.19387857 0.05372728 637.03780565 0.05357338 C680.49322772 0.0457122 723.94864723 0.05132608 767.40406839 0.0621393 C773.63171856 0.06368845 779.85936873 0.06520182 786.08701891 0.06671413 C788.40953786 0.06728236 790.7320568 0.06786385 793.05457574 0.06844586 C810.03032526 0.07264478 827.00607189 0.0748466 843.98182178 0.07176078 C845.1282597 0.07155286 845.1282597 0.07155286 846.29785797 0.07134075 C850.1456511 0.07063039 853.99344422 0.06988418 857.84123734 0.06912338 C885.66740617 0.06363061 913.49354455 0.06777819 941.31970673 0.08911193 C944.06342976 0.09117413 946.80715282 0.09319088 949.55087591 0.09517229 C950.56087836 0.09590871 950.56087836 0.09590871 951.5912849 0.09666001 C962.88087794 0.10461157 974.17043715 0.10078246 985.46003176 0.0938234 C995.28974099 0.08860192 1005.11940488 0.0943071 1014.9491046 0.10887675 C1020.54822554 0.1168763 1026.14723936 0.12021037 1031.7463597 0.11030419 C1036.84770646 0.1013815 1041.94884787 0.10643862 1047.05017608 0.12228362 C1048.87657766 0.12557694 1050.70299714 0.12394534 1052.52938674 0.11655514 C1080.9568248 0.01009809 1104.7238959 6.53615134 1127.35977674 24.50766886 C1128.41165174 25.29141886 1129.46352674 26.07516886 1130.54727674 26.88266886 C1149.28511321 44.37131622 1160.70771661 70.26123902 1161.59805799 95.81626261 C1161.62843067 97.85915537 1161.65301501 99.90214112 1161.67227674 101.94516886 C1161.7157826 103.3847294 1161.7157826 103.3847294 1161.76016737 104.85337198 C1161.92063893 124.36918232 1156.55423326 143.91474458 1151.83633924 162.71470011 C1151.2964834 164.89559153 1150.75750226 167.07669963 1150.21931959 169.25800455 C1149.07737464 173.87979412 1147.93011714 178.50021621 1146.77838636 183.11957681 C1144.94787864 190.46248304 1143.13037587 197.80856896 1141.31558729 205.15537393 C1141.00971032 206.39352822 1140.70383335 207.63168251 1140.38868738 208.90735662 C1139.76903134 211.4157058 1139.14940979 213.92406349 1138.5298226 216.43242967 C1137.59661723 220.20881167 1136.66228108 223.98491235 1135.72768141 227.7609495 C1130.35569179 249.47278392 1125.07397243 271.20571952 1119.83398939 292.94974268 C1118.72230177 297.56210171 1117.60933575 302.17415226 1116.49649549 306.78623331 C1115.15285107 312.35518844 1113.80931565 317.92416973 1112.46631361 323.49327982 C1106.41217132 348.59521796 1100.32269045 373.68860438 1094.2347405 398.78236044 C1092.98074847 403.95118951 1091.72688538 409.12004985 1090.47305799 414.28891886 C1090.22383211 415.31627964 1089.97460623 416.34364042 1089.71782804 417.40213335 C1086.05888673 432.48615336 1082.40977284 447.57252701 1078.76613737 462.66025102 C1059.98896476 540.40889303 1059.98896476 540.40889303 1053.52905775 566.04087198 C1053.01394378 568.08652381 1052.50158751 570.1328728 1051.99249769 572.18003214 C1042.51795928 610.19454337 1024.7656568 645.36134158 990.55411268 666.63022745 C972.02275668 677.73997187 949.7951954 683.70029474 928.20953871 683.63531935 C927.03158695 683.63779552 927.03158695 683.63779552 925.82983819 683.64032171 C923.20129024 683.64463182 920.57279874 683.64185008 917.9442494 683.63909662 C916.03139307 683.64074696 914.11853707 683.64283355 912.20568163 683.64531672 C906.93174841 683.65088413 901.65783142 683.65021082 896.3838962 683.64853913 C890.65272206 683.64780845 884.92155252 683.65283 879.19038034 683.65711415 C867.81545436 683.66469781 856.44053308 683.6668874 845.06560483 683.66744321 C835.60519987 683.66802195 826.14479796 683.67104483 816.68439413 683.67565668 C815.66267566 683.67615188 815.66267566 683.67615188 814.6203164 683.67665708 C811.8461049 683.67800709 809.0718934 683.67936976 806.2976819 683.68074919 C773.45639354 683.69704996 740.61510589 683.70343756 707.77381416 683.70819706 C691.42037903 683.71058044 675.06694432 683.71428395 658.7135095 683.71823416 C606.25530142 683.73089843 553.79709335 683.74168238 501.33888376 683.74507461 C498.83177183 683.74523685 496.3246599 683.74540241 493.81754796 683.745569 C488.78951092 683.7459028 483.76147388 683.74623328 478.73343683 683.74656356 C472.84685008 683.74695046 466.96026333 683.74734006 461.07367658 683.74773462 C459.38888898 683.74784704 457.70410138 683.74795846 456.01931378 683.74806888 C401.90976439 683.75161831 347.80022828 683.76669684 293.69068397 683.79000662 C254.80868394 683.80674976 215.92668642 683.8222239 177.04468275 683.82674158 C176.24494651 683.82683506 175.44521027 683.82692855 174.6212396 683.82702487 C157.06441622 683.82904398 139.50759288 683.83019997 121.95076939 683.83055346 C115.66844071 683.83068963 109.38611203 683.83089862 103.10378335 683.83114671 C101.54090591 683.83120827 99.97802848 683.83126659 98.41515104 683.83132166 C73.51895502 683.8322412 48.62277288 683.84220605 23.72658143 683.85677914 C-1.35247896 683.87140053 -26.43152235 683.87643361 -51.51058626 683.8683596 C-54.97826819 683.86724427 -58.44595016 683.86623359 -61.91363215 683.86528528 C-62.59337453 683.86509531 -63.27311692 683.86490534 -63.97345756 683.86470962 C-75.37750655 683.86181306 -86.78151434 683.87078579 -98.18555742 683.88292469 C-108.11124653 683.89266331 -118.03689575 683.8915071 -127.96258448 683.88148846 C-133.61845357 683.87608845 -139.27421339 683.87541218 -144.93007349 683.88799718 C-150.08075924 683.89936245 -155.23124712 683.89678276 -160.38192612 683.88333011 C-162.22847319 683.88090512 -164.07503564 683.88344811 -165.92156575 683.89172659 C-180.11113638 683.95113294 -193.8224421 682.79723585 -207.26522326 677.82016886 C-207.96341173 677.56598184 -208.66160021 677.31179483 -209.38094591 677.04990518 C-234.45561916 667.5365639 -252.71492315 648.63840905 -263.73983263 624.57895792 C-269.69442371 610.88081509 -272.00703528 597.3289139 -272.07772326 582.44516886 C-272.11059435 581.28178995 -272.14346544 580.11841104 -272.17733263 578.91977823 C-272.2255923 570.61472743 -271.1264469 562.84104186 -269.53377794 554.71128214 C-269.31307981 553.57749911 -269.09238167 552.44371609 -268.86499571 551.275576 C-266.2715353 538.2541943 -263.0471834 525.40172225 -259.78475451 512.53501261 C-259.12285563 509.90514812 -258.46321332 507.27471907 -257.80353807 504.64429605 C-256.41360029 499.10636035 -255.01886494 493.56965363 -253.62056994 488.03382242 C-251.41524088 479.30236457 -249.22064318 470.56822707 -247.02791857 461.83359659 C-246.47660315 459.63771954 -245.92526981 457.44184698 -245.37393104 455.2459758 C-245.00858578 453.79087587 -244.6432529 452.33577284 -244.27793252 450.88066668 C-243.01297903 445.84261203 -241.74677245 440.80487337 -240.48003649 435.76726663 C-235.56389983 416.21441722 -230.69398802 396.65091673 -225.89022326 377.07016886 C-224.53879412 371.56721169 -223.1855564 366.06469946 -221.83162951 360.56235636 C-221.65010332 359.82454935 -221.46857714 359.08674234 -221.28155016 358.32657755 C-212.26878839 321.70564938 -203.15691569 285.10896179 -194.05990099 248.50888956 C-193.86501168 247.72478287 -193.67012237 246.94067618 -193.46932732 246.13280869 C-191.72185948 239.10224241 -189.97429606 232.0716999 -188.2262771 225.04127062 C-183.96892206 207.91834071 -179.71812232 190.79385745 -175.48823046 173.66411722 C-173.79561352 166.81018837 -172.09755099 159.95761392 -170.39726614 153.10558355 C-169.33891759 148.83927227 -168.28328575 144.57234084 -167.23552965 140.30341471 C-163.45186607 124.89352402 -159.52642326 109.56794728 -154.84725451 94.40220011 C-154.48638247 93.22772318 -154.12551043 92.05324625 -153.75370287 90.84317911 C-150.91314956 81.85347184 -147.33306477 73.66703321 -142.64022326 65.50766886 C-142.05498888 64.42872354 -141.46975451 63.34977823 -140.86678576 62.23813761 C-137.07901402 55.42529025 -132.71977827 49.41016854 -127.64022326 43.50766886 C-126.91705919 42.66204386 -126.19389513 41.81641886 -125.44881701 40.94516886 C-92.18691051 2.99767205 -47.21269978 -0.12955501 0 0 Z " fill="#000000" transform="translate(271.640223255381,-0.507668855600059)"/>
<path d="M0 0 C0.74965593 -0.00241442 1.49931187 -0.00482883 2.27168465 -0.00731641 C4.77016187 -0.01292586 7.26838018 -0.00430911 9.7668457 0.00431824 C11.56711394 0.00324416 13.36738184 0.00130361 15.16764832 -0.00143433 C20.0659698 -0.00628517 24.96420018 0.0013916 29.86251068 0.01151872 C35.05539325 0.02037105 40.24827353 0.01853989 45.44116211 0.01815796 C54.22112517 0.01909623 63.00105384 0.02777507 71.78100586 0.04142761 C80.66349981 0.05519395 89.54596204 0.06244999 98.4284668 0.06193542 C180.62799951 0.05814896 180.62799951 0.05814896 218.00079346 0.52351952 C220.61813087 0.55607237 223.23524468 0.58188022 225.85272217 0.60405922 C270.88348317 1.01038918 270.88348317 1.01038918 286.19262695 16.16520691 C294.34816633 24.94940245 295.8417725 34.11765592 295.58352661 45.89442444 C295.34091008 51.66473865 294.28342865 57.17126855 293.10229492 62.81413269 C292.87938719 63.90121584 292.65647945 64.98829899 292.42681694 66.10832405 C289.99706418 77.78062889 287.19031017 89.35523289 284.32543945 100.92692566 C283.76600791 103.20295551 283.20700726 105.47909131 282.64840698 107.75532532 C281.4868875 112.48374664 280.3219313 117.21130149 279.15405273 121.93815613 C277.67791554 127.91280366 276.20796989 133.88895172 274.74019241 139.86565781 C271.2690345 153.99879454 267.7781537 168.12693674 264.25512695 182.24723816 C264.05445114 183.05155777 263.85377533 183.85587738 263.64701843 184.68457031 C260.31133497 198.03371841 256.9601345 211.30304689 252.25512695 224.24723816 C259.58362213 224.18589091 266.91177209 224.10868773 274.23988533 224.01152325 C277.64305352 223.96689239 281.04610402 223.92762086 284.44946289 223.90080261 C288.36671263 223.86969587 292.28346271 223.81490924 296.20043945 223.75895691 C298.02419601 223.74937202 298.02419601 223.74937202 299.88479614 223.73959351 C307.89712722 223.60056201 312.88543702 222.35530812 319.21606445 217.31364441 C320.28111206 216.47373962 320.28111206 216.47373962 321.36767578 215.61686707 C322.11428467 215.02051453 322.86089355 214.42416199 323.63012695 213.80973816 C325.24511682 212.53646603 326.86101867 211.26434987 328.4777832 209.99333191 C329.2836084 209.35895203 330.08943359 208.72457214 330.91967773 208.07096863 C334.26713147 205.45697329 337.66139369 202.90889706 341.06762695 200.37223816 C354.39744445 190.42737116 367.58612928 180.29492681 380.79296875 170.18766785 C386.52372859 165.80297806 392.26398873 161.43082623 398.00512695 157.05973816 C405.77293253 151.14517255 413.52614634 145.21246253 421.25512695 139.24723816 C419.93563029 135.62843644 418.34019402 132.68027143 416.12231445 129.53630066 C415.17291992 128.18181824 415.17291992 128.18181824 414.2043457 126.79997253 C413.51985352 125.83382019 412.83536133 124.86766785 412.13012695 123.87223816 C410.66905767 121.79160153 409.2081239 119.71086973 407.74731445 117.63005066 C406.99933594 116.56818542 406.25135742 115.50632019 405.48071289 114.41227722 C402.05279827 109.53738856 398.65459545 104.64198378 395.25512695 99.74723816 C393.92455053 97.83437149 392.59382079 95.92161145 391.26293945 94.00895691 C388.56942914 90.13711808 385.87681208 86.26466011 383.18481445 82.39176941 C376.88815842 73.33427188 370.58482935 64.28167941 364.25512695 55.24723816 C362.54045626 52.7976378 360.82598646 50.34789695 359.11157227 47.89811707 C357.79414991 46.01692665 356.47568324 44.1364674 355.15649414 42.2565155 C352.97818922 39.15124132 350.8038776 36.04320158 348.63012695 32.93473816 C347.9546582 31.97374207 347.27918945 31.01274597 346.58325195 30.02262878 C336.12356904 15.0424149 336.12356904 15.0424149 337.25512695 7.24723816 C339.78966352 4.02769171 341.3681 2.54291381 345.25512695 1.24723816 C347.56887501 1.14213683 349.88555959 1.09853724 352.20166016 1.08610535 C352.90447113 1.08114044 353.6072821 1.07617554 354.33139038 1.07106018 C356.65623963 1.05645692 358.98102062 1.04963929 361.3059082 1.04411316 C362.92392478 1.03835976 364.54194134 1.03260205 366.15995789 1.02684021 C369.55358192 1.01633514 372.94718231 1.01048939 376.34082031 1.00700378 C380.68192476 1.0015231 385.02271492 0.97750228 389.36372089 0.94903183 C392.70695397 0.93037468 396.05011184 0.9251982 399.39339256 0.92366791 C400.99332584 0.92064729 402.59325799 0.91263871 404.19314003 0.89948273 C406.43580398 0.88235899 408.67770671 0.88431759 410.92041016 0.89079285 C412.19487503 0.88714722 413.4693399 0.88350159 414.78242493 0.87974548 C421.45622742 1.58598907 425.20039646 4.71859123 429.30981445 9.67301941 C432.46925636 13.85388732 435.32894179 18.2200126 438.1965332 22.60270691 C441.91723471 28.28140712 445.745336 33.88663688 449.56762695 39.49723816 C450.30110352 40.57473328 451.03458008 41.65222839 451.7902832 42.76237488 C459.22981579 53.68963401 459.22981579 53.68963401 466.70117188 64.59513855 C469.29538014 68.3693184 471.86550743 72.15637695 474.39575195 75.97380066 C474.89864746 76.72524353 475.40154297 77.4766864 475.91967773 78.25090027 C476.86912804 79.67063162 477.8106811 81.09568737 478.74291992 82.52677917 C479.8374172 84.15421794 481.03772219 85.70957535 482.25512695 87.24723816 C485.63530538 87.24723816 486.13857755 86.85341316 488.7043457 84.86051941 C489.37941162 84.34086609 490.05447754 83.82121277 490.75 83.28581238 C491.47356689 82.71620789 492.19713379 82.14660339 492.94262695 81.55973816 C494.07341675 80.6821283 494.07341675 80.6821283 495.22705078 79.78678894 C501.69863184 74.74156136 508.06456409 69.56813843 514.4152832 64.37223816 C519.72799507 60.03336762 525.13145876 55.8117286 530.53735352 51.5900116 C533.44784323 49.31489883 536.35107192 47.03055446 539.25512695 44.74723816 C540.42175974 43.83052838 541.58842639 42.91386168 542.75512695 41.99723816 C543.33262695 41.54348816 543.91012695 41.08973816 544.50512695 40.62223816 C550.92179362 35.58057149 557.33846029 30.53890483 563.75512695 25.49723816 C564.33294922 25.04300476 564.91077148 24.58877136 565.50610352 24.12077332 C566.66861149 23.20783782 567.83201864 22.29604609 568.99633789 21.38542175 C571.98517841 19.04541917 574.95400416 16.68531958 577.89575195 14.28630066 C578.50032227 13.7983905 579.10489258 13.31048035 579.7277832 12.80778503 C580.86148324 11.89210424 581.98972048 10.96958928 583.1105957 10.03825378 C592.0345887 2.87069462 599.89471262 0.48764114 611.3059082 0.61833191 C612.52287888 0.61591995 613.73984955 0.613508 614.99369812 0.61102295 C617.5493803 0.61199724 620.10508469 0.6252899 622.66064453 0.65031433 C626.57372301 0.68479187 630.48456165 0.67090582 634.39770508 0.65153503 C636.88794906 0.65842939 639.37818724 0.66809804 641.8684082 0.68083191 C643.62004021 0.67339211 643.62004021 0.67339211 645.40705872 0.665802 C653.42714332 0.78248355 653.42714332 0.78248355 657.47070312 3.0521698 C659.57610521 5.64208226 660.28025393 7.68720671 660.04418945 11.04801941 C658.23653272 16.08619138 653.35098105 19.08394593 649.25512695 22.24723816 C648.28961914 23.00649597 647.32411133 23.76575378 646.3293457 24.54801941 C644.20249627 26.19923288 642.07009834 27.83767252 639.9230957 29.46208191 C635.77468379 32.60212813 631.6713021 35.79907087 627.56762695 38.99723816 C626.02208296 40.20040032 624.47650975 41.40352494 622.9309082 42.60661316 C622.1569873 43.20924988 621.38306641 43.8118866 620.58569336 44.43278503 C616.06434496 47.95286269 611.54063171 51.4699004 607.01733398 54.98747253 C603.20386105 57.95323028 599.39101741 60.91979067 595.5793457 63.88786316 C587.95053204 69.8270738 580.31006052 75.74959783 572.6418457 81.63786316 C566.26791054 86.54118442 559.93065962 91.49208676 553.58569336 96.43278503 C550.55487089 98.79241971 547.52294009 101.1506269 544.49072266 103.50846863 C543.00586937 104.6633365 541.52132913 105.81860698 540.03710938 106.97428894 C536.11898942 110.0244356 532.1951638 113.06685275 528.26293945 116.09880066 C527.03704102 117.0462616 527.03704102 117.0462616 525.78637695 118.01286316 C524.22304651 119.22089123 522.65803383 120.42674653 521.09106445 121.63005066 C517.59840245 124.33240228 514.27525693 127.0057374 511.25512695 130.24723816 C511.89836914 131.10962097 512.54161133 131.97200378 513.2043457 132.86051941 C519.05057544 140.74222519 524.69452067 148.73780948 530.21166992 156.85295105 C534.120079 162.59889574 538.07541219 168.30922034 542.06762695 173.99723816 C549.1431024 184.08080259 556.17927709 194.19131931 563.2097168 204.30632019 C565.2607752 207.25535928 567.31423391 210.20271254 569.3684082 213.14958191 C575.83827293 222.43347128 582.29381548 231.72668484 588.69262695 241.05973816 C589.24265381 241.86056824 589.79268066 242.66139832 590.359375 243.48649597 C590.85993408 244.21836121 591.36049316 244.95022644 591.8762207 245.70426941 C592.53255493 246.66296936 592.53255493 246.66296936 593.20214844 247.64103699 C595.58249208 251.27198548 595.69657621 253.9063205 595.25512695 258.24723816 C592.08872015 262.43807069 589.23825324 263.89692071 584.25512695 265.24723816 C580.95446777 265.5146637 580.95446777 265.5146637 577.33520508 265.5377655 C576.67097031 265.54448273 576.00673553 265.55119995 575.32237244 265.55812073 C573.14362962 265.5769986 570.96519628 265.58101913 568.78637695 265.58317566 C567.26232785 265.58960881 565.73827996 265.59633755 564.2142334 265.60334778 C561.02682634 265.61529359 557.83952746 265.6190312 554.65209961 265.61784363 C550.57661003 265.61764015 546.50181553 265.644983 542.42649078 265.67938805 C539.28140093 265.70166648 536.13647843 265.70568095 532.99131775 265.70462418 C531.48906551 265.70697715 529.98680846 265.71578361 528.4846344 265.73128891 C526.38094783 265.75097739 524.27876169 265.74510259 522.17504883 265.733078 C520.98069214 265.73592804 519.78633545 265.73877808 518.55578613 265.74171448 C513.59041961 264.99784605 510.43958731 262.7218133 507.32739258 258.84733582 C506.50271484 257.51774841 506.50271484 257.51774841 505.66137695 256.16130066 C505.03062256 255.15905457 504.39986816 254.15680847 503.75 253.12419128 C503.09169189 252.05104675 502.43338379 250.97790222 501.75512695 249.87223816 C500.69426688 248.17839702 499.63339757 246.48456148 498.57170105 244.79124451 C497.49154325 243.06456945 496.41691552 241.33456018 495.34350586 239.60368347 C492.24736365 234.62755966 489.09520099 229.68772119 485.94262695 224.74723816 C484.79418309 222.94125262 483.64574545 221.13526313 482.49731445 219.32926941 C478.67323958 213.32662382 474.81151206 207.34880827 470.93481445 201.38005066 C469.01401169 198.42244284 467.10450044 195.45783872 465.20043945 192.48942566 C464.69730225 191.70672302 464.19416504 190.92402039 463.67578125 190.11759949 C462.70915292 188.61347808 461.74437891 187.10816287 460.78173828 185.60148621 C458.28352684 181.71715605 458.28352684 181.71715605 455.25512695 178.24723816 C446.11516473 184.63753108 437.20555899 191.29583166 428.35229492 198.07707214 C421.73861575 203.13580922 415.06463221 208.10375286 408.35009766 213.0275116 C402.62321993 217.22996007 396.93198546 221.47750182 391.25512695 225.74723816 C383.98326117 231.21383082 376.68856287 236.64744103 369.35131836 242.02604675 C365.2653946 245.02170943 361.19817012 248.03841864 357.1574707 251.09489441 C356.31579346 251.727099 355.47411621 252.35930359 354.60693359 253.01066589 C353.01097649 254.21019009 351.41990472 255.41625585 349.83496094 256.6302948 C349.1047876 257.17677673 348.37461426 257.72325867 347.62231445 258.28630066 C346.99437988 258.76277039 346.36644531 259.23924011 345.71948242 259.73014832 C337.73548747 264.64520128 331.20575152 265.82764916 321.86201477 265.7484436 C320.63757619 265.753978 319.4131376 265.7595124 318.15159482 265.7652145 C314.77411634 265.7764278 311.39754503 265.76983105 308.02013671 265.75547779 C304.36981656 265.74433179 300.71956033 265.75632238 297.06924438 265.76531982 C289.92756857 265.77922845 282.78606998 265.77171436 275.64440266 265.75664424 C267.32527699 265.7397593 259.00619515 265.74299741 250.68705764 265.74673832 C235.84439588 265.75261226 221.00181906 265.73846217 206.15917969 265.71379089 C191.75940774 265.68985849 177.3597492 265.68279228 162.95996094 265.69328308 C147.27144911 265.70469232 131.58298969 265.70662329 115.8944785 265.69218498 C114.22177359 265.69065917 112.54906867 265.68913881 110.87636375 265.68762398 C110.05339395 265.68686616 109.23042414 265.68610835 108.38251585 265.68532757 C102.58433627 265.68058581 96.7861801 265.68243532 90.98800087 265.68668938 C83.92387295 265.69161581 76.85985224 265.68563235 69.79574887 265.66579508 C66.19194231 265.65592412 62.58829899 265.65081586 58.98448372 265.65868759 C55.0786481 265.66704454 51.17309927 265.65216334 47.26728821 265.63491821 C46.12751079 265.64092826 44.98773338 265.6469383 43.81341726 265.65313047 C38.26355536 265.6084324 33.96516608 265.54684857 29.25512695 262.24723816 C26.62952161 258.30883014 27.46013506 255.66045007 28.25512695 251.24723816 C28.38741699 250.50828308 28.51970703 249.769328 28.65600586 249.00798035 C29.09375161 246.70473373 29.57481642 244.41429031 30.06762695 242.12223816 C30.22038086 241.35008972 30.37313477 240.57794128 30.53051758 239.78239441 C31.77671908 233.99962536 33.78836423 229.63177546 38.13012695 225.43473816 C42.31152603 223.09807397 47.10161422 223.12210095 51.80238342 223.10920715 C52.88041733 223.10375381 53.95845123 223.09830048 55.06915283 223.09268188 C56.82035431 223.09111839 56.82035431 223.09111839 58.60693359 223.08952332 C59.84823532 223.0844426 61.08953705 223.07936188 62.36845398 223.0741272 C65.05956998 223.06344034 67.75063509 223.05443493 70.44175911 223.04800797 C74.69887999 223.03728798 78.95592257 223.01703485 83.21299744 222.99488831 C95.31530182 222.93309085 107.41759984 222.87891316 119.52001953 222.84587097 C126.21091936 222.82752379 132.90168618 222.79859346 139.59248823 222.75786626 C143.12995601 222.7368109 146.66725637 222.72134097 150.20479012 222.71905899 C154.14757137 222.71651217 158.09002339 222.6910499 162.03271484 222.66374207 C163.20220673 222.6667482 164.37169861 222.66975433 165.57662964 222.67285156 C166.65184372 222.66175858 167.7270578 222.65066559 168.83485413 222.63923645 C170.23212533 222.63427123 170.23212533 222.63427123 171.65762424 222.6292057 C174.81536355 222.16485434 176.69331734 221.12810234 179.25512695 219.24723816 C180.76141101 216.39766115 180.76141101 216.39766115 181.72167969 212.93815613 C182.02581236 211.95774762 182.02581236 211.95774762 182.33608913 210.95753288 C185.20167484 201.47475617 187.46441718 191.81791737 189.7902832 182.19255066 C190.31433979 180.04437421 190.83896562 177.89633656 191.36412048 175.74842834 C192.74430851 170.09698719 194.11702394 164.44375775 195.48803711 158.79008484 C196.84032557 153.21875985 198.1992309 147.64905061 199.55786133 142.07926941 C201.1734748 135.45550365 202.78767114 128.83140953 204.39468384 122.20555115 C207.14334837 110.87743635 209.91847167 99.55670961 212.73901367 88.2462616 C213.57777479 84.8699206 214.41589468 81.49342112 215.25378227 78.11686325 C215.78865886 75.96898057 216.32644108 73.82181914 216.86729622 71.67543411 C217.61375692 68.71267614 218.35033098 65.74761601 219.08496094 62.78190613 C219.41702828 61.48157 219.41702828 61.48157 219.75580406 60.15496445 C220.91024612 55.44955998 221.76510829 51.12646181 221.25512695 46.24723816 C219.73837532 44.24633557 218.84780285 43.36482604 216.36222184 42.87168264 C215.64308385 42.87141026 214.92394587 42.87113788 214.18301582 42.87085724 C212.93510913 42.85944757 212.93510913 42.85944757 211.66199219 42.84780741 C210.74809562 42.85470134 209.83419905 42.86159528 208.89260864 42.86869812 C207.43622728 42.86190293 207.43622728 42.86190293 205.95042408 42.85497046 C202.68222828 42.843301 199.41443819 42.85301191 196.14624023 42.86247253 C193.80910985 42.85836951 191.47198151 42.85291025 189.13485718 42.84619141 C184.0945832 42.83444433 179.0544188 42.83198996 174.01413345 42.83654785 C166.72126748 42.84276539 159.42853723 42.83084973 152.13569413 42.81304067 C140.29676726 42.78437754 128.45785436 42.76687446 116.61889648 42.75846863 C115.5557591 42.75770786 115.5557591 42.75770786 114.47114418 42.75693172 C109.44080528 42.75340486 104.41046617 42.75027567 99.38012695 42.74723816 C93.63745097 42.74376988 87.89477517 42.7401206 82.15209961 42.73600769 C81.09116497 42.73525377 81.09116497 42.73525377 80.0087973 42.73448461 C68.21697201 42.72574167 56.42519475 42.70530691 44.63340175 42.67652559 C36.71091319 42.65780844 28.78856228 42.65428998 20.86605477 42.66146088 C15.94044436 42.66297992 11.01491676 42.65221643 6.08932877 42.6380825 C3.80159822 42.63407086 1.51385206 42.6352201 -0.77387238 42.64185524 C-3.89224765 42.65020613 -7.0100471 42.64028117 -10.12838745 42.6257782 C-11.03782258 42.63267213 -11.94725771 42.63956607 -12.88425148 42.64666891 C-17.64512239 42.60341124 -20.89954367 42.38656001 -24.74487305 39.24723816 C-27.71965316 33.29767793 -25.12803609 25.28636119 -23.61987305 19.18473816 C-23.33756836 17.89599792 -23.33756836 17.89599792 -23.04956055 16.58122253 C-21.64641582 10.84148362 -19.66419238 5.82233225 -14.74487305 2.24723816 C-9.76325918 0.54565107 -5.22347639 -0.03907459 0 0 Z " fill="#FDFDFD" transform="translate(256.744873046875,146.7527618408203)"/>
<path d="M0 0 C1.12474228 -0.00953201 2.24948456 -0.01906403 3.40830994 -0.02888489 C4.61878494 -0.02797348 5.82925995 -0.02706207 7.07641602 -0.02612305 C8.32407242 -0.03040817 9.57172882 -0.0346933 10.85719299 -0.03910828 C13.49592166 -0.04485175 16.13425918 -0.04628698 18.77294922 -0.04101562 C22.1467737 -0.03522252 25.52004892 -0.05215232 28.89378262 -0.0753603 C32.12132284 -0.09367388 35.3488332 -0.08991165 38.57641602 -0.08862305 C39.78486679 -0.09783279 40.99331757 -0.10704254 42.23838806 -0.11653137 C43.3662825 -0.11030258 44.49417694 -0.10407379 45.65625 -0.09765625 C46.645681 -0.09828568 47.635112 -0.0989151 48.65452576 -0.0995636 C51.88287658 0.34163014 53.77124268 1.36942602 56.39282227 3.2746582 C60.13710575 10.76322518 55.98375984 21.18918392 54.05929565 28.84083557 C53.44450224 31.28644966 52.84298195 33.73500748 52.24462891 36.18469238 C50.75669059 42.26480709 49.24646822 48.33934093 47.73693848 54.41412354 C46.45923332 59.55966052 45.19011713 64.70717258 43.93209839 69.8575592 C43.34221551 72.25752007 42.74001088 74.65416084 42.13720703 77.05090332 C38.8502082 88.97201172 38.8502082 88.97201172 40.35359192 100.96794128 C42.6619908 103.57913367 43.05788647 103.64554741 46.3601532 103.91389465 C48.05784205 103.94619632 49.75618746 103.95077152 51.45410156 103.93408203 C52.38112885 103.94456573 53.30815613 103.95504944 54.26327515 103.96585083 C57.33153416 103.99468317 60.39867035 103.98829965 63.46704102 103.98168945 C65.59269125 103.99479951 67.718329 104.01010159 69.84394836 104.0275116 C75.44176774 104.06745528 81.03926194 104.0775581 86.63720703 104.08154297 C92.3481641 104.09085673 98.05892868 104.12825922 103.76977539 104.16333008 C114.97744862 104.22800139 126.1849788 104.26116322 137.39282227 104.2746582 C137.53126556 103.07181686 137.66970886 101.86897552 137.81234741 100.62968445 C138.23998041 97.21965798 138.8511128 93.9330527 139.68041992 90.59423828 C139.93827774 89.54634628 140.19613556 88.49845428 140.46180725 87.41880798 C140.74068283 86.30518387 141.01955841 85.19155975 141.30688477 84.04418945 C141.59748276 82.86736099 141.88808075 81.69053253 142.18748474 80.4780426 C143.12633452 76.67992514 144.0716343 72.88345368 145.01782227 69.0871582 C146.30254265 63.91972753 147.58406096 58.75150251 148.86547852 53.58325195 C149.17740646 52.32704041 149.48933441 51.07082886 149.81071472 49.77655029 C151.49699048 42.96640548 153.1433904 36.15042575 154.70141602 29.30981445 C154.8599707 28.62073502 155.01852539 27.93165558 155.18188477 27.22169495 C155.86443131 24.25439841 156.53368414 21.28569844 157.17456055 18.30908203 C158.79056053 11.26663405 160.70047242 5.8526724 166.77197266 1.61352539 C172.16236305 -0.37965787 177.31518455 -0.1532484 183.01782227 -0.1237793 C184.84821045 -0.12808456 184.84821045 -0.12808456 186.71557617 -0.13247681 C189.29093898 -0.1345148 191.86631735 -0.12900355 194.44165039 -0.11645508 C198.37885216 -0.10039877 202.31502734 -0.11631394 206.25219727 -0.13549805 C208.75740786 -0.13351557 211.26261782 -0.1296718 213.76782227 -0.1237793 C215.53053467 -0.13288834 215.53053467 -0.13288834 217.32885742 -0.1421814 C227.66422328 -0.05343863 227.66422328 -0.05343863 232.39282227 3.2746582 C236.10704054 10.70309475 232.27259506 21.13689527 230.35766602 28.6105957 C230.04132706 29.88399811 229.7249881 31.15740051 229.39906311 32.46939087 C228.5588168 35.85107771 227.70468749 39.22910234 226.84741211 42.60650635 C226.00331881 45.94173098 225.17218773 49.2801752 224.34008789 52.6184082 C223.02611102 57.88291867 221.7046942 63.14550036 220.37670898 68.40649414 C218.37119165 76.35169818 216.38246798 84.30105347 214.39672852 92.2512207 C214.09355209 93.46450043 213.79037567 94.67778015 213.47801208 95.92782593 C212.78280209 98.71006673 212.08773403 101.4923429 211.39282227 104.2746582 C212.56949966 104.27243759 213.74617706 104.27021698 214.95851135 104.26792908 C226.15033143 104.24749058 237.34214764 104.23258767 248.53398228 104.22284603 C254.28519543 104.21766912 260.0363933 104.21066814 265.78759766 104.19921875 C271.35733626 104.1882024 276.92706033 104.18234249 282.49680901 104.17978096 C284.6018185 104.17795995 286.70682737 104.17440593 288.81183052 104.16892815 C295.6731466 104.1518141 302.53208819 104.18197824 309.39282227 104.2746582 C310.95940142 104.29370146 310.95940142 104.29370146 312.55762863 104.31312943 C315.70547163 104.36228522 318.85110538 104.44164655 321.99804688 104.53076172 C322.95347917 104.54448035 323.90891146 104.55819899 324.89329624 104.57233334 C330.62961681 104.77597661 334.01070185 105.46854211 338.39282227 109.2746582 C340.42574997 115.22802447 337.44259168 122.77924047 335.64282227 128.5246582 C335.39016602 129.39606445 335.13750977 130.2674707 334.87719727 131.1652832 C333.23774685 136.54268056 331.62208128 141.2924717 326.58680344 144.38323021 C323.99530611 145.43617145 322.03746012 145.53601756 319.24224854 145.5531311 C318.20180893 145.56429459 317.16136932 145.57545807 316.08940125 145.58695984 C314.95364151 145.58912003 313.81788177 145.59128021 312.64770508 145.59350586 C311.44743179 145.60355148 310.24715851 145.61359711 309.01051331 145.62394714 C305.72365675 145.64953421 302.43689429 145.66639241 299.14996815 145.67937517 C295.71327112 145.6950117 292.27666146 145.72180025 288.84002686 145.74740601 C282.33427975 145.79418459 275.8285162 145.83093311 269.32268691 145.86407888 C261.91518413 145.9023068 254.50776914 145.95171519 247.10034037 146.00206304 C231.86456446 146.10536918 216.62873932 146.19463383 201.39282227 146.2746582 C201.16026733 147.33611053 200.9277124 148.39756287 200.68811035 149.49118042 C196.79755104 167.16885057 192.56262203 184.76314479 188.33862305 202.36352539 C187.36945617 206.40427381 186.40589147 210.44629794 185.44702148 214.48950195 C184.27751569 219.42067887 183.09838876 224.34946155 181.91239929 229.27669907 C181.46574259 231.1393057 181.02241366 233.00271383 180.58259583 234.86694717 C179.9680067 237.46886546 179.34105609 240.06751747 178.71118164 242.66577148 C178.53548141 243.42224472 178.35978119 244.17871796 178.17875671 244.95811462 C176.3676563 252.31908634 174.01006971 259.03283292 167.39282227 263.2746582 C164.30195461 264.30494742 162.13973547 264.41346023 158.89916992 264.43579102 C157.77435211 264.44539856 156.6495343 264.4550061 155.4906311 264.46490479 C154.27499481 264.46915466 153.05935852 264.47340454 151.80688477 264.4777832 C150.55781342 264.48348328 149.30874207 264.48918335 148.02182007 264.49505615 C145.37722123 264.50450918 142.73273596 264.51140458 140.08813477 264.51489258 C136.70647141 264.5203752 133.32521112 264.54440276 129.94367409 264.57286453 C126.7106083 264.59601512 123.47752183 264.59794205 120.24438477 264.6027832 C119.03279694 264.61513 117.82120911 264.62747681 116.57290649 264.64019775 C115.44178436 264.63719666 114.31066223 264.63419556 113.14526367 264.63110352 C112.15281647 264.63474915 111.16036926 264.63839478 110.1378479 264.64215088 C106.61401219 264.17039433 103.92322772 262.80506365 101.39282227 260.2746582 C100.7949832 252.92282934 101.76040415 246.20477387 103.58007812 239.10913086 C103.81255753 238.15970612 104.04503693 237.21028137 104.28456116 236.23208618 C105.04695516 233.1311967 105.82716415 230.03509698 106.60766602 226.9387207 C107.14450228 224.76951953 107.68017391 222.60002983 108.21473694 220.43026733 C109.61865054 214.74459359 111.03760491 209.06278262 112.46002197 203.38171387 C113.90653039 197.59425997 115.33984504 191.80354343 116.77368164 186.01293945 C118.38466773 179.50769295 119.99681039 173.00276844 121.62034607 166.50064087 C121.86653687 165.51340027 122.11272766 164.52615967 122.36637878 163.50900269 C122.82506978 161.67035358 123.28465792 159.83192795 123.74533081 157.99377441 C123.94864517 157.17821075 124.15195953 156.36264709 124.36143494 155.52236938 C124.62552863 154.46668479 124.62552863 154.46668479 124.89495754 153.38967323 C125.45089751 151.02794459 125.92867193 148.65596962 126.39282227 146.2746582 C125.70720813 146.27558 125.02159399 146.27650179 124.31520367 146.27745152 C107.59590909 146.2995818 90.87661918 146.31610628 74.15731335 146.32647038 C66.07182983 146.3316162 57.98635612 146.3386261 49.90087891 146.35009766 C42.84966742 146.360097 35.79846304 146.36652409 28.74724466 146.3687467 C25.01725497 146.37004492 21.28728561 146.3730741 17.55730247 146.38038826 C13.38291923 146.38850667 9.20857081 146.38864597 5.03417969 146.38818359 C3.81137802 146.39177887 2.58857635 146.39537415 1.32872009 146.39907837 C-22.90552016 146.3701357 -22.90552016 146.3701357 -31.93920898 138.15356445 C-38.52216671 131.11988169 -40.11787474 125.19508836 -39.90112305 115.63842773 C-39.66275901 110.93906291 -38.85072314 106.41285106 -37.94311523 101.80200195 C-37.76721863 100.89570038 -37.59132202 99.9893988 -37.41009521 99.05563354 C-35.20495247 87.9312369 -32.54138925 76.9163162 -29.85717773 65.8996582 C-29.59394714 64.81590912 -29.33071655 63.73216003 -29.05950928 62.61557007 C-27.73625136 57.16933858 -26.40743935 51.72450749 -25.07299805 46.28100586 C-23.9632872 41.74808416 -22.87468886 37.21065898 -21.80004883 32.66931152 C-21.11482781 29.78815685 -20.41332169 26.91118349 -19.70617676 24.03533936 C-19.24769918 22.15095282 -18.80844082 20.26192226 -18.36987305 18.37280273 C-16.57156824 11.1868264 -14.44145222 5.2133117 -7.85914612 1.21206665 C-5.1035671 0.06502433 -2.98336045 0.01390352 0 0 Z " fill="#FDFDFD" transform="translate(957.607177734375,147.725341796875)"/>
<path d="M0 0 C1.01812271 -0.0033284 2.03624542 -0.0066568 3.08522034 -0.01008606 C5.23267161 -0.0151355 7.38013069 -0.017495 9.52758789 -0.01733398 C12.80172709 -0.01952144 16.07552966 -0.03770109 19.34960938 -0.05664062 C21.4414051 -0.05957481 23.53320242 -0.06155944 25.625 -0.0625 C27.08467445 -0.07327827 27.08467445 -0.07327827 28.57383728 -0.08427429 C40.63608547 -0.04398349 40.63608547 -0.04398349 45.31640625 3.73046875 C48.12621637 10.17650373 46.04651389 17.69853774 44.4296875 24.24609375 C44.2293777 25.06334049 44.0290679 25.88058723 43.8226881 26.72259903 C43.36310667 28.59762715 42.9035246 30.4726551 42.44394207 32.34768295 C41.95398346 34.34667479 41.46403891 36.34567008 40.9741106 38.34466934 C38.13344667 49.93502963 35.29179571 61.52514533 32.44604492 73.11425781 C24.53514944 105.33456491 16.66297789 137.56422826 8.80918187 169.79849792 C7.52172876 175.08235262 6.23355518 180.36603149 4.94523525 185.64967489 C3.51644548 191.50953764 2.08828851 197.36955442 0.66036987 203.22962952 C0.0673846 205.66288947 -0.52576859 208.09610851 -1.11911011 210.52928162 C-1.67725011 212.81829078 -2.23502411 215.10738923 -2.79240417 217.39658356 C-3.32208968 219.57030354 -3.85314869 221.74368937 -4.38569641 223.9167099 C-5.63219323 229.01901656 -6.84546238 234.12488682 -7.98730469 239.25170898 C-8.20454193 240.21169548 -8.42177917 241.17168198 -8.64559937 242.16075897 C-9.04655044 243.9413828 -9.43771194 245.72425485 -9.81655884 247.50971222 C-11.16405839 253.452291 -13.02841514 258.18454603 -18.03662109 262.01586914 C-23.63292039 263.81459795 -29.13012206 263.61531636 -34.97265625 263.6015625 C-36.91004166 263.60942528 -36.91004166 263.60942528 -38.88656616 263.6174469 C-41.6116518 263.62635226 -44.33644392 263.62398256 -47.06152344 263.61401367 C-50.54989801 263.60249416 -54.03726474 263.62279213 -57.52550697 263.65193081 C-60.8621105 263.67469621 -64.19847689 263.6678275 -67.53515625 263.6640625 C-68.78624176 263.67529648 -70.03732727 263.68653046 -71.32632446 263.69810486 C-72.48788055 263.68872391 -73.64943665 263.67934296 -74.84619141 263.66967773 C-75.86734039 263.66951157 -76.88848938 263.6693454 -77.94058228 263.66917419 C-80.62109375 263.16796875 -80.62109375 263.16796875 -82.98202515 261.69911194 C-86.1246207 256.84613671 -84.95199439 251.26798126 -83.82003784 245.82571411 C-83.44907868 244.29022111 -83.06690398 242.75740704 -82.67529297 241.22705078 C-82.46633329 240.37514443 -82.25737362 239.52323809 -82.04208183 238.6455164 C-81.34642524 235.81975259 -80.63607522 232.99789804 -79.92578125 230.17578125 C-79.42442614 228.15073698 -78.92406399 226.12544666 -78.42462158 224.09992981 C-77.353248 219.76280448 -76.275604 215.4273057 -75.19293213 211.09298706 C-73.47997577 204.23457149 -71.78113611 197.37271287 -70.08544922 190.51000977 C-69.50809077 188.17372042 -68.93072869 185.83743197 -68.35336304 183.50114441 C-68.06575481 182.3372286 -67.77814659 181.1733128 -67.48182297 179.97412682 C-66.60051452 176.40964999 -65.71785014 172.84551126 -64.83486938 169.28144836 C-59.28030176 146.85166294 -53.83891266 124.39513189 -48.42673492 101.93062592 C-47.54577222 98.27398831 -46.66440818 94.61744755 -45.7828846 90.96094513 C-45.35803982 89.19869237 -44.93327921 87.43641931 -44.50860405 85.67412567 C-43.47555423 81.38844481 -42.4404712 77.1032739 -41.40097046 72.81915283 C-40.99021707 71.12538521 -40.57954234 69.4315985 -40.16894531 67.73779297 C-39.9647101 66.89534782 -39.76047489 66.05290268 -39.55005074 65.18492889 C-38.16480338 59.4560317 -36.80716154 53.72104577 -35.46132851 47.98276806 C-34.48737349 43.83972642 -33.50184959 39.69948147 -32.51467514 35.55957222 C-32.04428664 33.57448993 -31.57904173 31.58818071 -31.11932755 29.60059929 C-30.47948261 26.83657528 -29.82153715 24.07742384 -29.15966797 21.31860352 C-28.97703777 20.50884378 -28.79440758 19.69908405 -28.60624313 18.86478615 C-27.02556546 12.40431737 -24.49253214 6.45039414 -19.18359375 2.23046875 C-13.04073445 -0.31657047 -6.53710441 0.0074601 0 0 Z " fill="#FDFDFD" transform="translate(237.62109375,241.83203125)"/>
<path d="M0 0 C0.81707932 -0.00671722 1.63415863 -0.01343445 2.47599792 -0.02035522 C5.16456257 -0.03928045 7.85287689 -0.04325654 10.54150391 -0.04541016 C12.41948548 -0.05184152 14.29746606 -0.05857013 16.17544556 -0.06558228 C20.10770998 -0.07754108 24.03988665 -0.0812645 27.97216797 -0.08007812 C32.99801742 -0.07987493 38.02330144 -0.10718364 43.04901695 -0.14162254 C46.92677367 -0.1639155 50.80439478 -0.16791494 54.68220901 -0.16685867 C56.53448054 -0.16921076 58.38675602 -0.17801211 60.23896408 -0.19352341 C62.83548789 -0.21323371 65.43079823 -0.20732624 68.02734375 -0.1953125 C68.78396805 -0.20655151 69.54059235 -0.21779053 70.32014465 -0.22937012 C75.82820092 -0.16497282 80.01853822 1.27339916 84.64306641 4.29052734 C87.78161046 7.72330991 87.96221573 10.7913401 87.90625 15.34887695 C87.31125685 21.99922244 85.51496602 28.4990626 83.95556641 34.97802734 C83.39766184 37.33139418 82.84208239 39.6853019 82.28668213 42.03926086 C81.91861156 43.59790159 81.54927495 45.1562439 81.1786499 46.71427917 C80.11705447 51.19552106 79.12485086 55.6828059 78.20947266 60.19677734 C78.00346436 61.19104736 77.79745605 62.18531738 77.58520508 63.2097168 C77.22177107 64.98370657 76.87290761 66.76078141 76.54272461 68.54125977 C75.17461399 75.05394613 72.28111215 80.61722161 66.8137207 84.63476562 C61.58345978 87.71203647 57.25892468 88.44705894 51.32592773 88.49584961 C50.58421829 88.50574921 49.84250885 88.5156488 49.07832336 88.52584839 C46.62728057 88.55742991 44.1762184 88.58220755 41.72509766 88.60693359 C40.02544146 88.62750601 38.32579034 88.64850256 36.62614441 88.66990662 C32.15292478 88.72509754 27.6796592 88.77451997 23.20635986 88.82275391 C18.64160066 88.87299067 14.07690817 88.92866538 9.51220703 88.98388672 C0.55588382 89.09143186 -8.40049733 89.19288494 -17.35693359 89.29052734 C-17.60797852 90.03818359 -17.85902344 90.78583984 -18.11767578 91.55615234 C-18.45959961 92.54099609 -18.80152344 93.52583984 -19.15380859 94.54052734 C-19.48735352 95.51505859 -19.82089844 96.48958984 -20.16455078 97.49365234 C-22.57516925 103.14804325 -26.67943941 106.83420861 -32.29443359 109.22802734 C-36.37839482 110.53873114 -40.09688863 110.51874404 -44.35693359 110.29052734 C-45.75062193 107.50315066 -45.04099189 105.99038013 -44.38818359 102.95581055 C-44.15019547 101.83377228 -43.91220734 100.71173401 -43.66700745 99.55569458 C-43.39968307 98.3299472 -43.1323587 97.10419983 -42.85693359 95.84130859 C-42.58570175 94.57253876 -42.31446991 93.30376892 -42.03501892 91.99655151 C-41.30216968 88.57036153 -40.56064515 85.14610688 -39.81681442 81.72228622 C-39.20605532 78.90773824 -38.59928626 76.09233621 -37.99244976 73.27694035 C-36.65570361 67.07596104 -35.31233124 60.87645129 -33.96289062 54.67822266 C-32.82353257 49.4439457 -31.69374765 44.20777013 -30.57406616 38.96925354 C-29.82384393 35.47004731 -29.05910972 31.97410341 -28.29443359 28.47802734 C-28.045 27.30473877 -27.79556641 26.1314502 -27.53857422 24.92260742 C-25.90226018 17.58538865 -24.07728281 9.86621004 -17.98193359 4.91552734 C-17.16595703 4.22330078 -17.16595703 4.22330078 -16.33349609 3.51708984 C-11.17170876 0.31392537 -5.92626842 -0.00706139 0 0 Z " fill="#FBFBFB" transform="translate(779.35693359375,460.70947265625)"/>
<path d="M0 0 C0.97608719 -0.00029205 1.95217438 -0.00058411 2.95783997 -0.00088501 C6.17730667 0.00050596 9.39654063 0.0160564 12.6159668 0.03173828 C14.85084405 0.03546923 17.08572294 0.03831582 19.32060242 0.04031372 C25.19785085 0.04794368 31.07500016 0.0675868 36.95220947 0.08972168 C42.95144307 0.11019377 48.9506927 0.11931836 54.94995117 0.12939453 C66.7175728 0.15083321 78.48512093 0.18496156 90.25268555 0.22705078 C89.22583517 8.77182442 89.22583517 8.77182442 88.43994141 12.41943359 C88.28536469 13.14475281 88.13078796 13.87007202 87.9715271 14.61737061 C87.80520782 15.38059631 87.63888855 16.14382202 87.4675293 16.93017578 C87.29073639 17.75447083 87.11394348 18.57876587 86.93179321 19.42803955 C86.35499544 22.11186504 85.77296029 24.79451728 85.19018555 27.47705078 C84.78702392 29.34096459 84.38394877 31.20489711 83.98095703 33.06884766 C83.15325273 36.89233772 82.32260249 40.71517351 81.48999023 44.53759766 C80.48890076 49.13488896 79.49681167 53.73406084 78.50761414 58.33392334 C77.78726867 61.6758549 77.0602527 65.01630652 76.33108521 68.35632324 C75.98804653 69.93269808 75.64743643 71.50960342 75.30929565 73.08703613 C74.84043519 75.2707316 74.36227698 77.45218251 73.8815918 79.63330078 C73.61419189 80.86371094 73.34679199 82.09412109 73.07128906 83.36181641 C72.25268555 86.22705078 72.25268555 86.22705078 70.25268555 88.22705078 C67.18062851 88.43132452 64.1983544 88.51017193 61.12475586 88.50170898 C60.17825165 88.50681992 59.23174744 88.51193085 58.25656128 88.51719666 C55.11458075 88.53114322 51.97281843 88.53013159 48.83081055 88.52783203 C46.65085773 88.53171719 44.47090566 88.53605148 42.29095459 88.54081726 C37.71437125 88.5482911 33.13786502 88.54798051 28.5612793 88.54272461 C22.6989596 88.53693923 16.8369568 88.55383296 10.97468948 88.57706928 C6.46907711 88.5918121 1.96354085 88.59267737 -2.54209137 88.58955956 C-4.70302201 88.59007284 -6.86395691 88.59531201 -9.0248642 88.60537148 C-12.05071971 88.61772408 -15.07596077 88.61095013 -18.10180664 88.59936523 C-18.99346527 88.60700897 -19.8851239 88.61465271 -20.80380249 88.62252808 C-25.87053351 88.57970639 -29.35246516 88.03108986 -33.74731445 85.22705078 C-37.24724693 81.36505632 -38.01667446 77.84287313 -37.94360352 72.66308594 C-37.53980211 67.65172964 -36.27348422 62.79767038 -35.12231445 57.91455078 C-34.56958821 55.51626136 -34.01752495 53.11781906 -33.46606445 50.71923828 C-33.03874023 48.87410645 -33.03874023 48.87410645 -32.6027832 46.99169922 C-31.7516298 43.24604127 -30.94527115 39.49350067 -30.15356445 35.73486328 C-29.89655762 34.52870361 -29.63955078 33.32254395 -29.37475586 32.07983398 C-28.88495804 29.77530505 -28.40247477 27.46920536 -27.9284668 25.16137695 C-26.31577092 17.68022822 -24.59045432 9.8707607 -18.30981445 4.85205078 C-17.75422852 4.39056641 -17.19864258 3.92908203 -16.6262207 3.45361328 C-11.19406784 -0.09253225 -6.29085059 -0.04932375 0 0 Z " fill="#FCFCFC" transform="translate(297.747314453125,460.77294921875)"/>
<path d="M0 0 C0.83004547 -0.00511093 1.66009094 -0.01022186 2.51528931 -0.01548767 C5.24594426 -0.02933349 7.97634547 -0.02843095 10.70703125 -0.02612305 C12.61222425 -0.03001219 14.5174164 -0.03434732 16.42260742 -0.03910828 C20.41034765 -0.04655931 24.39799931 -0.04628691 28.38574219 -0.04101562 C33.49016659 -0.03521676 38.59422864 -0.05216751 43.69859314 -0.0753603 C47.63116568 -0.09010573 51.56365105 -0.09096833 55.49624634 -0.08785057 C57.37806924 -0.08836318 59.2598971 -0.09358969 61.14169312 -0.10366249 C63.77438812 -0.11602785 66.4063784 -0.10923519 69.0390625 -0.09765625 C69.81222809 -0.10529999 70.58539368 -0.11294373 71.38198853 -0.12081909 C76.17613453 -0.07432033 79.45299062 0.72641123 83.51953125 3.2746582 C87.33070666 7.48700997 87.79322033 10.40659412 87.68859863 15.79925537 C87.40902219 19.89267834 86.58441052 23.81569444 85.69140625 27.8137207 C85.40598969 29.13960709 85.40598969 29.13960709 85.11480713 30.49227905 C84.71223724 32.35379062 84.30524682 34.2143512 83.89404297 36.07397461 C83.2762439 38.86928596 82.67206299 41.66725935 82.0703125 44.46606445 C80.31378876 52.57995129 78.50216222 60.68512026 76.47265625 68.7355957 C76.19067383 69.86529785 75.90869141 70.995 75.61816406 72.15893555 C73.42781428 78.37076754 69.82083451 82.45771986 64.51953125 86.2746582 C59.6999845 88.30362458 55.21287079 88.57124444 50.05493164 88.56518555 C48.81227287 88.57526138 48.81227287 88.57526138 47.54450989 88.58554077 C44.81867399 88.60446624 42.09308492 88.60844192 39.3671875 88.6105957 C37.46439006 88.61702642 35.5615936 88.62375499 33.65879822 88.63076782 C29.67525948 88.64272623 25.69180737 88.64645002 21.70825195 88.64526367 C16.61280528 88.64506034 11.51791543 88.67238391 6.42260075 88.70680809 C2.4942725 88.7290809 -1.43392168 88.73310113 -5.36230659 88.73204422 C-7.24052414 88.73439877 -9.11874546 88.74321407 -10.99690056 88.75870895 C-13.62715223 88.77838082 -16.25620216 88.772527 -18.88647461 88.76049805 C-19.65604492 88.77173706 -20.42561523 88.78297607 -21.21850586 88.79455566 C-26.72138742 88.73084393 -29.95673244 87.44630553 -34.48046875 84.2746582 C-40.02537158 75.61074753 -36.13859586 64.84403589 -34.1171875 55.4230957 C-33.88393265 54.32422028 -33.6506778 53.22534485 -33.41035461 52.09317017 C-32.91814131 49.78488426 -32.42299437 47.47722215 -31.92504883 45.17016602 C-31.16919095 41.65534156 -30.4309223 38.13711104 -29.69335938 34.6184082 C-29.2107065 32.3655743 -28.7270175 30.11296207 -28.2421875 27.8605957 C-28.02535812 26.81769379 -27.80852875 25.77479187 -27.58512878 24.70028687 C-25.99859799 17.4654705 -24.11886395 9.78377731 -18.10546875 4.8996582 C-17.28949219 4.20743164 -17.28949219 4.20743164 -16.45703125 3.5012207 C-11.25299343 0.27183755 -5.9722467 -0.01913658 0 0 Z " fill="#FCFCFC" transform="translate(1033.48046875,460.725341796875)"/>
<path d="M0 0 C1.23043785 -0.0076664 1.23043785 -0.0076664 2.48573303 -0.01548767 C5.18392329 -0.0293319 7.88185669 -0.02843107 10.58007812 -0.02612305 C12.46285089 -0.03001228 14.34562279 -0.03434742 16.22839355 -0.03910828 C20.16905567 -0.04655896 24.10962817 -0.04628716 28.05029297 -0.04101562 C33.0941849 -0.03521676 38.13771014 -0.05216766 43.18154144 -0.0753603 C47.06779109 -0.09010649 50.95395255 -0.09096823 54.84022522 -0.08785057 C56.69971952 -0.08836315 58.55921883 -0.09358891 60.41868591 -0.10366249 C63.02025069 -0.11602937 65.62110248 -0.10923433 68.22265625 -0.09765625 C68.9864711 -0.10529999 69.75028595 -0.11294373 70.5372467 -0.12081909 C76.53418604 -0.06196965 80.56499144 1.33893431 84.92382812 5.4621582 C89.39316168 12.91104747 87.03080583 20.63807547 85.18945312 28.5871582 C84.79847443 30.33959839 84.79847443 30.33959839 84.39959717 32.12744141 C83.84751586 34.58970675 83.2890546 37.05054926 82.72460938 39.51000977 C81.8648869 43.2591389 81.0255275 47.01237996 80.18945312 50.7668457 C79.64897909 53.16555224 79.10735065 55.56399901 78.56445312 57.9621582 C78.31431458 59.07695557 78.06417603 60.19175293 77.80645752 61.34033203 C73.90553941 78.25410827 73.90553941 78.25410827 67.61132812 84.2746582 C61.71955541 87.69912934 56.43964863 88.86296397 49.69848633 88.79223633 C48.85824921 88.79924561 48.01801208 88.80625488 47.15231323 88.81347656 C44.40523158 88.83092582 41.65919946 88.81948413 38.91210938 88.8059082 C36.9887828 88.80860612 35.06545755 88.81249104 33.14213562 88.81750488 C29.12514164 88.82338155 25.10850499 88.81489338 21.09155273 88.79614258 C15.95007438 88.77330787 10.80942927 88.78651631 5.66798115 88.81043243 C1.70191693 88.8249006 -2.26395031 88.82028053 -6.23002052 88.80992126 C-8.12579256 88.80725919 -10.02158267 88.8105054 -11.9173336 88.81983948 C-14.56670807 88.83002709 -17.21473901 88.81447578 -19.86401367 88.79223633 C-20.64181686 88.80033325 -21.41962006 88.80843018 -22.22099304 88.81677246 C-27.42615059 88.73604552 -30.36689635 87.54334961 -34.38867188 84.2746582 C-38.33603327 79.80098195 -37.73709753 74.92143597 -37.38867188 69.2746582 C-36.82460034 65.30591142 -36.01116821 61.4091536 -35.15820312 57.4934082 C-34.925905 56.39927612 -34.69360687 55.30514404 -34.45426941 54.17785645 C-33.96255848 51.8774693 -33.46559107 49.57820004 -32.96362305 47.2800293 C-32.20413426 43.78827777 -31.47028627 40.29179251 -30.73828125 36.79418945 C-30.25479958 34.54776276 -29.76982274 32.30165724 -29.28320312 30.0559082 C-29.06839798 29.02332886 -28.85359283 27.99074951 -28.63227844 26.92687988 C-26.5992927 17.79048056 -23.6999153 9.53988167 -16.33007812 3.4309082 C-11.12129602 0.32869593 -5.92585929 -0.0192204 0 0 Z " fill="#FCFCFC" transform="translate(643.388671875,460.725341796875)"/>
<path d="M0 0 C5.23314981 0.1516855 8.59141231 1.95944162 12.625 5.25 C18.14715108 15.65713088 12.24376056 31.06501575 9.8125 41.875 C9.38626269 43.81811685 8.96112368 45.76147497 8.53710938 47.70507812 C7.76109133 51.24047104 6.98289772 54.77530329 6.18969727 58.30688477 C6.03203384 59.01015396 5.87437042 59.71342316 5.71192932 60.43800354 C5.3060466 62.08506443 4.78642803 63.7032159 4.25 65.3125 C26.03 65.3125 47.81 65.3125 70.25 65.3125 C70.58 62.3425 70.91 59.3725 71.25 56.3125 C71.63526019 54.23090521 72.05547672 52.15530149 72.51953125 50.08984375 C72.76654785 48.9814917 73.01356445 47.87313965 73.26806641 46.73120117 C73.66131104 45.00800659 73.66131104 45.00800659 74.0625 43.25 C74.33239746 42.05930908 74.60229492 40.86861816 74.88037109 39.6418457 C75.41906523 37.27682747 75.96065221 34.91246598 76.50537109 32.54882812 C77.14496431 29.76900924 77.77124916 26.98662682 78.39453125 24.203125 C78.71986728 22.80173732 79.04654693 21.4006604 79.375 20 C79.64570313 18.82824219 79.91640625 17.65648437 80.1953125 16.44921875 C82.61622107 9.24925733 86.91796301 5.14185364 93.4375 1.5625 C97.93421022 -0.27796768 102.48223084 0.09994892 107.25 0.3125 C103.74845361 20.26126467 99.49898606 40.114706 95.0625 59.875 C94.83723633 60.9069751 94.61197266 61.9389502 94.37988281 63.00219727 C92.39423214 71.67609 90.24264184 79.28544482 83.2265625 85.12109375 C77.96186038 88.29448139 72.6819644 88.60998192 66.67773438 88.60302734 C65.83793533 88.60974457 64.99813629 88.61646179 64.13288879 88.62338257 C61.36978161 88.64230828 58.60691788 88.64628356 55.84375 88.6484375 C53.91613669 88.65486759 51.98852436 88.66159611 50.06091309 88.66860962 C46.02610002 88.68056763 41.9913725 88.6842918 37.95654297 88.68310547 C32.79149897 88.682902 27.62700344 88.71024002 22.46208954 88.74464989 C18.48318977 88.76690309 14.50442254 88.77094355 10.52546692 88.76988602 C8.62130335 88.77224297 6.71713617 88.7810718 4.81303406 88.79655075 C2.14905446 88.8161853 -0.51373491 88.81038366 -3.17773438 88.79833984 C-3.9602507 88.80957886 -4.74276703 88.82081787 -5.54899597 88.83239746 C-10.72714591 88.77302228 -13.6157838 87.68588318 -17.75 84.3125 C-20.7630476 80.79727781 -21.07284887 77.83129451 -21.00878906 73.27709961 C-20.41578772 66.48387766 -18.68957345 59.82724569 -17.1875 53.1875 C-16.8240168 51.55248077 -16.46123237 49.91730605 -16.09912109 48.28198242 C-15.35732767 44.93955071 -14.60971799 41.59849358 -13.85791016 38.25830078 C-12.96274598 34.27499093 -12.08575858 30.28802656 -11.21809387 26.29864502 C-10.59120389 23.41883911 -9.95791423 20.54046712 -9.32302856 17.66241455 C-9.02537652 16.3088388 -8.72984899 14.95479405 -8.43649292 13.60028076 C-8.02988753 11.72805345 -7.61287191 9.858096 -7.1953125 7.98828125 C-6.96344238 6.93552002 -6.73157227 5.88275879 -6.49267578 4.7980957 C-5.26281455 0.68198223 -4.29912841 0.3582607 0 0 Z " fill="#FCFCFC" transform="translate(414.75,460.6875)"/>
<path d="M0 0 C2.80984993 2.19290462 4.40686098 4.81372196 6 8 C6.16217149 12.29754445 5.8514137 15.74293148 5 20 C15.56 20 26.12 20 37 20 C35.89247868 29.96769186 34.07238259 33.44804188 26.9765625 39.703125 C21.18368996 43.50398208 15.28957238 43.24859407 8.625 43.125 C7.23474609 43.11146484 7.23474609 43.11146484 5.81640625 43.09765625 C3.54399923 43.07422937 1.2721382 43.04142748 -1 43 C-1.10812012 43.76658936 -1.21624023 44.53317871 -1.32763672 45.32299805 C-2.58666351 53.90358134 -4.2652445 62.34406119 -6.125 70.8125 C-7.07375 75.164375 -8.0225 79.51625 -9 84 C6.84 84.495 6.84 84.495 23 85 C22.05209843 93.5311141 21.42372693 96.95883987 16 103 C8.74832022 108.67318914 1.07856481 108.24400549 -7.73461914 108.29516602 C-9.11460632 108.30667807 -10.49454924 108.32711823 -11.87426758 108.35668945 C-26.26337578 108.66467108 -26.26337578 108.66467108 -32 104 C-37.0997258 96.03167844 -34.1374089 87.20119313 -32.25 78.49609375 C-31.51032066 75.14087921 -30.75571856 71.78913229 -30 68.4375 C-29.59895596 66.64034566 -29.19849399 64.84306133 -28.79858398 63.0456543 C-28.17498211 60.2436898 -27.55083309 57.4418564 -26.92442322 54.64051819 C-25.41736682 47.89810594 -23.93794029 41.15004197 -22.47265625 34.3984375 C-22.06449171 32.52155736 -21.65628914 30.6446855 -21.24804688 28.76782227 C-20.6586123 26.05751233 -20.06996506 23.34704639 -19.48413086 20.63595581 C-18.94168365 18.12772429 -18.39511286 15.62042343 -17.84765625 13.11328125 C-17.68967056 12.37753876 -17.53168488 11.64179626 -17.36891174 10.88375854 C-15.59616663 2.80484539 -15.59616663 2.80484539 -14 -1 C-9.21217207 -2.59594264 -4.73813159 -1.54474173 0 0 Z " fill="#FBFBFB" transform="translate(560,441)"/>
<path d="M0 0 C5.34968277 0.34514082 9.18916586 1.78598614 13.25 5.3125 C15.68871426 8.22019777 16.01236057 9.90446712 16 13.625 C16.00386719 14.78128906 16.00386719 14.78128906 16.0078125 15.9609375 C15.875 18.25 15.875 18.25 14.875 22.25 C25.765 22.25 36.655 22.25 47.875 22.25 C45.04555838 36.39720812 45.04555838 36.39720812 38.06640625 41.59765625 C29.04484557 47.01059266 21.00032584 45.66445653 9.875 46.25 C6.905 59.78 3.935 73.31 0.875 87.25 C11.435 87.25 21.995 87.25 32.875 87.25 C31.62999137 99.70008627 31.62999137 99.70008627 25.875 105.25 C18.73232501 110.45977351 12.18505536 110.46522733 3.64306641 110.49023438 C1.64603695 110.4998982 -0.35085052 110.53108516 -2.34765625 110.5625 C-15.91564154 110.61748677 -15.91564154 110.61748677 -22 105.75 C-25.14246275 101.56004967 -24.4809791 96.19965019 -24.125 91.25 C-23.35060212 86.53461423 -22.27459144 81.90201277 -21.1875 77.25 C-20.71098979 75.15636216 -20.23844332 73.06185247 -19.76603699 70.96728516 C-19.42854731 69.4718956 -19.08982545 67.97678367 -18.74995422 66.48193359 C-17.38334348 60.45647453 -16.07956791 54.41883581 -14.796875 48.375 C-14.60077133 47.45187012 -14.40466766 46.52874023 -14.20262146 45.57763672 C-13.42481748 41.91280913 -12.64803584 38.2477712 -11.87454224 34.58203125 C-10.00133642 25.71441222 -8.09069947 16.86229921 -5.91796875 8.0625 C-5.75218826 7.38461426 -5.58640778 6.70672852 -5.41560364 6.00830078 C-3.98213109 0.31857049 -3.98213109 0.31857049 0 0 Z " fill="#FBFBFB" transform="translate(1152.125,438.75)"/>
<path d="M0 0 C22.11 0 44.22 0 67 0 C65.96726411 7.22915123 64.58706983 14.32067816 63.09863281 21.46240234 C62.78160141 22.99363134 62.46946282 24.52588113 62.16210938 26.05908203 C61.71537242 28.28658853 61.25391712 30.51058805 60.7890625 32.734375 C60.58731918 33.76096222 60.58731918 33.76096222 60.38150024 34.80828857 C59.60286225 38.44177957 59.05800487 40.80272616 56 43 C53.17158508 43.36076355 53.17158508 43.36076355 49.69262695 43.34057617 C48.39150467 43.34034958 47.09038239 43.34012299 45.74983215 43.33988953 C44.3293117 43.32456952 42.90879474 43.30892153 41.48828125 43.29296875 C40.03525734 43.28737276 38.58222776 43.28310267 37.12919617 43.28010559 C33.30679671 43.26865695 29.4847398 43.23918999 25.66247559 43.20599365 C21.76135899 43.17529295 17.86018698 43.16160028 13.95898438 43.14648438 C6.3058335 43.11431998 -1.34703523 43.06312383 -9 43 C-6.38041564 28.59228602 -3.12936037 14.30564742 0 0 Z " fill="#020202" transform="translate(639,484)"/>
<path d="M0 0 C21.78 0 43.56 0 66 0 C64.87309711 12.39593176 64.87309711 12.39593176 63.44140625 18.56640625 C63.29219223 19.21197983 63.14297821 19.85755341 62.98924255 20.52268982 C62.67769914 21.86176244 62.36252323 23.19999519 62.04370117 24.53735352 C61.55638902 26.58821822 61.08521067 28.64236668 60.61523438 30.69726562 C60.30823556 32.00803393 60.0003272 33.31858962 59.69140625 34.62890625 C59.41498291 35.80525635 59.13855957 36.98160645 58.85375977 38.19360352 C58 41 58 41 56 43 C53.2918396 43.24050903 53.2918396 43.24050903 49.80615234 43.22705078 C48.50495453 43.22689972 47.20375671 43.22674866 45.86312866 43.22659302 C44.43739673 43.21637893 43.01166635 43.20594692 41.5859375 43.1953125 C40.13148187 43.19158295 38.67702373 43.1887357 37.2225647 43.18673706 C33.39201944 43.179096 29.56162554 43.15944357 25.73114014 43.1373291 C21.82338509 43.11688078 17.91560561 43.10773752 14.0078125 43.09765625 C6.33847262 43.07619802 -1.33074249 43.04205651 -9 43 C-8.46324131 37.38185189 -7.66574663 31.95669106 -6.40625 26.4453125 C-6.25466431 25.77708466 -6.10307861 25.10885681 -5.94689941 24.42037964 C-5.62983709 23.02679484 -5.31044648 21.63373779 -4.98876953 20.24121094 C-4.49650373 18.10986229 -4.01132813 15.97699295 -3.52734375 13.84375 C-1.16815784 3.50447351 -1.16815784 3.50447351 0 0 Z " fill="#020202" transform="translate(1030,484)"/>
<path d="M0 0 C21.78 0 43.56 0 66 0 C65.12317844 7.01457251 63.9427744 13.80492472 62.52587891 20.71899414 C62.12411873 22.69182747 61.73586156 24.66703901 61.34765625 26.64257812 C61.09113281 27.89876953 60.83460938 29.15496094 60.5703125 30.44921875 C60.34102051 31.58705811 60.11172852 32.72489746 59.87548828 33.8972168 C58.89716821 37.36444206 57.58281276 40.41718724 55 43 C53.0056827 43.09405142 51.00800457 43.11743249 49.01147461 43.11352539 C47.73022202 43.11344986 46.44896942 43.11337433 45.12889099 43.11329651 C43.72004152 43.10818909 42.31119244 43.10297309 40.90234375 43.09765625 C39.46887766 43.09579202 38.03541093 43.09436814 36.60194397 43.09336853 C32.82240043 43.08954372 29.0428951 43.07971377 25.2633667 43.06866455 C21.40930702 43.05844963 17.55524118 43.05387074 13.70117188 43.04882812 C6.13409713 43.03809146 -1.43294609 43.02101549 -9 43 C-8.47070709 37.6655236 -7.78627018 32.4551031 -6.66015625 27.20703125 C-6.40169922 25.99982422 -6.14324219 24.79261719 -5.87695312 23.54882812 C-5.60818359 22.31583984 -5.33941406 21.08285156 -5.0625 19.8125 C-4.79759766 18.56791016 -4.53269531 17.32332031 -4.25976562 16.04101562 C-3.07195318 10.53817236 -1.78591784 5.35775352 0 0 Z " fill="#020202" transform="translate(294,484)"/>
<path d="M0 0 C22.11 0 44.22 0 67 0 C66.12183689 7.02530485 64.91043393 13.80028285 63.47094727 20.71899414 C63.06148519 22.69239085 62.66038706 24.66737007 62.25976562 26.64257812 C62.00001953 27.89876953 61.74027344 29.15496094 61.47265625 30.44921875 C61.12086304 32.15597778 61.12086304 32.15597778 60.76196289 33.8972168 C60 37 60 37 58 42 C36.22 42 14.44 42 -8 42 C-6.87521622 30.75216224 -6.87521622 30.75216224 -5.625 25.29296875 C-5.23054687 23.54790039 -5.23054687 23.54790039 -4.828125 21.76757812 C-4.55484375 20.58615234 -4.2815625 19.40472656 -4 18.1875 C-3.45800905 15.80606336 -2.91633007 13.4245557 -2.375 11.04296875 C-2.13523437 10.00164795 -1.89546875 8.96032715 -1.6484375 7.88745117 C-1.05990783 5.26676577 -0.52675929 2.63379646 0 0 Z " fill="#010101" transform="translate(775,484)"/>
<path d="M0 0 C4.97985822 0.40160147 9.7327204 0.9901969 13.26953125 4.82421875 C17.37029542 11.27241682 15.94600384 17.79015834 14.37599182 24.8895874 C14.16039108 25.82836731 13.94479034 26.76714722 13.72265625 27.734375 C13.50306747 28.71617737 13.2834787 29.69797974 13.05723572 30.70953369 C12.35759954 33.82879865 11.64751014 36.94558198 10.9375 40.0625 C10.46354523 42.17303178 9.99023117 44.28370756 9.51757812 46.39453125 C8.65088197 50.24790444 7.78415596 54.10125679 6.90649414 57.95214844 C6.73106583 58.72379333 6.55563751 59.49543823 6.37489319 60.29046631 C5.95559905 61.98648235 5.42747425 63.65507724 4.875 65.3125 C15.765 65.3125 26.655 65.3125 37.875 65.3125 C36.67269138 74.93096895 35.05532425 78.66139419 28.0078125 84.796875 C21.73044748 89.25771315 14.95348054 88.65102483 7.58276367 88.62817383 C5.44723425 88.6250144 3.31309281 88.64849795 1.17773438 88.67382812 C-0.1927066 88.67610163 -1.56315127 88.67680438 -2.93359375 88.67578125 C-4.16907959 88.67876221 -5.40456543 88.68174316 -6.67749023 88.68481445 C-11.33326156 88.18201357 -14.76952478 86.80819679 -17.9375 83.3125 C-21.86452073 76.69857036 -19.94188609 69.44776443 -18.3671875 62.390625 C-18.09167305 61.11514801 -18.09167305 61.11514801 -17.81059265 59.81390381 C-17.21422235 57.06182008 -16.60750414 54.31214551 -16 51.5625 C-15.58666426 49.67068077 -15.17382492 47.77875301 -14.76147461 45.88671875 C-13.93952526 42.1208593 -13.11320922 38.35599604 -12.28369141 34.59179688 C-11.40636775 30.60528715 -10.54298203 26.61608392 -9.69158936 22.6239624 C-9.0290468 19.51895857 -8.35757849 16.41588484 -7.6875 13.3125 C-7.33631104 11.65202637 -7.33631104 11.65202637 -6.97802734 9.95800781 C-6.75969238 8.96124023 -6.54135742 7.96447266 -6.31640625 6.9375 C-6.13279541 6.08414062 -5.94918457 5.23078125 -5.76000977 4.3515625 C-4.67541508 0.86885016 -3.59004197 0.3590042 0 0 Z " fill="#FBFBFB" transform="translate(938.125,460.6875)"/>
<path d="M0 0 C4.84505578 0.10487134 7.57175618 1.05560923 11.25 4.375 C14.6618693 8.46924316 14.5485889 12.26867736 14.25 17.375 C13.84147257 20.02414199 13.38890757 22.58665988 12.82421875 25.19921875 C12.60183281 26.26315605 12.60183281 26.26315605 12.37495422 27.34858704 C12.06201616 28.83423721 11.74500792 30.31903547 11.42407227 31.80297852 C10.9370293 34.06468581 10.46876939 36.32974514 10.00195312 38.59570312 C9.69382835 40.04711322 9.38462074 41.49829396 9.07421875 42.94921875 C8.93658615 43.6201506 8.79895355 44.29108246 8.65715027 44.98234558 C7.78525955 48.93608617 6.64461072 52.09312462 4.25 55.375 C-0.19702139 56.73875323 -4.10188939 55.71105736 -8.125 53.625 C-13.46465322 49.04815439 -13.46465322 49.04815439 -14.16162109 44.96142578 C-14.12147984 36.53919622 -12.68741025 28.66630413 -10.86914062 20.48046875 C-10.36874976 18.22178747 -9.89021239 15.95921537 -9.4140625 13.6953125 C-9.10281825 12.25233274 -8.79036392 10.80961332 -8.4765625 9.3671875 C-8.26237167 8.35638626 -8.26237167 8.35638626 -8.04385376 7.32516479 C-6.80742343 1.83340754 -5.70693336 0.08646869 0 0 Z " fill="#FBFBFB" transform="translate(887.75,493.625)"/>
<path d="M0 0 C7.59 0 15.18 0 23 0 C21.85494881 11.45051195 21.85494881 11.45051195 20.625 16 C20.39039063 16.9075 20.15578125 17.815 19.9140625 18.75 C19 21 19 21 16 23 C13.82348633 23.22705078 13.82348633 23.22705078 11.33203125 23.1953125 C10.43935547 23.18886719 9.54667969 23.18242187 8.62695312 23.17578125 C7.23379883 23.15064453 7.23379883 23.15064453 5.8125 23.125 C4.87212891 23.11597656 3.93175781 23.10695313 2.96289062 23.09765625 C0.64167032 23.07409056 -1.67903644 23.04119116 -4 23 C-3.42619322 15.09611254 -1.88452947 7.70199002 0 0 Z " fill="#F6F6F6" transform="translate(889,461)"/>
<path d="M0 0 C0.66 0.33 1.32 0.66 2 1 C-5.26 8.26 -12.52 15.52 -20 23 C-20 18.6571337 -17.34523917 16.73393822 -14.5 13.75 C-13.68547363 12.88145386 -13.68547363 12.88145386 -12.85449219 11.99536133 C-8.80100348 7.72074055 -4.58373768 3.70743489 0 0 Z " fill="#303030" transform="translate(162,25)"/>
</svg>
