<?xml version="1.0" encoding="UTF-8"?>
<svg version="1.1" xmlns="http://www.w3.org/2000/svg" width="4159" height="4159">
<path d="M0 0 C1.25068347 -0.00233999 1.25068347 -0.00233999 2.52663326 -0.00472724 C5.31863615 -0.00871373 8.1105846 -0.00555669 10.90258789 -0.00241089 C12.90503979 -0.00376597 14.90749145 -0.00554651 16.90994263 -0.00772095 C22.34783158 -0.01228254 27.78570157 -0.01051093 33.22359085 -0.00734186 C38.91208192 -0.00481171 44.60057136 -0.00715763 50.2890625 -0.00872803 C59.84220674 -0.0105478 69.39534326 -0.00814844 78.94848633 -0.00338745 C89.99625359 0.0020548 101.0440024 0.00029201 112.09176922 -0.00521386 C121.57382458 -0.00975045 131.05587439 -0.01039285 140.53793049 -0.00777519 C146.20260737 -0.00621543 151.86727558 -0.00601044 157.5319519 -0.00931168 C162.85723612 -0.01219829 168.18249652 -0.01020009 173.50777817 -0.00441742 C175.46332637 -0.00309408 177.41887657 -0.00347674 179.37442398 -0.00568008 C182.04147256 -0.00840825 184.70844459 -0.00498995 187.37548828 0 C188.15126693 -0.00223072 188.92704557 -0.00446144 189.72633266 -0.00675976 C193.51247966 0.00700125 197.00363007 0.24652684 200.68774414 1.12698364 C202.04132257 1.25218501 203.39814834 1.34652706 204.75610352 1.40823364 C205.52039673 1.44497192 206.28468994 1.48171021 207.07214355 1.51956177 C208.28952209 1.5727356 208.28952209 1.5727356 209.53149414 1.62698364 C210.80156311 1.68789185 210.80156311 1.68789185 212.09729004 1.75003052 C214.79395331 1.87926557 217.49080186 2.00371686 220.18774414 2.12698364 C223.74004676 2.28934563 227.29206606 2.45664521 230.84399414 2.62698364 C231.65557983 2.66243286 232.46716553 2.69788208 233.30334473 2.73440552 C237.21143933 2.92226101 240.85245268 3.32170612 244.68774414 4.12698364 C247.00032225 4.32564807 249.31607006 4.48893204 251.63305664 4.62698364 C252.97029702 4.71030415 254.30753658 4.79363787 255.64477539 4.87698364 C257.73601908 5.00309869 259.82733898 5.12784993 261.91870117 5.25198364 C263.94870531 5.37366031 265.97836946 5.50014589 268.00805664 5.62698364 C269.82200928 5.73526489 269.82200928 5.73526489 271.67260742 5.84573364 C274.68774414 6.12698364 274.68774414 6.12698364 277.68774414 7.12698364 C280.11440492 7.39323568 282.52861284 7.61883633 284.96118164 7.81057739 C286.4416522 7.93490476 287.92212089 8.05925449 289.40258789 8.18362427 C291.71677218 8.37351478 294.03107001 8.56191922 296.34545898 8.7492981 C304.73296286 9.43330819 313.03503675 10.22260642 321.34545898 11.58474731 C325.20570131 12.21101453 329.07316301 12.76555099 332.94555664 13.31057739 C334.4021028 13.51660956 335.85864573 13.72266452 337.31518555 13.92874146 C338.05134094 14.0327124 338.78749634 14.13668335 339.54595947 14.24380493 C360.88958821 17.26325687 360.88958821 17.26325687 371.31274414 18.87698364 C372.07474121 18.99227417 372.83673828 19.1075647 373.62182617 19.22634888 C378.56813693 20.00737643 378.56813693 20.00737643 379.68774414 21.12698364 C381.86919935 21.47921318 384.05850469 21.78325302 386.25024414 22.06448364 C390.79648446 22.68317562 395.14714995 23.40888869 399.56274414 24.62698364 C403.47318743 25.54708795 407.46444834 26.01926133 411.44165039 26.56448364 C414.95801653 27.17381785 418.2571772 28.14228387 421.68774414 29.12698364 C425.40682479 29.98681574 429.14103896 30.77329987 432.87524414 31.56448364 C453.0706296 35.90218565 453.0706296 35.90218565 459.38574219 38.04055786 C462.87537154 39.18871687 466.38362374 40.198415 469.92211914 41.18557739 C470.93921967 41.47030663 470.93921967 41.47030663 471.97686768 41.76078796 C474.13010494 42.36341917 476.28387425 42.9641178 478.43774414 43.56448364 C504.05089805 50.71119246 504.05089805 50.71119246 509.68774414 53.12698364 C512.98768469 54.48820912 516.25711031 55.64067642 519.68774414 56.62698364 C523.82812339 57.82366203 527.7435137 59.31584482 531.72290039 60.96292114 C534.77129596 62.15978791 537.84514398 63.23206537 540.94238281 64.29397583 C547.28895748 66.47183705 553.30577705 68.75653845 559.24243164 71.91604614 C562.12006361 73.34107156 565.05257884 74.44723553 568.06274414 75.56448364 C573.38971333 77.56364924 578.39942205 79.88463213 583.44946289 82.49807739 C586.33754402 83.95082749 589.25959889 85.27644781 592.21386719 86.58718872 C604.57807053 92.14151913 616.05782019 99.26826286 627.63305664 106.27883911 C630.4349862 107.97406024 633.24559479 109.65376049 636.05883789 111.33010864 C640.03738129 113.71747559 643.95350702 116.17642534 647.81274414 118.75198364 C648.43238037 119.16440308 649.0520166 119.57682251 649.69042969 120.0017395 C655.4710274 123.89615093 661.04425879 128.05276678 666.5847168 132.27981567 C669.98772905 134.93294994 669.98772905 134.93294994 673.68774414 137.12698364 C673.68774414 137.78698364 673.68774414 138.44698364 673.68774414 139.12698364 C674.2355957 139.36674927 674.78344727 139.60651489 675.34790039 139.85354614 C678.24782354 141.43180148 680.59146422 143.38640041 683.12524414 145.50198364 C687.280786 148.95849375 687.280786 148.95849375 691.53540039 152.29104614 C692.24567383 152.89690552 692.95594727 153.50276489 693.68774414 154.12698364 C693.68774414 154.78698364 693.68774414 155.44698364 693.68774414 156.12698364 C694.53792114 156.48929077 694.53792114 156.48929077 695.40527344 156.85891724 C698.14103031 158.37881468 699.99990754 160.19693575 702.20727539 162.41604614 C703.49408203 163.70575317 703.49408203 163.70575317 704.80688477 165.02151489 C705.69569336 165.92256958 706.58450195 166.82362427 707.50024414 167.75198364 C708.37745117 168.62983521 709.2546582 169.50768677 710.15844727 170.41213989 C716.85113433 177.14987871 723.15151489 184.11924613 729.12524414 191.50198364 C729.80458008 192.33471802 730.48391602 193.16745239 731.18383789 194.02542114 C732.68774414 196.12698364 732.68774414 196.12698364 732.68774414 198.12698364 C733.34774414 198.12698364 734.00774414 198.12698364 734.68774414 198.12698364 C735.98120117 199.68069458 735.98120117 199.68069458 737.44555664 201.86135864 C737.9850293 202.6574353 738.52450195 203.45351196 739.08032227 204.27371216 C739.65202148 205.13279175 740.2237207 205.99187134 740.81274414 206.87698364 C741.39733398 207.7457312 741.98192383 208.61447876 742.58422852 209.509552 C743.75463676 211.25045343 744.92232093 212.99318961 746.0871582 214.73782349 C747.42731619 216.73824846 748.78107934 218.72732778 750.14868164 220.70901489 C753.60411855 225.75977803 756.71378249 230.77967234 759.34399414 236.30667114 C760.39776752 238.51836992 761.48083611 240.70304988 762.59399414 242.88479614 C766.64757311 250.83906096 770.43644509 258.80407895 773.68774414 267.12698364 C774.15825195 268.30131958 774.62875977 269.47565552 775.11352539 270.68557739 C785.13254026 296.12774372 790.88508898 322.83081032 790.80634785 350.21561241 C790.8070117 351.38895097 790.80767556 352.56228952 790.80835953 353.77118379 C790.8091689 357.01089553 790.80549918 360.25056537 790.79987657 363.49027115 C790.79485544 367.02182518 790.79567598 370.55337885 790.79571837 374.08493578 C790.79487648 381.08224159 790.78860106 388.07953289 790.78062989 395.07683379 C790.7713243 403.462403 790.76784497 411.84797218 790.76441071 420.23354549 C790.75579135 440.50508716 790.73670821 460.77661496 790.71598552 481.04814728 C790.70621014 490.65012641 790.69748968 500.25210642 790.68881338 509.85408659 C790.65898387 542.76021932 790.6262988 575.66634805 790.58597279 608.57246971 C790.58345004 610.63744757 790.58092835 612.70242542 790.57840769 614.76740328 C790.57653236 616.30339075 790.57653236 616.30339075 790.57461915 617.87040826 C790.56828868 623.05798416 790.56197154 628.24556007 790.55566406 633.43313599 C790.55440937 634.46260698 790.55315468 635.49207798 790.55186196 636.55274506 C790.51134815 669.88086298 790.48622617 703.20896804 790.47018475 736.53710611 C790.45314046 771.81949784 790.42154786 807.10184818 790.37380141 842.38421214 C790.36860298 846.26632024 790.3634655 850.14842841 790.35837364 854.03053665 C790.3564837 855.46423707 790.3564837 855.46423707 790.35455558 856.92690113 C790.33471476 872.23799353 790.32796327 887.54906423 790.32607614 902.86016817 C790.32384755 918.28811702 790.30675672 933.71599605 790.27509306 949.14391296 C790.25835868 957.48460223 790.2477654 965.82518016 790.2553997 974.16588593 C790.28843528 1014.88447742 790.20809521 1055.26170596 780.68774414 1095.12698364 C780.50373047 1095.92539673 780.3197168 1096.72380981 780.13012695 1097.54641724 C773.55020909 1126.06845788 773.55020909 1126.06845788 768.80883789 1137.32229614 C767.64784939 1140.22679003 766.63248541 1143.15753542 765.62548828 1146.11795044 C761.14014065 1159.24996235 755.21516464 1171.3883118 748.62011719 1183.58206177 C747.095982 1186.40614541 745.70485788 1189.07564244 744.68774414 1192.12698364 C744.02774414 1192.12698364 743.36774414 1192.12698364 742.68774414 1192.12698364 C742.56713623 1192.70714233 742.44652832 1193.28730103 742.32226562 1193.88504028 C741.20856739 1197.82005023 738.88411247 1201.10428311 736.75024414 1204.56448364 C736.25661377 1205.36781128 735.7629834 1206.17113892 735.25439453 1206.99880981 C730.82481864 1214.09873257 725.90709006 1220.59259126 720.68774414 1227.12698364 C719.75792071 1228.35309539 718.83224544 1229.58236217 717.91040039 1230.81448364 C717.45479736 1231.42058472 716.99919434 1232.02668579 716.52978516 1232.65115356 C715.6525152 1233.82015528 714.77912991 1234.992085 713.91015625 1236.16726685 C712.88282266 1237.52391992 711.79067408 1238.83104096 710.68774414 1240.12698364 C710.02774414 1240.12698364 709.36774414 1240.12698364 708.68774414 1240.12698364 C708.42364746 1240.71181519 708.15955078 1241.29664673 707.88745117 1241.89920044 C706.63992749 1244.21577627 705.28857216 1245.85568271 703.49243164 1247.77151489 C702.85821289 1248.44891724 702.22399414 1249.12631958 701.57055664 1249.82424927 C700.90797852 1250.52227661 700.24540039 1251.22030396 699.56274414 1251.93948364 C698.92336914 1252.62590942 698.28399414 1253.31233521 697.62524414 1254.01956177 C693.73922204 1258.14358321 689.70978188 1261.97461021 685.39282227 1265.64553833 C683.52229151 1267.22936518 683.52229151 1267.22936518 681.31274414 1269.56448364 C679.68774414 1271.12698364 679.68774414 1271.12698364 677.68774414 1271.12698364 C677.68774414 1271.78698364 677.68774414 1272.44698364 677.68774414 1273.12698364 C676.4128418 1274.34109497 676.4128418 1274.34109497 674.60180664 1275.70901489 C673.92730469 1276.2224646 673.25280273 1276.73591431 672.55786133 1277.2649231 C671.81697266 1277.81752808 671.07608398 1278.37013306 670.31274414 1278.93948364 C669.17047363 1279.80029541 669.17047363 1279.80029541 668.00512695 1280.67849731 C665.57291638 1282.5041474 663.13189804 1284.31736038 660.68774414 1286.12698364 C659.90818359 1286.70577271 659.12862305 1287.28456177 658.32543945 1287.88088989 C633.6617073 1306.13184382 633.6617073 1306.13184382 623.68774414 1309.12698364 C623.68774414 1309.78698364 623.68774414 1310.44698364 623.68774414 1311.12698364 C620.90856916 1312.51657113 618.12902557 1313.90536272 615.34790039 1315.29104614 C612.88877043 1316.51961499 610.43985777 1317.76611302 607.99633789 1319.02542114 C584.75990512 1330.93476133 558.40927252 1343.06701085 532.68774414 1348.12698364 C531.77637695 1348.43249146 530.86500977 1348.73799927 529.92602539 1349.05276489 C526.34404385 1350.24099761 522.72624697 1351.17197268 519.06274414 1352.06448364 C517.63432545 1352.41591091 516.20594027 1352.76747443 514.77758789 1353.11917114 C514.08004395 1353.29029419 513.3825 1353.46141724 512.66381836 1353.63772583 C509.97931738 1354.3023836 507.30322723 1354.99909452 504.62524414 1355.68948364 C498.35248125 1357.25344744 492.03453733 1358.54189939 485.68383789 1359.74758911 C484.34987472 1360.00113348 483.01653638 1360.25798691 481.68383789 1360.51809692 C472.22133266 1362.35726882 462.80405446 1363.64015421 453.19873047 1364.48074341 C451.99059692 1364.58793701 451.99059692 1364.58793701 450.75805664 1364.69729614 C450.04407715 1364.75675415 449.33009766 1364.81621216 448.59448242 1364.87747192 C446.46920533 1365.09401808 446.46920533 1365.09401808 443.68774414 1366.12698364 C429.46563311 1367.7274618 415.02467802 1367.27114188 400.73936579 1367.2593836 C397.06351888 1367.2574902 393.38767732 1367.26147044 389.71183199 1367.26469678 C383.28125696 1367.26956737 376.85068927 1367.27084738 370.42011261 1367.26973152 C360.85559311 1367.26811492 351.29108225 1367.27229879 341.72656451 1367.277812 C326.60825914 1367.28644928 311.48995491 1367.29182045 296.37164748 1367.29501351 C272.33340532 1367.30017133 248.29517787 1367.31566242 224.256943 1367.33458999 C219.13082099 1367.33861101 214.0046989 1367.34253217 208.87857682 1367.34645635 C207.34584391 1367.34763033 207.34584391 1367.34763033 205.7821467 1367.34882804 C203.71151827 1367.35041361 201.64088985 1367.35199843 199.57026142 1367.35358252 C197.49193776 1367.35517382 195.4136141 1367.35676807 193.33529045 1367.35836525 C168.83892517 1367.37718519 144.3425589 1367.39427352 119.84619141 1367.40994263 C118.77485867 1367.41063155 117.70352594 1367.41132047 116.59972857 1367.41203026 C81.9338471 1367.4342452 47.26796993 1367.44611873 12.60208249 1367.45360918 C-23.10690395 1367.46140122 -58.8158612 1367.48256718 -94.52483017 1367.51915179 C-99.58539143 1367.52432409 -104.64595283 1367.52933167 -109.70651436 1367.53423119 C-111.20014418 1367.53568162 -111.20014418 1367.53568162 -112.72394834 1367.53716136 C-128.64330116 1367.55220723 -144.56262434 1367.55321848 -160.48198231 1367.54857406 C-176.53795675 1367.54415462 -192.59387141 1367.55429853 -208.64982837 1367.57866112 C-217.32216146 1367.59141915 -225.99438382 1367.59807517 -234.66672134 1367.58624458 C-295.81305693 1366.75706394 -295.81305693 1366.75706394 -356.31225586 1374.12698364 C-358.13541877 1374.44303188 -359.95956976 1374.75346366 -361.78491211 1375.05667114 C-371.02064137 1376.61379631 -380.22891162 1378.22512393 -389.37475586 1380.25198364 C-390.09348877 1380.4103772 -390.81222168 1380.56877075 -391.55273438 1380.73196411 C-395.56744738 1381.64564089 -399.4151046 1382.80963674 -403.31225586 1384.12698364 C-405.44730401 1384.72981461 -407.58918848 1385.30355669 -409.73217773 1385.87747192 C-416.36180315 1387.65435602 -422.77862479 1389.52131459 -429.09741211 1392.23245239 C-431.45216857 1393.1834916 -433.80449835 1393.88164262 -436.24975586 1394.56448364 C-441.88007862 1396.19569865 -447.02642675 1398.61942051 -452.31225586 1401.12698364 C-454.37457332 1402.06488512 -456.43708148 1403.00236738 -458.49975586 1403.93948364 C-470.74430243 1409.62187628 -482.59455642 1415.70378097 -494.19360352 1422.62185669 C-494.96236816 1423.07729858 -495.73113281 1423.53274048 -496.52319336 1424.00198364 C-497.20687988 1424.41190552 -497.89056641 1424.82182739 -498.5949707 1425.24417114 C-500.31225586 1426.12698364 -500.31225586 1426.12698364 -502.31225586 1426.12698364 C-502.31225586 1426.78698364 -502.31225586 1427.44698364 -502.31225586 1428.12698364 C-504.45189658 1429.62954032 -506.58498047 1431.01583955 -508.81225586 1432.37698364 C-513.68679361 1435.41772571 -518.37107417 1438.5306879 -522.85913086 1442.13088989 C-524.31225586 1443.12698364 -524.31225586 1443.12698364 -526.31225586 1443.12698364 C-526.31225586 1443.78698364 -526.31225586 1444.44698364 -526.31225586 1445.12698364 C-527.71903609 1446.37512696 -529.1910529 1447.55006754 -530.68725586 1448.68948364 C-535.37274533 1452.33005572 -539.7525023 1456.19327266 -544.08569336 1460.24417114 C-546.10920786 1461.9552834 -547.89438789 1463.07813681 -550.31225586 1464.12698364 C-550.31225586 1464.78698364 -550.31225586 1465.44698364 -550.31225586 1466.12698364 C-551.78929798 1467.37925849 -553.27052985 1468.62864886 -554.80444336 1469.81057739 C-556.5798853 1471.24462455 -556.5798853 1471.24462455 -558.31225586 1474.12698364 C-558.97225586 1474.12698364 -559.63225586 1474.12698364 -560.31225586 1474.12698364 C-560.53139648 1474.66838989 -560.75053711 1475.20979614 -560.97631836 1475.76760864 C-562.75809973 1478.91438042 -565.18803461 1481.30100936 -567.68725586 1483.87698364 C-574.02502679 1490.57107964 -579.48677789 1497.76689265 -584.90600586 1505.21096802 C-586.26160995 1507.05797858 -587.63983259 1508.88478689 -589.03100586 1510.70510864 C-589.44970947 1511.2541687 -589.86841309 1511.80322876 -590.29980469 1512.368927 C-591.42155791 1513.83713422 -592.5445934 1515.30436151 -593.66772461 1516.77151489 C-595.46256032 1519.1049045 -595.46256032 1519.1049045 -596.31225586 1522.12698364 C-596.97225586 1522.12698364 -597.63225586 1522.12698364 -598.31225586 1522.12698364 C-598.58038086 1522.82823364 -598.84850586 1523.52948364 -599.12475586 1524.25198364 C-600.38040076 1527.29196604 -601.81460709 1530.19976105 -603.31225586 1533.12698364 C-603.97225586 1533.12698364 -604.63225586 1533.12698364 -605.31225586 1533.12698364 C-605.69510742 1534.41669067 -605.69510742 1534.41669067 -606.08569336 1535.73245239 C-607.36848345 1539.28259438 -608.99374649 1542.20675392 -610.93725586 1545.43948364 C-614.17382324 1550.93450594 -617.04939249 1556.53743623 -619.74975586 1562.31448364 C-620.2623999 1563.41046875 -620.2623999 1563.41046875 -620.78540039 1564.52859497 C-622.09726681 1567.36808214 -623.32235722 1570.15728773 -624.31225586 1573.12698364 C-624.97225586 1573.12698364 -625.63225586 1573.12698364 -626.31225586 1573.12698364 C-626.37413086 1573.89010864 -626.43600586 1574.65323364 -626.49975586 1575.43948364 C-627.42903511 1579.65698178 -629.07727808 1583.09955961 -630.91381836 1586.99026489 C-632.90687385 1591.46072177 -634.4979246 1596.04808918 -636.10131836 1600.66995239 C-636.96193357 1603.12687001 -637.8466095 1605.56105616 -638.76928711 1607.99417114 C-640.40034794 1612.31959901 -641.90399013 1616.68227885 -643.37475586 1621.06448364 C-643.75857422 1622.18500122 -643.75857422 1622.18500122 -644.15014648 1623.32815552 C-645.67535153 1627.87240398 -646.85953822 1632.3850532 -647.8449707 1637.07473755 C-648.47185253 1639.82790822 -649.4070322 1642.45391143 -650.31225586 1645.12698364 C-650.98542778 1647.81149517 -651.63325782 1650.49226642 -652.24975586 1653.18948364 C-652.421604 1653.93319214 -652.59345215 1654.67690063 -652.77050781 1655.44314575 C-653.11938118 1656.95341937 -653.46729223 1658.46391563 -653.81420898 1659.97463989 C-654.2675766 1661.93389915 -654.73449343 1663.89001069 -655.20288086 1665.84573364 C-656.31527027 1670.51340684 -657.38839042 1675.10607632 -657.93725586 1679.87698364 C-658.31225586 1683.12698364 -658.31225586 1683.12698364 -659.31225586 1684.12698364 C-659.59838672 1685.86736334 -659.82729853 1687.61723059 -660.03100586 1689.36917114 C-660.15862305 1690.43522583 -660.28624023 1691.50128052 -660.41772461 1692.59963989 C-660.54791992 1693.72241333 -660.67811523 1694.84518677 -660.81225586 1696.00198364 C-661.06984223 1698.20804512 -661.33013736 1700.41379248 -661.59350586 1702.61917114 C-661.70758789 1703.6025647 -661.82166992 1704.58595825 -661.93920898 1705.59915161 C-662.31225586 1708.12698364 -662.31225586 1708.12698364 -663.31225586 1711.12698364 C-663.51737663 1713.05818149 -663.67800037 1714.9942566 -663.81225586 1716.93167114 C-663.89475586 1718.07249146 -663.97725586 1719.21331177 -664.06225586 1720.38870239 C-664.14475586 1721.58108521 -664.22725586 1722.77346802 -664.31225586 1724.00198364 C-664.47603495 1726.35374902 -664.64259824 1728.70532254 -664.81225586 1731.05667114 C-664.88444336 1732.10065063 -664.95663086 1733.14463013 -665.03100586 1734.22024536 C-665.31225586 1737.12698364 -665.31225586 1737.12698364 -665.82116741 1739.41588324 C-666.37367226 1742.4660387 -666.44343499 1745.31102657 -666.45092106 1748.41132832 C-666.45913272 1750.32297007 -666.45913272 1750.32297007 -666.46751028 1752.27323085 C-666.46858642 1753.68520051 -666.46957113 1755.09717024 -666.47047424 1756.50914001 C-666.475041 1758.01075916 -666.48004119 1759.51237705 -666.48543781 1761.01399344 C-666.49901541 1765.14146522 -666.50643619 1769.26892876 -666.51286447 1773.39641702 C-666.52087006 1777.84695995 -666.5345673 1782.29748575 -666.5475769 1786.74801636 C-666.56933738 1794.45925676 -666.58748345 1802.17049889 -666.60318184 1809.88175392 C-666.62588435 1821.03096524 -666.65402667 1832.18015759 -666.68350112 1843.32935282 C-666.73117233 1861.41773115 -666.7744378 1879.50611724 -666.81494141 1897.59451294 C-666.85429872 1915.1667847 -666.89572552 1932.73904958 -666.93994141 1950.31130981 C-666.94402781 1951.93575848 -666.94402781 1951.93575848 -666.94819678 1953.59302429 C-666.96187629 1959.02588907 -666.97559656 1964.45875375 -666.98933709 1969.89161837 C-667.10329447 2014.97005909 -667.21010547 2060.04851472 -667.31225586 2105.12698364 C-700.71421993 2105.19582069 -734.11616619 2105.24859884 -767.51818557 2105.28017963 C-771.47175924 2105.28393124 -775.42533278 2105.28781426 -779.37890625 2105.29177856 C-780.16591065 2105.2925655 -780.95291504 2105.29335243 -781.76376805 2105.2941632 C-794.46602731 2105.30717682 -807.16824536 2105.33080808 -819.87048026 2105.35844203 C-832.92787238 2105.38660932 -845.9852431 2105.40318369 -859.04266435 2105.40924913 C-867.08392767 2105.41334223 -875.12507448 2105.42621562 -883.16630188 2105.45073304 C-889.35776006 2105.46863591 -895.54913151 2105.47032099 -901.74061203 2105.46630669 C-904.26190083 2105.4671249 -906.78319448 2105.47299601 -909.30445671 2105.48460007 C-927.43169143 2105.56386367 -944.63607052 2104.20743249 -962.31225586 2100.12698364 C-963.77840332 2099.80310669 -963.77840332 2099.80310669 -965.27416992 2099.47268677 C-968.03785185 2098.86182323 -970.80006381 2098.24454691 -973.56225586 2097.62698364 C-974.52905273 2097.41428833 -975.49584961 2097.20159302 -976.49194336 2096.98245239 C-977.42780273 2096.77233521 -978.36366211 2096.56221802 -979.32788086 2096.34573364 C-980.16609375 2096.15946411 -981.00430664 2095.97319458 -981.86791992 2095.78128052 C-984.45314267 2095.08927123 -986.84148295 2094.14988568 -989.31225586 2093.12698364 C-991.14117525 2092.57059551 -992.97506612 2092.03042263 -994.81225586 2091.50198364 C-1009.56615302 2086.99059946 -1023.74370245 2081.29136332 -1037.3972168 2074.11819458 C-1039.33704566 2073.11415262 -1041.29227101 2072.15043149 -1043.25756836 2071.19729614 C-1056.90501512 2064.56653152 -1070.08596675 2057.14113903 -1082.31225586 2048.12698364 C-1083.76891929 2047.0743911 -1085.22599224 2046.02236518 -1086.68334961 2044.97073364 C-1099.75232419 2035.49405426 -1111.95940692 2025.44958889 -1123.75366211 2014.43948364 C-1126.20276279 2012.14081014 -1126.20276279 2012.14081014 -1128.65209961 2010.43948364 C-1129.47387695 2009.78979614 -1129.47387695 2009.78979614 -1130.31225586 2009.12698364 C-1130.31225586 2008.46698364 -1130.31225586 2007.80698364 -1130.31225586 2007.12698364 C-1131.30225586 2006.79698364 -1132.29225586 2006.46698364 -1133.31225586 2006.12698364 C-1133.31225586 2005.46698364 -1133.31225586 2004.80698364 -1133.31225586 2004.12698364 C-1133.85237305 2003.92331177 -1134.39249023 2003.71963989 -1134.94897461 2003.50979614 C-1138.26589938 2001.56898397 -1140.58972902 1998.8376681 -1143.12475586 1996.00198364 C-1143.92586792 1995.118573 -1143.92586792 1995.118573 -1144.74316406 1994.21731567 C-1146.27277598 1992.5263131 -1147.79379498 1990.8279975 -1149.31225586 1989.12698364 C-1149.97999023 1988.38448364 -1150.64772461 1987.64198364 -1151.33569336 1986.87698364 C-1184.31225586 1949.7202935 -1184.31225586 1949.7202935 -1184.31225586 1942.12698364 C-1184.97225586 1942.12698364 -1185.63225586 1942.12698364 -1186.31225586 1942.12698364 C-1187.61694336 1940.42385864 -1187.61694336 1940.42385864 -1189.18725586 1937.87698364 C-1189.80600586 1936.87667114 -1190.42475586 1935.87635864 -1191.06225586 1934.84573364 C-1191.81372848 1933.6070425 -1192.56357865 1932.36736635 -1193.31225586 1931.12698364 C-1193.75956055 1930.38706177 -1194.20686523 1929.64713989 -1194.66772461 1928.88479614 C-1197.23232169 1924.63567819 -1199.78345361 1920.3788184 -1202.32397461 1916.11526489 C-1204.11304505 1913.11642582 -1205.9201417 1910.1321014 -1207.76928711 1907.16995239 C-1213.34334882 1898.19505303 -1217.87419418 1888.89666962 -1222.28979492 1879.3052063 C-1224.18363874 1875.27061351 -1226.24721404 1871.32424499 -1228.31616211 1867.37698364 C-1229.31225586 1865.12698364 -1229.31225586 1865.12698364 -1229.31225586 1862.12698364 C-1229.97225586 1862.12698364 -1230.63225586 1862.12698364 -1231.31225586 1862.12698364 C-1232.65402366 1858.85954709 -1233.98419945 1855.58751457 -1235.31225586 1852.31448364 C-1235.88459961 1850.92132935 -1235.88459961 1850.92132935 -1236.46850586 1849.50003052 C-1236.82944336 1848.60735474 -1237.19038086 1847.71467896 -1237.56225586 1846.79495239 C-1237.89741211 1845.97277222 -1238.23256836 1845.15059204 -1238.57788086 1844.30349731 C-1239.31225586 1842.12698364 -1239.31225586 1842.12698364 -1239.31225586 1839.12698364 C-1239.97225586 1839.12698364 -1240.63225586 1839.12698364 -1241.31225586 1839.12698364 C-1241.68737305 1838.03901489 -1242.06249023 1836.95104614 -1242.44897461 1835.83010864 C-1245.91353565 1825.85267619 -1245.91353565 1825.85267619 -1249.87475586 1816.06448364 C-1252.16121984 1810.73430233 -1253.89452964 1805.31407393 -1255.57592773 1799.77175903 C-1256.57785876 1796.46976017 -1257.60131669 1793.20967366 -1258.87475586 1790.00198364 C-1260.74463129 1785.25292503 -1261.99771662 1780.31287558 -1263.34741211 1775.39651489 C-1264.22024411 1772.24315235 -1264.22024411 1772.24315235 -1265.27563477 1769.74661255 C-1267.08535289 1765.17330226 -1268.30203809 1760.42232758 -1269.62475586 1755.68948364 C-1270.08942261 1754.0307019 -1270.08942261 1754.0307019 -1270.56347656 1752.33840942 C-1272.81421482 1744.18872308 -1274.79255937 1736.00484859 -1276.60400391 1727.74758911 C-1277.74541271 1722.55453499 -1279.00721079 1717.43566391 -1280.43725586 1712.31448364 C-1282.09349641 1706.29057646 -1283.27691594 1700.27084436 -1284.27368164 1694.11013794 C-1284.93706396 1690.03938282 -1285.79375698 1686.08247558 -1286.82592773 1682.08963013 C-1287.60145219 1678.95989061 -1288.16993045 1675.79800621 -1288.74975586 1672.62698364 C-1289.00729054 1671.2193807 -1289.26511111 1669.81183004 -1289.52319336 1668.40432739 C-1289.65306641 1667.69389282 -1289.78293945 1666.98345825 -1289.91674805 1666.25149536 C-1290.29714452 1664.20815578 -1290.69554433 1662.16932542 -1291.10131836 1660.13088989 C-1292.64803908 1652.28964616 -1293.84594609 1644.48648937 -1294.66601562 1636.53347778 C-1295.02153792 1632.7070639 -1295.02153792 1632.7070639 -1296.31225586 1629.12698364 C-1296.66270899 1626.35575345 -1296.97156152 1623.59303438 -1297.24975586 1620.81448364 C-1297.80885128 1615.47365111 -1298.41879934 1610.17440696 -1299.31225586 1604.87698364 C-1300.41054374 1598.08990773 -1300.97224023 1591.27440954 -1301.56005859 1584.42849731 C-1302.04684407 1578.82878902 -1302.62986475 1573.26051801 -1303.37475586 1567.68948364 C-1304.22455236 1561.23634144 -1304.72134884 1554.82917093 -1305.06616211 1548.33401489 C-1305.22533834 1545.27723526 -1305.22533834 1545.27723526 -1305.79638672 1542.93386841 C-1306.4632817 1539.30524011 -1306.63601499 1535.68727208 -1306.81225586 1532.00979614 C-1306.85286133 1531.23441498 -1306.8934668 1530.45903381 -1306.93530273 1529.66015625 C-1307.06442722 1527.19092978 -1307.18885224 1524.72150219 -1307.31225586 1522.25198364 C-1307.43583274 1519.78961766 -1307.56056355 1517.32734106 -1307.68920898 1514.86523438 C-1307.76903429 1513.33716967 -1307.84602818 1511.80895342 -1307.91967773 1510.28057861 C-1307.95641602 1509.57649872 -1307.9931543 1508.87241882 -1308.03100586 1508.14700317 C-1308.06129883 1507.53809235 -1308.0915918 1506.92918152 -1308.12280273 1506.30181885 C-1308.27852487 1504.51420003 -1308.53389513 1502.73554117 -1308.8161602 1500.96349239 C-1309.31382802 1497.11482549 -1309.43811304 1493.44726343 -1309.4392395 1489.56800842 C-1309.44157949 1488.47507857 -1309.44157949 1488.47507857 -1309.44396675 1487.36006933 C-1309.44793275 1484.93591755 -1309.44480426 1482.51182918 -1309.44165039 1480.087677 C-1309.44300637 1478.34270695 -1309.44478741 1476.59773717 -1309.44696045 1474.85276794 C-1309.45151101 1470.12565047 -1309.44975508 1465.39855487 -1309.44658136 1460.67143703 C-1309.44404589 1455.72014098 -1309.44639858 1450.76884678 -1309.44796753 1445.81755066 C-1309.44978558 1437.50459457 -1309.44739228 1429.19164737 -1309.44262695 1420.87869263 C-1309.43718325 1411.271445 -1309.43894925 1401.6642186 -1309.44445336 1392.05697149 C-1309.44899271 1383.80287524 -1309.44963105 1375.54878538 -1309.44701469 1367.29468828 C-1309.44545668 1362.36721579 -1309.44524516 1357.43975327 -1309.44855118 1352.51228142 C-1309.45144188 1347.88052185 -1309.44943211 1343.24878962 -1309.44365692 1338.617033 C-1309.44233584 1336.91829982 -1309.44271237 1335.21956433 -1309.44491959 1333.52083206 C-1309.44765666 1331.20018216 -1309.44421871 1328.87961958 -1309.4392395 1326.55897522 C-1309.43886248 1325.2609645 -1309.43848545 1323.96295378 -1309.438097 1322.6256094 C-1309.32061156 1319.35928816 -1308.90045611 1316.33625433 -1308.31225586 1313.12698364 C-1308.11320325 1310.35096004 -1307.94467403 1307.58560945 -1307.81225586 1304.80667114 C-1307.72892896 1303.20380622 -1307.64559543 1301.60094165 -1307.56225586 1299.99807739 C-1307.43619407 1297.49210695 -1307.3114673 1294.98607379 -1307.18725586 1292.48001099 C-1307.06548908 1290.04705366 -1306.93903336 1287.6143717 -1306.81225586 1285.18167114 C-1306.77680664 1284.43368256 -1306.74135742 1283.68569397 -1306.70483398 1282.91503906 C-1306.527031 1279.52201416 -1306.19456199 1276.40220438 -1305.31225586 1273.12698364 C-1305.12382367 1271.25635646 -1304.972698 1269.38180465 -1304.84741211 1267.50588989 C-1304.77071289 1266.41220093 -1304.69401367 1265.31851196 -1304.61499023 1264.19168091 C-1304.53571289 1263.03595581 -1304.45643555 1261.88023071 -1304.37475586 1260.68948364 C-1303.80577638 1252.83446531 -1303.16627392 1245.08674345 -1301.81225586 1237.32229614 C-1301.14906187 1233.08407203 -1300.73577458 1228.8323766 -1300.31225586 1224.56448364 C-1299.67854279 1218.22298253 -1298.87194293 1211.96983253 -1297.74584961 1205.69338989 C-1297.33731269 1203.27529297 -1297.05081209 1200.87945349 -1296.81225586 1198.43948364 C-1296.52614835 1195.62347802 -1296.07304867 1193.08045217 -1295.43725586 1190.29885864 C-1293.76535408 1182.95109175 -1292.68312196 1175.49059868 -1291.48950195 1168.05349731 C-1290.35216228 1160.98870227 -1289.15213995 1154.0429765 -1287.31225586 1147.12698364 C-1287.14725586 1145.95135864 -1286.98225586 1144.77573364 -1286.81225586 1143.56448364 C-1286.39165177 1140.67283056 -1285.7140628 1138.07976208 -1284.89624023 1135.28787231 C-1283.40038646 1129.75283815 -1282.34313945 1124.09824622 -1281.16772461 1118.48831177 C-1280.12261119 1113.58012574 -1278.96528055 1108.87230452 -1277.31225586 1104.12698364 C-1276.77000374 1101.62283322 -1276.32110977 1099.11452407 -1275.87475586 1096.59182739 C-1275.2714599 1093.94821803 -1274.32739129 1091.64117212 -1273.31225586 1089.12698364 C-1272.47461437 1086.42330914 -1271.66136735 1083.72027397 -1270.87475586 1081.00198364 C-1270.65376221 1080.24715698 -1270.43276855 1079.49233032 -1270.20507812 1078.71463013 C-1268.99286798 1074.55384872 -1267.84180629 1070.38367735 -1266.74975586 1066.18948364 C-1265.59050051 1061.84718817 -1264.01376046 1057.80368594 -1262.28100586 1053.66213989 C-1261.2601852 1050.9907181 -1260.52104358 1048.33414869 -1259.81225586 1045.56448364 C-1258.72858898 1041.39787143 -1257.30660794 1037.71423463 -1255.47631836 1033.83010864 C-1253.91376956 1030.20163962 -1252.65752162 1026.48688052 -1251.37475586 1022.75198364 C-1249.36345592 1016.92943436 -1247.16641906 1011.31127119 -1244.53100586 1005.73635864 C-1240.77453979 997.69366848 -1237.57972886 989.37780932 -1234.31225586 981.12698364 C-1233.65225586 981.12698364 -1232.99225586 981.12698364 -1232.31225586 981.12698364 C-1232.1749707 979.87014771 -1232.1749707 979.87014771 -1232.03491211 978.58792114 C-1231.20421373 974.60954944 -1229.62761243 971.31433334 -1227.74975586 967.75198364 C-1227.42040039 967.11131958 -1227.09104492 966.47065552 -1226.75170898 965.81057739 C-1225.94586104 964.24559732 -1225.13007093 962.68574343 -1224.31225586 961.12698364 C-1223.65225586 961.12698364 -1222.99225586 961.12698364 -1222.31225586 961.12698364 C-1222.19382324 960.39431274 -1222.07539062 959.66164185 -1221.95336914 958.9067688 C-1221.31282306 956.12944293 -1220.43051447 954.13339069 -1219.05444336 951.65042114 C-1218.59714844 950.82018433 -1218.13985352 949.98994751 -1217.66870117 949.134552 C-1217.17982422 948.26580444 -1216.69094727 947.39705688 -1216.18725586 946.50198364 C-1215.68806641 945.60552124 -1215.18887695 944.70905884 -1214.67456055 943.78543091 C-1211.10267619 937.41687886 -1207.33773827 931.21933966 -1203.31225586 925.12698364 C-1202.20580822 923.37842491 -1201.10172281 921.62836963 -1199.99975586 919.87698364 C-1198.77328635 917.95858996 -1197.54390871 916.04205363 -1196.31225586 914.12698364 C-1195.96356445 913.58090454 -1195.61487305 913.03482544 -1195.25561523 912.47219849 C-1189.2094418 903.04027381 -1182.59817853 894.1749127 -1175.65600586 885.38479614 C-1172.08953357 880.86820596 -1168.66645749 876.25859103 -1165.27709961 871.60745239 C-1163.12941276 868.89615786 -1160.75888165 866.57205602 -1158.31225586 864.12698364 C-1156.62626649 862.2952977 -1154.94965292 860.45495084 -1153.28100586 858.60745239 C-1147.80806958 852.59587124 -1142.15402761 846.78257017 -1136.40551758 841.03494263 C-1134.80771693 839.43493846 -1133.21814035 837.8270475 -1131.62866211 836.21878052 C-1125.16864355 829.72393807 -1118.4980974 823.82003912 -1111.31225586 818.12698364 C-1109.53823273 816.65164414 -1107.76703024 815.17290064 -1105.99975586 813.68948364 C-1101.68723276 810.16218874 -1097.2670447 806.82223857 -1092.74975586 803.56448364 C-1092.14156006 803.12241577 -1091.53336426 802.6803479 -1090.90673828 802.22488403 C-1086.55488179 799.12698364 -1086.55488179 799.12698364 -1084.31225586 799.12698364 C-1084.31225586 798.46698364 -1084.31225586 797.80698364 -1084.31225586 797.12698364 C-1082.42498346 795.7334017 -1080.5523136 794.48538505 -1078.56225586 793.25198364 C-1077.94463379 792.86341187 -1077.32701172 792.47484009 -1076.69067383 792.07449341 C-1074.57072196 790.74842124 -1072.44224961 789.43686049 -1070.31225586 788.12698364 C-1069.14001465 787.40116089 -1069.14001465 787.40116089 -1067.9440918 786.66067505 C-1056.99376485 779.8990335 -1045.9553022 773.61408226 -1034.31225586 768.12698364 C-1033.2178418 767.60749146 -1032.12342773 767.08799927 -1030.99584961 766.55276489 C-1027.7799937 765.04940158 -1024.54990259 763.58278733 -1021.31225586 762.12698364 C-1020.69382812 761.84467896 -1020.07540039 761.56237427 -1019.43823242 761.27151489 C-1009.88561438 756.91601558 -1000.32386526 753.29224657 -990.31225586 750.12698364 C-988.7069663 749.58865391 -987.10261168 749.04751703 -985.49975586 748.50198364 C-981.63601156 747.21406888 -977.74486875 746.0323175 -973.83959961 744.87698364 C-972.18340261 744.38550014 -970.52962074 743.8857863 -968.87866211 743.37698364 C-952.2027542 738.25414473 -935.09670157 735.09826347 -917.87475586 732.43948364 C-916.74263672 732.26062622 -916.74263672 732.26062622 -915.58764648 732.07815552 C-902.75847598 730.16977504 -889.89665105 729.97919512 -876.95659828 729.98831844 C-875.23314725 729.98586598 -873.5096968 729.98298063 -871.78624713 729.97970566 C-867.0662892 729.97198092 -862.34634629 729.97036592 -857.62638281 729.96977824 C-852.48553034 729.9680421 -847.34468565 729.9605528 -842.20383775 729.95380169 C-833.19942328 729.94276506 -824.19501159 729.93538089 -815.19059181 729.93040276 C-801.80140112 729.92298386 -788.41222013 729.90989774 -775.02303517 729.895657 C-752.49899807 729.87186063 -729.97495956 729.85264331 -707.45091629 729.83605766 C-685.15053699 729.8196227 -662.8501609 729.80114054 -640.54978561 729.77992439 C-639.85676768 729.779266 -639.16374975 729.7786076 -638.44973127 729.77792926 C-632.11991499 729.77191459 -625.79009872 729.76587476 -619.46028249 729.75980475 C-603.72631619 729.74471689 -587.9923496 729.72994451 -572.2583828 729.71538639 C-571.18374544 729.71439168 -571.18374544 729.71439168 -570.08739824 729.71337688 C-535.25252213 729.68116056 -500.41764316 729.65257937 -465.58276367 729.6242981 C-453.49696856 729.61448402 -441.41117346 729.60465386 -429.32537842 729.59475708 C-428.57579808 729.59414328 -427.82621774 729.59352948 -427.05392285 729.59289709 C-392.19615742 729.56433157 -357.33839444 729.53318071 -322.48063185 729.50136457 C-320.21714225 729.49929863 -317.95365264 729.49723381 -315.69016303 729.49516922 C-300.68967435 729.48148506 -285.68918571 729.46775637 -270.68869709 729.45399788 C-240.84242941 729.42662318 -210.99616149 729.39951006 -181.1498934 729.3725767 C-179.72859362 729.37129411 -178.30729384 729.37001134 -176.88599405 729.36872838 C-91.07275762 729.29127005 -5.25951656 729.21930168 106.68774414 729.12698364 C106.68552353 727.97884186 106.68330292 726.83070007 106.68101501 725.64776611 C106.66077517 714.84673987 106.64576792 704.04571746 106.63593197 693.24467659 C106.63070529 687.69127743 106.62361153 682.13789354 106.61230469 676.58450317 C106.60146819 671.22882817 106.59546568 665.87316788 106.5928669 660.51748276 C106.59101403 658.4704757 106.58739605 656.42346948 106.58201408 654.37646866 C106.57479357 651.51741014 106.57375363 648.65841304 106.57421875 645.79934692 C106.57062347 644.94626953 106.5670282 644.09319214 106.56332397 643.21426392 C106.57369198 637.35508797 106.57369198 637.35508797 107.68774414 635.12698364 C-118.69225586 635.12698364 -345.07225586 635.12698364 -578.31225586 635.12698364 C-579.78790256 270.64224815 -579.78790256 270.64224815 -572.31225586 252.12698364 C-571.75902411 250.23449284 -571.21842388 248.3382852 -570.68725586 246.43948364 C-560.26411486 212.2747437 -537.76490451 179.87261427 -512.31225586 155.12698364 C-511.75538086 154.52885864 -511.19850586 153.93073364 -510.62475586 153.31448364 C-509.31225586 152.12698364 -509.31225586 152.12698364 -507.31225586 152.12698364 C-507.31225586 151.46698364 -507.31225586 150.80698364 -507.31225586 150.12698364 C-505.79998519 148.79677274 -504.22556562 147.53670773 -502.62475586 146.31448364 C-499.91618826 144.2399215 -497.39578092 142.21177851 -494.99975586 139.77932739 C-491.55340417 136.37805879 -487.8279753 133.45959585 -483.99975586 130.50198364 C-483.20649902 129.88806763 -482.41324219 129.27415161 -481.59594727 128.64163208 C-469.02368668 118.99146432 -455.84274088 110.36349589 -442.31225586 102.12698364 C-441.63582031 101.71061646 -440.95938477 101.29424927 -440.26245117 100.86526489 C-430.75539232 95.02720325 -421.07805593 89.95100527 -410.94506836 85.28713989 C-407.28194232 83.59839473 -403.68661895 81.80783369 -400.10229492 79.95877075 C-393.52582744 76.56904832 -386.92435716 73.71082957 -379.9621582 71.20657349 C-376.12713079 69.82535774 -372.42913348 68.31708659 -368.74975586 66.56448364 C-363.31189561 64.00983933 -357.6991822 62.16597832 -351.98803711 60.33792114 C-348.72206014 59.26198824 -345.51996443 58.09203602 -342.30664062 56.87258911 C-330.89697056 52.60705693 -319.17647362 49.09351182 -307.56225586 45.43948364 C-306.36769775 45.05904907 -305.17313965 44.6786145 -303.94238281 44.28665161 C-296.76446209 42.04580235 -289.6052632 40.21871675 -282.23388672 38.72927856 C-278.86506483 38.0347951 -275.60448984 37.1208656 -272.31225586 36.12698364 C-264.46517787 33.84381563 -256.58664949 32.09870124 -248.56225586 30.56448364 C-240.44091684 29.06949874 -240.44091684 29.06949874 -232.44506836 27.03713989 C-229.27021425 26.11476956 -226.20970257 25.5794701 -222.93725586 25.12698364 C-219.30442817 24.62217384 -215.74615828 24.01792277 -212.17553711 23.18948364 C-206.45371623 21.88632747 -200.67236734 21.01946021 -194.87475586 20.12698364 C-185.95081207 18.7505352 -185.95081207 18.7505352 -177.08178711 17.06448364 C-172.5491043 16.1321813 -168.03988945 15.57528881 -163.43725586 15.12698364 C-158.47107707 14.60934463 -153.5439042 14.06095795 -148.62475586 13.18948364 C-133.28143796 10.5128334 -117.82877232 8.86066732 -102.29785156 7.77346802 C-101.29713623 7.70192505 -100.2964209 7.63038208 -99.26538086 7.55667114 C-97.93748535 7.46748413 -97.93748535 7.46748413 -96.58276367 7.37649536 C-94.14952345 7.18979848 -94.14952345 7.18979848 -91.31225586 6.12698364 C-89.01613315 5.91913095 -86.71550202 5.75977878 -84.41381836 5.62698364 C-83.40585709 5.56607544 -83.40585709 5.56607544 -82.37753296 5.50393677 C-80.23098196 5.37443706 -78.0841784 5.25015983 -75.93725586 5.12698364 C-73.7974898 5.00360974 -71.65783994 4.87897767 -69.5184021 4.75003052 C-67.57179388 4.63273657 -65.62489133 4.5203582 -63.67797852 4.40823364 C-60.46318743 4.21053904 -60.46318743 4.21053904 -57.95825195 3.62698364 C-53.93399432 2.86654079 -49.89876287 2.79212537 -45.81225586 2.62698364 C-44.89895508 2.58637817 -43.9856543 2.54577271 -43.04467773 2.50393677 C-39.14973586 2.3308874 -35.2544257 2.16686385 -31.35913086 2.00198364 C-28.51002714 1.88009685 -25.66115063 1.75364587 -22.81225586 1.62698364 C-21.49644531 1.57380981 -21.49644531 1.57380981 -20.15405273 1.51956177 C-19.32969727 1.48282349 -18.5053418 1.44608521 -17.65600586 1.40823364 C-16.93606445 1.37794067 -16.21612305 1.34764771 -15.47436523 1.31643677 C-13.30306139 1.17915799 -13.30306139 1.17915799 -11.19664001 0.6230793 C-7.45752621 -0.0200244 -3.78094159 -0.01087195 0 0 Z M-316.31225586 223.12698364 C-317.75084961 223.46536255 -317.75084961 223.46536255 -319.21850586 223.81057739 C-330.43915125 226.4672302 -340.35141338 232.24525702 -349.90991211 238.54885864 C-351.60720819 239.66383038 -353.35043093 240.71032541 -355.12084961 241.70510864 C-355.84401367 242.17432739 -356.56717773 242.64354614 -357.31225586 243.12698364 C-357.31225586 243.78698364 -357.31225586 244.44698364 -357.31225586 245.12698364 C-357.88975586 245.39510864 -358.46725586 245.66323364 -359.06225586 245.93948364 C-361.36775628 247.15627553 -363.33281778 248.43032243 -365.31225586 250.12698364 C-365.31225586 250.78698364 -365.31225586 251.44698364 -365.31225586 252.12698364 C-365.91038086 252.39510864 -366.50850586 252.66323364 -367.12475586 252.93948364 C-369.3107344 254.12615771 -370.7255818 255.22297477 -372.31225586 257.12698364 C-372.31225586 257.78698364 -372.31225586 258.44698364 -372.31225586 259.12698364 C-372.97225586 259.12698364 -373.63225586 259.12698364 -374.31225586 259.12698364 C-376.11791027 261.29741672 -377.78954309 263.46524246 -379.43725586 265.75198364 C-379.92863037 266.43204468 -380.42000488 267.11210571 -380.92626953 267.81277466 C-389.06768263 279.2552981 -394.80945663 290.8726624 -399.31225586 304.12698364 C-399.6306543 304.99710083 -399.94905273 305.86721802 -400.27709961 306.76370239 C-409.99504024 335.2406528 -404.60470076 369.23689172 -391.87475586 395.68948364 C-386.83644555 405.15303553 -380.90948304 413.64153129 -373.99975586 421.81448364 C-373.22595581 422.73390747 -373.22595581 422.73390747 -372.43652344 423.67190552 C-369.42397317 427.16745263 -369.42397317 427.16745263 -365.31225586 429.12698364 C-364.98225586 430.11698364 -364.65225586 431.10698364 -364.31225586 432.12698364 C-362.07727768 433.98110029 -359.85700235 435.69229137 -357.49975586 437.37698364 C-356.82122559 437.86642456 -356.14269531 438.35586548 -355.44360352 438.86013794 C-341.13790579 449.04803743 -326.37031121 456.10989894 -309.31225586 460.12698364 C-308.47823242 460.34225708 -307.64420898 460.55753052 -306.78491211 460.77932739 C-296.84140395 463.24272815 -286.50509669 463.41373876 -276.31225586 463.12698364 C-275.28358398 463.09862427 -274.25491211 463.07026489 -273.19506836 463.04104614 C-264.50553924 462.5948845 -256.61423557 460.58340923 -248.31225586 458.12698364 C-247.36995117 457.86659302 -246.42764648 457.60620239 -245.45678711 457.33792114 C-235.49975757 454.52834071 -226.50888507 449.79532335 -217.31225586 445.12698364 C-217.31225586 444.46698364 -217.31225586 443.80698364 -217.31225586 443.12698364 C-216.59038086 442.85885864 -215.86850586 442.59073364 -215.12475586 442.31448364 C-212.31459203 441.12797003 -209.82809029 439.85212725 -207.31225586 438.12698364 C-207.31225586 437.46698364 -207.31225586 436.80698364 -207.31225586 436.12698364 C-206.74764648 435.87690552 -206.18303711 435.62682739 -205.60131836 435.36917114 C-185.26771691 424.33489595 -171.31495626 397.26978969 -164.8828125 375.88870239 C-156.83894643 347.82918149 -158.1765041 315.39848717 -171.31225586 289.12698364 C-171.74151367 288.18596802 -172.17077148 287.24495239 -172.61303711 286.27542114 C-179.94896493 270.6116654 -191.54079074 255.6753399 -205.31225586 245.12698364 C-205.97225586 245.12698364 -206.63225586 245.12698364 -207.31225586 245.12698364 C-207.31225586 244.46698364 -207.31225586 243.80698364 -207.31225586 243.12698364 C-209.03026868 241.76060711 -209.03026868 241.76060711 -211.18725586 240.50198364 C-211.90655273 240.05596802 -212.62584961 239.60995239 -213.36694336 239.15042114 C-215.24090348 237.97178366 -215.24090348 237.97178366 -217.31225586 238.12698364 C-217.31225586 237.46698364 -217.31225586 236.80698364 -217.31225586 236.12698364 C-226.13751896 231.5648652 -234.81756726 227.14936123 -244.31225586 224.12698364 C-245.16303711 223.85241333 -246.01381836 223.57784302 -246.89038086 223.29495239 C-269.88814915 216.13460429 -293.27148552 216.54032864 -316.31225586 223.12698364 Z " fill="#3672A4" transform="translate(1978.312255859375,669.8730163574219)"/>
<path d="M0 0 C33.41075115 -0.04582701 66.82149445 -0.08104435 100.23227007 -0.10213066 C104.18113257 -0.10463192 108.12999501 -0.10722058 112.07885742 -0.10986328 C112.86496969 -0.1103879 113.65108195 -0.11091252 114.4610158 -0.11145304 C127.17190064 -0.12014396 139.88276729 -0.13590668 152.59364136 -0.15430559 C165.64647624 -0.17304122 178.69930163 -0.18412446 191.7521494 -0.18817699 C199.79954945 -0.19091446 207.8468981 -0.19954512 215.89428232 -0.21583293 C222.07607088 -0.22770371 228.25782066 -0.22890212 234.43961906 -0.22621536 C236.96748927 -0.22676386 239.4953615 -0.23071911 242.02322006 -0.23841095 C265.73133952 -0.30698916 265.73133952 -0.30698916 277 2 C278.33908097 2.18014104 279.68020568 2.34618435 281.0234375 2.4921875 C289.18668356 3.42458623 296.83981662 5.13069678 304.73291016 7.37744141 C307.35810963 8.09833939 309.99497927 8.76028707 312.63671875 9.41796875 C330.91453787 13.98853758 330.91453787 13.98853758 339.25390625 17.7890625 C342.44839168 19.19772606 345.69586311 20.31100816 349 21.4375 C354.48273649 23.36694388 359.57214912 25.64571323 364.72265625 28.328125 C367.94580413 29.972353 371.20302827 31.50333587 374.48803711 33.01831055 C386.01954237 38.34159689 386.01954237 38.34159689 391.015625 41.6796875 C393.62544413 43.41614196 396.3149428 45.00741676 399 46.625 C410.82456598 53.91111985 422.08102875 61.85766493 432.9140625 70.546875 C435.52553951 72.62283394 438.17208977 74.60881752 440.875 76.5625 C441.90625 77.366875 442.9375 78.17125 444 79 C444 79.66 444 80.32 444 81 C444.55945312 81.24234375 445.11890625 81.4846875 445.6953125 81.734375 C454.7964123 86.73226709 462.41625747 96.29913571 469.73175049 103.55651855 C471.14973665 104.96255489 472.57164289 106.36463435 473.99365234 107.76660156 C480.10230922 113.86762943 485.61085747 120.26205367 491 127 C491.93501758 128.10162616 492.87635133 129.19797414 493.828125 130.28515625 C507.64466554 146.12960838 519.28466738 163.78779457 530.4609375 181.55859375 C531.47292062 183.16389693 532.49864984 184.76063085 533.5390625 186.34765625 C534.00054688 187.05792969 534.46203125 187.76820313 534.9375 188.5 C535.53884766 189.41265625 535.53884766 189.41265625 536.15234375 190.34375 C537 192 537 192 537 195 C537.66 195 538.32 195 539 195 C539.51046875 196.05574219 539.51046875 196.05574219 540.03125 197.1328125 C542.77210283 202.71657119 545.64085684 208.14824941 548.8125 213.5 C553.13549772 220.85905211 556.52179887 228.59249812 559.94921875 236.3984375 C561.51616713 239.95804948 563.19376672 243.42910251 565 246.875 C566.73058871 250.22913069 567.69900258 253.18736596 568 257 C568.66 257 569.32 257 570 257 C570.37511719 258.01578125 570.75023438 259.0315625 571.13671875 260.078125 C573.50396638 266.45591515 575.87678203 272.81008014 578.5625 279.0625 C581.00093691 284.8096841 582.94906052 290.67035013 584.87890625 296.6015625 C585.71707108 299.14234089 586.59049624 301.63456876 587.5625 304.125 C589.2958865 308.62005314 590.63593702 313.23498895 592.03125 317.84375 C592.81361096 320.3927325 593.63445822 322.91613916 594.5 325.4375 C596.20184268 330.45933085 597.6083525 335.56241798 599.03515625 340.66796875 C599.64810498 342.78475121 600.29900991 344.89118968 601 346.98046875 C602.11076977 350.33447277 603.03460938 353.70924512 603.9375 357.125 C604.11079834 357.77952148 604.28409668 358.43404297 604.46264648 359.10839844 C605.75301349 364.00334529 606.99171053 368.91011772 608.19140625 373.828125 C608.66289039 375.67761835 609.14808684 377.52391207 609.66723633 379.3605957 C611.65464469 386.41357262 613.18118368 393.49332574 614.5625 400.6875 C616.12918556 408.95522391 616.12918556 408.95522391 618.03515625 417.1484375 C619.17971036 421.71738629 620.04520607 426.30272524 620.875 430.9375 C621.04499512 431.87827393 621.21499023 432.81904785 621.39013672 433.78833008 C622.90341508 442.26143827 624.27631967 450.75568689 625.60498047 459.25952148 C626.50871195 465.02946294 627.48580008 470.77633349 628.57348633 476.51464844 C629.00472399 479.0275273 629.30351474 481.52650827 629.5625 484.0625 C629.74586541 487.77981861 629.74586541 487.77981861 631 490 C631.0964421 492.1972108 631.12555191 494.39745254 631.12584114 496.59677887 C631.12729458 497.28565545 631.12874802 497.97453204 631.13024551 498.68428367 C631.13392384 501.01565903 631.13041064 503.34696974 631.12698364 505.67834473 C631.12813474 507.35743954 631.12972218 509.03653411 631.13171089 510.71562815 C631.13590581 515.34769554 631.13381278 519.97974248 631.13072467 524.61180997 C631.12847145 529.60027283 631.13194979 534.58873206 631.13470459 539.57719421 C631.13916212 549.35671968 631.13818589 559.13623749 631.13529195 568.91576326 C631.13303785 576.86049422 631.13272542 584.80522303 631.13381577 592.74995422 C631.133969 593.87867782 631.13412223 595.00740142 631.13428011 596.17032877 C631.13459982 598.46297324 631.13492403 600.75561771 631.1352527 603.04826218 C631.13810744 624.57003764 631.13482056 646.09180886 631.12945233 667.61358362 C631.1249843 686.09899929 631.12576023 704.58440867 631.13037109 723.06982422 C631.13571696 744.51213417 631.13783275 765.9544404 631.13475883 787.39675093 C631.13444027 789.68118254 631.13412589 791.96561416 631.13381577 794.25004578 C631.13358435 795.936228 631.13358435 795.936228 631.13334826 797.6564745 C631.13248314 805.59596051 631.13394588 813.53544416 631.13629532 821.47492981 C631.13909365 831.14433245 631.13835435 840.81372696 631.13301457 850.48312867 C631.13037801 855.42099462 631.12937174 860.35884701 631.13266373 865.29671288 C631.13562761 869.81054551 631.13403232 874.32435192 631.12868617 878.83818215 C631.12756239 880.47744699 631.12815234 882.116714 631.13056196 883.75597745 C631.13357101 885.97175756 631.13051614 888.18744595 631.12584114 890.40322113 C631.12567879 891.63774694 631.12551644 892.87227275 631.12534916 894.14420843 C631 897 631 897 630 899 C629.5583873 902.4178596 629.18769533 905.83558579 628.83789062 909.26367188 C628.34311085 913.81323228 627.56367224 918.18453841 626.52416992 922.63989258 C625.55591177 926.99953464 624.86461415 931.40940814 624.125 935.8125 C621.53005139 950.97562113 618.56426204 966.03364597 615 981 C614.66447679 982.45292027 614.32990395 983.90606021 613.99609375 985.359375 C613.64331465 986.88543643 613.29045074 988.41147826 612.9375 989.9375 C612.77507813 990.64801514 612.61265625 991.35853027 612.4453125 992.09057617 C611.75171564 995.06691028 611.00661053 997.98027546 610.03515625 1000.87890625 C608.604353 1005.19291302 607.57127199 1009.58506091 606.5 1014 C606.07523099 1015.75056318 605.64820111 1017.50057955 605.21875 1019.25 C605.03248047 1020.01828125 604.84621094 1020.7865625 604.65429688 1021.578125 C603.88386803 1024.42986162 602.95249251 1027.20384642 602 1030 C601.64832764 1031.05501709 601.29665527 1032.11003418 600.93432617 1033.19702148 C599.25504557 1038.23486328 597.57576497 1043.27270508 595.89648438 1048.31054688 C595.68359772 1048.94931763 595.47071106 1049.58808838 595.25137329 1050.24621582 C594.8204691 1051.53870445 594.38929601 1052.83110347 593.95785522 1054.12341309 C592.84852237 1057.44739968 591.74432065 1060.77295445 590.64892578 1064.1015625 C590.42803787 1064.77042984 590.20714996 1065.43929718 589.97956848 1066.12843323 C589.37014383 1067.97439955 588.7627624 1069.82104006 588.15551758 1071.66772461 C586.69762857 1075.87197712 585.00549276 1079.94814966 583.25 1084.03515625 C581.92209559 1087.18477952 580.7055001 1090.36415756 579.5 1093.5625 C577.55406354 1098.68209309 575.37855187 1103.64448276 573.0703125 1108.609375 C571.84321883 1111.35018275 570.85562175 1114.12199958 570 1117 C569.34 1117 568.68 1117 568 1117 C567.86078125 1118.25876953 567.86078125 1118.25876953 567.71875 1119.54296875 C566.89612639 1123.49960947 565.3562502 1126.76453889 563.5 1130.3125 C563.14035156 1131.01270264 562.78070312 1131.71290527 562.41015625 1132.43432617 C561.65235624 1133.90485807 560.89057879 1135.37334655 560.125 1136.83984375 C559.08062454 1138.84518969 558.05392033 1140.85852504 557.03125 1142.875 C542.13567174 1171.93012256 524.43550877 1199.55054577 504 1225 C503.26136719 1225.92296875 502.52273438 1226.8459375 501.76171875 1227.796875 C499.53214202 1230.55225685 497.27092647 1233.27861106 495 1236 C494.58717773 1236.50450684 494.17435547 1237.00901367 493.74902344 1237.52880859 C486.06614592 1246.89213785 477.68223602 1255.50619317 469.125 1264.0625 C468.5791626 1264.60924377 468.0333252 1265.15598755 467.47094727 1265.71929932 C451.18718894 1282 451.18718894 1282 448 1282 C448 1282.66 448 1283.32 448 1284 C446.0169508 1285.73249445 444.02764584 1287.34253414 441.9375 1288.9375 C441.31133789 1289.42186523 440.68517578 1289.90623047 440.04003906 1290.40527344 C433.65521991 1295.31838067 427.17435625 1300.10102044 420.64111328 1304.81445312 C419.24458472 1305.82331101 417.85406109 1306.84047292 416.46484375 1307.859375 C404.95009311 1316.15473567 392.55100492 1323.39934197 380 1330 C378.55691405 1330.77794576 377.11424378 1331.55666285 375.671875 1332.3359375 C362.29979303 1339.52052904 348.85362492 1345.85639348 334.4765625 1350.76171875 C331.73110678 1351.73959455 329.06024081 1352.78673896 326.3671875 1353.89453125 C320.50914529 1356.25504572 314.53682773 1358.15316163 308.5 1360 C307.35942139 1360.34957764 306.21884277 1360.69915527 305.04370117 1361.05932617 C296.42812078 1363.65715616 287.80846158 1365.85618023 278.98339844 1367.60302734 C277.0393875 1367.99211668 275.10157507 1368.41177649 273.1640625 1368.83203125 C265.65119901 1370.4306804 258.17817216 1371.56133062 250.54467773 1372.35400391 C247.53549614 1372.6699341 244.88234114 1373.03921962 242 1374 C231.95080281 1375.23996136 221.82650292 1375.14042974 211.72053814 1375.12304783 C209.99313674 1375.12378873 208.26573548 1375.12496866 206.53833464 1375.12654433 C201.80274052 1375.12959953 197.06716803 1375.12644977 192.33157553 1375.12226619 C187.17552005 1375.11882094 182.01946668 1375.12120489 176.86341077 1375.12284368 C167.83074312 1375.12491463 158.79808207 1375.1232784 149.76541519 1375.11920547 C136.33420553 1375.11316604 122.90300002 1375.11287008 109.47178924 1375.11374746 C86.87745897 1375.11506091 64.28313193 1375.11172895 41.68880272 1375.10573006 C19.317822 1375.09980468 -3.05315752 1375.09595438 -25.42413902 1375.09487724 C-26.11926979 1375.09484283 -26.81440055 1375.09480842 -27.53059588 1375.09477296 C-33.87968062 1375.09445976 -40.22876535 1375.09417207 -46.57785008 1375.09391499 C-62.35993529 1375.09327565 -78.14202047 1375.09231636 -93.92410564 1375.09113979 C-94.64273323 1375.09108648 -95.36136082 1375.09103316 -96.101765 1375.09097823 C-131.04644079 1375.08835763 -165.99111579 1375.08205044 -200.93579102 1375.07543945 C-213.06016031 1375.07314776 -225.18452961 1375.07087239 -237.30889893 1375.06866455 C-238.06086845 1375.0685276 -238.81283798 1375.06839065 -239.58759447 1375.06824955 C-274.55438353 1375.06190375 -309.52117272 1375.05817933 -344.48796221 1375.05512976 C-346.75844274 1375.05493169 -349.02892327 1375.0547325 -351.2994038 1375.05453308 C-366.34618226 1375.05321328 -381.39296072 1375.05193863 -396.43973919 1375.05069422 C-426.37828436 1375.04821781 -456.31682949 1375.04547613 -486.25537462 1375.04255217 C-487.68107893 1375.04241293 -489.10678324 1375.04227388 -490.53248755 1375.04213501 C-564.16474563 1375.03496121 -637.79700289 1375.02355754 -711.42926025 1375.0111084 C-712.45505589 1375.01093499 -713.48085154 1375.01076159 -714.53773189 1375.01058293 C-734.69182128 1375.00716839 -754.84591064 1375.00356628 -775 1375 C-775 1406.02 -775 1437.04 -775 1469 C-548.62 1469 -322.24 1469 -89 1469 C-88.67 1576.58 -88.34 1684.16 -88 1795 C-87.67 1798.96 -87.34 1802.92 -87 1807 C-87.09838867 1810.46337891 -87.09838867 1810.46337891 -87.41796875 1813.2265625 C-87.5358374 1814.26941406 -87.65370605 1815.31226562 -87.77514648 1816.38671875 C-87.97926147 1817.98966797 -87.97926147 1817.98966797 -88.1875 1819.625 C-88.39451538 1821.31689453 -88.39451538 1821.31689453 -88.60571289 1823.04296875 C-90.17379111 1835.24742476 -92.07172122 1847.47869932 -97.08203125 1858.8046875 C-98.02403475 1861.05747885 -98.63805568 1863.26297289 -99.25 1865.625 C-101.23718616 1872.54739575 -104.75140208 1878.80141984 -108.05712891 1885.16552734 C-109.27060523 1887.52649604 -110.41371567 1889.91951736 -111.5625 1892.3125 C-119.97692536 1909.05776371 -132.63146855 1926.86941975 -146 1940 C-147.11721186 1941.28040011 -148.22251417 1942.57134449 -149.3125 1943.875 C-152.34491477 1947.38308768 -155.60253415 1950.40107537 -159.140625 1953.390625 C-160.81391355 1954.83893358 -162.34780896 1956.33844114 -163.875 1957.9375 C-166 1960 -166 1960 -168 1960 C-168.33 1960.99 -168.66 1961.98 -169 1963 C-173.45714286 1967 -173.45714286 1967 -176 1967 C-176 1967.66 -176 1968.32 -176 1969 C-177.80419922 1970.60400391 -177.80419922 1970.60400391 -180.3046875 1972.4765625 C-181.19800781 1973.146875 -182.09132813 1973.8171875 -183.01171875 1974.5078125 C-184.42904297 1975.55582031 -184.42904297 1975.55582031 -185.875 1976.625 C-186.81214844 1977.33140625 -187.74929688 1978.0378125 -188.71484375 1978.765625 C-195.73779862 1984 -195.73779862 1984 -198 1984 C-198 1984.66 -198 1985.32 -198 1986 C-200.10019014 1987.47309111 -202.17767729 1988.81309635 -204.375 1990.125 C-205.27992188 1990.68380859 -205.27992188 1990.68380859 -206.203125 1991.25390625 C-210.72965316 1994 -210.72965316 1994 -213 1994 C-213 1994.66 -213 1995.32 -213 1996 C-213.969375 1996.54527344 -214.93875 1997.09054687 -215.9375 1997.65234375 C-216.576875 1998.01207275 -217.21625 1998.37180176 -217.875 1998.74243164 C-219.31222295 1999.55070443 -220.74973092 2000.35847057 -222.1875 2001.16577148 C-225.81916262 2003.20582328 -229.4468703 2005.25195963 -233.0625 2007.3203125 C-241.64180509 2012.21488883 -250.33645629 2016.76776676 -259.20703125 2021.11083984 C-260.80482848 2021.90321151 -262.38794985 2022.72502117 -263.96875 2023.55078125 C-271.0372354 2027.23393867 -278.30909607 2030.19867679 -285.72119141 2033.10498047 C-290.09276063 2034.82176393 -294.38951203 2036.58908538 -298.625 2038.625 C-304.09045683 2041.19341879 -309.77744831 2042.98210403 -315.51464844 2044.83374023 C-319.41267306 2046.101133 -323.16997597 2047.4161199 -326.875 2049.1875 C-331.11230242 2051.202499 -335.46791677 2052.15771732 -340.0234375 2053.21875 C-343.62790427 2054.16480427 -346.94101772 2055.52564556 -350.36669922 2056.97460938 C-352.92502179 2057.97080396 -355.44130961 2058.73415626 -358.09375 2059.4375 C-359.05611572 2059.69402344 -360.01848145 2059.95054687 -361.01000977 2060.21484375 C-361.99670654 2060.47394531 -362.98340332 2060.73304688 -364 2061 C-364.94093506 2061.24878906 -365.88187012 2061.49757813 -366.85131836 2061.75390625 C-373.56251805 2063.52180783 -380.28127649 2065.26094614 -387 2067 C-388.74410156 2067.45246094 -388.74410156 2067.45246094 -390.5234375 2067.9140625 C-397.18194024 2069.6113279 -403.88050811 2071.10666377 -410.59692383 2072.55517578 C-413.92960485 2073.28100395 -417.19730496 2074.05697458 -420.4765625 2075.00390625 C-424.63992273 2076.18090942 -428.81865962 2077.04487597 -433.0625 2077.875 C-433.93173096 2078.04644531 -434.80096191 2078.21789063 -435.6965332 2078.39453125 C-451.17185144 2081.42462483 -466.68207575 2084.17099643 -482.26245117 2086.60546875 C-487.06020119 2087.35688078 -491.84548878 2088.14129806 -496.62109375 2089.0234375 C-501.69198702 2089.95760903 -506.77108213 2090.76887943 -511.875 2091.5 C-512.75978027 2091.62745605 -513.64456055 2091.75491211 -514.55615234 2091.88623047 C-522.1290907 2092.94406738 -529.71671666 2093.71118688 -537.33544922 2094.35351562 C-538.1657666 2094.42505859 -538.99608398 2094.49660156 -539.8515625 2094.5703125 C-540.58197754 2094.62977051 -541.31239258 2094.68922852 -542.06494141 2094.75048828 C-544.21422615 2094.96456991 -544.21422615 2094.96456991 -547 2096 C-548.86994925 2096.20447855 -550.74482035 2096.36539027 -552.62109375 2096.5 C-554.27141602 2096.62375 -554.27141602 2096.62375 -555.95507812 2096.75 C-557.67887695 2096.87375 -557.67887695 2096.87375 -559.4375 2097 C-561.70726198 2097.16349439 -563.97680706 2097.33003587 -566.24609375 2097.5 C-567.25341553 2097.5721875 -568.2607373 2097.644375 -569.29858398 2097.71875 C-571.88383178 2097.91813706 -571.88383178 2097.91813706 -573.87576294 2098.4942627 C-576.17507102 2099.04168082 -578.33020445 2099.23325575 -580.68920898 2099.37304688 C-581.61374374 2099.42980591 -582.5382785 2099.48656494 -583.49082947 2099.54504395 C-584.48256668 2099.60236694 -585.47430389 2099.65968994 -586.49609375 2099.71875 C-587.5217897 2099.78155151 -588.54748566 2099.84435303 -589.60426331 2099.90905762 C-592.88180513 2100.10958959 -596.15960507 2100.30533068 -599.4375 2100.5 C-603.74894842 2100.75646422 -608.06008316 2101.01754057 -612.37109375 2101.28125 C-613.85566322 2101.3672345 -613.85566322 2101.3672345 -615.370224 2101.45495605 C-616.29791092 2101.51171509 -617.22559784 2101.56847412 -618.18139648 2101.62695312 C-618.99317856 2101.67501099 -619.80496063 2101.72306885 -620.64134216 2101.77258301 C-623.03323879 2101.96166504 -623.03323879 2101.96166504 -625.48200989 2102.5057373 C-628.06105311 2103.01198427 -630.48131605 2103.18960841 -633.10644531 2103.28125 C-634.59389252 2103.33635742 -634.59389252 2103.33635742 -636.11138916 2103.39257812 C-637.17291199 2103.42802734 -638.23443481 2103.46347656 -639.328125 2103.5 C-640.43170349 2103.54060547 -641.53528198 2103.58121094 -642.67230225 2103.62304688 C-646.19807496 2103.75254041 -649.72400199 2103.87680422 -653.25 2104 C-656.76170439 2104.12343764 -660.27333977 2104.24813351 -663.78485107 2104.37695312 C-665.9673938 2104.45698088 -668.15005083 2104.53396856 -670.33282471 2104.60742188 C-671.83918488 2104.6625293 -671.83918488 2104.6625293 -673.37597656 2104.71875 C-674.24691956 2104.74904297 -675.11786255 2104.77933594 -676.01519775 2104.81054688 C-678.33489828 2104.95778427 -680.64788451 2105.21238117 -682.95318604 2105.50949097 C-689.41102008 2106.2466936 -695.88218734 2106.13976018 -702.37304688 2106.12939453 C-703.80802962 2106.13075188 -705.24301203 2106.13253369 -706.67799377 2106.13470459 C-710.55191729 2106.13923922 -714.42581398 2106.13750577 -718.29973793 2106.1343255 C-722.36742852 2106.13178131 -726.43511693 2106.13414516 -730.50280762 2106.13571167 C-737.33179127 2106.13752737 -744.16076409 2106.1351428 -750.98974609 2106.13037109 C-758.86787202 2106.12492963 -766.74597205 2106.12669271 -774.62409735 2106.1321975 C-781.40653119 2106.13674572 -788.18895728 2106.13737082 -794.97139215 2106.13475883 C-799.01417114 2106.13320546 -803.05693799 2106.13297643 -807.09971619 2106.13629532 C-810.90170939 2106.13919891 -814.70366945 2106.13715288 -818.5056591 2106.13140106 C-819.89513532 2106.13008676 -821.28461436 2106.13044479 -822.67408943 2106.13266373 C-829.87667836 2106.14309933 -836.85684736 2105.92172383 -844 2105 C-845.84794223 2104.88146591 -847.69751368 2104.78422535 -849.5480957 2104.71875 C-851.02926628 2104.66364258 -851.02926628 2104.66364258 -852.5403595 2104.60742188 C-853.57504868 2104.57197266 -854.60973785 2104.53652344 -855.67578125 2104.5 C-857.90690228 2104.4166998 -860.13802203 2104.33336547 -862.36914062 2104.25 C-865.85615769 2104.12374636 -869.34322109 2103.99890838 -872.83032227 2103.875 C-876.21644809 2103.75351612 -879.60235754 2103.62697391 -882.98828125 2103.5 C-884.03309158 2103.46455078 -885.07790192 2103.42910156 -886.15437317 2103.39257812 C-887.61190254 2103.3374707 -887.61190254 2103.3374707 -889.09887695 2103.28125 C-890.37720146 2103.23581055 -890.37720146 2103.23581055 -891.68135071 2103.18945312 C-893.90196419 2103.00801035 -895.84861791 2102.55469826 -898 2102 C-899.40460282 2101.84782829 -900.81331196 2101.73085057 -902.22338867 2101.64282227 C-903.04912888 2101.58929092 -903.87486908 2101.53575958 -904.72563171 2101.48060608 C-905.61410294 2101.42642014 -906.50257416 2101.37223419 -907.41796875 2101.31640625 C-909.33268363 2101.19207788 -911.24739712 2101.06772819 -913.16210938 2100.94335938 C-916.15413447 2100.753486 -919.14624662 2100.56508367 -922.13842773 2100.37768555 C-933.27186293 2099.67539266 -944.33797656 2098.8515252 -955.40576172 2097.4375 C-959.85546311 2096.89587081 -964.30587873 2096.54747172 -968.77734375 2096.24609375 C-971 2096 -971 2096 -973 2095 C-974.85547475 2094.74299478 -976.71786422 2094.5351912 -978.58203125 2094.3515625 C-980.30703857 2094.17645142 -980.30703857 2094.17645142 -982.06689453 2093.99780273 C-983.92096924 2093.81326538 -983.92096924 2093.81326538 -985.8125 2093.625 C-994.77121374 2092.69932356 -1003.70923995 2091.71648455 -1012.625 2090.4375 C-1013.43300049 2090.32293457 -1014.24100098 2090.20836914 -1015.07348633 2090.09033203 C-1018.95472201 2089.51950254 -1022.79787272 2088.85618651 -1026.640625 2088.06640625 C-1034.09525267 2086.53945894 -1041.6171801 2085.38731878 -1049.12841797 2084.17724609 C-1056.18064035 2083.03845302 -1063.08794587 2081.7933215 -1070 2080 C-1074.01325446 2079.16952156 -1078.03875805 2078.4028384 -1082.0625 2077.625 C-1090.10466621 2076.042887 -1098.01188053 2074.32494463 -1105.90234375 2072.10546875 C-1112.66322708 2070.23303408 -1119.51823864 2068.70496192 -1126.34765625 2067.10571289 C-1131.32176894 2065.93019016 -1136.17341263 2064.69564757 -1141 2063 C-1144.03476314 2062.06036003 -1147.08048403 2061.15747138 -1150.125 2060.25 C-1150.99302246 2059.98977051 -1151.86104492 2059.72954102 -1152.75537109 2059.46142578 C-1157.30188859 2058.09918867 -1161.85144929 2056.74834728 -1166.40625 2055.4140625 C-1181.69035918 2050.91748664 -1181.69035918 2050.91748664 -1188.859375 2047.859375 C-1191.16846715 2046.9323672 -1193.48131435 2046.2399582 -1195.875 2045.5625 C-1200.70712985 2044.16789154 -1205.24780013 2042.29529982 -1209.8671875 2040.31640625 C-1213.03192771 2038.98658399 -1216.22315073 2037.7669128 -1219.4375 2036.5625 C-1226.11184069 2034.01498114 -1232.54539429 2031.0550802 -1239 2028 C-1240.79603867 2027.1631644 -1242.59209417 2026.32636359 -1244.38891602 2025.49121094 C-1246.26722826 2024.61698139 -1248.14351692 2023.73852351 -1250.01953125 2022.859375 C-1252.82429615 2021.54593784 -1255.63518215 2020.24657095 -1258.44921875 2018.953125 C-1271.65252832 2012.85664779 -1271.65252832 2012.85664779 -1277.1328125 2009.203125 C-1279.4423078 2007.71499832 -1281.83085629 2006.42708868 -1284.25 2005.125 C-1302.85000782 1995.07996816 -1320.67460045 1983.6046726 -1337.1953125 1970.39453125 C-1338.93242144 1969.0522198 -1340.70909579 1967.86189207 -1342.5625 1966.6875 C-1343.7690625 1965.8521875 -1343.7690625 1965.8521875 -1345 1965 C-1345 1964.34 -1345 1963.68 -1345 1963 C-1345.85851563 1962.5978125 -1345.85851563 1962.5978125 -1346.734375 1962.1875 C-1349.07884634 1960.95867364 -1351.12404938 1959.57477824 -1353.25 1958 C-1353.95640625 1957.484375 -1354.6628125 1956.96875 -1355.390625 1956.4375 C-1356.18726563 1955.7259375 -1356.18726563 1955.7259375 -1357 1955 C-1357 1954.34 -1357 1953.68 -1357 1953 C-1357.56847656 1952.76023437 -1358.13695312 1952.52046875 -1358.72265625 1952.2734375 C-1361.46220023 1950.74154841 -1363.26745695 1948.88906571 -1365.4375 1946.625 C-1367.77376463 1944.22775619 -1369.99123304 1942.00688832 -1372.625 1939.9375 C-1375.50713324 1937.58628604 -1377.76197443 1934.90580605 -1380.171875 1932.08203125 C-1381.91946249 1930.09172327 -1383.73426783 1928.22873959 -1385.625 1926.375 C-1388.64657781 1923.3943465 -1391.41410915 1920.36949414 -1394 1917 C-1394 1916.34 -1394 1915.68 -1394 1915 C-1394.66 1915 -1395.32 1915 -1396 1915 C-1397.42462223 1913.32840309 -1398.76348248 1911.58347098 -1400.0625 1909.8125 C-1400.65913452 1908.99990723 -1400.65913452 1908.99990723 -1401.26782227 1908.17089844 C-1402.52145857 1906.45396712 -1403.76263432 1904.72868705 -1405 1903 C-1405.73992187 1901.96746094 -1406.47984375 1900.93492188 -1407.2421875 1899.87109375 C-1430.04119978 1867.45755138 -1446.83563514 1832.22509063 -1454.55256121 1793.20006666 C-1454.84376036 1791.76823385 -1455.15171503 1790.33967333 -1455.47889916 1788.91563236 C-1457.1089921 1781.5410589 -1457.65681412 1774.19007499 -1458.11192036 1766.66237736 C-1458.15392161 1765.98780994 -1458.19592286 1765.31324251 -1458.23919688 1764.61823366 C-1459.12556805 1750.2113296 -1459.26336167 1735.83447735 -1459.20927429 1721.40196228 C-1459.20558363 1718.67264373 -1459.20498431 1715.94332626 -1459.2042163 1713.21400553 C-1459.20096758 1707.34608438 -1459.19033983 1701.47821545 -1459.17449379 1695.61031532 C-1459.15095826 1686.88417887 -1459.13940614 1678.15805325 -1459.13004032 1669.43189152 C-1459.11392145 1654.738139 -1459.08826049 1640.044418 -1459.05682945 1625.35069084 C-1459.025729 1610.80963571 -1458.99851872 1596.26858231 -1458.976511 1581.72751045 C-1458.9751323 1580.8192316 -1458.9737536 1579.91095274 -1458.97233312 1578.97515029 C-1458.96674583 1575.28735012 -1458.96118444 1571.59954992 -1458.95565809 1567.91174966 C-1458.90391152 1533.39609158 -1458.84114298 1498.88046179 -1458.7727164 1464.36483314 C-1458.71206791 1433.74721924 -1458.65882826 1403.12960187 -1458.61254883 1372.51196289 C-1458.60957204 1370.54444088 -1458.60659524 1368.57691888 -1458.60361841 1366.60939687 C-1458.60214716 1365.63665527 -1458.60067592 1364.66391367 -1458.59916009 1363.66169505 C-1458.59175177 1358.76429814 -1458.58433463 1353.86690124 -1458.57690716 1348.96950436 C-1458.57544287 1348.00316609 -1458.57397858 1347.03682782 -1458.57246992 1346.04120658 C-1458.53353471 1320.39475941 -1458.48981541 1294.74832051 -1458.44446212 1269.10188395 C-1458.44204077 1267.73250693 -1458.44204077 1267.73250693 -1458.4395705 1266.33546574 C-1458.43307723 1262.6650755 -1458.42658245 1258.99468527 -1458.42006136 1255.32429509 C-1458.39745624 1242.59167321 -1458.37639106 1229.85904965 -1458.35632308 1217.12642354 C-1458.33043309 1200.71968276 -1458.30119963 1184.31295316 -1458.26635798 1167.90622877 C-1458.2480459 1159.24351492 -1458.23228703 1150.5808059 -1458.22036203 1141.91808085 C-1458.21210138 1136.11676739 -1458.2002742 1130.31546793 -1458.1856606 1124.51416702 C-1458.17745304 1121.21931078 -1458.17119373 1117.92448473 -1458.16819557 1114.62961745 C-1458.14857442 1094.6324212 -1457.90237009 1074.7279999 -1455.46875 1054.859375 C-1455.08986738 1051.73990807 -1454.77215984 1048.62983819 -1454.5 1045.5 C-1454.11418735 1041.52003795 -1453.36737183 1037.68176844 -1452.53515625 1033.7734375 C-1451.68618925 1029.37368152 -1451.13708354 1024.93494952 -1450.5625 1020.4921875 C-1450.05105458 1017.31696384 -1449.35355357 1014.24986868 -1448.54443359 1011.13867188 C-1447.97159402 1008.88841418 -1447.45940713 1006.63026991 -1446.95703125 1004.36328125 C-1444.2740505 992.43852909 -1440.8304838 980.96857225 -1436.81201172 969.43041992 C-1435.9663332 966.89923241 -1435.21164151 964.35215842 -1434.46875 961.7890625 C-1433.31173003 957.8752537 -1431.89806792 954.24760603 -1430.125 950.5625 C-1429.33996094 948.90927734 -1429.33996094 948.90927734 -1428.5390625 947.22265625 C-1428.03117187 946.15917969 -1427.52328125 945.09570312 -1427 944 C-1426.16188575 942.16884734 -1425.32829745 940.33561403 -1424.5 938.5 C-1421.69720092 932.3192346 -1418.84954418 926.15932401 -1416 920 C-1415.34 920 -1414.68 920 -1414 920 C-1413.93167969 919.33484375 -1413.86335938 918.6696875 -1413.79296875 917.984375 C-1412.70541233 913.89130553 -1410.60380612 910.78018593 -1408.3125 907.25 C-1407.85407715 906.53263672 -1407.3956543 905.81527344 -1406.92333984 905.07617188 C-1405.62259348 903.04614254 -1404.31170877 901.02295354 -1403 899 C-1402.48050781 898.18015625 -1401.96101563 897.3603125 -1401.42578125 896.515625 C-1396.8436855 889.41544059 -1391.63154913 882.73483574 -1386.515625 876.01513672 C-1385.44818414 874.59589431 -1384.39755558 873.16392907 -1383.359375 871.72314453 C-1382.82828125 870.9907959 -1382.2971875 870.25844727 -1381.75 869.50390625 C-1381.27046875 868.83302979 -1380.7909375 868.16215332 -1380.296875 867.47094727 C-1379.86890625 866.98553467 -1379.4409375 866.50012207 -1379 866 C-1378.34 866 -1377.68 866 -1377 866 C-1376.67515625 865.19949219 -1376.67515625 865.19949219 -1376.34375 864.3828125 C-1374.5105236 861.13203313 -1372.04516857 858.57184632 -1369.5 855.875 C-1368.70021729 855.01938477 -1368.70021729 855.01938477 -1367.88427734 854.14648438 C-1353.63019233 838.97264425 -1353.63019233 838.97264425 -1347 834 C-1346.34 834 -1345.68 834 -1345 834 C-1345 833.34 -1345 832.68 -1345 832 C-1342.74592092 830.04018712 -1340.4867439 828.19599236 -1338.125 826.375 C-1337.47402344 825.859375 -1336.82304688 825.34375 -1336.15234375 824.8125 C-1331.26064401 821 -1331.26064401 821 -1329 821 C-1329 820.34 -1329 819.68 -1329 819 C-1327.48828125 817.80859375 -1327.48828125 817.80859375 -1325.3125 816.4375 C-1322.63554616 814.7212934 -1319.99772747 812.99835414 -1317.421875 811.1328125 C-1305.88898401 802.78249525 -1293.39540297 795.97076773 -1281 789 C-1279.80963135 788.32710937 -1279.80963135 788.32710937 -1278.59521484 787.640625 C-1270.77321711 783.24109499 -1262.83874929 779.56789301 -1254.46875 776.359375 C-1251.4954676 775.19416974 -1248.63228308 773.93247406 -1245.75 772.5625 C-1230.10944457 765.38247894 -1213.59020724 760.61240816 -1197.08203125 755.88720703 C-1194.4449288 755.12807916 -1191.81518798 754.3495007 -1189.1875 753.55859375 C-1177.28340558 750.03145466 -1165.1692539 747.75363449 -1152.96142578 745.5390625 C-1150.43915862 745.07993918 -1147.92033 744.60688949 -1145.40234375 744.125 C-1137.3045476 742.59925846 -1129.17211042 741.42909311 -1121 740.375 C-1120.06333496 740.2517334 -1119.12666992 740.1284668 -1118.16162109 740.00146484 C-1100.35948983 737.79564806 -1082.54196418 737.84768229 -1064.63395908 737.84899596 C-1060.91546237 737.8481587 -1057.1969749 737.84154141 -1053.47848332 737.83568525 C-1046.97583627 737.82621926 -1040.4731939 737.82034315 -1033.970541 737.81687737 C-1024.30110842 737.81170058 -1014.63168795 737.80083597 -1004.96226177 737.78879793 C-988.69134452 737.7686806 -972.4204259 737.7529648 -956.1495018 737.73963928 C-933.93537653 737.72138642 -911.72126172 737.69668047 -889.50714482 737.67026538 C-879.15094333 737.65795915 -868.79474146 737.64596689 -858.43853951 737.63405609 C-856.8837081 737.63226731 -856.8837081 737.63226731 -855.29746595 737.63044238 C-830.64785718 737.60215652 -805.99824541 737.57694166 -781.34863281 737.55224609 C-780.27059624 737.5511649 -779.19255967 737.5500837 -778.08185532 737.54896974 C-760.58334394 737.53142425 -743.08483237 737.51406538 -725.58632076 737.49674475 C-709.1734325 737.48049867 -692.76054431 737.46419172 -676.34765625 737.44775391 C-675.2686831 737.44667444 -674.18970995 737.44559497 -673.07804065 737.4444828 C-648.44986838 737.41982657 -623.82169746 737.39428509 -599.19352913 737.36594391 C-598.1589075 737.36475366 -597.12428587 737.36356341 -596.05831207 737.36233709 C-585.73059716 737.35043541 -575.40288245 737.33837754 -565.07516799 737.32608688 C-542.88158403 737.2997092 -520.68800189 737.2760593 -498.49440957 737.25791349 C-482.32616403 737.24465255 -466.15792506 737.22801089 -449.98968665 737.20781839 C-440.3796295 737.19593629 -430.76957902 737.18687431 -421.15951583 737.18177242 C-414.74538397 737.17810001 -408.33126265 737.17085821 -401.91713782 737.1606881 C-398.25971821 737.15499497 -394.60231552 737.15089356 -390.94489108 737.15115923 C-387.0087269 737.15141172 -383.07259841 737.14402813 -379.13644218 737.13587189 C-377.42658927 737.13783466 -377.42658927 737.13783466 -375.68219388 737.13983709 C-370.33807824 737.12241771 -365.26633171 736.90870334 -360 736 C-357.81170255 735.82133999 -355.62131384 735.66683434 -353.4296875 735.53515625 C-351.58890625 735.41817383 -351.58890625 735.41817383 -349.7109375 735.29882812 C-347.17723327 735.14272924 -344.64337948 734.98903716 -342.109375 734.83789062 C-334.95885877 734.37885435 -327.95968728 733.63304069 -320.88916016 732.47045898 C-315.9203728 731.66136204 -310.92294357 731.13405069 -305.921875 730.5625 C-302.34635042 730.04967576 -298.90314482 729.35713674 -295.38867188 728.54443359 C-292.89862826 727.97689503 -290.40174943 727.46267021 -287.8984375 726.95703125 C-274.8767651 724.2799421 -262.24871398 720.86014154 -249.58813477 716.81396484 C-246.96596592 715.98929633 -244.33311352 715.21053419 -241.6953125 714.4375 C-238.08937826 713.36164156 -234.64070335 712.13166852 -231.1875 710.625 C-227.07621661 708.86002866 -222.94981233 707.22933469 -218.75 705.6875 C-211.65816171 702.9866562 -204.96960691 699.61615805 -198.23632812 696.13818359 C-196.57577771 695.2930432 -194.90633657 694.46532439 -193.23242188 693.64697266 C-186.14391581 690.17268708 -179.34962462 686.38234482 -172.625 682.25 C-171.62331787 681.63584229 -170.62163574 681.02168457 -169.58959961 680.38891602 C-150.88277376 668.82159263 -132.42843062 655.26191941 -117.30078125 639.1953125 C-116 638 -116 638 -114 638 C-113.67 637.01 -113.34 636.02 -113 635 C-112.34 635 -111.68 635 -111 635 C-110.74347656 634.41347656 -110.48695312 633.82695313 -110.22265625 633.22265625 C-108.88826104 630.79687071 -107.45514672 629.32471299 -105.4375 627.4375 C-100.51360989 622.62853013 -96.2907307 617.37185969 -92 612 C-91.03903721 610.8283787 -90.07673817 609.65785243 -89.11328125 608.48828125 C-82.15900247 599.99907937 -75.90460669 591.24496748 -70 582 C-69.58508301 581.35949707 -69.17016602 580.71899414 -68.74267578 580.05908203 C-62.22873374 569.99891087 -56.45299928 559.66855564 -51 549 C-50.18402344 547.42798828 -50.18402344 547.42798828 -49.3515625 545.82421875 C-45.20047978 537.70874222 -41.56151779 529.3864898 -38 521 C-37.54077148 519.92081299 -37.54077148 519.92081299 -37.07226562 518.81982422 C-33.32936555 509.98634464 -29.89300485 501.15439093 -27 492 C-26.48162099 490.45750635 -25.96093725 488.91578451 -25.4375 487.375 C-24.15178094 483.52479264 -22.9802773 479.64666501 -21.84375 475.75 C-21.36484955 474.18913927 -20.87055033 472.63230834 -20.32836914 471.09228516 C-18.17742556 464.9433846 -16.75308896 458.74958879 -15.4375 452.375 C-14.14366703 446.17421535 -12.74179038 440.0925286 -11 434 C-10.62844204 431.90224569 -10.29429373 429.79748096 -10 427.6875 C-9.0785599 421.39579185 -7.95197991 415.17506947 -6.53821182 408.97474957 C2.40319517 368.06678447 -0.38622236 324.05769265 -0.39230366 282.43936 C-0.39295436 272.62302426 -0.37071124 262.80677416 -0.34752855 252.99047057 C-0.30679011 235.49552492 -0.28322293 218.0006024 -0.27099609 200.50561523 C-0.25910562 183.54628284 -0.23879102 166.58699374 -0.20751953 149.62768555 C-0.20461538 148.05036374 -0.20461538 148.05036374 -0.20165256 146.44117685 C-0.19188557 141.16402578 -0.1819569 135.88687502 -0.17194796 130.6097244 C-0.08958191 87.07317065 -0.03531008 43.5366157 0 0 Z M-431 1651 C-431.72960938 1651.30679688 -432.45921875 1651.61359375 -433.2109375 1651.9296875 C-439.36220513 1654.54127832 -445.19319131 1657.70067688 -451 1661 C-451.93328125 1661.51433594 -452.8665625 1662.02867188 -453.828125 1662.55859375 C-454.54484375 1663.03425781 -455.2615625 1663.50992188 -456 1664 C-456 1664.66 -456 1665.32 -456 1666 C-456.7425 1666.268125 -457.485 1666.53625 -458.25 1666.8125 C-460.89061949 1667.95276751 -462.85552844 1669.09380306 -465 1671 C-465 1671.66 -465 1672.32 -465 1673 C-465.57621094 1673.25394531 -466.15242188 1673.50789063 -466.74609375 1673.76953125 C-477.95094853 1679.88656635 -487.20700609 1694.84612361 -493 1706 C-493 1706.99 -493 1707.98 -493 1709 C-493.66 1709 -494.32 1709 -495 1709 C-495.40992187 1710.09699219 -495.81984375 1711.19398437 -496.2421875 1712.32421875 C-496.78642886 1713.77865686 -497.33070133 1715.23308333 -497.875 1716.6875 C-498.14441406 1717.40873047 -498.41382812 1718.12996094 -498.69140625 1718.87304688 C-499.79094049 1721.80960784 -500.88934753 1724.73498536 -502.09765625 1727.62890625 C-503.17715053 1730.46549945 -503.88036688 1733.29289936 -504.5625 1736.25 C-504.81128906 1737.30703125 -505.06007813 1738.3640625 -505.31640625 1739.453125 C-511.4507093 1771.28139456 -505.55859079 1804.72158099 -488 1832 C-481.75505895 1840.86072461 -474.40048609 1850.07969109 -466 1857 C-465.34 1857 -464.68 1857 -464 1857 C-464 1857.66 -464 1858.32 -464 1859 C-462.35 1859.66 -460.7 1860.32 -459 1861 C-459 1861.66 -459 1862.32 -459 1863 C-457.43709279 1864.26040921 -457.43709279 1864.26040921 -455.37890625 1865.4609375 C-454.22165039 1866.16863281 -454.22165039 1866.16863281 -453.04101562 1866.890625 C-451.81415039 1867.62539062 -451.81415039 1867.62539062 -450.5625 1868.375 C-449.77939453 1868.85710937 -448.99628906 1869.33921875 -448.18945312 1869.8359375 C-418.93806598 1887.5552963 -385.88417568 1890.55127108 -353 1883 C-346.51292406 1881.34947088 -340.66848466 1879.11129826 -334.75 1876 C-334.08226563 1875.65710937 -333.41453125 1875.31421875 -332.7265625 1874.9609375 C-331.41780637 1874.28859612 -330.1112445 1873.61196286 -328.80712891 1872.93066406 C-327.20249706 1872.10428516 -325.5752139 1871.32222452 -323.9453125 1870.546875 C-320.44863573 1868.71042407 -317.31869996 1866.56374024 -314.125 1864.25 C-313.21016846 1863.59064453 -313.21016846 1863.59064453 -312.27685547 1862.91796875 C-305.26503686 1857.89009347 -305.26503686 1857.89009347 -299 1852 C-299 1851.34 -299 1850.68 -299 1850 C-298.01 1849.67 -297.02 1849.34 -296 1849 C-290.6048888 1843.42071834 -286.16460113 1836.98647227 -281.9375 1830.5 C-281.54353027 1829.90098877 -281.14956055 1829.30197754 -280.74365234 1828.68481445 C-278.48488743 1825.1334812 -278.48488743 1825.1334812 -278 1821 C-277.34 1821 -276.68 1821 -276 1821 C-272.82716114 1813.78309193 -270.12203651 1806.57185164 -267.89453125 1799.0078125 C-267.30506624 1797.02576859 -266.65736851 1795.05999243 -265.94921875 1793.1171875 C-264.0564745 1786.90150885 -263.83723196 1780.51553113 -263.796875 1774.0546875 C-263.79117493 1773.32234894 -263.78547485 1772.59001038 -263.77960205 1771.83547974 C-263.77022176 1770.29430554 -263.76364611 1768.75311192 -263.75976562 1767.21191406 C-263.75010998 1764.9013193 -263.71904109 1762.59163509 -263.6875 1760.28125 C-263.59744539 1747.54824438 -265.56647834 1736.00352406 -270 1724 C-270.61875 1722.1746875 -270.61875 1722.1746875 -271.25 1720.3125 C-283.10098331 1689.32711656 -306.90076128 1665.46995404 -337 1652 C-352.91770957 1645.10899156 -368.08037508 1642.42125116 -385.3125 1642.5625 C-386.46079788 1642.56606506 -386.46079788 1642.56606506 -387.6322937 1642.56970215 C-403.04506006 1642.64453605 -416.84661886 1644.46371126 -431 1651 Z " fill="#FFD242" transform="translate(2858,1381)"/>
<path d="M0 0 C1.25127906 3.54667178 0.72285053 5.72253438 -0.4375 9.25 C-0.72496094 10.14203125 -1.01242187 11.0340625 -1.30859375 11.953125 C-1.53675781 12.62859375 -1.76492188 13.3040625 -2 14 C-2.66 13.67 -3.32 13.34 -4 13 C-3.71682074 11.39431334 -3.42312209 9.79047953 -3.125 8.1875 C-2.96257813 7.29417969 -2.80015625 6.40085937 -2.6328125 5.48046875 C-2 3 -2 3 0 0 Z " fill="#3260BC" transform="translate(701,1777)"/>
<path d="M0 0 C0.66 0.33 1.32 0.66 2 1 C1.25 2.9375 1.25 2.9375 0 5 C-2.125 5.75 -2.125 5.75 -4 6 C-2.84826645 3.53199953 -1.95216435 1.95216435 0 0 Z " fill="#346BB9" transform="translate(827,1526)"/>
</svg>
