<?xml version="1.0" encoding="UTF-8"?>
<svg version="1.1" xmlns="http://www.w3.org/2000/svg" width="225" height="225">
<path d="M0 0 C74.25 0 148.5 0 225 0 C225 74.25 225 148.5 225 225 C150.75 225 76.5 225 0 225 C0 150.75 0 76.5 0 0 Z " fill="#F03E2F" transform="translate(0,0)"/>
<path d="M0 0 C7.80953612 7.12280799 12.8722071 16.49578937 14 27 C9.98060937 27.22363929 5.96365228 27.38628486 1.93945312 27.49438477 C0.57325144 27.53946167 -0.7925203 27.6007517 -2.15722656 27.67895508 C-6.56803187 27.92525187 -10.68221175 27.98858784 -15 27 C-17.3400092 24.8821068 -18.54907294 23.01649418 -19.91748047 20.18701172 C-21.9517462 16.07718934 -25.61048032 14.55018554 -29.703125 12.9296875 C-37.5471118 10.71775757 -47.14174528 10.60519083 -54.625 14.0625 C-59.87588898 17.2271772 -63.99668249 20.66859624 -65.8046875 26.671875 C-66.30828066 29.11395692 -66.67559424 31.52948135 -67 34 C-57.17028805 39.11431646 -47.69379084 41.82219801 -36.9375 44.125 C-9.77089858 50.05845105 -9.77089858 50.05845105 2 58 C2.9075 58.598125 3.815 59.19625 4.75 59.8125 C11.80347344 66.67004362 15.20966236 74.35977912 15.37988281 84.13232422 C15.37827148 84.99615723 15.37666016 85.85999023 15.375 86.75 C15.37338867 87.64090332 15.37177734 88.53180664 15.37011719 89.44970703 C15.24797649 95.99141936 14.39566671 101.30138978 11 107 C10.401875 108.051875 9.80375 109.10375 9.1875 110.1875 C0.83340335 120.92848141 -7.95659285 125.48035045 -21 129 C-21.60424805 129.17724609 -22.20849609 129.35449219 -22.83105469 129.53710938 C-27.6172018 130.55855635 -32.62658996 130.22819503 -37.5 130.25 C-38.62148437 130.270625 -39.74296875 130.29125 -40.8984375 130.3125 C-51.53786463 130.36164285 -61.32849068 128.5776306 -70.6875 123.375 C-71.31978516 123.0258252 -71.95207031 122.67665039 -72.60351562 122.31689453 C-83.46466581 116.06645268 -89.40205122 107.50124029 -94 96 C-94.66 93.36 -95.32 90.72 -96 88 C-85.77 88 -75.54 88 -65 88 C-63.68 90.64 -62.36 93.28 -61 96 C-56.87289354 101.11118537 -51.41525608 103.93664933 -45 105 C-35.85385935 105.85875977 -26.95146745 106.17476453 -19 101 C-18.071875 100.443125 -17.14375 99.88625 -16.1875 99.3125 C-12.28605332 95.18811351 -10.07692706 90.39898471 -9.89453125 84.7109375 C-9.92933594 83.81632812 -9.96414062 82.92171875 -10 82 C-23.117943 74.90752364 -38.21877278 71.96395106 -52.6875 68.875 C-65.84311021 66.02399665 -78.32390969 62.10996582 -86.5 50.5625 C-92.33304315 40.63283985 -93.82365777 30.25282416 -91.30859375 18.87109375 C-87.64697434 7.85559435 -79.97180203 -1.0510595 -69.8828125 -6.765625 C-47.59222715 -17.57000284 -19.69369808 -15.53814711 0 0 Z " fill="#FEFCFC" transform="translate(153,53)"/>
<path d="M0 0 C8.27517423 4.92569895 13.06823382 11.15101083 15.6875 20.4375 C15.790625 21.283125 15.89375 22.12875 16 23 C16.165 24.27875 16.33 25.5575 16.5 26.875 C16.44578346 30.47362284 15.47600612 32.10457543 13 34.6875 C11.69812352 35.82858695 10.36396922 36.93390912 9 38 C8.40960938 38.4640625 7.81921875 38.928125 7.2109375 39.40625 C1.40342853 43.45914987 -5.22955519 45.17305458 -12 47 C-12.60424805 47.17724609 -13.20849609 47.35449219 -13.83105469 47.53710938 C-18.6172018 48.55855635 -23.62658996 48.22819503 -28.5 48.25 C-29.62148437 48.270625 -30.74296875 48.29125 -31.8984375 48.3125 C-42.53786463 48.36164285 -52.32849068 46.5776306 -61.6875 41.375 C-62.63592773 40.85123779 -62.63592773 40.85123779 -63.60351562 40.31689453 C-74.46466581 34.06645268 -80.40205122 25.50124029 -85 14 C-85.66 11.36 -86.32 8.72 -87 6 C-76.77 6 -66.54 6 -56 6 C-54.68 8.64 -53.36 11.28 -52 14 C-47.87289354 19.11118537 -42.41525608 21.93664933 -36 23 C-26.85385935 23.85875977 -17.95146745 24.17476453 -10 19 C-9.071875 18.443125 -8.14375 17.88625 -7.1875 17.3125 C-2.71097975 12.58017859 -0.65873583 6.42267431 0 0 Z " fill="#F8AFA9" transform="translate(144,135)"/>
<path d="M0 0 C7.80953612 7.12280799 12.8722071 16.49578937 14 27 C9.98060937 27.22363929 5.96365228 27.38628486 1.93945312 27.49438477 C0.57325144 27.53946167 -0.7925203 27.6007517 -2.15722656 27.67895508 C-6.56803187 27.92525187 -10.68221175 27.98858784 -15 27 C-17.3400092 24.8821068 -18.54907294 23.01649418 -19.91748047 20.18701172 C-21.9517462 16.07718934 -25.61048032 14.55018554 -29.703125 12.9296875 C-37.5471118 10.71775757 -47.14174528 10.60519083 -54.625 14.0625 C-62.11657916 18.57003839 -65.3789756 23.66834845 -67.5546875 32.05859375 C-67.70164062 32.69925781 -67.84859375 33.33992188 -68 34 C-78.17400075 27.94404717 -81.81749088 20.15842694 -84.8203125 8.93359375 C-85 6 -85 6 -83.69140625 3.7265625 C-61.49350367 -18.1862294 -24.37303262 -19.23009913 0 0 Z " fill="#F8B0AA" transform="translate(153,53)"/>
</svg>
