<?xml version="1.0" encoding="UTF-8"?>
<svg version="1.1" xmlns="http://www.w3.org/2000/svg" width="1400" height="980">
<path d="M0 0 C3.80225703 0.11559802 7.60465124 0.2263128 11.40705109 0.33709812 C53.03261787 1.55066686 94.64130396 3.02794644 136.23332214 5.10261536 C148.56720883 5.71656094 160.87807356 6.22811079 173.22477722 6.45783997 C208.43522941 7.24507043 243.92966721 10.7885756 278.91227722 14.70783997 C280.22657715 14.85485352 280.22657715 14.85485352 281.56742859 15.00483704 C291.92638344 16.17677615 302.25032283 17.53948284 312.56393433 19.06004333 C317.61080587 19.80129144 322.65125306 20.42813196 327.72477722 20.95783997 C342.85306648 22.81028355 358.42204477 26.55027255 372.41227722 32.64533997 C374.96131654 33.75152684 377.33300709 34.59395643 379.97477722 35.39533997 C385.62164116 37.23608339 390.60431153 40.11224356 395.72477722 43.08283997 C396.56137878 43.55850403 397.39798035 44.03416809 398.25993347 44.52424622 C421.50216325 58.04231013 442.39596662 77.25883122 456.72477722 100.08283997 C457.38606628 101.11666809 458.04735535 102.15049622 458.72868347 103.21565247 C462.06979308 108.51958705 465.27387507 113.73237104 467.67008972 119.53205872 C468.80028 122.26544484 470.0200878 124.95341374 471.23918152 127.64802551 C476.0147748 138.30438112 480.10122099 148.96050965 482.15055847 160.50080872 C482.40635513 161.91362454 482.66339395 163.32621591 482.92155457 164.73860168 C483.11850922 165.81691254 483.11850922 165.81691254 483.31944275 166.91700745 C483.97212319 170.40448908 484.68898177 173.87813972 485.40837097 177.35237122 C490.82217399 203.62375038 494.80816677 229.7411751 497.1328125 256.4808197 C497.59826749 261.78511622 498.11847101 267.08252448 498.65837097 272.37971497 C500.79749732 293.52787489 502.4830388 314.6870344 503.91227722 335.89533997 C503.99686188 337.14529755 504.08144653 338.39525513 504.16859436 339.68309021 C504.41331595 343.32263857 504.65405156 346.96242293 504.89274597 350.60237122 C504.96237549 351.65122498 505.032005 352.70007874 505.10374451 353.78071594 C506.21275859 371.02341056 506.876592 388.21954545 506.90177917 405.49739075 C506.90807083 407.44101576 506.91471982 409.38463964 506.92169189 411.32826233 C506.94247215 417.6448843 506.95309256 423.96150572 506.96305847 430.27815247 C506.96712033 432.49218124 506.97123759 434.70620992 506.97540855 436.92023849 C506.99442932 447.36996353 507.00864835 457.81968179 507.01702052 468.26942074 C507.02573045 478.95127296 507.04482834 489.63297881 507.08146667 500.31477356 C507.26065107 553.70862755 507.15835777 606.84198394 502.72477722 660.08283997 C502.67105831 660.72990701 502.6173394 661.37697406 502.56199265 662.0436492 C500.77151642 683.58857049 498.97766656 705.13974483 496.36480713 726.60313416 C495.85369121 730.83820716 495.47224042 735.05989882 495.19425964 739.31550598 C493.50818456 763.66788439 488.78572136 788.51055461 482.69743347 812.12580872 C481.84062306 815.47028579 481.2903681 818.78050668 480.84977722 822.20783997 C477.97779977 840.80982234 468.14779052 862.29684708 456.72477722 877.08283997 C455.75618487 878.5553092 454.79785776 880.03458087 453.84977722 881.52033997 C444.60282523 895.42736538 432.92529871 907.91487071 419.72477722 918.08283997 C418.63523365 918.94876832 417.54672767 919.8160035 416.45915222 920.68440247 C411.16715366 924.8770151 405.9167076 928.82941151 399.89665222 931.93830872 C397.44818954 933.22859571 395.13315226 934.67734674 392.78727722 936.14533997 C387.92020418 939.06855152 383.04028444 941.12197805 377.72477722 943.08283997 C376.39856849 943.61106404 375.07311013 944.14117415 373.74821472 944.67268372 C354.20643837 952.36998655 334.18837465 956.432326 313.36442566 958.67024231 C309.28249522 959.13297792 305.21163997 959.66001159 301.13883972 960.19612122 C272.00010152 963.99388364 242.76462699 966.52211198 213.47645569 968.86280823 C211.83401984 968.99414189 210.19167182 969.12659292 208.54951477 969.2613678 C198.28621894 970.10222589 188.00807194 970.46438932 177.71961975 970.84111023 C160.91922091 971.45735632 144.12373608 972.14059026 127.33133507 972.94647408 C112.79340312 973.6409495 98.25265235 974.26412983 83.71091843 974.87321663 C80.48167761 975.00855313 77.25253023 975.14582713 74.02345657 975.28509331 C-7.94044 978.80797359 -89.92582176 978.54869168 -171.94688422 978.47122399 C-186.41890421 978.45782431 -200.89085057 978.46028341 -215.36286926 978.47395325 C-383.65454123 978.62845995 -383.65454123 978.62845995 -464.27522278 975.08283997 C-465.72447454 975.01927897 -465.72447454 975.01927897 -467.20300412 974.95443392 C-487.72373694 974.05240432 -508.24205118 973.10861333 -528.75612652 972.06568265 C-540.43167025 971.47364114 -552.09924105 970.96921429 -563.78582954 970.65940475 C-579.74974758 970.23391943 -595.61396077 969.16990172 -611.52522278 967.83283997 C-612.86233886 967.72265112 -614.19947708 967.61273051 -615.53663635 967.50306702 C-633.01711398 966.06615397 -650.47332231 964.44981908 -667.90022278 962.45783997 C-668.76022888 962.35983093 -669.62023499 962.2618219 -670.50630188 962.1608429 C-680.52588345 961.0062892 -690.50412808 959.65495137 -700.4697113 958.10014343 C-705.31540009 957.34863873 -710.14504765 956.75077695 -715.02522278 956.27033997 C-731.38259112 954.26502936 -747.20745743 949.66852231 -762.27522278 943.08283997 C-763.01603088 942.80319397 -763.75683899 942.52354797 -764.52009583 942.23542786 C-771.20787451 939.7043649 -777.21310892 936.44510828 -783.33772278 932.77033997 C-784.73087708 931.9553302 -784.73087708 931.9553302 -786.1521759 931.12385559 C-793.03208067 927.03453676 -799.71927389 922.66976402 -805.37727356 916.96247864 C-807.22259648 914.97595101 -807.22259648 914.97595101 -809.70881653 913.67658997 C-812.86132943 911.71886506 -814.90624009 909.37885715 -817.33772278 906.58283997 C-820.70455609 902.69804462 -820.70455609 902.69804462 -824.58381653 899.36408997 C-825.14198059 898.94127747 -825.70014465 898.51846497 -826.27522278 898.08283997 C-826.27522278 897.42283997 -826.27522278 896.76283997 -826.27522278 896.08283997 C-826.93522278 896.08283997 -827.59522278 896.08283997 -828.27522278 896.08283997 C-830.3110726 893.78429984 -832.04005896 891.48597794 -833.58772278 888.83283997 C-835.13558304 886.31040103 -836.79922755 884.13558997 -838.65022278 881.83283997 C-842.08256893 877.45659862 -844.70802411 873.00272744 -847.27522278 868.08283997 C-847.99643373 866.75002563 -848.71923519 865.41807132 -849.44319153 864.08674622 C-850.24186019 862.6065426 -851.04003237 861.126071 -851.83772278 859.64533997 C-852.2139679 858.95375793 -852.59021301 858.2621759 -852.9778595 857.54963684 C-867.89986235 829.57660563 -873.43193206 794.14654581 -876.83137512 762.8865509 C-877.36771264 758.29021507 -877.98474007 753.70723016 -878.60725403 749.12190247 C-884.57629237 704.89315398 -888.53581999 660.63044803 -889.97262573 616.02130127 C-890.29898738 605.97228221 -890.75279924 595.92996752 -891.20487976 585.88597107 C-891.58688863 577.28598873 -891.93509388 568.68456857 -892.27522278 560.08283997 C-892.30658325 559.29415527 -892.33794373 558.50547058 -892.37025452 557.69288635 C-894.88914481 493.46377348 -893.57996897 428.92026213 -889.94880676 364.76130676 C-889.51297717 357.04014621 -889.18715455 349.33250847 -889.03645325 341.59944153 C-888.09136245 297.32412824 -883.26329101 252.0835019 -875.66218567 208.45539856 C-875.13766685 205.23945289 -874.86570762 202.01590329 -874.58772278 198.77033997 C-872.68731914 180.52646502 -867.81563286 161.84254364 -862.31037903 144.37971497 C-861.68994085 142.40367789 -861.10268137 140.41606979 -860.58381653 138.41096497 C-858.60408821 130.7908786 -854.94306697 123.99886237 -851.3084259 117.05940247 C-850.3522134 115.23012636 -849.41445161 113.39123749 -848.47834778 111.55158997 C-844.72584286 104.32199332 -840.64955518 97.24787875 -835.27522278 91.08283997 C-834.61522278 91.08283997 -833.95522278 91.08283997 -833.27522278 91.08283997 C-832.99678528 89.84533997 -832.99678528 89.84533997 -832.71272278 88.58283997 C-829.98439444 81.93995357 -824.8614818 77.4277081 -819.27522278 73.08283997 C-818.43991028 71.96908997 -818.43991028 71.96908997 -817.58772278 70.83283997 C-817.15459778 70.25533997 -816.72147278 69.67783997 -816.27522278 69.08283997 C-815.61522278 69.08283997 -814.95522278 69.08283997 -814.27522278 69.08283997 C-814.27522278 68.42283997 -814.27522278 67.76283997 -814.27522278 67.08283997 C-812.59553528 65.57502747 -812.59553528 65.57502747 -810.40022278 63.95783997 C-809.6809259 63.41901184 -808.96162903 62.88018372 -808.22053528 62.32502747 C-806.27522278 61.08283997 -806.27522278 61.08283997 -804.27522278 61.08283997 C-804.07412903 60.51565247 -803.87303528 59.94846497 -803.66584778 59.36408997 C-801.74167536 56.20758241 -799.06911743 54.54892137 -796.02522278 52.58283997 C-795.36683411 52.15559631 -794.70844543 51.72835266 -794.03010559 51.28816223 C-791.79273919 49.86198221 -789.53852643 48.46747677 -787.27522278 47.08283997 C-786.07446106 46.34589905 -786.07446106 46.34589905 -784.84944153 45.59407043 C-757.34552517 29.00296381 -726.72722411 21.88688238 -695.09992981 18.5115509 C-690.88016391 18.03855787 -686.67025129 17.50684287 -682.45881653 16.96565247 C-660.8778833 14.21961358 -639.26749682 12.11313838 -617.58772278 10.33283997 C-616.28886139 10.22610962 -614.99 10.11937927 -613.65177917 10.00941467 C-605.5278629 9.34598842 -597.4024858 8.70388611 -589.27522278 8.08283997 C-588.13160782 7.99446869 -588.13160782 7.99446869 -586.96488953 7.90431213 C-576.2984315 7.09046277 -565.6179551 6.71055511 -554.9294281 6.32429504 C-538.47695251 5.72866251 -522.02697703 5.08562079 -505.57991028 4.35627747 C-504.51688973 4.30917727 -504.51688973 4.30917727 -503.43239403 4.26112556 C-501.98968018 4.19720037 -500.54696644 4.1332727 -499.10425282 4.06934261 C-464.13443671 2.52019572 -429.16518343 1.17822047 -394.17220974 0.26688004 C-388.70361603 0.12340331 -383.23550907 -0.03386952 -377.76741028 -0.19499207 C-281.74332298 -2.99831461 -185.56525332 -2.68870157 0 0 Z M-331.27522278 281.08283997 C-331.27522278 418.03283997 -331.27522278 554.98283997 -331.27522278 696.08283997 C-327.36584829 694.51909017 -323.71058479 692.85236362 -319.96272278 690.95783997 C-318.89408997 690.41901184 -317.82545715 689.88018372 -316.72444153 689.32502747 C-315.91619934 688.91510559 -315.10795715 688.50518372 -314.27522278 688.08283997 C-314.27522278 687.42283997 -314.27522278 686.76283997 -314.27522278 686.08283997 C-313.47084778 685.85596497 -312.66647278 685.62908997 -311.83772278 685.39533997 C-302.84033717 682.08051369 -294.70217165 676.36604991 -286.56037903 671.36799622 C-281.90043437 668.54053363 -277.35050311 666.07719131 -272.27522278 664.08283997 C-272.27522278 663.42283997 -272.27522278 662.76283997 -272.27522278 662.08283997 C-271.41670715 661.83276184 -270.55819153 661.58268372 -269.67366028 661.32502747 C-266.04382576 659.99826037 -263.14954583 658.29275669 -259.90022278 656.20783997 C-256.42907965 654.01101289 -252.99518755 651.83992971 -249.27522278 650.08283997 C-244.59916647 647.85197144 -240.29828217 645.03386195 -235.90803528 642.29377747 C-231.3842605 639.50589867 -226.73264539 636.95271067 -222.08674622 634.37580872 C-218.14142106 632.17358956 -214.30861106 629.8703519 -210.52522278 627.39533997 C-205.97585425 624.43485537 -201.28043414 622.05606734 -196.40022278 619.69221497 C-191.8607174 617.35436969 -187.59069647 614.65169355 -183.28303528 611.91487122 C-180.27522278 610.08283997 -180.27522278 610.08283997 -177.36897278 608.64533997 C-173.62689909 606.75540376 -170.17277209 604.53593309 -166.65022278 602.27033997 C-160.04578571 598.07351483 -153.37524657 594.39080559 -146.27522278 591.08283997 C-146.27522278 590.42283997 -146.27522278 589.76283997 -146.27522278 589.08283997 C-145.51209778 588.87658997 -144.74897278 588.67033997 -143.96272278 588.45783997 C-133.81821286 584.67514135 -124.73200098 578.33663568 -115.62458801 572.57771301 C-114.74875061 572.02768616 -113.87291321 571.4776593 -112.97053528 570.91096497 C-112.18694641 570.41499817 -111.40335754 569.91903137 -110.59602356 569.40803528 C-108.21411748 568.04794837 -105.82166651 567.0934801 -103.27522278 566.08283997 C-101.74060628 565.23482348 -100.22496489 564.35171824 -98.72834778 563.43830872 C-97.45991028 562.6697052 -97.45991028 562.6697052 -96.16584778 561.88557434 C-95.29444153 561.352547 -94.42303528 560.81951965 -93.52522278 560.27033997 C-87.86456398 556.82194165 -82.18821486 553.44746039 -76.3787384 550.25544739 C-73.16955221 548.46648252 -70.03709399 546.55733363 -66.90022278 544.64533997 C-62.53307298 542.00137605 -58.15291863 539.42967722 -53.65022278 537.02033997 C-48.44897931 534.23451075 -43.47008763 531.13813317 -38.46272278 528.02033997 C-34.74655583 525.76149339 -30.94653272 523.70799659 -27.11116028 521.66096497 C-22.71109019 519.21244112 -18.47213755 516.51233385 -14.22053528 513.81721497 C-11.59232504 512.26956862 -9.09487963 511.21070271 -6.27522278 510.08283997 C-4.10699825 508.82912315 -1.96231898 507.53414855 0.16227722 506.20783997 C1.25411316 505.52979309 2.3459491 504.85174622 3.47087097 504.15315247 C5.64365755 502.77070722 7.79638859 501.35623518 9.92790222 499.91096497 C12.48319978 498.24074254 14.95773014 497.1411111 17.77946472 496.00862122 C21.68901809 494.14805064 25.18686727 491.56178367 28.72477722 489.08283997 C22.45507029 483.79277474 15.67456223 479.9905141 8.32633972 476.41877747 C4.68038303 474.54652944 1.22508885 472.39870028 -2.24397278 470.21955872 C-4.17815871 468.92005735 -4.17815871 468.92005735 -6.27522278 469.08283997 C-6.27522278 468.42283997 -6.27522278 467.76283997 -6.27522278 467.08283997 C-7.49209778 466.58783997 -8.70897278 466.09283997 -9.96272278 465.58283997 C-15.11160863 463.29622296 -19.74576421 460.37903432 -24.50959778 457.38752747 C-28.91924741 454.65373705 -33.43339888 452.11190407 -37.96272278 449.58283997 C-39.14886169 448.91454163 -39.14886169 448.91454163 -40.35896301 448.23274231 C-41.09832092 447.82233704 -41.83767883 447.41193176 -42.59944153 446.98908997 C-43.26032776 446.62106262 -43.92121399 446.25303528 -44.60212708 445.87385559 C-46.26812951 444.94036572 -46.26812951 444.94036572 -48.27522278 445.08283997 C-48.27522278 444.42283997 -48.27522278 443.76283997 -48.27522278 443.08283997 C-49.31678528 442.54916809 -50.35834778 442.01549622 -51.43147278 441.46565247 C-59.76371317 437.15012996 -67.86742729 432.64093881 -75.74397278 427.53450012 C-79.49196115 425.1206926 -83.27933409 423.04093072 -87.28669739 421.08992004 C-90.55786802 419.43324984 -93.65495624 417.50460162 -96.77522278 415.58283997 C-102.47534413 412.09857734 -102.47534413 412.09857734 -108.40022278 409.02033997 C-111.73825399 407.42573907 -114.82490376 405.54247407 -117.96272278 403.58283997 C-124.78857594 399.32267634 -131.75882032 395.34034261 -138.76423645 391.38362122 C-143.42405151 388.74418544 -148.0174464 386.04482298 -152.52326965 383.14924622 C-154.29404057 382.07138566 -156.09014171 381.15751748 -157.96272278 380.27033997 C-161.5091371 378.54857982 -164.80908082 376.54972182 -168.15022278 374.45783997 C-173.51628396 371.10561527 -178.9761381 367.996298 -184.52522278 364.95783997 C-189.1479033 362.42628127 -193.70125121 359.92050664 -198.02522278 356.89533997 C-202.15233193 354.0112381 -206.59738975 351.87947117 -211.11506653 349.69197083 C-215.39223643 347.59571687 -219.24739574 345.20100685 -223.14241028 342.47737122 C-225.40961026 340.99497123 -227.71010131 339.819505 -230.15022278 338.64533997 C-233.80619821 336.88213456 -237.18694124 334.92402416 -240.58772278 332.70783997 C-244.52029421 330.14696715 -248.50065391 327.83747081 -252.65022278 325.64533997 C-257.13536553 323.2755305 -261.47412533 320.77232138 -265.77522278 318.08283997 C-270.03696529 315.4192509 -274.33261628 312.93229532 -278.77522278 310.58283997 C-284.27398322 307.67211887 -289.53930407 304.48748168 -294.81428528 301.19221497 C-299.30304176 298.42227924 -303.91541992 295.87448305 -308.52424622 293.31135559 C-313.07665759 290.77510696 -317.55156645 288.14245549 -321.96662903 285.37190247 C-324.94952011 283.70632876 -328.13505758 282.42862505 -331.27522278 281.08283997 Z " fill="#FFFFFF" transform="translate(893.2752227783203,1.9171600341796875)"/>
</svg>
